<svg width="81" height="81" viewBox="0 0 81 81" fill="none" xmlns="http://www.w3.org/2000/svg">
<g clip-path="url(#clip0_43_78)">
<path d="M40.5011 81.0021C62.8692 81.0021 81.0021 62.8692 81.0021 40.5011C81.0021 18.1329 62.8692 0 40.5011 0C18.1329 0 0 18.1329 0 40.5011C0 62.8692 18.1329 81.0021 40.5011 81.0021Z" fill="url(#paint0_linear_43_78)"/>
<path d="M27.4064 34.6512H17.5688C16.2244 34.6512 15.1346 35.7411 15.1346 37.0855V58.2435C15.1346 59.5879 16.2244 60.6777 17.5688 60.6777H27.4064C28.7508 60.6777 29.8406 59.5879 29.8406 58.2435V37.0855C29.8406 35.7411 28.7508 34.6512 27.4064 34.6512Z" stroke="white" stroke-width="2" stroke-linecap="round" stroke-linejoin="round"/>
<path d="M29.8406 37.6126L30.9613 36.4919C31.7092 35.7441 32.3434 34.8912 32.8427 33.9591L37.3533 25.5508C38.354 23.6865 38.7847 21.5716 38.5918 19.4652L38.039 13.3839C38.039 13.3839 42.9439 10.924 46.4495 17.1917C48.9351 21.6359 46.4495 29.9928 46.4495 29.9928H60.547C62.5483 29.9928 64.1704 31.6149 64.1704 33.6163C64.1704 35.6176 62.5483 37.2397 60.547 37.2397H59.197H61.4984C63.909 37.2397 65.8633 39.194 65.8633 41.6046C65.8633 44.0153 63.909 45.9695 61.4984 45.9695H59.4091H59.6213C61.5498 45.9695 63.1119 47.5316 63.1119 49.4601C63.1119 51.3886 61.5498 52.9507 59.6213 52.9507H57.0821H57.1356C58.9763 52.9507 60.4677 54.4421 60.4677 56.2828C60.4677 58.1235 58.9763 59.6148 57.1356 59.6148H39.2347C35.8491 59.6148 32.5534 58.5199 29.8406 56.4928V37.6083V37.6126Z" stroke="white" stroke-width="2" stroke-linecap="round" stroke-linejoin="round"/>
</g>
<defs>
<linearGradient id="paint0_linear_43_78" x1="40.5011" y1="81" x2="40.5011" y2="0" gradientUnits="userSpaceOnUse">
<stop stop-color="white"/>
<stop offset="1" stop-color="white" stop-opacity="0"/>
</linearGradient>
<clipPath id="clip0_43_78">
<rect width="81" height="81" fill="white"/>
</clipPath>
</defs>
</svg>
