<svg width="81" height="81" viewBox="0 0 81 81" fill="none" xmlns="http://www.w3.org/2000/svg">
<g clip-path="url(#clip0_43_100)">
<path d="M0 40.5C0 53.3337 5.96862 64.7734 15.2829 72.194C22.2017 77.7079 30.9669 81 40.5 81C50.0331 81 58.7984 77.7058 65.7171 72.194C75.0314 64.7734 81 53.3337 81 40.5C81 18.1332 62.8668 0 40.5 0C18.1332 0 0 18.1332 0 40.5Z" fill="url(#paint0_linear_43_100)"/>
<path d="M40.5 43.361C48.4904 43.361 54.9679 36.8834 54.9679 28.893C54.9679 20.9026 48.4904 14.425 40.5 14.425C32.5095 14.425 26.032 20.9026 26.032 28.893C26.032 36.8834 32.5095 43.361 40.5 43.361Z" stroke="white" stroke-width="2" stroke-linecap="round" stroke-linejoin="round"/>
<path d="M19.0704 63.5167C24.949 68.2028 32.3974 71.0016 40.5 71.0016C48.6026 71.0016 56.051 68.2028 61.9296 63.5167C59.1458 54.3203 50.6057 47.6246 40.5 47.6246C30.3943 47.6246 21.8542 54.3203 19.0704 63.5167Z" stroke="white" stroke-width="2" stroke-linecap="round" stroke-linejoin="round"/>
</g>
<defs>
<linearGradient id="paint0_linear_43_100" x1="40.5" y1="81" x2="40.5" y2="0" gradientUnits="userSpaceOnUse">
<stop stop-color="white"/>
<stop offset="1" stop-color="white" stop-opacity="0"/>
</linearGradient>
<clipPath id="clip0_43_100">
<rect width="81" height="81" fill="white"/>
</clipPath>
</defs>
</svg>
