<svg width="104" height="29" viewBox="0 0 104 29" fill="none" xmlns="http://www.w3.org/2000/svg">
<path fill-rule="evenodd" clip-rule="evenodd" d="M15.344 0.626734L24.352 5.40273C25.734 6.23273 27.028 7.19973 27.088 10.0497V12.3357H23.547V9.20973L13.58 3.85673L3.54 9.20973V12.3367H0V10.0497C0.054 7.21473 1.338 6.24173 2.711 5.41773L11.813 0.621734C12.3571 0.334431 12.9633 0.184679 13.5786 0.185551C14.1939 0.186422 14.8007 0.337891 15.344 0.626734ZM15.349 24.0457L23.542 19.4577V16.0397H27.082V18.3217C27.028 21.1717 25.73 22.1437 24.347 22.9687L15.344 27.7447C14.8006 28.0337 14.1946 28.1853 13.5791 28.1862C12.9636 28.1871 12.3573 28.0372 11.813 27.7497L2.71 22.9537C1.338 22.1287 0.06 21.1517 0 18.3217V16.0397H3.546V19.4577L11.813 24.0507V20.3407C8.929 19.6647 7.037 17.3237 7.037 14.1827C7.037 10.3807 9.665 7.82773 13.581 7.82773C17.497 7.82773 20.124 10.3807 20.124 14.1827C20.124 17.3187 18.228 19.6647 15.349 20.3417V24.0457ZM13.58 10.9537C11.48 10.9537 10.325 12.0987 10.325 14.1837C10.325 16.2077 11.54 17.4137 13.58 17.4137C15.62 17.4137 16.834 16.2037 16.834 14.1837C16.834 12.0987 15.679 10.9537 13.58 10.9537ZM89.015 6.49373H84.081L77.741 12.9937V3.28773H73.671V22.9377H77.741V18.0197L79.834 15.8757L85.356 22.9377H89.924L82.374 13.2857L89.015 6.49373ZM95.539 8.43373C96.309 7.66373 98.379 6.06373 102.285 6.06373H103.036L103.05 9.70373L95.539 9.73373V22.9387H91.405V6.47873H95.539V8.43373ZM64.526 6.06073C61.405 6.06073 59.444 8.08073 59.301 8.23873V6.47973H55.168V22.9397H59.3V9.36873H62.372C62.53 9.36873 62.683 9.37273 62.832 9.37873C63.863 9.41273 64.649 9.58073 65.232 9.88673C65.424 9.99573 65.602 10.1187 65.765 10.2527C66.639 11.0327 66.871 12.3607 66.871 14.3417V22.9447H70.941V13.1117C70.935 9.03773 69.069 6.05973 64.525 6.05973L64.526 6.06073ZM46.323 7.02873C47.0368 7.46513 47.6521 8.04505 48.13 8.73173V6.47573H52.264V22.9357H48.13V20.5157C47.656 21.4287 46.792 22.2387 45.572 22.7767C45.2224 22.932 44.8609 23.0591 44.491 23.1567L44.431 23.1727C43.7188 23.3494 42.9878 23.4387 42.254 23.4387C41.0957 23.4392 39.9484 23.2143 38.876 22.7767C35.676 21.4737 33.424 18.3667 33.424 14.7427C33.424 9.94273 37.379 6.04573 42.254 6.04573C43.72 6.04573 45.104 6.40073 46.323 7.02873ZM37.666 14.7467C37.666 17.8777 39.75 20.0507 42.97 20.0507C45.775 20.0507 48.274 18.0607 48.274 14.7467C48.274 11.3637 45.859 9.44273 42.97 9.44273C39.69 9.44273 37.666 11.4227 37.666 14.7467Z" fill="#2D4665"/>
</svg>
