<svg width="144" height="48" viewBox="0 0 144 48" fill="none" xmlns="http://www.w3.org/2000/svg">
<mask id="mask0_567_2088" style="mask-type:luminance" maskUnits="userSpaceOnUse" x="0" y="0" width="144" height="48">
<path d="M143.35 0.686035H0V47.686H143.35V0.686035Z" fill="white"/>
</mask>
<g mask="url(#mask0_567_2088)">
<path d="M49.2133 23.4722C49.1753 22.4286 49.3496 21.3882 49.7261 20.4133C50.1026 19.4384 50.6734 18.5493 51.4041 17.7993C52.1349 17.0493 53.0105 16.4538 53.9784 16.0487C54.9465 15.6436 55.9869 15.4373 57.0371 15.442C60.9942 15.442 63.3364 17.7506 64.043 20.4609L61.5596 21.2939C61.3411 20.2836 60.7635 19.3853 59.9329 18.7639C59.1021 18.1426 58.074 17.8399 57.0371 17.9112C54.4729 17.9112 51.9088 19.7682 51.9088 23.5223C51.9088 27.2765 54.4124 29.0632 57.0673 29.0632C58.11 29.0932 59.1327 28.7742 59.9712 28.1571C60.8096 27.54 61.4152 26.6608 61.6909 25.6604L64.1035 26.4434C63.6905 27.9706 62.7643 29.3113 61.4787 30.2426C60.1931 31.1739 58.6257 31.6397 57.0371 31.5625C55.9773 31.5822 54.925 31.3841 53.946 30.9804C52.967 30.5767 52.0825 29.9763 51.348 29.2166C50.6133 28.457 50.0445 27.5546 49.6772 26.5661C49.3099 25.5775 49.152 24.5243 49.2133 23.4722Z" fill="#2D4665"/>
<path d="M68.8886 31.1913H66.3447V15.4019H68.8886V21.5952C69.2592 21.1595 69.7241 20.8131 70.2487 20.5818C70.7733 20.3506 71.3438 20.2406 71.9172 20.2601C74.552 20.2601 75.8239 22.1372 75.8239 24.476V31.1913H73.3507V24.9076C73.3971 24.602 73.3736 24.2898 73.2819 23.9944C73.1903 23.699 73.0329 23.4279 72.8216 23.2013C72.6101 22.9747 72.35 22.7984 72.0606 22.6853C71.7712 22.5724 71.46 22.5256 71.1499 22.5488C70.8423 22.549 70.5381 22.6128 70.2564 22.7361C69.9749 22.8595 69.7221 23.0396 69.5143 23.2652C69.3064 23.4907 69.148 23.7567 69.049 24.0464C68.9499 24.3361 68.9126 24.643 68.9391 24.9478L68.8886 31.1913Z" fill="#2D4665"/>
<path d="M81.5075 25.1081L84.2433 24.6865C84.8591 24.6062 85.0307 24.295 85.0307 23.9236C85.0307 23.0303 84.4249 22.3075 83.0116 22.3075C82.7392 22.2842 82.4647 22.3163 82.205 22.4016C81.9452 22.4871 81.7056 22.6239 81.5008 22.8042C81.2959 22.9844 81.1301 23.2042 81.0132 23.4501C80.8964 23.696 80.831 23.963 80.8211 24.2347L78.4992 23.7128C78.6909 21.8759 80.3667 20.2397 82.9914 20.2397C86.2825 20.2397 87.5342 22.0967 87.5342 24.2548V29.5247C87.5285 30.0962 87.5723 30.6672 87.6655 31.231H85.2931C85.2117 30.7842 85.1779 30.3299 85.1922 29.876C84.8378 30.4161 84.3479 30.8548 83.7707 31.1488C83.1934 31.4428 82.5491 31.5819 81.9012 31.5523C81.4496 31.5892 80.995 31.5347 80.5652 31.392C80.1354 31.2494 79.739 31.0214 79.4003 30.7222C79.0615 30.4228 78.7873 30.0583 78.5942 29.6507C78.4012 29.2429 78.2933 28.8006 78.2771 28.3503C78.2771 26.413 79.6803 25.3691 81.5075 25.1081ZM85.0307 26.8145V26.3327L82.2445 26.7442C81.8658 26.7571 81.5067 26.9145 81.2417 27.1835C80.9767 27.4527 80.826 27.813 80.8211 28.1897C80.8243 28.3841 80.868 28.5758 80.9495 28.7525C81.0311 28.9293 81.1487 29.0873 81.2947 29.2165C81.4409 29.3458 81.6125 29.4435 81.7985 29.5034C81.9846 29.5634 82.181 29.5843 82.3757 29.5648C82.7433 29.6021 83.1147 29.5556 83.4616 29.4288C83.8084 29.3022 84.1218 29.0984 84.3777 28.8333C84.6336 28.5683 84.8254 28.2487 84.9385 27.8989C85.0517 27.5491 85.0832 27.1782 85.0307 26.8145Z" fill="#2D4665"/>
<path d="M91.855 15.1808C92.0754 15.1781 92.2942 15.219 92.4987 15.3011C92.7031 15.3831 92.8891 15.5046 93.0459 15.6588C93.2027 15.8128 93.3273 15.9962 93.4122 16.1986C93.4972 16.4008 93.5409 16.6178 93.5409 16.8371C93.5409 17.2736 93.3665 17.6924 93.056 18.001C92.7455 18.3098 92.3244 18.4832 91.8853 18.4832C91.4462 18.4832 91.0251 18.3098 90.7147 18.001C90.4041 17.6924 90.2297 17.2736 90.2297 16.8371C90.2296 16.4047 90.3995 15.9893 90.7033 15.6798C91.0069 15.3704 91.4202 15.1912 91.855 15.1808ZM90.6134 31.2412V20.5711H93.1271V31.191L90.6134 31.2412Z" fill="#2D4665"/>
<path d="M98.962 31.1914H96.418V20.5715H98.9013V21.9868C99.2236 21.4434 99.6872 20.9963 100.243 20.6926C100.799 20.3888 101.427 20.2394 102.061 20.2602C104.666 20.2602 105.917 22.1373 105.917 24.4761V31.1914H103.374V24.9077C103.374 23.6029 102.778 22.5489 101.183 22.5489C100.865 22.5508 100.552 22.6195 100.263 22.7504C99.9741 22.8813 99.7163 23.0715 99.5066 23.3084C99.2968 23.5454 99.1399 23.8239 99.046 24.1255C98.9521 24.427 98.9235 24.745 98.962 25.0583V31.1914Z" fill="#2D4665"/>
<path d="M109.017 31.1913V15.4019H111.561V31.1913H109.017Z" fill="#2D4665"/>
<path d="M116.103 15.1812C116.545 15.1812 116.969 15.3556 117.281 15.6663C117.594 15.9769 117.769 16.3981 117.769 16.8374C117.767 17.1621 117.668 17.479 117.486 17.7482C117.303 18.0174 117.045 18.2268 116.743 18.3501C116.44 18.4735 116.108 18.5052 115.788 18.4414C115.468 18.3775 115.174 18.221 114.943 17.9913C114.712 17.7617 114.555 17.4693 114.49 17.1509C114.426 16.8325 114.458 16.5024 114.582 16.202C114.706 15.9017 114.917 15.6445 115.188 15.4628C115.458 15.2811 115.777 15.1831 116.103 15.1812ZM114.852 31.2415V20.5715H117.375V31.1914L114.852 31.2415Z" fill="#2D4665"/>
<path d="M123.211 31.1915H120.667V20.5716H123.14V21.9869C123.463 21.445 123.927 20.9992 124.483 20.6955C125.039 20.3919 125.666 20.2418 126.3 20.2603C128.914 20.2603 130.165 22.1374 130.165 24.4762V31.1915H127.622V24.9078C127.669 24.6022 127.645 24.29 127.553 23.9946C127.462 23.6992 127.304 23.4281 127.093 23.2015C126.881 22.9749 126.622 22.7986 126.331 22.6855C126.042 22.5726 125.731 22.5258 125.421 22.549C125.105 22.5508 124.791 22.6194 124.503 22.7504C124.214 22.8814 123.957 23.0717 123.748 23.309C123.538 23.5461 123.383 23.8247 123.291 24.1263C123.198 24.4279 123.171 24.7455 123.211 25.0584V31.1915Z" fill="#2D4665"/>
<path d="M138.867 25.0582L143.35 31.1913H140.23L137.091 26.8147L135.778 28.19V31.2013H133.254V15.4019H135.778V24.8674L139.878 20.5714H143.26L138.867 25.0582Z" fill="#2D4665"/>
<path d="M19.0695 11.1357L30.0732 17.4192V30.0366L19.0999 36.3605L8.09624 30.0869V17.4694L19.0695 11.1357ZM19.0695 1.86084L15.0315 4.18958L4.03803 10.5234L0 12.8521V17.4895V30.0969V34.7343L4.03803 37.043L15.0416 43.3266L19.0797 45.6352L23.1178 43.3065L34.0911 36.9728L38.1291 34.654V30.0167V17.3992V12.7618L34.0911 10.4531L23.0875 4.16951L19.0495 1.86084H19.0695Z" fill="#2D4665"/>
</g>
</svg>
