<svg width="143" height="37" viewBox="0 0 143 37" fill="none" xmlns="http://www.w3.org/2000/svg">
<path d="M28.2972 33.1859C25.6502 33.1859 23.4969 31.0326 23.4969 28.3856V19.548C27.8676 19.21 31.0297 18.2842 33.0976 16.7726V28.3856C33.0976 31.0326 30.9442 33.1859 28.2972 33.1859ZM23.4969 7.98626C23.4969 5.33924 25.6502 3.18594 28.2972 3.18594C30.9442 3.18594 33.0976 5.33924 33.0976 7.98626V10.8861C33.0506 11.9059 32.8293 12.9537 31.9315 13.8558C30.8805 14.9102 28.5537 16.0999 23.4969 16.5273V7.98626ZM12.666 28.3856C12.666 31.0326 10.5126 33.1859 7.86568 33.1859C5.21867 33.1859 3.06536 31.0326 3.06536 28.3856V25.6944C3.11349 24.7142 3.34904 23.6451 4.31931 22.6683C5.41087 21.5677 7.73754 20.3313 12.666 19.8688V28.3856ZM7.86568 3.18594C10.5126 3.18594 12.666 5.33924 12.666 7.98626V16.8506C8.32803 17.2228 5.16368 18.2108 3.06536 19.8185V7.98626C3.06536 5.33924 5.21867 3.18594 7.86568 3.18594ZM36.1048 9.69571L36.0975 9.18591V7.98626C36.0975 3.68547 32.598 0.186035 28.2972 0.186035C23.9964 0.186035 20.497 3.68547 20.497 7.98626V16.6714C19.7386 16.6868 16.4585 16.6825 15.6659 16.7007V7.98626C15.6659 3.68547 12.1664 0.186035 7.86568 0.186035C3.56488 0.186035 0.065283 3.68547 0.065283 7.98626V25.5454C0.0409577 26.0219 0.0510627 26.4475 0.0594566 26.7978L0.065283 27.186V28.3856C0.065283 32.6864 3.56488 36.186 7.86568 36.186C12.1664 36.186 15.6659 32.6864 15.6659 28.3856V19.7064C16.4324 19.6876 19.7139 19.6934 20.497 19.6795V28.3856C20.497 32.6864 23.9964 36.186 28.2972 36.186C32.598 36.186 36.0975 32.6864 36.0975 28.3856V11.0485C36.1226 10.5469 36.1134 10.0877 36.1048 9.69571Z" fill="#2D4665"/>
<path d="M50.2205 26.4617V9.93108C50.2205 9.83652 50.2973 9.75977 50.3918 9.75977H52.9138C53.0083 9.75977 53.0851 9.83652 53.0851 9.93108V16.861H61.7345V9.93108C61.7345 9.83652 61.8112 9.75977 61.9058 9.75977H64.4277C64.5225 9.75977 64.599 9.83652 64.599 9.93108V26.4617C64.599 26.5562 64.5225 26.633 64.4277 26.633H61.9058C61.8112 26.633 61.7345 26.5562 61.7345 26.4617V19.524H53.0851V26.4617C53.0851 26.5562 53.0083 26.633 52.9138 26.633H50.3918C50.2973 26.633 50.2205 26.5562 50.2205 26.4617Z" fill="#2D4665"/>
<path d="M71.9773 17.7258C70.0751 17.7258 68.889 19.136 68.889 21.1055C68.889 23.0744 70.0527 24.4624 71.9549 24.4624C73.857 24.4624 75.0881 23.0971 75.0881 21.1055C75.0881 19.1132 73.8795 17.7258 71.9773 17.7258ZM77.8632 15.7487V26.4617C77.8632 26.5562 77.7865 26.633 77.6919 26.633H75.4663C75.3784 26.633 75.3049 26.5667 75.2958 26.4793L75.1326 24.91C74.439 26.0509 73.1185 26.9237 71.3282 26.9237C68.0385 26.9237 66.1587 24.4175 66.1587 20.9708C66.1587 17.5021 68.2398 15.2417 71.3507 15.2417C73.0067 15.2417 74.5508 15.9579 75.2224 17.2783L75.3645 15.733C75.3726 15.6448 75.4466 15.5774 75.5352 15.5774H77.6919C77.7865 15.5774 77.8632 15.654 77.8632 15.7487Z" fill="#2D4665"/>
<path d="M86.6621 17.8901C86.6621 17.9847 86.5853 18.0614 86.4908 18.0614H85.6551C83.6857 18.0614 82.4547 19.1132 82.4547 21.2623V26.4617C82.4547 26.5563 82.3779 26.633 82.2834 26.633H79.8957C79.8012 26.633 79.7244 26.5563 79.7244 26.4617V15.7714C79.7244 15.6768 79.8012 15.6001 79.8957 15.6001H82.1427C82.2309 15.6001 82.3048 15.6671 82.3133 15.755L82.4547 17.2112C82.9246 16.1147 83.9767 15.4248 85.4535 15.4248C85.7954 15.4248 86.1374 15.4214 86.5278 15.5023C86.6062 15.5185 86.6621 15.5902 86.6621 15.6703V17.8901Z" fill="#2D4665"/>
<path d="M88.0786 26.4617V15.7487C88.0786 15.654 88.1553 15.5774 88.2499 15.5774H90.4407C90.5241 15.5774 90.5954 15.6374 90.6096 15.7196L90.8088 16.8756C91.3685 15.9579 92.4873 15.2417 94.0763 15.2417C95.7547 15.2417 96.9184 16.0697 97.5002 17.3453C98.06 16.0697 99.358 15.2417 101.036 15.2417C103.722 15.2417 105.199 16.853 105.199 19.4046V26.4617C105.199 26.5562 105.122 26.633 105.027 26.633H102.662C102.567 26.633 102.491 26.5562 102.491 26.4617V20.1208C102.491 18.5318 101.641 17.7037 100.342 17.7037C99.0222 17.7037 98.0151 18.5539 98.0151 20.3666V26.4617C98.0151 26.5562 97.9384 26.633 97.8438 26.633H95.4562C95.3616 26.633 95.2849 26.5562 95.2849 26.4617V20.098C95.2849 18.5539 94.4568 17.7258 93.1588 17.7258C91.8608 17.7258 90.8088 18.5766 90.8088 20.3666V26.4617C90.8088 26.5562 90.7321 26.633 90.6375 26.633H88.2499C88.1553 26.633 88.0786 26.5562 88.0786 26.4617Z" fill="#2D4665"/>
<path d="M112.452 24.4625C114.331 24.4625 115.63 23.0972 115.63 21.0828C115.63 19.069 114.331 17.7038 112.452 17.7038C110.572 17.7038 109.274 19.069 109.274 21.0828C109.274 23.0972 110.572 24.4625 112.452 24.4625ZM112.452 15.2646C115.876 15.2646 118.36 17.6367 118.36 21.0828C118.36 24.5295 115.876 26.9017 112.452 26.9017C109.028 26.9017 106.544 24.5295 106.544 21.0828C106.544 17.6367 109.028 15.2646 112.452 15.2646Z" fill="#2D4665"/>
<path d="M119.786 26.4617V15.7487C119.786 15.654 119.863 15.5774 119.958 15.5774H122.169C122.253 15.5774 122.325 15.6389 122.338 15.7222L122.539 17.0097C123.233 15.8909 124.576 15.2417 126.075 15.2417C128.85 15.2417 130.282 16.9653 130.282 19.8299V26.4617C130.282 26.5562 130.205 26.633 130.111 26.633H127.723C127.629 26.633 127.552 26.5562 127.552 26.4617V20.4785C127.552 18.6213 126.635 17.7258 125.225 17.7258C123.546 17.7258 122.517 18.8894 122.517 20.6801V26.4617C122.517 26.5562 122.44 26.633 122.345 26.633H119.958C119.863 26.633 119.786 26.5562 119.786 26.4617Z" fill="#2D4665"/>
<path d="M142.668 15.5776H140.133C140.062 15.5776 139.999 15.6213 139.973 15.6874L136.739 24.0762L133.624 15.6917C133.6 15.6233 133.536 15.5776 133.463 15.5776H130.861C130.741 15.5776 130.658 15.6985 130.702 15.8107L134.677 26.0805C134.806 26.4137 135.126 26.6331 135.484 26.6331H135.753L133.787 31.6962C133.744 31.8084 133.826 31.929 133.947 31.929H136.445C136.516 31.929 136.58 31.8845 136.605 31.8173L142.827 15.8126C142.872 15.7001 142.789 15.5776 142.668 15.5776Z" fill="#2D4665"/>
</svg>
