<svg width="151" height="36" viewBox="0 0 151 36" fill="none" xmlns="http://www.w3.org/2000/svg">
<path fill-rule="evenodd" clip-rule="evenodd" d="M35.1885 18.187C35.1885 8.52121 27.3891 0.686035 17.7693 0.686035C8.1476 0.686035 0.350098 8.52121 0.350098 18.187C0.350098 27.8508 8.1476 35.686 17.7693 35.686C21.5536 35.686 25.0525 34.4695 27.9092 32.4108L33.1237 35.4345C34.0202 35.9531 35.1419 35.3058 35.1439 34.2667L35.1885 18.4365L35.1827 18.4326C35.1827 18.3507 35.1885 18.2689 35.1885 18.187Z" fill="#2D4665"/>
<path fill-rule="evenodd" clip-rule="evenodd" d="M17.8441 8.85059L26.0351 13.3377L26.009 22.268L17.8159 17.7828L17.8441 8.85059Z" fill="#CFD6DF"/>
<path fill-rule="evenodd" clip-rule="evenodd" d="M26.0351 13.4941L17.8442 18.1396L9.59668 13.4941L17.7896 8.85059L26.0351 13.4941Z" fill="white"/>
<path fill-rule="evenodd" clip-rule="evenodd" d="M17.8159 18.4984L17.7877 27.4281L9.59668 22.9404L9.62283 14.0107L17.8159 18.4984Z" fill="#CFD6DF"/>
<path fill-rule="evenodd" clip-rule="evenodd" d="M76.0406 15.1233C74.5689 14.3816 73.4042 14.0107 72.5464 14.0107C71.7943 14.0107 70.8328 14.4071 69.6599 15.2018C68.4891 15.9945 67.8691 16.7381 67.8081 17.4288L67.7024 18.5963C67.6557 19.1124 67.8102 19.5794 68.1659 19.9934C68.5216 20.4074 68.9851 20.7272 69.5563 20.9529L72.276 22.0144C73.0525 22.3245 73.4225 22.6953 73.3818 23.129L73.329 23.7235C73.3046 24.0002 73.0444 24.3023 72.5484 24.632C72.0545 24.9597 71.6459 25.1225 71.3247 25.1225C70.9121 25.1225 70.0462 24.8047 68.7269 24.163C68.2452 23.957 67.8955 24.061 67.6801 24.475L67.2552 25.3031C67.0215 25.7171 67.117 26.0369 67.5439 26.2626C69.1192 27.0396 70.3104 27.4281 71.1154 27.4281C71.9549 27.4281 72.9306 27.0396 74.0384 26.2626C75.1462 25.4855 75.7317 24.7595 75.7906 24.0865L75.9126 22.766C75.9634 22.195 75.8211 21.7005 75.4837 21.2767C75.1462 20.8528 74.6828 20.5291 74.0953 20.3054L71.215 19.2164C70.5421 18.9397 70.223 18.6199 70.2555 18.2588L70.2982 17.7918C70.3246 17.4975 70.595 17.1796 71.1093 16.8323C71.6235 16.487 72.0321 16.3143 72.337 16.3143C72.7659 16.3143 73.5993 16.591 74.8373 17.1443C75.0283 17.213 75.2255 17.2169 75.4268 17.1561C75.628 17.0972 75.7744 16.9893 75.8597 16.8323L76.2581 15.9788C76.4716 15.5981 76.3984 15.3136 76.0406 15.1233Z" fill="#2D4665"/>
<path fill-rule="evenodd" clip-rule="evenodd" d="M87.4263 15.229C86.5112 14.3811 85.7215 13.9581 85.0555 13.9581C84.2935 13.9581 83.5204 14.363 82.7418 15.1769L83.2031 9.4319C83.2363 9.04503 83.0721 8.85059 82.716 8.85059H81.4485C81.0906 8.85059 80.8968 9.04503 80.8655 9.4319L79.4633 26.8472C79.4319 27.2341 79.5943 27.4285 79.9522 27.4285H81.2197C81.5758 27.4285 81.7714 27.2341 81.8027 26.8472L82.5075 18.0874C82.537 17.7166 82.8046 17.3277 83.3082 16.9228C83.8119 16.5179 84.2418 16.3134 84.5979 16.3134C84.9558 16.3134 85.3414 16.5179 85.7547 16.9228C86.1698 17.3277 86.3617 17.7166 86.3303 18.0874L85.6256 26.8472C85.6126 27.0236 85.6532 27.1639 85.7492 27.2702C85.847 27.3764 85.9687 27.4285 86.1145 27.4285H87.382C87.7381 27.4285 87.9336 27.2341 87.965 26.8472L88.6993 17.7166C88.7657 16.9048 88.3414 16.0749 87.4263 15.229Z" fill="#2D4665"/>
<path fill-rule="evenodd" clip-rule="evenodd" d="M150.346 14.5274C150.32 14.3069 150.182 14.1967 149.932 14.1967H148.459C148.049 14.1967 147.692 14.3911 147.39 14.778L143.318 19.3303L144.194 9.4319C144.229 9.04503 144.048 8.85059 143.657 8.85059H142.265C142.103 8.85059 141.961 8.9027 141.835 9.00894C141.709 9.11518 141.638 9.2555 141.624 9.4319L140.08 26.8472C140.047 27.2341 140.226 27.4285 140.62 27.4285H142.011C142.405 27.4285 142.618 27.2341 142.652 26.8472L143.01 22.8241L143.778 22.0023L146.426 26.8713C146.591 27.2421 146.895 27.4285 147.343 27.4285H148.977C149.19 27.4285 149.33 27.3263 149.39 27.1218C149.453 26.9214 149.431 26.731 149.321 26.5546L145.602 20.1501L150.09 15.1488C150.285 14.9544 150.37 14.7459 150.346 14.5274Z" fill="#2D4665"/>
<path fill-rule="evenodd" clip-rule="evenodd" d="M115.949 14.0107H114.671C114.524 14.0107 114.393 14.0626 114.278 14.1684C114.163 14.2743 114.098 14.414 114.085 14.5897L113.376 23.2871C113.342 23.6924 113.08 24.0917 112.589 24.4871C112.099 24.8824 111.681 25.0801 111.337 25.0801C110.992 25.0801 110.607 24.8824 110.181 24.4871C109.755 24.0917 109.56 23.6924 109.591 23.2871L110.3 14.5897C110.332 14.2044 110.168 14.0107 109.809 14.0107H108.531C108.17 14.0107 107.975 14.2044 107.943 14.5897L107.206 23.6305C107.137 24.4731 107.573 25.3177 108.51 26.1622C109.448 27.0048 110.328 27.4281 111.145 27.4281C111.932 27.4281 112.872 27.0008 113.965 26.1483C115.058 25.2957 115.638 24.4551 115.705 23.6305L116.442 14.5897C116.473 14.2044 116.31 14.0107 115.949 14.0107Z" fill="#2D4665"/>
<path fill-rule="evenodd" clip-rule="evenodd" d="M138.661 14.2228C138.065 14.0827 137.61 14.0107 137.298 14.0107C136.481 14.0107 135.519 14.4328 134.411 15.277C133.305 16.1232 132.714 16.9595 132.643 17.7877L131.861 26.8479C131.827 27.234 132.001 27.4281 132.384 27.4281H133.739C133.895 27.4281 134.035 27.3741 134.158 27.2681C134.28 27.164 134.347 27.022 134.363 26.8479L135.112 18.1818C135.143 17.8137 135.416 17.4136 135.933 16.9815C136.447 16.5513 136.88 16.3353 137.227 16.3353C137.47 16.3353 137.727 16.3693 137.999 16.4393C138.43 16.4933 138.687 16.3453 138.77 15.9912L139.013 14.989C139.115 14.5829 138.999 14.3288 138.661 14.2228Z" fill="#2D4665"/>
<path fill-rule="evenodd" clip-rule="evenodd" d="M63.5273 14.6809C63.4452 14.2341 63.174 14.0107 62.7158 14.0107H61.4708C61.0832 14.0107 60.7967 14.2341 60.6153 14.6809L55.9295 26.4634C55.8149 26.7307 55.7996 26.9604 55.8798 27.1483C55.9581 27.3362 56.1395 27.4281 56.4221 27.4281H57.5086C57.9306 27.4281 58.2342 27.2047 58.4156 26.7579L61.8183 17.4204L63.5254 26.7579C63.6247 27.2047 63.8958 27.4281 64.3369 27.4281H65.3967C65.9791 27.4281 66.2006 27.1149 66.065 26.4885L63.5273 14.6809Z" fill="#2D4665"/>
<path fill-rule="evenodd" clip-rule="evenodd" d="M126.197 14.6809C126.115 14.2341 125.843 14.0107 125.385 14.0107H124.14C123.753 14.0107 123.468 14.2341 123.285 14.6809L118.6 26.4634C118.487 26.7307 118.47 26.9604 118.55 27.1483C118.63 27.3362 118.81 27.4281 119.092 27.4281H120.179C120.603 27.4281 120.904 27.2047 121.087 26.7579L124.488 17.4204L126.197 26.7579C126.296 27.2047 126.565 27.4281 127.006 27.4281H128.066C128.648 27.4281 128.872 27.1149 128.736 26.4885L126.197 14.6809Z" fill="#2D4665"/>
<path fill-rule="evenodd" clip-rule="evenodd" d="M51.4673 15.229C50.5522 14.3811 49.7625 13.9581 49.0965 13.9581C48.3345 13.9581 47.5614 14.363 46.7829 15.1769L47.2441 9.4319C47.2773 9.04503 47.1131 8.85059 46.7552 8.85059H45.4895C45.1316 8.85059 44.9379 9.04503 44.9065 9.4319L43.5043 26.8472C43.4729 27.2341 43.6353 27.4285 43.9932 27.4285H45.2607C45.6168 27.4285 45.8124 27.2341 45.8437 26.8472L46.5485 18.0874C46.5781 17.7166 46.8456 17.3277 47.3493 16.9228C47.8529 16.5179 48.2828 16.3134 48.6389 16.3134C48.9968 16.3134 49.3824 16.5179 49.7957 16.9228C50.209 17.3277 50.4027 17.7166 50.3714 18.0874L49.6666 26.8472C49.6537 27.0236 49.6943 27.1639 49.792 27.2702C49.888 27.3764 50.0097 27.4285 50.1555 27.4285H51.423C51.7791 27.4285 51.9728 27.2341 52.006 26.8472L52.7403 17.7166C52.8068 16.9048 52.3824 16.0749 51.4673 15.229Z" fill="#2D4665"/>
<path fill-rule="evenodd" clip-rule="evenodd" d="M100.546 11.3839C99.4687 10.3822 98.4921 9.88232 97.6181 9.88232C96.7624 9.88232 95.718 10.3822 94.4904 11.3839C93.2609 12.3836 92.6123 13.3307 92.5409 14.2252L91.7951 23.6599C91.7383 24.3581 92.0516 25.1089 92.7332 25.9143C93.413 26.7178 94.309 27.2885 94.9705 27.6831C96.0607 28.3307 97.3946 29.1341 98.8348 30.0671C99.2287 30.3241 99.487 30.5244 99.6978 30.5244C99.859 30.5244 100.051 30.3909 100.277 30.1237C100.498 29.8546 100.652 29.6137 100.733 29.3972C100.892 29.0046 100.799 28.6828 100.445 28.4339C99.5347 27.7863 98.5856 27.2116 97.6438 26.6267C96.7404 26.0641 95.7547 25.5197 94.9723 24.7608C94.4391 24.2427 94.1899 23.7591 94.2247 23.3138L94.9173 14.5733C94.9521 14.1261 95.2783 13.6444 95.8939 13.1243C96.5077 12.6062 97.019 12.3492 97.4239 12.3492C97.86 12.3492 98.3455 12.6062 98.8787 13.1243C99.4119 13.6444 99.6611 14.1261 99.6263 14.5733L98.9337 23.3138C98.9117 23.583 98.7816 23.8683 98.5416 24.1658C98.2979 24.4714 98.3492 24.9409 98.6698 25.1453L99.4706 25.6573C99.7564 25.8395 100.117 25.7848 100.348 25.5238C100.944 24.8539 101.264 24.2346 101.31 23.6599L102.056 14.2252C102.127 13.3307 101.623 12.3836 100.546 11.3839Z" fill="#2D4665"/>
</svg>
