<svg width="174" height="60" viewBox="0 0 174 60" fill="none" xmlns="http://www.w3.org/2000/svg">
<path d="M21.6398 15.9694L8.66788 6.55601C4.12668 3.2627 -1.83235 8.15601 0.538782 13.229C6.43194 25.8355 13.5245 41.0441 16.0621 46.6666L24.7631 28.0022C26.7391 23.762 25.4322 18.7201 21.6363 15.9659L21.6398 15.9694Z" fill="url(#paint0_linear_404_399)"/>
<path d="M52.4957 3.17631L61.4082 22.1379C63.3876 26.3469 62.0426 31.3681 58.2224 34.0325L21.7368 59.4942C19.4593 61.0839 16.5439 58.6407 17.7156 56.1318L42.4669 3.18667C44.4498 -1.05695 50.5024 -1.06386 52.4957 3.17631Z" fill="url(#paint1_linear_404_399)"/>
<path d="M80.3157 16.3979H88.2021L95.5062 31.7621L102.682 16.3322H110.697L99.1218 41.3551C98.4562 42.7962 97.0107 43.7189 95.4161 43.7189C93.818 43.7189 92.3655 42.7893 91.7034 41.3379L80.3157 16.3979Z" fill="#20202C"/>
<path d="M128.83 10.7167H136.155V18.1638H143.858V24.4221H136.058V34.2744C136.058 35.0761 136.259 35.8709 136.692 36.5482C137.219 37.3707 138.166 38.1966 139.84 38.1966H143.858V44.1854C143.858 44.1854 138.343 45.0389 135.132 44.1128C131.922 43.1867 128.83 40.4152 128.83 36.0022V10.7167Z" fill="#20202C"/>
<path d="M122.317 16.3322H115.085V43.7189H122.317V16.3322Z" fill="#20202C"/>
<path d="M118.701 12.2096C120.912 12.2096 122.705 10.4226 122.705 8.21821C122.705 6.01385 120.912 4.22685 118.701 4.22685C116.49 4.22685 114.697 6.01385 114.697 8.21821C114.697 10.4226 116.49 12.2096 118.701 12.2096Z" fill="#20202C"/>
<path d="M166.928 34.1569L173.043 35.9711C172.308 38.4627 170.866 40.5119 168.717 42.1223C166.567 43.7327 163.895 44.5379 160.698 44.5379C156.805 44.5379 153.498 43.2281 150.781 40.6087C148.063 37.9893 146.704 34.4852 146.704 30.0895C146.704 25.6938 148.028 22.5007 150.67 19.8433C153.315 17.1893 156.438 15.8588 160.036 15.8588C164.224 15.8588 167.503 17.1029 169.871 19.5945C172.242 22.086 173.424 25.5106 173.424 29.8683C173.424 31.0813 173.313 32.1214 173.313 32.1214H153.918C153.991 33.8804 154.691 35.3456 156.012 36.5171C157.336 37.6886 158.913 38.2761 160.75 38.2761C163.874 38.2761 165.929 36.9042 166.921 34.1569H166.928ZM154.088 27.1245H166.21C166.137 25.6247 165.593 24.3599 164.584 23.3335C163.572 22.3072 162.095 21.7957 160.147 21.7957C158.383 21.7957 156.951 22.3452 155.849 23.4441C154.746 24.543 154.157 25.7698 154.084 27.1245H154.088Z" fill="#20202C"/>
<defs>
<linearGradient id="paint0_linear_404_399" x1="5.62077" y1="28.6346" x2="23.8401" y2="18.0798" gradientUnits="userSpaceOnUse">
<stop stop-color="#00BEFF"/>
<stop offset="1" stop-color="#00FF95"/>
</linearGradient>
<linearGradient id="paint1_linear_404_399" x1="9.28494" y1="43.8951" x2="59.319" y2="14.9179" gradientUnits="userSpaceOnUse">
<stop stop-color="#00BEFF"/>
<stop offset="1" stop-color="#00FF95"/>
</linearGradient>
</defs>
</svg>
