<svg width="48" height="49" viewBox="0 0 48 49" fill="none" xmlns="http://www.w3.org/2000/svg">
<path d="M45 48.3752H3C2.20435 48.3752 1.44129 48.0592 0.878679 47.4966C0.31607 46.9339 0 46.1709 0 45.3752V3.37524C0 2.57959 0.31607 1.81653 0.878679 1.25392C1.44129 0.691314 2.20435 0.375244 3 0.375244H45C45.7956 0.375244 46.5587 0.691314 47.1213 1.25392C47.6839 1.81653 48 2.57959 48 3.37524V44.3296V45.3752C48 46.1709 47.6839 46.9339 47.1213 47.4966C46.5587 48.0592 45.7956 48.3752 45 48.3752ZM25.1594 10.0933H15.4695V39.849H25.873C31.3265 39.849 35.0617 36.4504 35.0617 31.7511C35.0617 28.434 33.0902 25.4168 29.6916 24.5768C32.2931 23.6019 34.138 21.3368 34.138 18.1483C34.138 13.449 30.8252 10.0933 25.1594 10.0933ZM24.6988 23.0897H19.5795V13.6912H24.5316C27.9302 13.6912 29.9852 15.5383 29.9852 18.3498C29.9852 21.1184 28.0138 23.0897 24.6988 23.0897ZM25.2858 36.2298H19.5795V26.6212H25.4465C29.0531 26.6212 30.8573 28.6355 30.8573 31.4897C30.8573 34.3825 28.6009 36.2298 25.2858 36.2298Z" fill="white"/>
</svg>
