<svg width="48" height="43" viewBox="0 0 48 43" fill="none" xmlns="http://www.w3.org/2000/svg">
<path d="M43.7461 0.375244H4.2841C1.90069 0.375244 0 2.27594 0 4.65934V33.6097C0 35.9931 1.90069 37.8938 4.2841 37.8938H18.6449L22.4161 41.7857C23.291 42.6606 24.6788 42.6606 25.5839 41.7857L29.3551 37.8938H43.7159C46.0993 37.8938 48 35.9931 48 33.6097V4.65934C48 2.27594 46.0993 0.375244 43.7159 0.375244" fill="white"/>
<path d="M5.89355 14.4286H25.6269C26.7469 14.4286 27.6269 15.3086 27.6269 16.4286C27.6269 17.5486 26.7469 18.4286 25.6269 18.4286H5.89355C4.77355 18.4286 3.89355 17.5219 3.89355 16.4286C3.89355 15.3353 4.90689 14.4286 5.89355 14.4286ZM5.89355 7.41528H17.7069C18.8269 7.41528 19.7069 8.29528 19.7069 9.41528C19.7069 10.5353 18.8269 11.4153 17.7069 11.4153H5.89355C4.77355 11.4153 3.89355 10.5086 3.89355 9.41528C3.89355 8.32195 4.90689 7.41528 5.89355 7.41528Z" fill="#00BEFF"/>
</svg>
