<?xml version="1.0" encoding="UTF-8"?>
<svg width="74px" height="74px" viewBox="0 0 74 74" version="1.1" xmlns="http://www.w3.org/2000/svg" xmlns:xlink="http://www.w3.org/1999/xlink">
    <!-- Generator: Sketch 53.2 (72643) - https://sketchapp.com -->
    <title>play</title>
    <desc>Created with Sketch.</desc>
    <g id="Page-1" stroke="none" stroke-width="1" fill="none" fill-rule="evenodd">
        <g id="首页-copy-10" transform="translate(-1235.000000, -463.000000)">
            <g id="Group-9" transform="translate(930.000000, 260.000000)">
                <g id="Group-4" transform="translate(305.000000, 203.000000)">
                    <path d="M37,74 C16.5984643,74 0,57.4015357 0,37 C0,16.5984643 16.5984643,0 37,0 C57.4015357,0 74,16.5984643 74,37 C74,57.4015357 57.4015357,74 37,74" id="control-play-path" fill="#007AFF"></path>
                    <path d="M50.2646734,38.5909367 C38.0958325,46.4847507 31.8870508,50.5107703 31.6383282,50.6689954 C31.4331471,50.7995216 31.1901224,50.875 30.9296875,50.875 C30.1957,50.875 29.6,50.275483 29.6,49.5337986 L29.6,25.3921741 C29.6,24.9012944 29.8659375,24.4506508 30.2927672,24.2145993 C30.7182672,23.9798891 31.238175,23.9959835 31.6490484,24.2642238 L50.2646734,36.335036 C50.6449641,36.5818171 50.875,37.0069779 50.875,37.4629864 C50.875,37.9189948 50.6449641,38.3441557 50.2646734,38.5909367 Z" id="control-play" fill="#FFFFFF" fill-rule="nonzero"></path>
                </g>
            </g>
        </g>
    </g>
</svg>
