<?xml version="1.0" encoding="UTF-8"?>
<svg width="162px" height="34px" viewBox="0 0 162 34" version="1.1" xmlns="http://www.w3.org/2000/svg" xmlns:xlink="http://www.w3.org/1999/xlink">
    <!-- Generator: Sketch 58 (84663) - https://sketch.com -->
    <title>binance</title>
    <desc>Created with Sketch.</desc>
    <g id="页面-1" stroke="none" stroke-width="1" fill="none" fill-rule="evenodd">
        <g id="代币" transform="translate(-360.000000, -2733.000000)" fill="#F3BA2F">
            <g id="币安" transform="translate(360.000000, 2733.000000)">
                <path d="M23.2082374,19.5424807 L26.825092,23.1555371 L26.8231929,23.1569614 L16.9934006,32.9867537 L7.16693175,23.1602849 L7.1617092,23.1555371 L10.7818872,19.5458042 L16.9934006,25.7573175 L23.2082374,19.5424807 Z M136.839098,8.45998813 C137.630077,8.45998813 138.352688,8.52503264 139.007407,8.65369733 C139.66165,8.7828368 140.255122,8.96087834 140.788772,9.18639763 C141.321947,9.41334125 141.813816,9.68776261 142.266754,10.0101365 C142.718267,10.3339347 143.13892,10.6890682 143.526813,11.0769614 L141.152451,13.815003 C140.489187,13.2172582 139.815003,12.7486528 139.12895,12.4096617 C138.441947,12.0701958 137.670908,11.9007003 136.814409,11.9007003 C136.103668,11.9007003 135.445151,12.0383858 134.840285,12.3128071 C134.233994,12.5872285 133.713163,12.9670504 133.276843,13.4517982 C132.840997,13.9360712 132.501531,14.4977329 132.258445,15.1353591 C132.016783,15.7739347 131.89619,16.4566647 131.89619,17.1830742 L131.89619,17.2310267 C131.89619,17.9583858 132.016783,18.6453887 132.258445,19.2906113 C132.501531,19.9377329 132.836249,20.5027181 133.264499,20.9874659 C133.692748,21.4717389 134.20978,21.8558338 134.815122,22.1383264 C135.421412,22.4212938 136.088,22.5623027 136.814884,22.5623027 C137.78438,22.5623027 138.602896,22.3847359 139.274231,22.0291276 C139.944617,21.6744688 140.611205,21.1892463 141.273519,20.5753591 L143.647881,22.9744095 C143.212036,23.4430148 142.758623,23.8631929 142.290967,24.2339941 C141.822362,24.6062196 141.309602,24.92527 140.752214,25.1916202 C140.194825,25.4584451 139.584736,25.6602255 138.922896,25.7974362 C138.260107,25.9341721 137.51708,26.0034896 136.693816,26.0034896 C135.449424,26.0034896 134.294766,25.7770208 133.228415,25.3250326 C132.162065,24.8730445 131.241472,24.2548843 130.46616,23.4715015 C129.690374,22.6881187 129.084558,21.7627774 128.648712,20.6969021 C128.212392,19.6305519 127.994469,18.4915608 127.994469,17.2799288 L127.994469,17.2315015 C127.994469,16.0203442 128.212392,14.8856261 128.648712,13.8273472 C129.084558,12.7690682 129.690374,11.8399288 130.46616,11.0404036 C131.241472,10.2408783 132.170611,9.61084866 133.252154,9.15031454 C134.334172,8.68978042 135.530611,8.45998813 136.839098,8.45998813 Z M61.4296736,8.7508368 L61.4296736,25.7136855 L57.6979228,25.7136855 L57.6979228,8.7508368 L61.4296736,8.7508368 Z M70.5226113,8.75059941 L78.4708605,19.1947537 L78.4708605,8.75059941 L82.154184,8.75059941 L82.154184,25.7134481 L78.9802967,25.7134481 L70.7652226,14.9298279 L70.7652226,25.7134481 L67.0823739,25.7134481 L67.0823739,8.75059941 L70.5226113,8.75059941 Z M96.8929377,8.62976855 L104.16273,25.7132107 L100.261484,25.7132107 L98.7103858,21.908819 L91.5374481,21.908819 L89.9872997,25.7132107 L86.1819585,25.7132107 L93.4522255,8.62976855 L96.8929377,8.62976855 Z M111.632593,8.75059941 L119.579893,19.1947537 L119.579893,8.75059941 L123.263217,8.75059941 L123.263217,25.7134481 L120.089329,25.7134481 L111.87473,14.9298279 L111.87473,25.7134481 L108.191407,25.7134481 L108.191407,8.75059941 L111.632593,8.75059941 Z M160.809899,8.75059941 L160.809899,12.0702433 L151.723608,12.0702433 L151.723608,15.5114303 L159.720285,15.5114303 L159.720285,18.8310742 L151.723608,18.8310742 L151.723608,22.3933294 L160.931917,22.3933294 L160.931917,25.7134481 L148.03981,25.7134481 L148.03981,8.75059941 L160.809899,8.75059941 Z M46.4840119,8.75059941 C48.4348724,8.75059941 49.9100059,9.25148961 50.910362,10.2527953 C51.6842493,11.0285816 52.0707181,11.9895312 52.0707181,13.1361187 L52.0707181,13.1850208 C52.0707181,13.6692938 52.0108961,14.0980178 51.8903027,14.4692938 C51.770184,14.8410445 51.6092344,15.1757626 51.4088783,15.4743976 C51.2085223,15.7735074 50.9749318,16.0365341 50.7104807,16.2620534 C50.4455549,16.4885223 50.1611632,16.6822315 49.8558813,16.8436558 C50.8362967,17.2154065 51.6087596,17.720095 52.1718457,18.3581958 C52.734457,18.9967715 53.016,19.8808071 53.016,21.011727 L53.016,21.0601543 C53.016,21.8359407 52.8669199,22.5139228 52.5687596,23.0955252 C52.2701246,23.6771276 51.8428249,24.1618754 51.2863858,24.5492938 C50.7294718,24.9376617 50.0605104,25.2277507 49.2780772,25.4219347 C48.4961187,25.6161187 47.6291751,25.7124985 46.6781958,25.7124985 L38.6221721,25.7124985 L38.6221721,8.75059941 L46.4840119,8.75059941 Z M46.5699466,18.7104807 L42.2565935,18.7104807 L42.2565935,22.4417567 L46.6914896,22.4417567 C47.5152285,22.4417567 48.1609258,22.2926766 48.6300059,21.9935668 C49.0981365,21.694457 49.3326766,21.2296499 49.3326766,20.5996202 L49.3326766,20.5516677 C49.3326766,19.9862077 49.1147537,19.5380178 48.6784332,19.2066231 C48.2421128,18.8757033 47.5394421,18.7104807 46.5699466,18.7104807 Z M16.9931632,13.3234184 L20.6612938,16.991549 L20.6598694,16.991549 L20.6631929,16.9934481 L16.9931632,20.663003 L13.3293056,16.9986706 L13.3240831,16.9934481 L13.3293056,16.9882255 L13.9712047,16.3458516 L14.2826588,16.0339228 L16.9931632,13.3234184 Z M29.3729377,13.3802967 L32.9874184,16.9943027 L29.3729377,20.6087834 L25.7579822,16.9947774 L29.3729377,13.3802967 Z M4.61495549,13.3784926 L8.22896142,16.9929733 L4.61448071,20.607454 L1,16.9929733 L4.61495549,13.3784926 Z M95.1239169,13.1121424 L92.8710979,18.6129139 L97.3776855,18.6129139 L95.1239169,13.1121424 Z M45.9399169,12.021816 L42.2565935,12.021816 L42.2565935,15.6078101 L45.6977804,15.6078101 C46.5219941,15.6078101 47.1762374,15.467276 47.6605104,15.1843086 C48.1452582,14.9013412 48.3873947,14.4446053 48.3873947,13.8150504 L48.3873947,13.7666231 C48.3873947,13.2011632 48.1770682,12.7691157 47.757365,12.4700059 C47.3367122,12.1713709 46.7313709,12.021816 45.9399169,12.021816 Z M16.9939228,1 L26.8227656,10.8297923 L23.2082849,14.444273 L16.9934481,8.2294362 L10.7819347,14.4409496 L7.16745401,10.8259941 L16.9929733,1 L16.9939228,1 Z" id="形状结合"></path>
            </g>
        </g>
    </g>
</svg>