<?xml version="1.0" encoding="UTF-8"?>
<svg width="120px" height="38px" viewBox="0 0 120 38" version="1.1" xmlns="http://www.w3.org/2000/svg" xmlns:xlink="http://www.w3.org/1999/xlink">
    <!-- Generator: Sketch 58 (84663) - https://sketch.com -->
    <title>bit</title>
    <desc>Created with Sketch.</desc>
    <g id="页面-1" stroke="none" stroke-width="1" fill="none" fill-rule="evenodd">
        <g id="代币" transform="translate(-947.000000, -2731.000000)">
            <g id="币安备份-2" transform="translate(947.000000, 2731.000000)">
                <g id="编组-6" transform="translate(0.000000, 5.000000)">
                    <path d="M82.3125,14.6271429 L85.2910714,14.6271429 C87.3707143,14.6271429 88.7785714,13.4935714 88.7785714,11.2264286 C88.7785714,9.14571429 87.5325,7.92535714 85.4025,7.92535714 L82.3007143,7.92535714 L82.3007143,14.6271429 L82.3125,14.6271429 Z M114.4425,14.0914286 L119.089286,6.45535714 L116.957143,6.45535714 L113.469643,12.6589286 L113.3325,13.2567857 L113.195357,12.6589286 L109.706786,6.45535714 L107.603571,6.45535714 L112.250357,14.0914286 L107.466429,22.0778571 L109.622143,22.0778571 L113.210357,15.6482143 L113.346429,15.0503571 L113.483571,15.6482143 L117.083571,22.0767857 L119.239286,22.0767857 L114.443571,14.0914286 L114.4425,14.0914286 Z M87.1585714,15.7982143 C89.2392857,15.3128571 90.5603571,13.7432143 90.5603571,11.2135714 C90.5603571,8.21142857 88.5289286,6.42964286 85.0778571,6.42964286 L80.5682143,6.42964286 L80.5682143,22.065 L82.3253571,22.065 L82.3253571,16.0114286 L85.7003571,16.0114286 L89.1021429,22.065 L91.1828571,22.065 L87.6192857,16.26 L87.1585714,15.7992857 L87.1585714,15.7982143 Z M66.3535714,7.9125 L70.7764286,7.9125 L70.7764286,22.0660714 L72.5335714,22.0660714 L72.5335714,7.9125 L76.905,7.9125 L76.905,6.42857143 L66.3664286,6.42857143 L66.3664286,7.91142857 L66.3535714,7.9125 Z M57.6953571,7.9125 L53.2853571,7.9125 L53.2853571,6.42857143 L63.825,6.42857143 L63.825,7.91142857 L59.4514286,7.91142857 L59.4514286,22.0639286 L57.6964286,22.0639286 L57.6964286,7.9125 L57.6953571,7.9125 Z M40.5407143,14.0175 C42.21,13.5064286 43.1067857,12.2110714 43.1067857,10.3425 C43.1067857,7.88785714 41.2746429,6.42964286 38.1610714,6.42964286 L33.2142857,6.42964286 L33.2142857,22.065 L38.6207143,22.065 C41.8971429,22.065 43.8407143,20.4707143 43.8407143,17.7921429 C43.8407143,15.9235714 42.6192857,14.5028571 40.5396429,14.0175 L40.5407143,14.0175 Z M34.9714286,7.9125 L38.1610714,7.9125 C40.1539286,7.9125 41.3003571,8.88428571 41.3003571,10.4785714 C41.3003571,12.3107143 40.1421429,13.4689286 38.3603571,13.4689286 L34.9596429,13.4689286 L34.9596429,7.9125 L34.9714286,7.9125 Z M38.6217857,20.595 L34.9714286,20.595 L34.9714286,14.8639286 L38.7589286,14.8639286 C40.7517857,14.8639286 42.0353571,16.0232143 42.0353571,17.8039286 C42.0353571,19.5482143 40.7646429,20.595 38.6217857,20.595 L38.6217857,20.595 Z M47.7535714,22.065 L49.5107143,22.065 L49.5107143,6.42857143 L47.7535714,6.42857143 L47.7535714,22.065 Z M103.3425,14.9260714 L96.7767857,14.9260714 L96.7767857,20.595 L104.102143,20.595 L104.102143,22.0778571 L95.0196429,22.0778571 L95.0196429,6.42857143 L104.04,6.42857143 L104.04,7.91142857 L96.7757143,7.91142857 L96.7757143,13.5042857 L103.3425,13.5042857 L103.3425,14.9260714 Z" id="Fill-1" fill="#000000"></path>
                    <path d="M5.64,0 L5.64,4.32642857 L8.355,4.32642857 L8.355,2.71714286 L24.6514286,2.71714286 L24.6514286,19.0242857 L8.35607143,19.0242857 L8.35607143,10.2621429 L5.64,10.2621429 L5.64,21.7425 L27.3685714,21.7425 L27.3685714,0 L5.64,0 Z M8.43769499e-13,6.11464286 L8.43769499e-13,27.8571429 L21.7285714,27.8571429 L21.7285714,23.3571429 L19.0125,23.3571429 L19.0125,25.1410714 L2.71607143,25.1410714 L2.71607143,8.83392857 L19.0125,8.83392857 L19.0125,17.4214286 L21.7285714,17.4214286 L21.7285714,6.11464286 L8.43769499e-13,6.11464286 Z" id="Fill-1" fill="#0082D7"></path>
                </g>
            </g>
        </g>
    </g>
</svg>