<?xml version="1.0" encoding="utf-8"?>
<!-- Generator: Adobe Illustrator 23.0.2, SVG Export Plug-In . SVG Version: 6.00 Build 0)  -->
<svg width="120px" height="38px" version="1.1" id="图层_1" xmlns="http://www.w3.org/2000/svg" xmlns:xlink="http://www.w3.org/1999/xlink" x="0px" y="0px"
	 viewBox="0 0 1201.6 334.3" style="enable-background:new 0 0 1201.6 334.3;" xml:space="preserve">
<style type="text/css">
	.st0{fill:url(#Shape-Copy-14_1_);}
	.st1{fill:#4A4A4A;}
	.st2{fill-rule:evenodd;clip-rule:evenodd;fill:url(#CoinEx-Copy-13_1_);}
</style>
<title>Group 6 Copy 5</title>
<desc>Created with Sketch.</desc>
<g id="CoinEx-LOGO-白底" transform="translate(-460.000000, -371.000000)">
	<g id="Group-6-Copy-5" transform="translate(460.000000, 371.000000)">

			<linearGradient id="Shape-Copy-14_1_" gradientUnits="userSpaceOnUse" x1="867.7087" y1="167.1708" x2="866.504" y2="167.1708" gradientTransform="matrix(265.8 0 0 -277.4451 -230317 46547.8672)">
			<stop  offset="0" style="stop-color:#22E6B8"/>
			<stop  offset="1" style="stop-color:#00C1CE"/>
		</linearGradient>
		<path id="Shape-Copy-14" class="st0" d="M214.5,123.4c-25.8-25.2-66.7-25.2-92.3,0c-25.5,25.7-25.1,67.4,0.3,93
			s66.9,25.9,92.5,0.3c0.4-0.4,2.2-2.4,5.4-5.9l-30.7-31c-3.1,3.8-4.9,5.7-5,5.7c-8.6,8.6-22.7,8.6-31.4,0
			c-8.6-8.6-8.6-22.9-0.3-31.4c8.4-8.4,22.5-8.4,31.2,0.3c0,0,27.5,27.5,82.3,82.6c-22.6,32.8-60.4,53.4-101.1,53.4
			c-67.4,0-122.2-55.2-122.2-123.4S98.1,43.7,165.4,43.7c39.3,0,75.4,19,97.9,49.9c-3.6,4.2-12.8,14.8-27.8,31.8l30.4,30.4l50.3-57
			C290.1,39.3,231.3,0,165.3,0C73.9,0-0.3,74.9-0.3,167.1s74.1,167.2,165.5,167.2c41.6,0,76-13.1,109.6-42
			c30.5-26.1,45-62.3,45-62.3L214.5,123.4z"/>
		<g id="CoinEx" transform="translate(304.249123, 53.483395)">
			<path id="Combined-Shape" class="st1" d="M589.5,136.2v80.1h-32.6v-81.7c-3.3-18.8-19.8-33.1-39.7-33.1c-20.2,0-37,14.6-39.9,34
				v80.9h-32.6V70.9l25.1,15.9c12.8-11,29.4-17.6,47.4-17.6C555.5,69.4,587,98.9,589.5,136.2L589.5,136.2z M247,52.5
				c-10.9,5.7-20.5,13.2-28.6,22.3c-12-16.7-31.7-27.6-53.8-27.6c-36.7,0-66.4,29.7-66.4,66.5s29.7,66.5,66.4,66.5
				c11.9,0,23.2-3.1,32.8-8.6c3.6,11.9,9.3,22.6,16.7,32.2c-14.6,8.1-31.5,12.8-49.5,12.8c-56.6,0-102.6-46-102.6-102.6
				S108,11.2,164.7,11.2C198.3,10.9,228.3,27.4,247,52.5z M295.5,216.4c-40,0-72.5-32.4-72.5-72.5s32.4-72.5,72.5-72.5
				s72.5,32.4,72.5,72.5S335.7,216.4,295.5,216.4z M295.5,184c22.3,0,40.2-18.1,40.2-40.2s-18.1-40.2-40.2-40.2
				c-22,0-40.2,18.1-40.2,40.2S273.4,184,295.5,184z M388.3,71.3h32.2v144.9h-32.2V71.3z M738.6,45.7h-92.2v52.6h89.5V131h-89.5
				v52.6h92.2v32.8H611.8V13h126.8L738.6,45.7L738.6,45.7z M806.2,143.6l-49.6-72.1h41c1.3,2.1,3.1,4.9,5.3,8.4
				c2.8,4,5.6,8.4,8.4,12.8c2.9,4.5,5.7,8.8,8.4,12.8c2.6,4,4.6,7.1,5.7,9.2l1.7,2.9l29.6-46.2h39l-48.8,71l50.5,73.9h-40.4
				l-31.1-47.3l-1.7,2.5c-1.4,2.1-3.3,5.2-6.1,9.3c-2.8,4.2-5.7,8.6-8.8,13.5c-3.1,4.7-6,9.2-8.8,13.5c-2.2,3.6-4,6.4-5.3,8.4h-38.6
				L806.2,143.6z"/>

				<linearGradient id="CoinEx-Copy-13_1_" gradientUnits="userSpaceOnUse" x1="-62.2509" y1="103.3716" x2="-63.4568" y2="103.3716" gradientTransform="matrix(36.7774 0 0 -36.7698 2715.9119 3833.9133)">
				<stop  offset="0" style="stop-color:#22E6B8"/>
				<stop  offset="1" style="stop-color:#00C1CE"/>
			</linearGradient>
			<path id="CoinEx-Copy-13" class="st2" d="M382.1,32.8c0-5.9,2.2-11,6.6-15.5s9.5-6.6,15.5-6.6c6.1,0,11.4,2.2,15.8,6.6
				c4.3,4.2,6.6,9.3,6.6,15.5s-2.2,11.4-6.6,15.8c-4.2,4.3-9.3,6.6-15.5,6.6s-11.4-2.2-15.8-6.6C384.4,44.3,382.1,39.1,382.1,32.8z"
				/>
			<g id="CoinEx-Copy-17" transform="translate(320.966108, 45.126614)">
			</g>
		</g>
	</g>
</g>
</svg>
