<?xml version="1.0" encoding="UTF-8"?>
<svg width="162px" height="40px" id="图层_1" xmlns="http://www.w3.org/2000/svg" viewBox="0 0 961 240">
  <defs>
    <style>.cls-1{fill:#ff007a;fill-rule:evenodd;}</style>
  </defs>
  <title>uni画板 1</title>
  <path class="cls-1" d="M3.76,4.71C27.74,34.1,54.07,71,58.33,77c.22.32.39.55.49.69C61.09,80.87,63,83.22,64.38,85h0c3.16,4,4.1,5.15,2.22,6.23a9.07,9.07,0,0,1-4.66,1.17,8,8,0,0,1-5.22-2.26c-1-1-8-11.29-17.61-26.28-7.32-11.47-13.45-21-13.61-21.14-.39-.37-.38-.36,12.86,23.58,8.32,15,14,26.13,14,26.85,0,1.44-.4,2.2-2.16,4.19-2.94,3.32-4.26,7-5.21,14.75-1.06,8.65-4.06,14.75-12.35,25.2-4.86,6.12-5.65,7.24-6.88,9.71a18,18,0,0,0-2.14,8.76,27.46,27.46,0,0,0,1.43,10.79c1.09,3.47,2.24,5.76,5.17,10.34,2.53,4,4,6.9,4,8,0,.91.18.92,4.09,0,9.38-2.14,17-5.9,21.27-10.51,2.65-2.85,3.27-4.42,3.29-8.33,0-2.56-.07-3.09-.76-4.57-1.11-2.39-3.14-4.38-7.61-7.47-5.85-4-8.36-7.3-9.05-11.77-.56-3.68.09-6.27,3.33-13.13,3.36-7.09,4.19-10.12,4.75-17.28.36-4.62.87-6.44,2.18-7.91s2.61-2,6-2.51c5.53-.76,9.06-2.21,12-4.9a10.5,10.5,0,0,0,3.73-8L77.5,86l-1.4-1.65C71,78.39.35,0,0,0,0,0,1.65,2.12,3.76,4.71ZM37.07,160.46a4.57,4.57,0,0,0-1.39-6c-1.81-1.22-4.64-.64-4.64.95,0,.48.27.84.87,1.15,1,.52,1.08,1.11.29,2.31s-.74,2.3.18,3C33.86,163.08,36,162.43,37.07,160.46ZM71.67,48.32c-2.27-.35-2.36-.39-1.3-.56a34.85,34.85,0,0,1,10.21.92c7.77,1.86,14.84,6.64,22.39,15.13l2,2.26,2.87-.47A60,60,0,0,1,142.5,70c2.83,1.32,7.29,3.94,7.85,4.62a12.22,12.22,0,0,1,.72,3.08c.77,5.11.39,9-1.16,12-.85,1.59-.89,2.1-.33,3.46a3.32,3.32,0,0,0,3,1.89c2.56,0,5.31-4.17,6.58-10l.51-2.31,1,1.15c5.5,6.3,9.83,14.88,10.57,21l.19,1.59-.92-1.44a17.81,17.81,0,0,0-5.24-5.56c-3.69-2.47-7.6-3.31-17.93-3.86-9.33-.49-14.62-1.3-19.85-3-8.92-2.94-13.41-6.85-24-20.88C98.75,65.46,95.85,62,93,59.24,86.39,52.93,79.93,49.62,71.67,48.32Zm80.78,13.92a25.66,25.66,0,0,1,1.93-9.45A10.64,10.64,0,0,1,155.3,51a5.66,5.66,0,0,1-.43,1.64,21.58,21.58,0,0,0-.38,9.66c.71,4.93,1.12,5.64,6.28,11,2.41,2.5,5.23,5.65,6.25,7l1.85,2.46L167,80.94A78.33,78.33,0,0,0,158.38,74c-.77-.41-.89-.4-1.36.08s-.53,1.1-.59,4.24c-.1,4.89-.76,8-2.35,11.16-.86,1.7-1,1.34-.22-.58.58-1.43.64-2.06.64-6.79,0-9.5-1.13-11.79-7.68-15.71-1.66-1-4.4-2.42-6.08-3.17a23,23,0,0,1-3-1.47c.19-.19,6.58,1.7,9.15,2.7,3.82,1.48,4.46,1.68,4.92,1.5C152.15,65.85,152.3,64.93,152.45,62.24Zm-83.21-7.3c-.62,7.34,2.23,17.16,6.84,23.56,3.57,5,9.1,8.82,13.18,9.2,2.68.24,3.48-.61,2.27-2.39a45.56,45.56,0,0,1-4.29-7.93c-.34-1-1.08-4-1.64-6.66-1.92-9-3.81-12.57-8.17-15.25a26.2,26.2,0,0,0-7-2.61l-1-.19Zm77.63,71.22c-21.52-8.75-29.1-16.35-29.1-29.17a20.91,20.91,0,0,1,.14-3.43A16.94,16.94,0,0,1,119.76,95c4.36,3.53,9.25,5,22.78,7,8,1.17,12.44,2.12,16.57,3.5,13.14,4.4,21.27,13.33,23.2,25.49a42.11,42.11,0,0,1-.68,13.66c-.72,2.76-2.92,7.73-3.5,7.92-.16.05-.32-.57-.36-1.43a17.7,17.7,0,0,0-6.34-12.34C167.06,135,161.2,132,146.87,126.16Zm-16.15-1a39.46,39.46,0,0,1,1,4.6c1.72,10.36-3.66,18.73-14.14,22-1.11.35-5.47,1.21-9.7,1.92-8.57,1.44-12.39,2.46-16.23,4.33-2.72,1.33-6,3.31-5.82,3.51a4,4,0,0,0,1.38-.34c4.84-1.71,10.23-2.6,18.42-3,3.25-.17,6.94-.44,8.21-.61,7.29-.92,12.35-3.16,16.28-7.2a18.67,18.67,0,0,0,4.54-7.3c.67-1.87.76-2.57.76-5.89s-.07-4-.8-6.08a18.52,18.52,0,0,0-3.47-6.38l-1-1.16Zm10.91,22.29c-2.86-6.2-3.52-12.2-1.95-17.79.16-.6.43-1.09.6-1.09a5.8,5.8,0,0,1,1.49.82c1.32.9,4,2.41,11,6.28,8.79,4.84,13.8,8.59,17.21,12.87a28.17,28.17,0,0,1,5.71,13.22,45.23,45.23,0,0,1-.54,13c-2.36,9.36-7.85,16.71-15.68,21a20.86,20.86,0,0,1-2.29,1.14,8.86,8.86,0,0,1,.93-2.38,21.7,21.7,0,0,0,.94-17c-1.22-3.68-3.7-8.18-8.72-15.79C144.49,153,143.06,150.61,141.63,147.49ZM87.77,167.86c-9,1.48-19,6.32-27,13.13l-2.38,2,2.09.33c10.91,1.72,13.84,3.24,21.41,11.11,4.35,4.53,5.82,5.54,9.43,6.47,5.3,1.37,10.53-1.14,12.32-5.92a11,11,0,0,0-.22-7.45c-2.19-4.22-8.56-5.59-11.64-2.49-2.56,2.58-1.81,6.46,1.38,7.13.73.15.71.12-.19-.29A3,3,0,0,1,91,189c0-3.3,3.72-5.15,7.2-3.57,2.54,1.16,3.55,2.68,3.55,5.34a6.61,6.61,0,0,1-7.46,6.67,11,11,0,0,1-6.18-3.26,8.32,8.32,0,0,1,2.79-12.87,13,13,0,0,1,12.64,1.16c4.45,3,6.35,5.64,10.19,14.48a66.19,66.19,0,0,0,3.57,7.2c3.64,5.5,8,8.2,13.24,8.2a15.92,15.92,0,0,0,7.81-1.92c2-1,4.92-3,4.71-3.18a7.08,7.08,0,0,0-1.87.59c-5.73,2.25-11.56,2.1-14.94-.4-2.13-1.58-3.85-4.71-4.73-8.63-.15-.68-.66-3.68-1.12-6.67-1.18-7.57-2.31-11-4.94-14.87s-7.87-7.35-13.66-8.85A41.76,41.76,0,0,0,87.77,167.86ZM75.09,109.35a9.84,9.84,0,0,1,5.9-6.51,11.55,11.55,0,0,1,6.68.64c3.11,1.6,5.37,5.24,4.88,7.87-.6,3.2-5.75,5.76-11.66,5.8-3,0-4.14-.39-5.29-1.94C74.88,114.24,74.61,111.12,75.09,109.35Zm11.78-4.73c1.55,1,1.95,2.38,1,3.68a5.71,5.71,0,0,1-4,1.76c-2.13,0-4.46-1.53-4.46-2.93C79.45,104.31,83.92,102.8,86.87,104.62Zm463.7,8.07c-4.83-16,3.14-29.36,20.12-33.64,4.87-1.23,26.92-.68,30.7.77,1.39.53,2,2.56,2,6.74a45.63,45.63,0,0,0,.8,8.88c.65,2.42.27,2.89-2.28,2.85-2.31,0-3.7-1.38-5.65-5.47-3.11-6.53-6.87-8.61-15.64-8.63-11.21,0-19.4,7.51-18.07,16.62.87,5.93,6.8,11.76,20.09,19.78,12.65,7.63,20,13.9,23,19.52,7.87,15,1.15,31.11-16.37,39.22-9,4.16-24.08,4.59-34.67,1L547.78,178V167.16c0-9.82.23-10.84,2.47-10.84,1.87,0,2.68,1.23,3.34,5.11,1.63,9.64,9,15.5,19.4,15.5,10.22,0,17.37-5.59,20.11-15.72,1.17-4.31,1-5.9-1.35-10.66-2.77-5.71-7.54-9.5-23.76-18.85C559,126.51,552.64,119.57,550.57,112.69ZM232.79,85.46c-2.21,0-3.07-.73-3.07-2.58,0-2.45.86-2.58,18.19-2.58,16.09,0,18.15.24,17.78,2.09-.23,1.15-2.45,2.74-4.94,3.54l-4.53,1.46-.38,32.85q-.39,32.88,1.09,38c2.93,10.22,11.89,16.1,24.52,16.1,8.79,0,13.93-2,20.38-8.16,6.94-6.56,8.05-12.8,8-45.22,0-32-.58-34.61-7.45-35.27-3.12-.31-4.17-1-4.17-2.9,0-2.33,1-2.5,15.52-2.5,14.65,0,15.51.15,15.51,2.58a2.29,2.29,0,0,1-2.26,2.6c-6,0-6.1.62-6.9,35.68-.84,36.41-1.62,40.72-9,49.64-2.13,2.57-7.2,6.31-11.28,8.3-6.64,3.25-8.75,3.63-20.34,3.6-10.68,0-14.05-.54-19.39-3-7.8-3.55-12.86-8.14-16.6-15-2.61-4.82-2.84-7.43-3.44-40.07C239.37,87.26,239,85.46,232.79,85.46Zm121,0c-3,0-3.82-.59-3.82-2.58,0-2.42.83-2.57,13.25-2.47l13.25.1,6.34,7.31c3.49,4,14.85,16.57,25.26,27.91S430.4,140.26,434.59,145s8.14,8.7,8.77,8.7,1-13.51.74-31l-.4-31-3.63-3.11c-2-1.71-5.05-3.1-6.79-3.1-2.31,0-3.16-.7-3.16-2.62,0-2.51.66-2.6,17.78-2.25,14.55.29,17.78.7,17.78,2.24,0,1.09-1.8,2.24-4.33,2.76-2.37.48-5,1.55-5.81,2.37-1.06,1.06-1.61,14.73-1.87,47.16l-.37,45.67h-3.75c-3.22,0-7.06-3.63-27.59-26.08-13.12-14.36-28.43-31.41-34-37.9S377.32,105,376.79,104.89c-1.5-.17-1.14,57.86.39,63.37,1.2,4.29,2,5,7.11,6.38,4.09,1.09,5.75,2.2,5.75,3.85,0,2.11-1.56,2.3-18.1,2.3-16.84,0-18.1-.16-18.1-2.41,0-1.65,1.22-2.66,3.82-3.18,7.89-1.57,8.42-4.07,8.86-42.24.25-21.38-.12-36.33-1-39.47C364.07,88,360.36,85.46,353.78,85.46Zm135.57,0c-2.77,0-3.63-.62-3.63-2.58,0-2.46.86-2.58,19.39-2.58s19.4.12,19.4,2.58c0,1.89-.87,2.58-3.24,2.58a9.76,9.76,0,0,0-5.87,2.62c-2.56,2.56-2.62,3.83-2.26,43.27.36,38.5.51,40.73,2.89,42.46a10.92,10.92,0,0,0,5.49,1.83c2.12,0,3,.74,3,2.58,0,2.46-.87,2.57-19.4,2.57-18.09,0-19.39-.16-19.39-2.41,0-1.81,1.27-2.61,5.12-3.23,7.65-1.22,8-3.71,7.56-48.25-.38-35.67-.54-37.89-2.91-39.62A12.24,12.24,0,0,0,489.35,85.46Zm135.28,0a3.44,3.44,0,0,1-3.53-2.58c-.65-2.49,0-2.58,18.6-2.58,18.41,0,19.27.12,19.27,2.58,0,2-.86,2.58-3.72,2.58-8.14,0-8,1.47,4.36,35.16,6.27,17.15,12.36,33.45,13.53,36.21l2.13,5,9.87-26.28c11.63-30.93,13.14-36.65,11.16-42.3-1.37-3.93-6.72-7.81-10.76-7.81-1.14,0-2-1.11-2-2.58,0-2.47.86-2.58,20-2.58s20,.11,20,2.58c0,1.83-.87,2.58-3,2.58-5.43,0-7.83,2.88-7,8.5.8,5.77,23,67.86,24,66.93,1.52-1.51,26.15-68.35,26.15-70.95,0-3.12-2.19-4.48-7.22-4.48-2.26,0-3.13-.71-3.13-2.58,0-2.43.87-2.58,15.52-2.58,13.16,0,15.51.31,15.51,2,0,1.1-1.61,2.56-3.58,3.25-4.43,1.54-5.54,3.29-11.1,17.53-2.44,6.25-10.09,25.81-17,43.47l-13.21,33.82c-.36.94-2.5,1.71-4.75,1.71h-4.09l-9.29-24.15c-5.11-13.29-11.14-29-13.41-35-3.88-10.2-4.21-10.64-5.67-7.73-.85,1.7-7,17.47-13.64,35l-12.08,32-4.52-.39-4.51-.38-17.2-45c-9.61-25.14-18.45-46.32-20-48S626.2,85.46,624.63,85.46ZM883.16,86a9.7,9.7,0,0,1-.22-2.25,1.64,1.64,0,0,1,.22-1c.26-.34.36-.34,1.31-.44h0C888,82,895,81.45,900.82,81.2l1.79-.08h0c6.43-.29,18-.69,25.86-.29,15.18.76,26,8.1,29.65,20.22s1.74,23.51-3.28,30.75-13.45,13.49-27.47,13.08c-11.57-.33-14.66-2.5-17.14-4.23a16.67,16.67,0,0,0-1.56-1v15.46c.12,10.55.21,15.61,1,17.49,1.1,2.52,3.59,4.08,8.43,5.27a9.07,9.07,0,0,1,2.76,1.06,3.6,3.6,0,0,1,.23,3.49,1.59,1.59,0,0,1-1.34.46l-21.45-.17-12.94,0s-1.36.26-1.87-.28a2.78,2.78,0,0,1-.46-1.69,3.3,3.3,0,0,1,.7-1.78,10.69,10.69,0,0,1,2.81-1.16c5-1.4,7.15-2.88,8.28-5.67.91-2.25.92-6.43.91-40.49,0-32.31-.06-38.33-.8-40.06-1.09-2.57-3.84-3.25-7.75-4.22h0c-.77-.19-1.59-.39-2.46-.62C884.76,86.68,883.37,86.49,883.16,86Zm62.48,26.36c0,5.3-.09,13.59-5.73,18.89s-16.74,6.75-24.28,5.28a15.68,15.68,0,0,1-4.78-1.74l-.1,0-1.93-1-.12-18.61c-.07-11.66.06-19.26.33-20.34.25-6.15,9.32-6.92,13.75-6.69C941.74,88.08,945.09,104.06,945.64,112.36ZM822.91,81.29l-1.62.62-5.06,2.62-3.65,9.1c-2,5-5.67,14.19-8.15,20.42-4.51,11.33-7.49,18.78-10.62,26.56-.93,2.29-3.71,9.25-6.19,15.47s-5,12.15-5.51,13.17l-.29.54c-1.39,2.61-3.8,7.14-8.06,7.82,0,0-2.34.23-3.21,1.09a2.1,2.1,0,0,0-.78,1.56v1.08a1.15,1.15,0,0,0,.57.78,3.08,3.08,0,0,0,1.16.28l15.57-.18h16.09s1.14.13,1.58-.23a1.84,1.84,0,0,0,.56-.91V180a3.26,3.26,0,0,0-.86-1.72,10.6,10.6,0,0,0-3-.8c-6.44-.85-7.55-5.72-6.75-10.11.38-2.15,3-10.11,5.89-18.13l1-2.77,16.86-.13c9.28-.07,17.29,0,17.8.11.73.18,1.75,2.26,4.76,9.67,4.56,11.23,4.93,12.6,3.92,14.7l-.2.42c-1,2-2.79,6-7.42,6.38,0,0-2.46.09-3.07.83a2.15,2.15,0,0,0-.48,1.58v1.12a2.07,2.07,0,0,0,.48.92,1.31,1.31,0,0,0,.85.2l15.31-.11h21.51s.85.1,1.08-.23a1.66,1.66,0,0,0,.27-.71v-1.49a2.52,2.52,0,0,0-.5-1.23c-.42-.44-3.21-.9-3.21-.9-3.56-.58-5.34-3.52-6.66-5.71-.34-.56-.64-1.07-.94-1.48a72.18,72.18,0,0,1-4.52-9.81l-8.59-22.09c-3-7.75-7.21-18.56-9.34-24l-9-23.1-1.25-3.21h0c-1.88-4.87-2.64-6.83-2.85-7.1-.68-.86-2.78,0-2.78,0Zm-.29,29.32C821.94,109,820.74,106,820,104c-1.42-3.58-2-4.4-2.39-3.66-.13.21-1,2.66-2,5.44-6.24,18-9.07,26-9.63,27.57a11.18,11.18,0,0,0-.65,2.19c0,.29,5.08.45,13.77.45,7.58,0,13.77-.09,13.77-.21s-.67-1.82-1.5-3.81-2.85-6.93-4.49-11S823.3,112.27,822.62,110.61Z"/>
</svg>
