<?xml version="1.0" encoding="UTF-8"?>
<svg width="123px" height="34px" viewBox="0 0 123 34" version="1.1" xmlns="http://www.w3.org/2000/svg" xmlns:xlink="http://www.w3.org/1999/xlink">
    <!-- Generator: Sketch 58 (84663) - https://sketch.com -->
    <title>upbit</title>
    <desc>Created with Sketch.</desc>
    <g id="页面-1" stroke="none" stroke-width="1" fill="none" fill-rule="evenodd">
        <g id="代币" transform="translate(-1127.000000, -2733.000000)">
            <g id="up" transform="translate(1127.000000, 2733.000000)">
                <g id="编组-3" transform="translate(0.000000, 4.000000)">
                    <path d="M4.59156731,26.99955 C4.36431731,26.99205 4.13781731,26.9718 3.91281731,26.93805 C3.53706731,26.8923 3.16731731,26.8008 2.81331731,26.66655 C2.11056731,26.40105 1.48581731,26.04255 1.01331731,25.44105 C0.729067314,25.07505 0.503317314,24.66705 0.343567314,24.23205 C0.261067314,24.0093 0.194317314,23.78205 0.143317314,23.5503 C-0.113182686,22.38555 -0.00668268639,21.21555 0.314317314,20.0763 C0.342067314,19.9773 0.474067314,19.54905 0.474067314,19.54905 L6.86631731,0.0828 L15.6923173,0.0828 L9.19881731,19.85505 C8.84331731,20.9358 9.11781731,21.89805 9.89331731,22.3038 C10.1430673,22.4403 10.4235673,22.50855 10.7085673,22.5018 L15.0698173,22.5018 L22.4310673,0.0828 L32.4060673,0.0828 L25.0958173,7.7028 L29.0430673,6.64755 L22.3418173,27.0003 L4.59156731,26.99955 Z M40.6508173,13.84755 L45.9623173,13.84755 C47.2920673,13.84755 48.7613173,12.6603 49.2390673,11.20155 L50.5440673,7.22955 C51.0233173,5.76855 50.3325673,4.5813 49.0058173,4.5813 L43.6935673,4.5813 L40.6508173,13.8468 L40.6508173,13.84755 Z M27.5843173,27.0003 L34.2848173,6.64755 L37.5105673,7.7028 L35.2050673,0.0828 L55.1430673,0.0828 C58.7625673,0.0828 60.6450673,3.3168 59.3400673,7.29105 L58.0770673,11.13705 C58.0605673,11.18655 58.0425673,11.23455 58.0230673,11.2848 L57.9698173,11.4243 C57.6210673,12.37155 57.1388173,13.26405 56.5395673,14.07405 C54.6413173,16.65405 51.7530673,18.3288 49.1805673,18.34305 L48.9885673,18.34605 L39.1733173,18.34605 L36.3323173,27.0003 L27.5843173,27.0003 Z" id="Fill-1" fill="#0062E0"></path>
                    <path d="M75.4185673,0.08325 L72.5768173,8.73675 L82.5473173,8.73675 C85.1460673,8.75175 86.9340673,10.43175 87.1380673,13.00875 C87.1950673,13.90425 87.0893173,14.80425 86.8260673,15.66225 C86.8260673,15.66225 86.7630673,15.894 86.7465673,15.945 L85.4820673,19.79325 C84.1778173,23.76825 80.1713173,27 76.5525673,27 L57.8325673,27 L66.6698173,0.08325 L75.4185673,0.08325 Z M118.866067,-4.61852778e-13 L116.022817,8.655 L120.000067,8.655 L118.523317,13.1535 L114.546067,13.1535 L113.334817,16.839 C113.004067,17.85225 112.686817,18.83925 112.468567,19.809 C112.248067,20.784 112.367317,21.49425 112.821067,21.92025 C113.369317,22.43625 114.224317,22.5015 114.906067,22.5015 L117.780067,22.5015 L116.329567,26.9175 L107.841817,26.91675 C107.725567,26.91525 107.240317,26.865 107.162317,26.85675 C106.484317,26.7675 105.831067,26.54475 105.240067,26.202 C105.186817,26.172 105.137317,26.13375 105.087067,26.09925 C103.962067,25.30425 103.358317,23.994 103.252567,22.6485 C103.194817,21.7515 103.299067,20.85225 103.562317,19.99425 C103.631317,19.74825 103.624567,19.76625 103.642567,19.70925 L110.115067,-4.61852778e-13 L118.866067,-4.61852778e-13 Z M101.423467,10.767375 L96.1067173,26.917125 L87.3557173,26.917125 L92.6732173,10.767375 L101.423467,10.767375 Z M76.4115673,13.23675 L71.1000673,13.23675 L68.0580673,22.5015 L73.3688173,22.5015 C74.6955673,22.5015 76.1685673,21.31425 76.6463173,19.854 L77.9505673,15.88275 C78.4298173,14.42475 77.7398173,13.23675 76.4115673,13.23675 Z M104.943967,0.001875 L102.771967,6.619875 L94.0217173,6.619875 L96.1937173,0.001875 L104.943967,0.001875 Z" id="形状结合" fill="#014097"></path>
                </g>
            </g>
        </g>
    </g>
</svg>