<svg width="84" height="85" viewBox="0 0 84 85" fill="none" xmlns="http://www.w3.org/2000/svg">
<circle cx="42.0001" cy="42.5186" r="42" fill="url(#paint0_linear_877_3836)"/>
<g clip-path="url(#clip0_877_3836)">
<path d="M64.6188 41.5255C64.6188 44.6472 63.9834 47.6308 62.8369 50.3244C61.6904 53.0179 60.0329 55.4628 57.9886 57.5209C55.9442 59.579 53.4994 61.2228 50.792 62.3693C48.0847 63.5157 45.1149 64.1511 41.9932 64.1511C38.8714 64.1511 35.8878 63.5157 33.1943 62.3693C30.5008 61.2228 28.0559 59.5652 25.9978 57.5209C23.9396 55.4766 22.2959 53.0317 21.1494 50.3244C20.0029 47.617 19.3676 44.6472 19.3676 41.5255C19.3676 38.4038 20.0029 35.4202 21.1494 32.7267C22.2959 30.0331 23.9535 27.5882 25.9978 25.5301C28.0421 23.472 30.487 21.8282 33.1943 20.6818C35.9017 19.5353 38.8714 18.8999 41.9932 18.8999C45.1149 18.8999 48.0985 19.5353 50.792 20.6818C53.4855 21.8282 55.9304 23.4858 57.9886 25.5301C60.0467 27.5744 61.6904 30.0193 62.8369 32.7267C63.9834 35.434 64.6188 38.4038 64.6188 41.5255Z" stroke="#20202C" stroke-width="2" stroke-linecap="round" stroke-linejoin="round"/>
<path d="M37.5592 32.6851L50.5158 41.6911L37.5592 50.9182V32.6851Z" stroke="#20202C" stroke-width="2" stroke-linecap="round" stroke-linejoin="round"/>
</g>
<defs>
<linearGradient id="paint0_linear_877_3836" x1="42.0001" y1="0.518555" x2="42.0001" y2="84.5186" gradientUnits="userSpaceOnUse">
<stop offset="0.348958" stop-color="#00BEFF" stop-opacity="0"/>
<stop offset="1" stop-color="#00BEFF" stop-opacity="0.25"/>
</linearGradient>
<clipPath id="clip0_877_3836">
<rect width="48" height="48" fill="white" transform="translate(18.0001 17.5186)"/>
</clipPath>
</defs>
</svg>
