<svg width="422" height="458" viewBox="0 0 422 458" fill="none" xmlns="http://www.w3.org/2000/svg">
<path d="M94.5506 267.422L16.4996 312.783C6.12454 318.811 0.961324 326.736 1.00022 334.661C1.04884 342.585 6.29956 350.51 16.7427 356.539L95.2993 401.899L173.856 447.26C184.299 453.288 198 456.302 211.681 456.302C225.362 456.302 239.023 453.288 249.398 447.25L327.449 401.889L405.5 356.529C415.875 350.5 421.039 342.576 421 334.651C420.951 326.726 415.7 318.811 405.257 312.773L326.701 267.413" stroke="url(#paint0_linear_664_3016)" stroke-width="2" stroke-miterlimit="10"/>
<path opacity="0.2" d="M345.924 180.571L236.797 117.563C222.279 109.181 198.748 109.181 184.328 117.563L75.9107 180.571C61.4906 188.953 61.5684 202.586 76.0857 210.967L185.213 273.976C199.731 282.358 223.262 282.348 237.682 273.976L346.099 210.967C360.519 202.586 360.442 188.963 345.924 180.581" fill="url(#paint1_linear_664_3016)"/>
<mask id="path-3-inside-1_664_3016" fill="white">
<path d="M345.924 147.083L236.797 84.0748C222.279 75.6931 198.748 75.6931 184.328 84.0748L75.9107 147.083C61.4906 155.465 61.5684 169.098 76.0857 177.479L185.213 240.488C199.731 248.87 223.262 248.86 237.682 240.488L346.099 177.479C360.519 169.098 360.442 155.475 345.924 147.093"/>
</mask>
<path d="M345.924 147.083L236.797 84.0748C222.279 75.6931 198.748 75.6931 184.328 84.0748L75.9107 147.083C61.4906 155.465 61.5684 169.098 76.0857 177.479L185.213 240.488C199.731 248.87 223.262 248.86 237.682 240.488L346.099 177.479C360.519 169.098 360.442 155.475 345.924 147.093" fill="url(#paint2_linear_664_3016)" fill-opacity="0.3"/>
<path d="M236.797 84.0748L237.797 82.3428L237.797 82.3428L236.797 84.0748ZM184.328 84.0748L185.333 85.804L185.333 85.8039L184.328 84.0748ZM75.9107 147.083L74.9057 145.354L74.9056 145.354L75.9107 147.083ZM76.0857 177.479L77.0857 175.747L77.0857 175.747L76.0857 177.479ZM185.213 240.488L184.213 242.22L184.213 242.22L185.213 240.488ZM237.682 240.488L238.686 242.218L238.687 242.217L237.682 240.488ZM346.099 177.479L347.104 179.209L347.104 179.208L346.099 177.479ZM346.924 145.351L237.797 82.3428L235.797 85.8068L344.924 148.815L346.924 145.351ZM237.797 82.3428C230.163 77.9352 220.284 75.7885 210.526 75.7885C200.768 75.7885 190.912 77.9349 183.323 82.3457L185.333 85.8039C192.165 81.8329 201.284 79.7885 210.526 79.7885C219.768 79.7885 228.913 81.8327 235.797 85.8068L237.797 82.3428ZM183.323 82.3456L74.9057 145.354L76.9156 148.813L185.333 85.804L183.323 82.3456ZM74.9056 145.354C67.3246 149.761 63.1096 155.826 63.1467 162.293C63.1838 168.755 67.4619 174.81 75.0857 179.211L77.0857 175.747C70.1922 171.767 67.1728 166.815 67.1467 162.27C67.1206 157.73 70.0767 152.788 76.9157 148.813L74.9056 145.354ZM75.0857 179.211L184.213 242.22L186.213 238.756L77.0857 175.747L75.0857 179.211ZM184.213 242.22C191.848 246.628 201.726 248.772 211.484 248.771C221.242 248.769 231.098 246.623 238.686 242.218L236.677 238.758C229.845 242.725 220.726 244.769 211.484 244.771C202.242 244.772 193.096 242.73 186.213 238.756L184.213 242.22ZM238.687 242.217L347.104 179.209L345.094 175.75L236.677 238.759L238.687 242.217ZM347.104 179.208C354.685 174.802 358.9 168.74 358.863 162.275C358.826 155.815 354.548 149.763 346.924 145.361L344.924 148.825C351.818 152.806 354.837 157.755 354.863 162.298C354.889 166.835 351.934 171.775 345.094 175.75L347.104 179.208Z" fill="white" fill-opacity="0.8" mask="url(#path-3-inside-1_664_3016)"/>
<path d="M346.546 210.883L305.63 234.657L237.769 274.096C223.3 282.507 199.691 282.507 185.126 274.096L116.37 234.405L75.6285 210.883C69.843 207.538 66.3522 203.367 65.1465 199.021V324.056C65.1465 328.052 66.5856 331.961 69.3568 334.849C71.0098 336.57 73.1004 338.194 75.6285 339.652L185.116 402.865C199.672 411.276 223.29 411.266 237.759 402.865L346.537 339.652C348.656 338.417 350.465 337.076 351.962 335.646C355.132 332.613 356.853 328.363 356.853 323.978V321.022V199.147C355.657 203.445 352.235 207.568 346.537 210.874L346.546 210.883Z" fill="url(#paint3_linear_664_3016)"/>
<mask id="path-6-inside-2_664_3016" fill="white">
<path d="M345.924 108.189L236.797 45.1805C222.279 36.7988 198.748 36.7988 184.328 45.1805L75.9107 108.189C61.4906 116.571 61.5684 130.203 76.0857 138.585L185.213 201.594C199.731 209.975 223.262 209.966 237.682 201.594L346.099 138.585C360.519 130.203 360.442 116.581 345.924 108.199"/>
</mask>
<path d="M345.924 108.189L236.797 45.1805C222.279 36.7988 198.748 36.7988 184.328 45.1805L75.9107 108.189C61.4906 116.571 61.5684 130.203 76.0857 138.585L185.213 201.594C199.731 209.975 223.262 209.966 237.682 201.594L346.099 138.585C360.519 130.203 360.442 116.581 345.924 108.199" fill="url(#paint4_linear_664_3016)" fill-opacity="0.5"/>
<path d="M236.797 45.1805L237.797 43.4485L237.797 43.4485L236.797 45.1805ZM184.328 45.1805L185.333 46.9097L185.333 46.9097L184.328 45.1805ZM75.9107 108.189L74.9057 106.46L74.9056 106.46L75.9107 108.189ZM76.0857 138.585L77.0857 136.853L77.0857 136.853L76.0857 138.585ZM185.213 201.594L184.213 203.326L184.213 203.326L185.213 201.594ZM237.682 201.594L238.686 203.323L238.687 203.323L237.682 201.594ZM346.099 138.585L347.104 140.314L347.104 140.314L346.099 138.585ZM346.924 106.457L237.797 43.4485L235.797 46.9126L344.924 109.921L346.924 106.457ZM237.797 43.4485C230.163 39.0409 220.284 36.8943 210.526 36.8943C200.768 36.8943 190.912 39.0407 183.323 43.4514L185.333 46.9097C192.165 42.9387 201.284 40.8943 210.526 40.8943C219.768 40.8943 228.913 42.9384 235.797 46.9126L237.797 43.4485ZM183.323 43.4514L74.9057 106.46L76.9156 109.918L185.333 46.9097L183.323 43.4514ZM74.9056 106.46C67.3246 110.867 63.1096 116.931 63.1467 123.399C63.1838 129.86 67.4619 135.915 75.0857 140.317L77.0857 136.853C70.1922 132.873 67.1728 127.921 67.1467 123.376C67.1206 118.836 70.0767 113.894 76.9157 109.918L74.9056 106.46ZM75.0857 140.317L184.213 203.326L186.213 199.862L77.0857 136.853L75.0857 140.317ZM184.213 203.326C191.848 207.734 201.726 209.878 211.484 209.876C221.242 209.875 231.098 207.729 238.686 203.323L236.677 199.864C229.845 203.831 220.726 205.875 211.484 205.876C202.242 205.878 193.096 203.836 186.213 199.862L184.213 203.326ZM238.687 203.323L347.104 140.314L345.094 136.856L236.677 199.865L238.687 203.323ZM347.104 140.314C354.685 135.908 358.9 129.846 358.863 123.381C358.826 116.921 354.548 110.868 346.924 106.467L344.924 109.931C351.818 113.911 354.837 118.861 354.863 123.403C354.889 127.94 351.934 132.88 345.094 136.856L347.104 140.314Z" fill="white" fill-opacity="0.7" mask="url(#path-6-inside-2_664_3016)"/>
<mask id="path-8-inside-3_664_3016" fill="white">
<path d="M345.924 69.295L236.797 6.28628C222.279 -2.09543 198.748 -2.09543 184.328 6.28628L75.9107 69.295C61.4906 77.6767 61.5684 91.3091 76.0857 99.6908L185.213 162.7C199.731 171.081 223.262 171.072 237.682 162.7L346.099 99.6908C360.519 91.3091 360.442 77.6864 345.924 69.3047"/>
</mask>
<path d="M345.924 69.295L236.797 6.28628C222.279 -2.09543 198.748 -2.09543 184.328 6.28628L75.9107 69.295C61.4906 77.6767 61.5684 91.3091 76.0857 99.6908L185.213 162.7C199.731 171.081 223.262 171.072 237.682 162.7L346.099 99.6908C360.519 91.3091 360.442 77.6864 345.924 69.3047" fill="url(#paint5_linear_664_3016)"/>
<path d="M236.797 6.28628L237.797 4.55426L237.797 4.55424L236.797 6.28628ZM184.328 6.28628L185.333 8.01547L185.333 8.0154L184.328 6.28628ZM75.9107 69.295L74.9057 67.5658L74.9056 67.5658L75.9107 69.295ZM76.0857 99.6908L77.0857 97.9588L77.0857 97.9588L76.0857 99.6908ZM185.213 162.7L184.213 164.432L184.213 164.432L185.213 162.7ZM237.682 162.7L238.686 164.429L238.687 164.429L237.682 162.7ZM346.099 99.6908L347.104 101.42L347.104 101.42L346.099 99.6908ZM346.924 67.5629L237.797 4.55426L235.797 8.01831L344.924 71.027L346.924 67.5629ZM237.797 4.55424C230.163 0.146665 220.284 -2 210.526 -2C200.768 -2 190.912 0.146428 183.323 4.55716L185.333 8.0154C192.165 4.04443 201.284 2 210.526 2C219.768 2 228.913 4.04419 235.797 8.01833L237.797 4.55424ZM183.323 4.5571L74.9057 67.5658L76.9156 71.0241L185.333 8.01547L183.323 4.5571ZM74.9056 67.5658C67.3246 71.9724 63.1096 78.037 63.1467 84.5044C63.1838 90.9662 67.4619 97.0212 75.0857 101.423L77.0857 97.9588C70.1922 93.9788 67.1728 89.0267 67.1467 84.4814C67.1206 79.9417 70.0767 74.9993 76.9157 71.0241L74.9056 67.5658ZM75.0857 101.423L184.213 164.432L186.213 160.967L77.0857 97.9588L75.0857 101.423ZM184.213 164.432C191.848 168.839 201.726 170.983 211.484 170.982C221.242 170.981 231.098 168.834 238.686 164.429L236.677 160.97C229.845 164.937 220.726 166.981 211.484 166.982C202.242 166.983 193.096 164.941 186.213 160.967L184.213 164.432ZM238.687 164.429L347.104 101.42L345.094 97.9616L236.677 160.97L238.687 164.429ZM347.104 101.42C354.685 97.0137 358.9 90.9516 358.863 84.4863C358.826 78.0265 354.548 71.974 346.924 67.5726L344.924 71.0367C351.818 75.017 354.837 79.9668 354.863 84.5092C354.889 89.0461 351.934 93.9862 345.094 97.9617L347.104 101.42Z" fill="white" fill-opacity="0.6" mask="url(#path-8-inside-3_664_3016)"/>
<mask id="mask0_664_3016" style="mask-type:luminance" maskUnits="userSpaceOnUse" x="131" y="39" width="160" height="93">
<path d="M131.559 84.3957L209.357 39.1908L290.393 85.9709L212.595 131.185L131.559 84.3957Z" fill="white"/>
</mask>
<g mask="url(#mask0_664_3016)">
<path d="M209.366 47.4364C204.65 44.7138 195.598 45.2194 192.904 49.5562C184.231 63.4803 173.729 80.2729 169.743 86.4182L205.273 78.8921C213.343 77.1808 218.185 72.3968 216.814 67.4767L212.137 50.6452C211.768 49.3131 210.757 48.2338 209.376 47.4461" fill="white"/>
<path d="M271.14 74.8569C268.524 73.3497 264.528 72.6399 260.483 73.4859L159.63 94.7805C155.906 95.5681 155.459 98.1837 157.821 99.545C158.492 99.9339 159.387 100.216 160.505 100.333L240.987 108.559C249.417 109.424 257.673 106.643 260.56 101.986L273.541 81.0022C275 78.6588 273.755 76.3543 271.149 74.8472" fill="white"/>
</g>
<path opacity="0.6" d="M330.162 243.852V331.082L328.217 332.21L328.188 243.852C328.188 243.493 328.382 243.172 328.694 242.987C329.355 242.608 330.172 243.084 330.172 243.852H330.162Z" fill="url(#paint6_linear_664_3016)"/>
<path opacity="0.6" d="M300.564 276.154V363.384L298.619 364.512L298.59 276.154C298.59 275.794 298.784 275.473 299.095 275.289C299.757 274.909 300.573 275.386 300.573 276.154H300.564Z" fill="url(#paint7_linear_664_3016)"/>
<path opacity="0.6" d="M273.883 314.047V401.277L271.938 402.405L271.909 314.047C271.909 313.687 272.103 313.366 272.414 313.181C273.076 312.802 273.892 313.279 273.892 314.047H273.883Z" fill="url(#paint8_linear_664_3016)"/>
<path opacity="0.6" d="M241.377 300.473V387.703L239.432 388.831L239.403 300.473C239.403 300.113 239.597 299.792 239.908 299.607C240.57 299.228 241.386 299.705 241.386 300.473H241.377Z" fill="url(#paint9_linear_664_3016)"/>
<path opacity="0.6" d="M150.646 314.047V401.277L148.701 402.405L148.672 314.047C148.672 313.687 148.866 313.366 149.178 313.181C149.839 312.802 150.655 313.279 150.655 314.047H150.646Z" fill="url(#paint10_linear_664_3016)"/>
<path opacity="0.6" d="M123.001 276.154V363.384L121.057 364.512L121.027 276.154C121.027 275.794 121.222 275.473 121.533 275.289C122.194 274.909 123.011 275.386 123.011 276.154H123.001Z" fill="url(#paint11_linear_664_3016)"/>
<path opacity="0.6" d="M93.4036 243.852V331.082L91.4589 332.21L91.4297 243.852C91.4297 243.493 91.6242 243.172 91.9353 242.987C92.5965 242.608 93.4133 243.084 93.4133 243.852H93.4036Z" fill="url(#paint12_linear_664_3016)"/>
<path opacity="0.6" d="M211.778 336.557V423.787L209.833 424.915L209.804 336.557C209.804 336.197 209.998 335.876 210.309 335.691C210.971 335.312 211.787 335.789 211.787 336.557H211.778Z" fill="url(#paint13_linear_664_3016)"/>
<path opacity="0.6" d="M182.19 300.473V387.703L180.245 388.831L180.216 300.473C180.216 300.113 180.41 299.792 180.721 299.607C181.383 299.228 182.199 299.705 182.199 300.473H182.19Z" fill="url(#paint14_linear_664_3016)"/>
<defs>
<linearGradient id="paint0_linear_664_3016" x1="0.0278618" y1="361.926" x2="421.982" y2="361.926" gradientUnits="userSpaceOnUse">
<stop stop-color="#00BEFF"/>
<stop offset="1" stop-color="#00FF95"/>
</linearGradient>
<linearGradient id="paint1_linear_664_3016" x1="65.1467" y1="195.76" x2="356.854" y2="195.76" gradientUnits="userSpaceOnUse">
<stop stop-color="#00BEFF"/>
<stop offset="1" stop-color="#00FF95"/>
</linearGradient>
<linearGradient id="paint2_linear_664_3016" x1="65.1467" y1="162.281" x2="356.854" y2="162.281" gradientUnits="userSpaceOnUse">
<stop stop-color="#00BEFF"/>
<stop offset="1" stop-color="#00FF95"/>
</linearGradient>
<linearGradient id="paint3_linear_664_3016" x1="65.1465" y1="304.103" x2="356.853" y2="304.103" gradientUnits="userSpaceOnUse">
<stop stop-color="#00BEFF"/>
<stop offset="1" stop-color="#00FF95"/>
</linearGradient>
<linearGradient id="paint4_linear_664_3016" x1="65.1467" y1="113.341" x2="356.854" y2="113.341" gradientUnits="userSpaceOnUse">
<stop stop-color="#00BEFF"/>
<stop offset="1" stop-color="#00FF95"/>
</linearGradient>
<linearGradient id="paint5_linear_664_3016" x1="65.1467" y1="84.4929" x2="356.854" y2="84.4929" gradientUnits="userSpaceOnUse">
<stop stop-color="#00BEFF"/>
<stop offset="1" stop-color="#00FF95"/>
</linearGradient>
<linearGradient id="paint6_linear_664_3016" x1="329.17" y1="332.21" x2="329.17" y2="242.861" gradientUnits="userSpaceOnUse">
<stop stop-color="white" stop-opacity="0"/>
<stop offset="1" stop-color="white"/>
</linearGradient>
<linearGradient id="paint7_linear_664_3016" x1="299.572" y1="364.512" x2="299.572" y2="275.162" gradientUnits="userSpaceOnUse">
<stop stop-color="white" stop-opacity="0"/>
<stop offset="1" stop-color="white"/>
</linearGradient>
<linearGradient id="paint8_linear_664_3016" x1="272.9" y1="402.395" x2="272.9" y2="313.055" gradientUnits="userSpaceOnUse">
<stop stop-color="white" stop-opacity="0"/>
<stop offset="1" stop-color="white"/>
</linearGradient>
<linearGradient id="paint9_linear_664_3016" x1="240.385" y1="388.831" x2="240.385" y2="299.481" gradientUnits="userSpaceOnUse">
<stop stop-color="white" stop-opacity="0"/>
<stop offset="1" stop-color="white"/>
</linearGradient>
<linearGradient id="paint10_linear_664_3016" x1="149.664" y1="402.395" x2="149.664" y2="313.055" gradientUnits="userSpaceOnUse">
<stop stop-color="white" stop-opacity="0"/>
<stop offset="1" stop-color="white"/>
</linearGradient>
<linearGradient id="paint11_linear_664_3016" x1="122.009" y1="364.512" x2="122.009" y2="275.162" gradientUnits="userSpaceOnUse">
<stop stop-color="white" stop-opacity="0"/>
<stop offset="1" stop-color="white"/>
</linearGradient>
<linearGradient id="paint12_linear_664_3016" x1="92.4118" y1="-0.967451" x2="92.4118" y2="-0.967451" gradientUnits="userSpaceOnUse">
<stop stop-color="white" stop-opacity="0"/>
<stop offset="1" stop-color="white"/>
</linearGradient>
<linearGradient id="paint13_linear_664_3016" x1="210.796" y1="424.915" x2="210.796" y2="335.565" gradientUnits="userSpaceOnUse">
<stop stop-color="white" stop-opacity="0"/>
<stop offset="1" stop-color="white"/>
</linearGradient>
<linearGradient id="paint14_linear_664_3016" x1="181.198" y1="388.831" x2="181.198" y2="299.481" gradientUnits="userSpaceOnUse">
<stop stop-color="white" stop-opacity="0"/>
<stop offset="1" stop-color="white"/>
</linearGradient>
</defs>
</svg>
