<svg width="288" height="461" viewBox="0 0 288 461" fill="none" xmlns="http://www.w3.org/2000/svg">
<g clip-path="url(#clip0_769_5581)">
<path d="M-25.1784 609.903C16.4009 642.066 59.1912 673.717 107.757 693.835C156.32 713.962 211.834 721.744 261.689 705.069C287.389 696.476 310.761 681.737 336.669 673.792C400.673 654.149 469.015 678.196 531.778 701.504C594.542 724.812 663.55 747.821 726.95 726.301C760.648 714.861 789.061 691.79 815.038 667.473C883.186 603.659 940.128 527.91 982.468 444.7" stroke="url(#paint0_linear_769_5581)" stroke-miterlimit="10"/>
<path d="M-19.5354 608.997C22.3908 639.922 65.8912 670.798 114.962 690.875C118.898 692.485 122.877 694.021 126.891 695.482C173.084 712.211 223.614 718.386 270.035 703.435C272.261 702.711 274.472 701.954 276.672 701.145C300.3 692.602 322.068 679.757 345.84 672.49C360.689 667.962 375.689 665.677 390.857 665.212C441.8 663.635 493.914 682.233 542.671 700.515C549.74 703.172 556.891 705.824 564.096 708.403C621.343 728.96 682.456 745.748 739.259 727.023C772.883 715.936 801.25 693.121 827.238 669.131C895.453 606.183 952.588 531.099 994.88 448.215" stroke="url(#paint1_linear_769_5581)" stroke-miterlimit="10"/>
<path d="M-13.9903 607.677C28.2847 637.354 72.4836 667.462 122.068 687.511C126.045 689.118 130.063 690.662 134.118 692.12C180.888 708.974 231.313 715.953 278.294 701.388C280.545 700.69 282.766 699.935 284.992 699.15C309.048 690.715 331.056 678.056 354.911 670.784C369.928 666.226 385.013 663.865 400.327 663.376C451.763 661.716 504.311 680.504 553.454 699.121C560.586 701.82 567.779 704.519 575.034 707.159C632.673 728.133 694.158 745.669 751.449 727.337C784.999 716.603 813.309 694.042 839.319 670.381C907.6 608.299 964.94 533.882 1007.18 451.325" stroke="url(#paint2_linear_769_5581)" stroke-miterlimit="10"/>
<path d="M-8.53904 605.924C34.0846 634.353 78.982 663.694 129.081 683.704C133.099 685.308 137.159 686.849 141.253 688.315C188.602 705.284 238.92 713.077 286.469 698.91C288.738 698.225 290.986 697.485 293.239 696.725C317.744 688.443 339.963 675.914 363.908 668.649C379.093 664.06 394.271 661.635 409.724 661.109C461.643 659.364 514.631 678.355 564.162 697.296C571.347 700.045 578.602 702.796 585.908 705.486C643.941 726.867 705.786 745.16 763.585 727.225C797.051 716.842 825.324 694.538 851.346 671.204C919.692 609.988 977.227 536.237 1019.43 454.018" stroke="url(#paint3_linear_769_5581)" stroke-miterlimit="10"/>
<path d="M-3.18692 603.766C39.7738 630.955 85.3912 659.522 135.996 679.492C140.055 681.094 144.156 682.632 148.288 684.114C196.215 701.199 246.414 709.814 294.535 696.026C296.82 695.364 299.098 694.629 301.376 693.895C326.331 685.766 348.768 673.378 372.795 666.107C388.137 661.495 403.412 658.986 419.01 658.446C471.421 656.618 524.841 675.809 574.77 695.077C582.008 697.866 589.315 700.668 596.672 703.417C655.096 725.215 717.304 744.255 775.609 726.717C808.993 716.674 837.218 694.636 863.261 671.632C931.664 611.28 989.404 538.186 1031.55 456.303" stroke="url(#paint4_linear_769_5581)" stroke-miterlimit="10"/>
<path d="M2.05763 601.192C45.3671 627.134 91.6829 654.933 142.813 674.867C146.913 676.465 151.053 678.011 155.216 679.489C203.722 696.689 253.843 706.234 302.495 692.716C304.808 692.069 307.102 691.357 309.398 690.636C334.803 682.66 357.46 670.404 381.577 663.139C397.087 658.497 412.447 655.912 428.191 655.348C481.096 653.437 534.958 672.82 585.264 692.42C592.564 695.261 599.922 698.113 607.321 700.911C666.139 723.116 728.698 742.91 787.51 725.77C820.812 716.068 848.999 694.297 875.053 671.62C943.525 612.124 1001.47 539.707 1043.57 458.15" stroke="url(#paint5_linear_769_5581)" stroke-miterlimit="10"/>
<path d="M7.16854 598.238C50.8267 622.932 97.8428 649.954 149.486 669.859C153.627 671.455 157.809 672.998 162.009 674.493C211.094 691.808 261.114 702.189 310.319 689.035C312.648 688.412 314.972 687.706 317.296 687C343.151 679.177 366.016 667.06 390.226 659.791C405.904 655.119 421.356 652.47 437.238 651.88C490.635 649.885 544.928 669.468 595.633 689.395C602.984 692.287 610.395 695.188 617.855 698.038C677.067 720.65 739.976 741.199 799.304 724.467C832.515 715.094 860.661 693.601 886.737 671.253C955.275 612.623 1013.41 540.871 1055.47 459.643" stroke="url(#paint6_linear_769_5581)" stroke-miterlimit="10"/>
<path d="M12.1579 594.886C56.163 618.342 103.889 644.589 156.038 664.453C160.22 666.047 164.441 667.596 168.683 669.089C218.345 686.53 268.255 697.734 318.024 684.947C320.381 684.338 322.722 683.646 325.062 682.963C351.366 675.303 374.452 663.308 398.743 656.044C414.587 651.351 430.127 648.616 446.155 648.001C500.035 645.922 554.769 665.707 605.861 685.959C613.267 688.89 620.739 691.844 628.242 694.742C687.845 717.77 751.099 739.053 810.951 722.732C844.08 713.7 872.188 692.474 898.276 670.453C966.88 612.689 1025.22 541.605 1067.22 460.701" stroke="url(#paint7_linear_769_5581)" stroke-miterlimit="10"/>
<path d="M17.002 591.163C61.3559 613.371 109.781 638.85 162.444 658.676C166.668 660.267 170.93 661.814 175.211 663.314C225.451 680.87 275.252 692.908 325.583 680.487C327.956 679.902 330.326 679.225 332.693 678.557C359.456 671.052 382.753 659.186 407.124 651.927C423.127 647.202 438.759 644.402 454.936 643.754C509.309 641.591 564.486 661.569 615.965 682.155C623.432 685.138 630.946 688.14 638.501 691.088C698.497 714.523 762.092 736.559 822.462 720.637C855.492 711.922 883.568 690.985 909.668 669.292C978.328 612.392 1036.87 541.975 1078.84 461.399" stroke="url(#paint8_linear_769_5581)" stroke-miterlimit="10"/>
<path d="M21.7 587.067C66.4026 608.027 115.526 632.739 168.705 652.526C172.969 654.114 177.261 655.667 181.591 657.175C232.41 674.847 282.109 687.72 332.995 675.665C335.396 675.095 337.773 674.429 340.176 673.788C367.388 666.445 390.905 654.711 415.358 647.446C431.527 642.701 447.256 639.817 463.568 639.153C518.433 636.907 574.042 657.085 625.91 677.986C633.429 681.019 641.007 684.063 648.612 687.071C708.992 710.911 772.929 733.69 833.834 718.18C866.774 709.795 894.82 689.137 920.931 667.771C989.659 611.727 1048.4 541.985 1090.31 461.736" stroke="url(#paint9_linear_769_5581)" stroke-miterlimit="10"/>
<path d="M26.2294 582.615C71.2789 602.338 121.112 626.274 174.796 646.021C179.102 647.606 183.435 649.156 187.795 650.67C239.193 668.457 288.781 682.164 340.24 670.477C342.657 669.93 345.062 669.279 347.485 668.642C375.154 661.464 398.873 649.848 423.417 642.589C439.754 637.813 455.566 634.863 472.026 634.165C527.385 631.836 583.424 652.214 635.691 673.441C643.263 676.515 650.891 679.619 658.548 682.677C719.32 706.934 783.594 730.435 845.032 715.347C877.873 707.279 905.887 686.91 932.019 665.873C1000.81 610.695 1059.75 541.62 1101.62 461.698" stroke="url(#paint10_linear_769_5581)" stroke-miterlimit="10"/>
<path d="M30.5892 577.807C75.9874 596.282 126.519 619.45 180.717 639.168C185.064 640.751 189.438 642.298 193.835 643.829C245.812 661.731 295.291 676.262 347.31 664.961C349.754 664.43 352.177 663.793 354.626 663.181C382.753 656.167 406.683 644.68 431.308 637.416C447.814 632.61 463.711 629.584 480.316 628.871C536.159 626.447 592.65 647.029 645.293 668.589C652.927 671.715 660.597 674.867 668.305 677.975C729.471 702.639 794.078 726.882 856.039 712.214C888.782 704.464 916.775 684.375 942.918 663.676C1011.78 609.363 1070.91 540.944 1112.74 461.37" stroke="url(#paint11_linear_769_5581)" stroke-miterlimit="10"/>
<path d="M34.7779 572.653C80.5132 589.888 131.765 612.283 186.468 631.961C190.856 633.541 195.269 635.095 199.708 636.623C252.263 654.641 301.631 670.005 354.214 659.071C356.674 658.563 359.125 657.941 361.602 657.344C390.177 650.493 414.328 639.128 439.046 631.861C455.708 627.032 471.702 623.922 488.454 623.185C544.79 620.678 601.711 641.46 654.752 663.347C662.439 666.522 670.172 669.716 677.923 672.873C739.482 697.944 804.413 722.916 866.917 708.672C899.564 701.23 927.523 681.44 953.687 661.07C1022.6 607.621 1081.95 539.871 1123.72 460.621" stroke="url(#paint12_linear_769_5581)" stroke-miterlimit="10"/>
<path d="M38.7747 567.159C84.8587 583.147 136.809 604.774 192.027 624.413C196.457 625.991 200.911 627.542 205.389 629.078C258.521 647.22 307.78 663.409 360.926 652.841C363.414 652.348 365.883 651.74 368.376 651.166C397.409 644.479 421.761 633.242 446.571 625.971C463.401 621.112 479.487 617.937 496.378 617.165C553.207 614.574 610.559 635.557 663.989 657.768C671.738 660.986 679.512 664.238 687.324 667.447C749.275 692.935 814.535 718.617 877.58 704.807C910.119 697.68 938.065 678.183 964.239 658.15C1033.22 605.557 1092.77 538.482 1134.49 459.561" stroke="url(#paint13_linear_769_5581)" stroke-miterlimit="10"/>
<path d="M42.5658 561.343C88.9985 576.083 141.647 596.943 197.381 616.544C201.851 618.118 206.345 619.677 210.862 621.219C264.573 639.477 313.723 656.49 367.431 646.298C369.937 645.819 372.433 645.225 374.952 644.677C404.443 638.155 428.996 626.985 453.897 619.771C470.881 614.849 487.067 611.631 504.102 610.844C561.424 608.17 619.21 629.344 673.026 651.889C680.827 655.157 688.664 658.451 696.517 661.718C758.862 687.613 824.436 714.023 888.024 700.637C920.458 693.806 948.379 674.619 974.574 654.915C1043.63 603.188 1103.36 536.779 1145.05 458.186" stroke="url(#paint14_linear_769_5581)" stroke-miterlimit="10"/>
<path d="M46.1508 555.205C92.9305 568.707 146.289 588.791 202.528 608.352C207.04 609.924 211.575 611.48 216.121 613.028C270.411 631.401 319.45 649.247 373.721 639.422C376.253 638.967 378.768 638.388 381.316 637.845C411.273 631.499 436.018 620.445 461.012 613.228C478.164 608.275 494.433 604.991 511.617 604.17C569.422 601.411 627.658 622.788 681.862 645.659C689.715 648.976 697.604 652.321 705.509 655.637C768.247 681.939 834.138 709.068 898.277 696.117C930.605 689.592 958.511 670.707 984.718 651.331C1053.84 600.47 1113.78 534.728 1155.4 456.459" stroke="url(#paint15_linear_769_5581)" stroke-miterlimit="10"/>
<path d="M49.5288 548.755C96.6572 561.009 150.714 580.326 207.478 599.85C212.031 601.419 216.605 602.982 221.191 604.537C276.06 623.026 324.98 641.694 379.823 632.247C382.373 631.806 384.915 631.242 387.479 630.722C417.894 624.54 442.852 613.607 467.925 606.394C485.244 601.42 501.61 598.052 518.928 597.215C577.226 594.373 635.893 615.951 690.486 639.146C698.403 642.505 706.342 645.91 714.298 649.277C777.428 675.995 843.63 703.82 908.328 691.317C940.551 685.088 968.431 666.514 994.66 647.466C1063.83 597.469 1123.98 532.394 1165.56 454.454" stroke="url(#paint16_linear_769_5581)" stroke-miterlimit="10"/>
<path d="M52.6658 542.007C100.143 553.014 154.899 571.563 212.178 591.048C216.772 592.615 221.387 594.176 226.012 595.738C281.459 614.342 330.271 633.833 385.685 624.765C388.251 624.347 390.821 623.798 393.413 623.293C424.284 617.286 449.445 606.461 474.61 599.254C492.096 594.25 508.547 590.806 526.012 589.945C584.803 587.019 643.903 608.787 698.892 632.319C706.86 635.729 714.853 639.173 722.86 642.6C786.383 669.725 852.892 698.267 918.139 686.209C950.248 680.274 978.122 662.014 1004.36 643.294C1073.6 594.163 1133.95 529.755 1175.49 452.141" stroke="url(#paint17_linear_769_5581)" stroke-miterlimit="10"/>
<path d="M55.5701 534.974C103.394 544.742 158.86 562.516 216.644 581.961C221.279 583.525 225.934 585.093 230.599 586.662C286.623 605.391 335.325 625.706 391.303 617.005C393.897 616.602 396.483 616.076 399.102 615.587C430.43 609.754 455.805 599.039 481.05 591.836C498.694 586.8 515.238 583.292 532.852 582.397C592.135 579.388 651.677 601.358 707.046 625.202C715.068 628.652 723.121 632.159 731.171 635.624C795.078 663.154 861.905 692.404 927.712 680.794C959.717 675.145 987.564 657.205 1013.82 638.813C1083.12 590.537 1143.67 526.795 1185.15 449.518" stroke="url(#paint18_linear_769_5581)" stroke-miterlimit="10"/>
<path d="M58.2226 527.65C106.395 536.17 162.56 553.177 220.859 572.583C225.535 574.145 230.231 575.71 234.935 577.286C291.538 596.13 340.131 617.27 396.671 608.945C399.283 608.555 401.896 608.045 404.532 607.578C436.327 601.912 461.903 591.324 487.239 584.118C505.052 579.052 521.691 575.469 539.44 574.558C599.206 571.464 659.188 593.637 714.955 617.807C723.04 621.309 731.136 624.854 739.236 628.379C803.536 656.326 870.665 686.262 937.039 675.11C968.93 669.755 996.77 652.129 1023.03 634.064C1092.41 586.654 1153.15 523.58 1194.59 446.638" stroke="url(#paint19_linear_769_5581)" stroke-miterlimit="10"/>
<path d="M60.6287 520.057C109.15 527.33 166.013 543.569 224.828 562.937C229.545 564.496 234.282 566.058 239.016 567.64C296.197 586.6 344.671 608.561 401.781 600.624C404.419 600.26 407.05 599.762 409.715 599.301C441.967 593.81 467.746 583.33 493.173 576.131C511.152 571.043 527.876 567.385 545.774 566.439C606.033 563.263 666.448 585.625 722.601 610.13C730.737 613.682 738.886 617.277 747.048 620.854C811.74 649.208 879.17 679.839 946.101 669.144C977.872 664.062 1005.7 646.77 1031.99 629.034C1101.42 582.488 1162.37 520.08 1203.75 443.466" stroke="url(#paint20_linear_769_5581)" stroke-miterlimit="10"/>
<path d="M62.7595 512.191C111.618 518.225 169.201 533.69 228.519 553.027C233.278 554.583 238.044 556.151 242.827 557.742C300.587 576.817 348.952 599.602 406.623 592.041C409.279 591.691 411.938 591.208 414.629 590.772C447.345 585.467 473.33 575.085 498.838 567.89C516.975 562.771 533.794 559.038 551.836 558.078C612.588 554.818 673.444 577.383 729.986 602.213C738.175 605.805 746.384 609.462 754.588 613.087C819.673 641.858 887.407 673.163 954.903 662.937C986.561 658.14 1014.38 641.171 1040.68 623.763C1110.18 578.083 1171.32 516.341 1212.67 440.054" stroke="url(#paint21_linear_769_5581)" stroke-miterlimit="10"/>
<path d="M64.6211 504.074C113.828 508.859 172.11 523.557 231.943 542.856C236.745 544.399 241.55 545.974 246.372 547.572C304.711 566.762 352.968 590.371 411.2 583.187C413.882 582.862 416.559 582.393 419.268 581.97C452.44 576.839 478.629 566.566 504.227 559.377C522.533 554.227 539.434 550.428 557.625 549.434C618.87 546.091 680.157 568.856 737.087 594.011C745.338 597.655 753.591 601.35 761.845 605.035C827.323 634.213 895.349 666.202 963.409 656.454C994.956 651.932 1022.76 635.295 1049.08 618.215C1118.64 573.391 1179.99 512.326 1221.29 436.366" stroke="url(#paint22_linear_769_5581)" stroke-miterlimit="10"/>
<path d="M66.1918 495.71C115.748 499.247 174.728 513.178 235.076 532.438C239.919 533.979 244.764 535.561 249.625 537.166C308.543 556.472 356.68 580.902 415.485 574.097C418.184 573.785 420.889 573.331 423.624 572.934C457.262 567.978 483.653 557.823 509.333 550.629C527.807 545.449 544.804 541.575 563.131 540.556C624.859 537.128 686.589 560.085 743.915 585.576C752.218 589.27 760.532 593.017 768.84 596.742C834.712 626.327 903.031 658.999 971.666 649.722C1003.09 645.472 1030.89 629.171 1057.22 612.419C1126.86 568.46 1188.4 508.061 1229.65 432.427" stroke="url(#paint23_linear_769_5581)" stroke-miterlimit="10"/>
<path d="M67.4702 487.11C117.373 489.409 177.063 502.564 237.917 521.785C242.801 523.323 247.687 524.902 252.588 526.514C312.082 545.945 360.114 571.18 419.488 564.762C422.206 564.463 424.936 564.035 427.701 563.643C461.803 558.873 488.4 548.817 514.162 541.617C532.803 536.416 549.886 532.457 568.359 531.423C630.579 527.912 692.74 551.07 750.454 576.885C758.811 580.619 767.177 584.416 775.535 588.202C841.799 618.203 910.414 651.539 979.622 642.742C1010.93 638.765 1038.72 622.797 1065.07 606.374C1134.76 563.28 1196.52 503.549 1237.71 428.242" stroke="url(#paint24_linear_769_5581)" stroke-miterlimit="10"/>
<path d="M68.4344 478.28C118.686 479.332 179.074 491.719 240.444 510.901C245.368 512.436 250.294 514.023 255.226 515.631C315.299 535.177 363.212 561.234 423.158 555.195C425.901 554.921 428.652 554.496 431.433 554.127C465.991 549.532 492.79 539.593 518.644 532.39C537.443 527.157 554.619 523.133 573.24 522.066C635.954 518.471 698.556 541.831 756.648 567.969C765.067 571.755 773.485 575.602 781.885 579.436C848.542 609.845 917.453 643.844 987.223 635.535C1018.41 631.821 1046.2 616.199 1072.56 600.103C1142.32 557.875 1204.27 498.8 1245.43 423.831" stroke="url(#paint25_linear_769_5581)" stroke-miterlimit="10"/>
<path d="M69.0927 469.231C119.693 469.036 180.78 480.655 242.664 499.799C247.63 501.332 252.597 502.915 257.567 504.54C318.219 524.201 366.023 551.082 426.53 545.42C429.291 545.159 432.068 544.759 434.876 544.406C469.899 539.997 496.903 530.156 522.848 522.959C541.815 517.696 559.086 513.598 577.842 512.514C641.048 508.836 704.083 532.386 762.572 558.861C771.043 562.697 779.512 566.595 787.964 570.478C855.015 601.294 924.212 635.955 994.564 628.138C1025.63 624.687 1053.41 609.408 1079.8 593.641C1149.62 552.269 1211.76 493.869 1252.87 419.227" stroke="url(#paint26_linear_769_5581)" stroke-miterlimit="10"/>
<path d="M69.4237 459.972C120.371 458.539 182.17 469.373 244.567 488.488C249.575 490.018 254.583 491.599 259.592 493.23C320.822 513.007 368.509 540.7 429.586 535.426C432.373 535.19 435.168 534.804 438.004 534.465C473.491 530.242 500.701 520.501 526.727 513.308C545.86 508.024 563.216 503.85 582.12 502.732C645.809 498.969 709.285 522.722 768.164 549.511C776.688 553.388 785.22 557.337 793.722 561.28C861.164 592.512 930.652 627.816 1001.58 620.5C1032.53 617.313 1060.31 602.379 1086.71 586.94C1156.59 546.433 1218.94 488.701 1260 414.394" stroke="url(#paint27_linear_769_5581)" stroke-miterlimit="10"/>
<path d="M69.4273 450.5C120.723 447.818 183.221 457.885 246.134 476.961C251.182 478.489 256.229 480.077 261.277 481.716C323.087 501.608 370.665 530.124 432.302 525.237C435.107 525.014 437.929 524.643 440.781 524.328C476.732 520.291 504.137 510.656 530.254 503.46C549.555 498.145 566.996 493.895 586.048 492.753C650.23 488.907 714.147 512.861 773.414 539.975C782 543.904 790.573 547.901 799.127 551.895C866.953 583.532 936.738 619.489 1008.24 612.684C1039.07 609.749 1066.83 595.169 1093.24 580.067C1163.18 540.424 1225.74 483.359 1266.75 409.381" stroke="url(#paint28_linear_769_5581)" stroke-miterlimit="10"/>
<path d="M69.0768 440.852C120.722 436.923 183.917 446.222 247.345 465.26C252.435 466.784 257.523 468.37 262.611 470.016C324.997 490.033 372.46 519.352 434.667 514.852C437.49 514.644 440.337 514.297 443.219 513.987C479.625 510.135 507.245 500.6 533.443 493.408C552.902 488.061 570.448 483.739 589.634 482.581C654.309 478.651 718.659 502.796 778.312 530.245C786.95 534.223 795.587 538.263 804.183 542.305C872.403 574.349 942.468 610.946 1014.55 604.654C1045.26 601.971 1073.03 587.737 1099.45 572.973C1169.46 534.196 1232.21 477.798 1273.17 404.145" stroke="url(#paint29_linear_769_5581)" stroke-miterlimit="10"/>
<path d="M68.3856 431.009C120.368 425.84 184.283 434.366 248.215 453.373C253.345 454.895 258.473 456.488 263.592 458.13C326.557 478.262 373.911 508.405 436.679 504.282C439.528 504.098 442.394 503.765 445.303 503.47C482.173 499.804 509.999 490.367 536.277 483.18C555.903 477.812 573.534 473.414 592.869 472.222C658.038 468.199 722.817 492.554 782.869 520.329C791.57 524.35 800.247 528.447 808.905 532.541C877.516 565.002 947.874 602.232 1020.54 596.452C1051.13 594.022 1078.88 580.141 1105.32 565.706C1175.4 527.795 1238.35 472.062 1279.27 398.737" stroke="url(#paint30_linear_769_5581)" stroke-miterlimit="10"/>
<path d="M67.3203 420.987C119.651 414.571 184.265 422.329 248.712 441.298C253.884 442.817 259.053 444.407 264.209 446.065C327.753 466.313 374.989 497.268 438.338 493.535C441.204 493.365 444.098 493.047 447.023 492.775C484.357 489.295 512.377 479.964 538.748 472.774C558.542 467.376 576.257 462.901 595.737 461.695C661.389 457.587 726.619 482.146 787.049 510.244C795.802 514.315 804.532 518.462 813.241 522.606C882.246 555.474 952.885 593.335 1026.13 588.076C1056.59 585.887 1084.32 572.327 1110.8 558.265C1180.87 521.074 1244.09 466.153 1284.96 393.154" stroke="url(#paint31_linear_769_5581)" stroke-miterlimit="10"/>
<path d="M65.8876 410.807C118.567 403.143 183.889 410.135 248.842 429.064C254.054 430.58 259.263 432.177 264.46 433.833C328.583 454.196 375.702 485.963 439.62 482.618C442.515 482.463 445.424 482.169 448.378 481.913C486.176 478.618 514.401 469.386 540.852 462.2C560.815 456.771 578.623 452.232 598.242 450.99C664.387 446.8 730.05 471.549 790.876 499.983C799.683 504.094 808.473 508.293 817.223 512.496C886.622 545.77 957.544 584.252 1031.37 579.525C1061.71 577.59 1089.43 564.373 1115.93 550.65C1186.06 514.314 1249.49 460.061 1290.31 387.399" stroke="url(#paint32_linear_769_5581)" stroke-miterlimit="10"/>
<path d="M64.0673 400.465C117.094 391.563 183.116 397.778 248.584 416.668C253.838 418.182 259.077 419.775 264.322 421.45C329.014 441.926 376.036 474.509 440.514 471.55C443.424 471.418 446.361 471.139 449.343 470.898C487.603 467.799 516.034 458.666 542.578 451.476C562.697 446.025 580.602 441.402 600.367 440.136C667.005 435.862 733.099 460.812 794.313 489.57C803.182 493.733 812.014 497.981 820.816 502.233C890.607 535.925 961.804 575.015 1036.22 570.833C1066.44 569.13 1094.17 556.29 1120.68 542.894C1190.87 507.423 1254.5 453.836 1295.28 381.502" stroke="url(#paint33_linear_769_5581)" stroke-miterlimit="10"/>
<path d="M61.8663 389.983C115.241 379.833 181.962 385.28 247.945 404.132C253.23 405.641 258.521 407.233 263.805 408.915C329.075 429.507 375.98 462.902 441.028 460.331C443.966 460.214 446.921 459.948 449.92 459.721C488.645 456.808 517.282 447.773 543.906 440.587C564.193 435.106 582.181 430.417 602.093 429.127C669.224 424.77 735.749 449.92 797.361 479.005C806.282 483.218 815.178 487.507 824.032 491.81C894.216 525.908 965.699 565.609 1040.69 561.969C1070.78 560.507 1098.5 548.032 1125.04 534.965C1195.3 500.35 1259.13 447.44 1299.85 375.431" stroke="url(#paint34_linear_769_5581)" stroke-miterlimit="10"/>
<path d="M59.2547 379.354C112.977 367.966 180.408 372.638 246.896 391.449C252.222 392.956 257.552 394.555 262.868 396.232C328.715 416.95 375.512 451.158 441.122 448.964C444.078 448.861 447.059 448.62 450.086 448.408C489.273 445.691 518.106 436.752 544.822 429.563C565.275 424.062 583.35 419.287 603.409 417.972C671.023 413.53 738 438.874 799.989 468.292C808.963 472.545 817.91 476.895 826.815 481.247C897.393 515.752 969.154 556.053 1044.73 552.967C1074.7 551.746 1102.43 539.638 1128.97 526.899C1199.3 493.15 1263.32 440.905 1304 369.234" stroke="url(#paint35_linear_769_5581)" stroke-miterlimit="10"/>
<path d="M56.2253 368.62C110.296 355.984 178.426 359.889 245.429 378.662C250.796 380.166 256.168 381.762 261.521 383.456C327.946 404.289 374.627 439.31 440.806 437.504C443.778 437.424 446.787 437.198 449.842 437.001C489.491 434.48 518.532 425.63 545.33 418.436C565.951 412.904 584.121 408.054 604.315 406.723C672.421 402.198 739.83 427.742 802.209 457.475C811.245 461.78 820.243 466.18 829.191 470.581C900.16 505.503 972.21 546.394 1048.37 543.861C1078.22 542.872 1105.93 531.138 1132.5 518.729C1202.89 485.845 1267.12 434.268 1307.75 362.923" stroke="url(#paint36_linear_769_5581)" stroke-miterlimit="10"/>
<path d="M52.7905 357.933C107.21 344.05 176.038 347.187 243.556 365.921C248.965 367.422 254.376 369.025 259.77 370.717C326.774 391.665 373.339 427.488 440.085 426.09C443.085 426.026 446.112 425.813 449.182 425.639C489.286 423.303 518.54 414.562 545.421 407.363C566.211 401.8 584.464 396.885 604.805 395.52C673.405 390.911 741.245 416.656 804.022 446.715C813.11 451.07 822.162 455.51 831.169 459.973C902.522 495.3 974.861 536.783 1051.6 534.812C1081.32 534.055 1109.04 522.697 1135.62 510.615C1206.07 478.586 1270.5 427.686 1311.08 356.667" stroke="url(#paint37_linear_769_5581)" stroke-miterlimit="10"/>
<path d="M48.9426 347.284C103.709 332.163 173.247 334.524 241.271 353.218C246.721 354.717 252.172 356.317 257.604 358.026C325.187 379.089 371.645 415.727 438.951 414.715C441.967 414.673 445.021 414.476 448.121 414.308C488.688 412.167 518.14 403.513 545.111 396.32C566.057 390.735 584.406 385.735 604.895 384.346C673.987 379.654 742.27 405.592 805.424 435.983C814.565 440.379 823.677 444.88 832.726 449.391C904.473 485.125 977.092 527.188 1054.42 525.801C1084.02 525.265 1111.73 514.293 1138.32 502.538C1208.84 471.374 1273.46 421.14 1314 350.45" stroke="url(#paint38_linear_769_5581)" stroke-miterlimit="10"/>
<path d="M44.8093 336.024C99.9145 319.653 170.161 321.249 238.708 339.916C244.199 341.412 249.69 343.019 255.153 344.724C323.315 365.902 369.656 403.352 437.541 402.729C440.585 402.703 443.655 402.529 446.773 402.374C487.802 400.429 517.46 391.874 544.513 384.675C565.627 379.06 584.07 373.996 604.695 372.581C674.271 367.804 742.994 393.943 806.546 424.662C815.749 429.109 824.905 433.649 834.004 438.22C906.143 474.371 979.045 517.003 1056.96 516.19C1086.44 515.886 1114.15 505.29 1140.75 493.863C1211.33 463.555 1276.16 413.997 1316.65 343.634" stroke="url(#paint39_linear_769_5581)" stroke-miterlimit="10"/>
<path d="M40.2917 324.866C95.7455 307.247 166.691 308.076 235.753 326.704C241.285 328.197 246.817 329.802 252.318 331.524C321.057 352.828 367.282 391.079 435.737 390.845C438.799 390.832 441.897 390.674 445.041 390.544C486.532 388.794 516.397 380.328 543.541 373.135C564.821 367.499 583.351 362.35 604.123 360.91C674.191 356.05 743.346 382.39 807.286 413.433C816.541 417.93 825.748 422.52 834.901 427.131C907.434 463.689 980.609 506.889 1059.1 506.661C1088.46 506.578 1116.17 496.369 1142.79 485.269C1213.44 455.827 1278.46 406.925 1318.91 336.898" stroke="url(#paint40_linear_769_5581)" stroke-miterlimit="10"/>
<path d="M35.3856 313.831C91.1865 294.974 162.842 295.027 232.409 313.616C237.982 315.106 243.554 316.718 249.096 318.437C318.413 339.856 364.531 378.922 433.546 379.074C436.624 379.085 439.75 378.941 442.922 378.826C484.876 377.273 514.946 368.905 542.172 361.707C563.621 356.04 582.235 350.814 603.152 349.361C673.713 344.418 743.311 370.949 807.637 402.327C816.946 406.864 826.213 411.516 835.418 416.177C908.342 453.152 981.804 496.902 1060.88 497.267C1090.12 497.407 1117.82 487.582 1144.46 476.811C1215.18 448.235 1280.4 400 1320.8 330.299" stroke="url(#paint41_linear_769_5581)" stroke-miterlimit="10"/>
<path d="M30.0931 302.909C86.2426 282.804 158.596 282.09 228.679 300.639C234.293 302.127 239.906 303.737 245.488 305.463C315.383 326.997 361.386 366.865 430.969 367.415C434.075 367.441 437.217 367.321 440.406 367.219C482.821 365.872 513.091 357.58 540.407 350.389C562.024 344.692 580.732 339.402 601.787 337.912C672.841 332.886 742.87 359.618 807.584 391.32C816.955 395.909 826.266 400.6 835.521 405.321C908.839 442.702 982.586 487.002 1062.25 487.971C1091.36 488.323 1119.07 478.884 1145.71 468.45C1216.5 440.74 1281.92 393.171 1322.26 323.797" stroke="url(#paint42_linear_769_5581)" stroke-miterlimit="10"/>
<path d="M24.4389 292.133C80.9371 270.781 153.989 269.299 224.587 287.811C230.243 289.296 235.897 290.903 241.515 292.645C311.99 314.295 357.886 354.977 428.029 355.914C431.152 355.953 434.322 355.848 437.539 355.762C480.416 354.61 510.892 346.417 538.29 339.22C560.064 333.501 578.868 328.126 600.07 326.613C671.607 321.501 742.077 348.435 807.189 380.464C816.611 385.103 825.985 389.846 835.282 394.615C908.993 432.403 983.027 477.254 1063.26 478.824C1092.25 479.398 1119.95 470.344 1146.61 460.249C1217.47 433.395 1283.08 386.501 1323.38 317.465" stroke="url(#paint43_linear_769_5581)" stroke-miterlimit="10"/>
<path d="M18.414 281.495C75.2592 258.905 149.022 256.647 220.125 275.118C225.821 276.601 231.515 278.215 237.165 279.953C308.218 301.718 353.997 343.212 424.709 344.537C427.859 344.601 431.046 344.51 434.291 344.439C477.631 343.483 508.314 335.378 535.793 328.186C557.735 322.436 576.622 316.996 597.971 315.458C670 310.263 740.903 337.388 806.402 369.751C815.878 374.43 825.303 379.223 834.66 384.054C908.763 422.259 983.079 467.628 1063.9 469.834C1092.77 470.619 1120.47 461.962 1147.14 452.194C1218.06 426.206 1283.88 379.979 1324.13 311.269" stroke="url(#paint44_linear_769_5581)" stroke-miterlimit="10"/>
<path d="M12.0448 271.017C69.2387 247.179 143.699 244.154 215.318 262.587C221.056 264.066 226.78 265.676 232.478 267.433C304.11 289.314 349.773 331.61 421.052 333.342C424.219 333.42 427.433 333.354 430.696 333.296C474.496 332.545 505.387 324.53 532.948 317.332C555.056 311.562 574.03 306.035 595.525 304.473C668.048 299.195 739.391 326.522 805.28 359.2C814.818 363.931 824.295 368.774 833.696 373.643C908.192 412.256 982.798 458.155 1064.19 460.984C1092.94 461.98 1120.63 453.718 1147.33 444.28C1218.32 419.157 1284.33 373.596 1324.53 305.213" stroke="url(#paint45_linear_769_5581)" stroke-miterlimit="10"/>
<path d="M5.3214 260.699C62.864 235.613 138.023 231.821 210.157 250.215C215.936 251.692 221.7 253.309 227.438 255.063C299.647 277.069 345.205 320.169 417.054 322.29C420.249 322.383 423.479 322.339 426.769 322.297C471.032 321.742 502.12 313.813 529.782 306.623C552.058 300.823 571.125 295.232 592.757 293.644C665.763 288.281 737.547 315.81 803.824 348.812C813.416 353.584 822.943 358.487 832.395 363.406C907.285 402.425 982.181 448.855 1064.14 452.306C1092.77 453.514 1120.46 445.648 1147.17 436.537C1218.22 412.281 1284.44 367.386 1324.59 299.329" stroke="url(#paint46_linear_769_5581)" stroke-miterlimit="10"/>
<path d="M-1.73826 250.553C56.1513 224.23 132.021 219.661 204.66 238.015C210.48 239.49 216.285 241.104 222.063 242.865C294.851 264.986 340.293 308.889 412.71 311.408C415.921 311.524 419.18 311.486 422.496 311.468C467.22 311.119 498.516 303.279 526.259 296.083C548.702 290.262 567.856 284.586 589.635 282.974C663.133 277.528 735.35 305.247 802.014 338.584C811.667 343.407 821.248 348.35 830.741 353.328C906.013 392.762 981.203 439.692 1063.75 443.788C1092.26 445.198 1119.95 437.739 1146.67 428.955C1217.79 405.564 1284.2 361.325 1324.31 293.607" stroke="url(#paint47_linear_769_5581)" stroke-miterlimit="10"/>
<path d="M-9.11676 240.593C49.1117 213.02 125.691 207.677 198.842 226.012C204.703 227.483 210.547 229.105 216.365 230.873C289.731 253.11 335.058 297.815 408.043 300.731C411.272 300.861 414.557 300.848 417.893 300.834C463.079 300.681 494.592 292.992 522.409 285.728C545.022 279.918 564.258 274.124 586.184 272.488C660.176 266.949 732.833 294.88 799.885 328.541C809.59 333.415 819.222 338.408 828.777 343.437C904.443 383.279 979.927 430.72 1063.05 435.458C1091.44 437.08 1119.12 430.016 1145.85 421.559C1217.03 399.034 1283.64 355.461 1323.7 288.069" stroke="url(#paint48_linear_769_5581)" stroke-miterlimit="10"/>
<path d="M-16.8247 230.828C41.7525 202.007 119.04 195.898 192.696 214.193C198.599 215.662 204.484 217.28 210.331 219.054C284.276 241.406 329.496 286.925 403.041 290.228C406.297 290.372 409.599 290.383 412.962 290.384C458.609 290.437 490.331 282.826 518.228 275.567C541.008 269.736 560.339 263.868 582.401 262.206C656.887 256.584 729.975 284.715 797.415 318.701C807.173 323.615 816.868 328.66 826.463 333.748C902.522 373.996 978.301 421.938 1061.98 427.337C1090.25 429.161 1117.93 422.503 1144.67 414.374C1215.93 392.714 1282.73 349.808 1322.75 282.743" stroke="url(#paint49_linear_769_5581)" stroke-miterlimit="10"/>
<path d="M-24.8313 221.252C34.0928 191.194 112.081 184.307 186.262 202.565C192.205 204.031 198.132 205.647 204.017 207.438C278.54 229.905 323.645 276.226 397.757 279.927C401.03 280.095 404.359 280.121 407.751 280.138C453.858 280.396 485.787 272.874 513.767 265.609C536.715 259.748 556.131 253.804 578.34 252.118C653.309 246.41 726.839 274.734 794.675 309.056C804.496 314.022 814.232 319.115 823.879 324.253C900.33 364.918 976.398 413.339 1060.66 419.403C1088.81 421.429 1116.5 415.23 1143.24 407.375C1214.61 386.722 1281.56 344.341 1321.54 277.604" stroke="url(#paint50_linear_769_5581)" stroke-miterlimit="10"/>
<path d="M-33.1524 211.893C26.1205 180.587 104.807 172.933 179.503 191.152C185.488 192.616 191.454 194.239 197.38 196.027C272.48 218.619 317.481 265.735 392.152 269.832C395.452 270.015 398.799 270.054 402.207 270.094C448.775 270.558 480.903 263.113 508.974 255.855C532.09 249.963 551.588 243.952 573.944 242.242C649.406 236.451 723.377 264.977 791.592 299.623C801.464 304.639 811.254 309.772 820.963 314.961C897.808 356.033 974.174 404.936 1059.01 411.672C1087.04 413.901 1114.71 408.105 1141.48 400.58C1212.9 380.791 1280.07 339.079 1319.99 272.676" stroke="url(#paint51_linear_769_5581)" stroke-miterlimit="10"/>
<path d="M-41.7573 202.757C17.8643 170.203 97.2592 161.783 172.461 179.962C178.486 181.423 184.494 183.043 190.459 184.839C266.138 207.546 311.024 255.464 386.262 259.959C389.581 260.156 392.954 260.22 396.391 260.265C443.419 260.935 475.757 253.568 503.908 246.315C527.19 240.402 546.786 234.308 569.279 232.572C645.233 226.698 719.636 255.424 788.248 290.396C798.174 295.452 808.024 300.647 817.775 305.885C895.013 347.363 971.68 396.737 1057.07 404.155C1084.99 406.575 1112.65 401.196 1139.43 393.998C1210.92 375.074 1278.28 334.028 1318.16 267.953" stroke="url(#paint52_linear_769_5581)" stroke-miterlimit="10"/>
<path d="M-50.6486 193.854C9.31984 160.062 89.415 150.865 165.132 169.006C171.199 170.464 177.245 172.091 183.25 173.894C259.508 196.717 304.276 245.447 380.094 250.332C383.431 250.542 386.83 250.631 390.295 250.691C437.783 251.567 470.329 244.288 498.572 237.031C522.012 231.087 541.701 224.928 564.342 223.158C640.789 217.201 715.625 246.117 784.624 281.423C794.612 286.531 804.504 291.775 814.306 297.063C891.936 338.958 968.906 388.793 1054.86 396.893C1082.67 399.518 1110.32 394.541 1137.12 387.672C1208.67 369.605 1276.24 329.235 1316.06 263.485" stroke="url(#paint53_linear_769_5581)" stroke-miterlimit="10"/>
<path d="M-59.8165 185.186C0.500667 150.146 81.2943 140.181 157.526 158.283C163.634 159.739 169.722 161.363 175.756 163.171C252.593 186.11 297.256 235.644 373.63 240.935C376.993 241.17 380.409 241.272 383.892 241.346C431.832 242.425 464.587 235.226 492.92 227.975C516.527 222.01 536.302 215.765 559.088 213.981C636.018 207.939 711.295 237.057 780.694 272.68C790.733 277.838 800.689 283.123 810.532 288.469C888.555 330.772 965.827 381.069 1052.35 389.871C1080.04 392.687 1107.68 388.126 1134.49 381.585C1206.11 364.383 1273.88 324.669 1313.65 259.257" stroke="url(#paint54_linear_769_5581)" stroke-miterlimit="10"/>
<path d="M-69.2528 176.762C-8.5869 140.474 72.915 129.744 149.652 147.806C155.803 149.249 161.928 150.891 168.002 152.706C245.417 175.759 289.965 226.096 366.908 231.785C370.288 232.033 373.732 232.151 377.241 232.25C425.641 233.535 458.604 226.424 487.019 219.168C510.794 213.172 530.655 206.851 553.588 205.043C631.01 198.917 706.73 228.228 776.505 264.184C786.599 269.382 796.604 274.727 806.508 280.125C884.926 322.835 962.504 373.573 1049.58 383.085C1077.15 386.094 1104.78 381.947 1131.61 375.735C1203.29 359.397 1271.26 320.351 1310.99 255.267" stroke="url(#paint55_linear_769_5581)" stroke-miterlimit="10"/>
<path d="M-78.9506 168.607C-17.9378 131.082 64.2644 119.574 141.517 137.597C147.709 139.038 153.875 140.677 159.988 142.499C237.98 165.678 282.424 216.808 359.925 222.894C363.333 223.157 366.794 223.298 370.33 223.412C419.191 224.903 452.363 217.871 480.859 210.619C504.802 204.593 524.755 198.208 547.825 196.373C625.741 190.165 701.891 219.676 772.065 255.958C782.22 261.208 792.279 266.593 802.225 272.04C881.025 315.164 958.928 366.348 1046.55 376.56C1074.01 379.762 1101.64 376.031 1128.48 370.146C1200.22 354.674 1268.39 316.295 1308.07 251.536" stroke="url(#paint56_linear_769_5581)" stroke-miterlimit="10"/>
<path d="M-88.8895 160.713C-27.5378 121.938 55.3727 109.665 133.138 127.659C139.372 129.097 145.579 130.733 151.73 132.573C230.301 155.867 274.629 207.8 352.698 214.283C356.122 214.57 359.61 214.726 363.167 214.844C412.488 216.54 445.858 209.594 474.446 202.339C498.546 196.291 518.595 189.821 541.812 187.962C620.22 181.671 696.802 211.382 767.364 247.989C777.57 253.289 787.682 258.725 797.68 264.221C876.873 307.752 955.084 359.368 1043.27 370.302C1070.62 373.698 1098.22 370.379 1125.09 364.833C1196.9 350.217 1265.26 312.513 1304.9 248.082" stroke="url(#paint57_linear_769_5581)" stroke-miterlimit="10"/>
<path d="M-99.0722 153.099C-37.3718 113.076 46.2471 100.037 124.518 117.992C130.793 119.427 137.03 121.068 143.231 122.907C222.381 146.316 266.604 199.053 345.231 205.933C348.683 206.235 352.187 206.414 355.771 206.547C405.553 208.449 439.132 201.582 467.8 194.331C492.068 188.253 512.201 181.717 535.566 179.824C614.458 173.447 691.492 203.353 762.43 240.292C772.691 245.633 782.862 251.13 792.912 256.676C872.497 300.624 951.029 352.655 1039.75 364.317C1066.99 367.895 1094.58 365.002 1121.45 359.781C1193.33 346.031 1261.9 308.994 1301.49 244.89" stroke="url(#paint58_linear_769_5581)" stroke-miterlimit="10"/>
<path d="M-109.489 145.768C-47.4418 104.508 36.8774 90.6914 115.664 108.607C121.979 110.04 128.257 111.679 134.488 113.522C214.217 137.047 258.325 190.586 337.52 197.864C340.989 198.179 344.521 198.374 348.131 198.532C398.372 200.649 432.162 193.851 460.911 186.605C485.347 180.496 505.575 173.886 529.075 171.977C608.459 165.517 685.925 195.623 757.261 232.889C767.583 238.281 777.798 243.817 787.899 249.423C867.877 293.778 946.728 346.232 1036 358.624C1063.13 362.396 1090.7 359.915 1117.59 355.024C1189.52 342.138 1258.29 305.768 1297.83 242.001" stroke="url(#paint59_linear_769_5581)" stroke-miterlimit="10"/>
<path d="M-120.132 138.732C-57.7364 96.2232 27.2812 81.6395 106.583 99.5168C112.94 100.946 119.257 102.593 125.527 104.443C205.834 128.083 249.837 182.427 329.6 190.102C333.085 190.441 336.645 190.651 340.273 190.822C390.975 193.145 424.962 186.434 453.815 179.176C478.418 173.046 498.732 166.351 522.379 164.418C602.256 157.874 680.152 188.181 751.877 225.771C762.253 231.204 772.518 236.799 782.67 242.456C863.042 287.218 942.217 340.076 1032.02 353.225C1059.05 357.182 1086.6 355.125 1113.5 350.561C1185.5 338.541 1254.47 302.837 1293.97 239.397" stroke="url(#paint60_linear_769_5581)" stroke-miterlimit="10"/>
<path d="M-130.983 131.994C-68.2396 88.2474 17.4881 72.8882 97.2949 90.7252C103.693 92.1521 110.051 93.7956 116.361 95.6536C197.247 119.409 241.151 174.405 321.465 182.628C324.98 182.972 328.554 183.215 332.21 183.402C383.37 185.94 417.569 179.298 446.502 172.044C471.273 165.884 491.671 159.122 515.464 157.165C595.834 150.539 674.173 181.037 746.284 218.962C756.712 224.445 767.04 230.082 777.245 235.789C858.008 280.968 937.508 334.22 1027.86 348.119C1054.77 352.258 1082.31 350.625 1109.23 346.39C1181.3 335.226 1250.47 300.189 1289.91 237.086" stroke="url(#paint61_linear_769_5581)" stroke-miterlimit="10"/>
<path d="M-142 125.336C-78.9083 80.3418 7.51797 64.2151 87.8498 82.0154C94.2889 83.4397 100.687 85.0902 107.036 86.9555C188.499 110.836 232.297 166.636 313.169 175.255C316.701 175.623 320.302 175.881 323.987 176.073C375.599 178.815 410.015 172.263 439.03 165.004C463.958 158.822 484.462 151.978 508.392 149.994C589.245 143.283 668.025 173.984 740.524 212.233C751.014 217.768 761.384 223.454 771.64 229.21C852.797 274.796 932.071 332.48 1023.52 343.101C1050.49 346.235 1077.84 346.215 1104.78 342.308C1176.91 332.01 1246.27 297.638 1285.67 234.861" stroke="url(#paint62_linear_769_5581)" stroke-miterlimit="10"/>
<path d="M-153.275 119.313C-89.8344 73.0712 -2.70966 56.177 78.1373 73.9387C84.6176 75.3603 91.0567 77.0082 97.4448 78.8806C179.486 102.876 223.168 159.489 304.61 168.496C308.169 168.879 311.787 169.16 315.49 169.365C367.56 172.323 402.177 165.839 431.283 158.586C456.379 152.373 476.966 145.462 501.045 143.445C582.39 136.651 661.602 167.552 734.501 206.118C745.044 211.692 755.474 217.44 765.772 223.245C847.323 269.237 926.942 326.923 1018.9 338.695C1045.77 342.134 1073.1 342.415 1100.05 338.837C1172.24 329.403 1241.82 295.7 1281.17 233.25" stroke="url(#paint63_linear_769_5581)" stroke-miterlimit="10"/>
<path d="M-164.73 113.613C-100.943 66.1334 -13.108 48.4637 68.2444 66.1852C74.7658 67.6041 81.2461 69.2493 87.6637 71.127C170.284 95.2382 213.858 152.665 295.86 162.058C299.437 162.454 303.083 162.751 306.812 162.981C359.342 166.145 394.167 159.748 423.355 152.49C448.619 146.247 469.291 139.261 493.515 137.229C575.353 130.351 654.998 161.443 728.283 200.343C738.888 205.97 749.362 211.756 759.71 217.621C841.653 264.03 921.644 321.682 1014.1 334.631C1040.85 338.375 1068.18 338.96 1095.14 335.709C1167.4 327.141 1237.17 294.104 1276.47 231.98" stroke="url(#paint64_linear_769_5581)" stroke-miterlimit="10"/>
<path d="M-176.368 108.245C-112.232 59.5178 -23.6984 41.0806 58.1692 58.7636C64.7317 60.1798 71.2513 61.8321 77.7084 63.717C160.907 87.9436 204.374 146.184 286.936 155.964C290.529 156.383 294.203 156.695 297.959 156.94C350.949 160.32 385.985 153.992 415.253 146.738C440.683 140.474 461.441 133.412 485.813 131.347C568.144 124.385 648.229 155.679 721.903 194.904C732.56 200.581 743.096 206.419 753.496 212.334C835.832 259.15 916.198 316.748 1009.14 330.915C1035.78 334.972 1063.09 335.84 1090.08 332.928C1162.4 325.226 1232.37 292.854 1271.63 231.058" stroke="url(#paint65_linear_769_5581)" stroke-miterlimit="10"/>
<path d="M-188.18 103.222C-123.705 53.2453 -34.4534 34.0441 47.9194 51.6868C54.5231 53.1004 61.0839 54.75 67.5803 56.6421C151.348 80.9821 194.706 140.046 277.839 150.204C281.46 150.639 285.15 150.974 288.926 151.223C342.376 154.808 377.612 148.557 406.971 141.31C432.559 135.014 453.421 127.879 477.928 125.797C560.744 118.741 641.268 150.247 715.33 189.797C726.041 195.514 736.629 201.402 747.079 207.376C829.799 254.598 910.574 312.128 1003.98 327.516C1030.49 331.888 1057.81 333.05 1084.8 330.466C1157.18 323.617 1227.36 291.924 1266.57 230.455" stroke="url(#paint66_linear_769_5581)" stroke-miterlimit="10"/>
<path d="M-200.145 98.5382C-135.324 47.3232 -45.3718 27.3447 37.5145 44.9587C44.1593 46.3696 50.7594 48.0264 57.2951 49.9256C141.64 74.3908 184.892 134.259 268.596 144.805C272.232 145.263 275.95 145.613 279.754 145.878C333.655 149.778 369.108 143.506 398.559 136.255C424.313 129.938 445.262 122.718 469.916 120.612C553.225 113.473 634.182 145.169 708.64 185.055C719.412 190.824 730.052 196.762 740.546 202.775C823.657 250.413 905.213 305.889 998.706 324.476C1025.01 329.702 1052.4 330.616 1079.42 328.36C1151.87 322.378 1222.24 291.35 1261.4 230.207" stroke="url(#paint67_linear_769_5581)" stroke-miterlimit="10"/>
<path d="M-212.255 94.2027C-147.084 41.7398 -56.4324 20.9841 26.9672 38.5694C33.6532 39.9776 40.2945 41.6317 46.8696 43.5381C131.793 68.1186 174.928 128.799 259.201 139.733C262.866 140.206 266.599 140.58 270.431 140.86C324.787 144.944 360.455 138.772 389.986 131.526C415.909 125.179 436.941 117.892 461.743 115.752C545.545 108.529 626.943 140.427 701.78 180.636C712.604 186.455 723.296 192.444 733.851 198.509C817.356 246.554 899.265 302.379 993.272 321.77C1019.47 327.171 1046.85 328.518 1073.88 326.59C1146.39 321.473 1216.97 291.103 1256.08 230.307" stroke="url(#paint68_linear_769_5581)" stroke-miterlimit="10"/>
<path d="M-224.525 90.245C-158.996 36.5362 -67.6457 15.013 16.2692 32.5599C22.9963 33.9653 29.6769 35.6266 36.2833 37.5285C121.786 62.2244 164.814 123.719 249.646 135.04C253.329 135.526 257.088 135.924 260.938 136.217C315.756 140.498 351.63 134.424 381.244 127.173C407.335 120.795 428.461 113.434 453.399 111.278C537.693 103.972 619.523 136.071 694.747 176.604C705.625 182.463 716.378 188.503 726.974 194.627C810.873 243.079 893.136 299.243 987.647 319.447C1013.75 325.024 1041.09 326.802 1068.14 325.201C1140.71 320.95 1211.49 291.245 1250.56 230.777" stroke="url(#paint69_linear_769_5581)" stroke-miterlimit="10"/>
<path d="M-236.918 86.6818C-171.05 31.7234 -78.9912 9.4345 5.42906 26.9411C12.1973 28.3439 18.9092 30.0007 25.563 31.9213C111.644 56.7325 154.565 119.041 239.956 130.758C243.664 131.269 247.443 131.671 251.319 131.989C306.591 136.454 342.671 130.479 372.375 123.233C398.622 116.833 419.844 109.398 444.93 107.208C529.707 99.8172 611.98 132.108 687.601 172.978C698.54 178.889 709.335 184.977 719.983 191.151C804.274 240.019 886.906 296.504 981.915 317.541C1007.93 323.295 1035.24 325.504 1062.29 324.231C1134.93 320.834 1205.92 291.808 1244.93 231.664" stroke="url(#paint70_linear_769_5581)" stroke-miterlimit="10"/>
<path d="M-249.443 83.5115C-177.927 22.8104 -75.4327 0.761204 14.7224 26.6991C105.14 52.7049 147.822 120.296 241.583 128.127C346.747 136.912 382.669 108.202 436.344 103.503C533.947 94.9469 628.193 138.754 712.877 188.03C797.561 237.306 880.561 294.112 976.07 315.981C1071.58 337.851 1185.72 314.99 1239.2 232.9" stroke="url(#paint71_linear_769_5581)" stroke-miterlimit="10"/>
</g>
<defs>
<linearGradient id="paint0_linear_769_5581" x1="-0.62283" y1="473.495" x2="946.445" y2="645.606" gradientUnits="userSpaceOnUse">
<stop stop-color="#00BEFF" stop-opacity="0"/>
<stop offset="0.5" stop-color="#00FF95"/>
<stop offset="1" stop-color="#00BEFF" stop-opacity="0"/>
</linearGradient>
<linearGradient id="paint1_linear_769_5581" x1="4.93343" y1="473.123" x2="959.312" y2="646.562" gradientUnits="userSpaceOnUse">
<stop stop-color="#00BFFE" stop-opacity="0"/>
<stop offset="0.5" stop-color="#00FE96"/>
<stop offset="1" stop-color="#00BFFE" stop-opacity="0"/>
</linearGradient>
<linearGradient id="paint2_linear_769_5581" x1="10.3955" y1="472.316" x2="972.104" y2="647.088" gradientUnits="userSpaceOnUse">
<stop stop-color="#00C0FC" stop-opacity="0"/>
<stop offset="0.5" stop-color="#00FD98"/>
<stop offset="1" stop-color="#00C0FC" stop-opacity="0"/>
</linearGradient>
<linearGradient id="paint3_linear_769_5581" x1="15.7582" y1="471.106" x2="984.806" y2="647.211" gradientUnits="userSpaceOnUse">
<stop stop-color="#00C1FB" stop-opacity="0"/>
<stop offset="0.5" stop-color="#00FC99"/>
<stop offset="1" stop-color="#00C1FB" stop-opacity="0"/>
</linearGradient>
<linearGradient id="paint4_linear_769_5581" x1="21.0218" y1="469.491" x2="997.39" y2="646.926" gradientUnits="userSpaceOnUse">
<stop stop-color="#00C2F9" stop-opacity="0"/>
<stop offset="0.5" stop-color="#00FB9B"/>
<stop offset="1" stop-color="#00C2F9" stop-opacity="0"/>
</linearGradient>
<linearGradient id="paint5_linear_769_5581" x1="26.1743" y1="467.479" x2="1009.87" y2="646.247" gradientUnits="userSpaceOnUse">
<stop stop-color="#00C3F8" stop-opacity="0"/>
<stop offset="0.5" stop-color="#00FA9C"/>
<stop offset="1" stop-color="#00C3F8" stop-opacity="0"/>
</linearGradient>
<linearGradient id="paint6_linear_769_5581" x1="31.203" y1="465.09" x2="1022.22" y2="645.188" gradientUnits="userSpaceOnUse">
<stop stop-color="#00C3F6" stop-opacity="0"/>
<stop offset="0.5" stop-color="#00FA9E"/>
<stop offset="1" stop-color="#00C3F6" stop-opacity="0"/>
</linearGradient>
<linearGradient id="paint7_linear_769_5581" x1="36.0966" y1="462.32" x2="1034.44" y2="643.748" gradientUnits="userSpaceOnUse">
<stop stop-color="#00C4F5" stop-opacity="0"/>
<stop offset="0.5" stop-color="#00F99F"/>
<stop offset="1" stop-color="#00C4F5" stop-opacity="0"/>
</linearGradient>
<linearGradient id="paint8_linear_769_5581" x1="40.8433" y1="459.189" x2="1046.51" y2="641.949" gradientUnits="userSpaceOnUse">
<stop stop-color="#00C5F3" stop-opacity="0"/>
<stop offset="0.5" stop-color="#00F8A1"/>
<stop offset="1" stop-color="#00C5F3" stop-opacity="0"/>
</linearGradient>
<linearGradient id="paint9_linear_769_5581" x1="45.4421" y1="455.695" x2="1058.44" y2="639.787" gradientUnits="userSpaceOnUse">
<stop stop-color="#00C6F2" stop-opacity="0"/>
<stop offset="0.5" stop-color="#00F7A2"/>
<stop offset="1" stop-color="#00C6F2" stop-opacity="0"/>
</linearGradient>
<linearGradient id="paint10_linear_769_5581" x1="49.8723" y1="451.845" x2="1070.2" y2="637.269" gradientUnits="userSpaceOnUse">
<stop stop-color="#00C7F0" stop-opacity="0"/>
<stop offset="0.5" stop-color="#00F6A4"/>
<stop offset="1" stop-color="#00C7F0" stop-opacity="0"/>
</linearGradient>
<linearGradient id="paint11_linear_769_5581" x1="54.139" y1="447.66" x2="1081.79" y2="634.415" gradientUnits="userSpaceOnUse">
<stop stop-color="#00C8EF" stop-opacity="0"/>
<stop offset="0.5" stop-color="#00F5A5"/>
<stop offset="1" stop-color="#00C8EF" stop-opacity="0"/>
</linearGradient>
<linearGradient id="paint12_linear_769_5581" x1="58.2214" y1="443.148" x2="1093.19" y2="631.232" gradientUnits="userSpaceOnUse">
<stop stop-color="#00C9ED" stop-opacity="0"/>
<stop offset="0.5" stop-color="#00F4A7"/>
<stop offset="1" stop-color="#00C9ED" stop-opacity="0"/>
</linearGradient>
<linearGradient id="paint13_linear_769_5581" x1="62.11" y1="438.305" x2="1104.4" y2="627.72" gradientUnits="userSpaceOnUse">
<stop stop-color="#00CAEC" stop-opacity="0"/>
<stop offset="0.5" stop-color="#00F3A8"/>
<stop offset="1" stop-color="#00CAEC" stop-opacity="0"/>
</linearGradient>
<linearGradient id="paint14_linear_769_5581" x1="65.801" y1="433.152" x2="1115.42" y2="623.899" gradientUnits="userSpaceOnUse">
<stop stop-color="#00CBEA" stop-opacity="0"/>
<stop offset="0.5" stop-color="#00F2AA"/>
<stop offset="1" stop-color="#00CBEA" stop-opacity="0"/>
</linearGradient>
<linearGradient id="paint15_linear_769_5581" x1="69.2743" y1="427.684" x2="1126.22" y2="619.764" gradientUnits="userSpaceOnUse">
<stop stop-color="#00CCE9" stop-opacity="0"/>
<stop offset="0.5" stop-color="#00F1AB"/>
<stop offset="1" stop-color="#00CCE9" stop-opacity="0"/>
</linearGradient>
<linearGradient id="paint16_linear_769_5581" x1="72.537" y1="421.925" x2="1136.81" y2="615.334" gradientUnits="userSpaceOnUse">
<stop stop-color="#00CDE7" stop-opacity="0"/>
<stop offset="0.5" stop-color="#00F0AD"/>
<stop offset="1" stop-color="#00CDE7" stop-opacity="0"/>
</linearGradient>
<linearGradient id="paint17_linear_769_5581" x1="75.5684" y1="415.87" x2="1147.16" y2="610.609" gradientUnits="userSpaceOnUse">
<stop stop-color="#00CEE6" stop-opacity="0"/>
<stop offset="0.5" stop-color="#00EFAE"/>
<stop offset="1" stop-color="#00CEE6" stop-opacity="0"/>
</linearGradient>
<linearGradient id="paint18_linear_769_5581" x1="78.3557" y1="409.536" x2="1157.26" y2="605.606" gradientUnits="userSpaceOnUse">
<stop stop-color="#00CEE4" stop-opacity="0"/>
<stop offset="0.5" stop-color="#00EFB0"/>
<stop offset="1" stop-color="#00CEE4" stop-opacity="0"/>
</linearGradient>
<linearGradient id="paint19_linear_769_5581" x1="80.8874" y1="402.932" x2="1167.14" y2="600.336" gradientUnits="userSpaceOnUse">
<stop stop-color="#00CFE3" stop-opacity="0"/>
<stop offset="0.5" stop-color="#00EEB1"/>
<stop offset="1" stop-color="#00CFE3" stop-opacity="0"/>
</linearGradient>
<linearGradient id="paint20_linear_769_5581" x1="83.1416" y1="396.065" x2="1176.74" y2="594.804" gradientUnits="userSpaceOnUse">
<stop stop-color="#00D0E1" stop-opacity="0"/>
<stop offset="0.5" stop-color="#00EDB3"/>
<stop offset="1" stop-color="#00D0E1" stop-opacity="0"/>
</linearGradient>
<linearGradient id="paint21_linear_769_5581" x1="85.1284" y1="388.935" x2="1186.08" y2="589.01" gradientUnits="userSpaceOnUse">
<stop stop-color="#00D1E0" stop-opacity="0"/>
<stop offset="0.5" stop-color="#00ECB4"/>
<stop offset="1" stop-color="#00D1E0" stop-opacity="0"/>
</linearGradient>
<linearGradient id="paint22_linear_769_5581" x1="86.8443" y1="381.563" x2="1195.13" y2="582.972" gradientUnits="userSpaceOnUse">
<stop stop-color="#00D2DE" stop-opacity="0"/>
<stop offset="0.5" stop-color="#00EBB6"/>
<stop offset="1" stop-color="#00D2DE" stop-opacity="0"/>
</linearGradient>
<linearGradient id="paint23_linear_769_5581" x1="88.2675" y1="373.955" x2="1203.9" y2="576.7" gradientUnits="userSpaceOnUse">
<stop stop-color="#00D3DD" stop-opacity="0"/>
<stop offset="0.5" stop-color="#00EAB7"/>
<stop offset="1" stop-color="#00D3DD" stop-opacity="0"/>
</linearGradient>
<linearGradient id="paint24_linear_769_5581" x1="89.3885" y1="366.109" x2="1212.39" y2="570.191" gradientUnits="userSpaceOnUse">
<stop stop-color="#00D4DB" stop-opacity="0"/>
<stop offset="0.5" stop-color="#00E9B9"/>
<stop offset="1" stop-color="#00D4DB" stop-opacity="0"/>
</linearGradient>
<linearGradient id="paint25_linear_769_5581" x1="90.2133" y1="358.047" x2="1220.55" y2="563.463" gradientUnits="userSpaceOnUse">
<stop stop-color="#00D5DA" stop-opacity="0"/>
<stop offset="0.5" stop-color="#00E8BA"/>
<stop offset="1" stop-color="#00D5DA" stop-opacity="0"/>
</linearGradient>
<linearGradient id="paint26_linear_769_5581" x1="90.7107" y1="349.772" x2="1228.41" y2="556.525" gradientUnits="userSpaceOnUse">
<stop stop-color="#00D6D8" stop-opacity="0"/>
<stop offset="0.5" stop-color="#00E7BC"/>
<stop offset="1" stop-color="#00D6D8" stop-opacity="0"/>
</linearGradient>
<linearGradient id="paint27_linear_769_5581" x1="90.8887" y1="341.298" x2="1235.93" y2="549.387" gradientUnits="userSpaceOnUse">
<stop stop-color="#00D7D7" stop-opacity="0"/>
<stop offset="0.5" stop-color="#00E6BD"/>
<stop offset="1" stop-color="#00D7D7" stop-opacity="0"/>
</linearGradient>
<linearGradient id="paint28_linear_769_5581" x1="90.7359" y1="332.63" x2="1243.12" y2="542.053" gradientUnits="userSpaceOnUse">
<stop stop-color="#00D8D5" stop-opacity="0"/>
<stop offset="0.5" stop-color="#00E5BF"/>
<stop offset="1" stop-color="#00D8D5" stop-opacity="0"/>
</linearGradient>
<linearGradient id="paint29_linear_769_5581" x1="90.2308" y1="323.777" x2="1249.97" y2="534.536" gradientUnits="userSpaceOnUse">
<stop stop-color="#00D9D4" stop-opacity="0"/>
<stop offset="0.5" stop-color="#00E4C0"/>
<stop offset="1" stop-color="#00D9D4" stop-opacity="0"/>
</linearGradient>
<linearGradient id="paint30_linear_769_5581" x1="89.3733" y1="314.738" x2="1256.46" y2="526.833" gradientUnits="userSpaceOnUse">
<stop stop-color="#00D9D2" stop-opacity="0"/>
<stop offset="0.5" stop-color="#00E4C2"/>
<stop offset="1" stop-color="#00D9D2" stop-opacity="0"/>
</linearGradient>
<linearGradient id="paint31_linear_769_5581" x1="88.1497" y1="305.531" x2="1262.58" y2="518.961" gradientUnits="userSpaceOnUse">
<stop stop-color="#00DAD1" stop-opacity="0"/>
<stop offset="0.5" stop-color="#00E3C3"/>
<stop offset="1" stop-color="#00DAD1" stop-opacity="0"/>
</linearGradient>
<linearGradient id="paint32_linear_769_5581" x1="86.557" y1="296.175" x2="1268.34" y2="510.941" gradientUnits="userSpaceOnUse">
<stop stop-color="#00DBCF" stop-opacity="0"/>
<stop offset="0.5" stop-color="#00E2C5"/>
<stop offset="1" stop-color="#00DBCF" stop-opacity="0"/>
</linearGradient>
<linearGradient id="paint33_linear_769_5581" x1="84.5767" y1="286.659" x2="1273.71" y2="502.76" gradientUnits="userSpaceOnUse">
<stop stop-color="#00DCCE" stop-opacity="0"/>
<stop offset="0.5" stop-color="#00E1C6"/>
<stop offset="1" stop-color="#00DCCE" stop-opacity="0"/>
</linearGradient>
<linearGradient id="paint34_linear_769_5581" x1="82.2156" y1="277" x2="1278.69" y2="494.436" gradientUnits="userSpaceOnUse">
<stop stop-color="#00DDCC" stop-opacity="0"/>
<stop offset="0.5" stop-color="#00E0C8"/>
<stop offset="1" stop-color="#00DDCC" stop-opacity="0"/>
</linearGradient>
<linearGradient id="paint35_linear_769_5581" x1="79.4404" y1="267.216" x2="1283.26" y2="485.987" gradientUnits="userSpaceOnUse">
<stop stop-color="#00DECB" stop-opacity="0"/>
<stop offset="0.5" stop-color="#00DFC9"/>
<stop offset="1" stop-color="#00DECB" stop-opacity="0"/>
</linearGradient>
<linearGradient id="paint36_linear_769_5581" x1="76.2474" y1="257.327" x2="1287.42" y2="477.433" gradientUnits="userSpaceOnUse">
<stop stop-color="#00DFC9" stop-opacity="0"/>
<stop offset="0.5" stop-color="#00DECB"/>
<stop offset="1" stop-color="#00DFC9" stop-opacity="0"/>
</linearGradient>
<linearGradient id="paint37_linear_769_5581" x1="72.6489" y1="247.484" x2="1291.16" y2="468.924" gradientUnits="userSpaceOnUse">
<stop stop-color="#00E0C8" stop-opacity="0"/>
<stop offset="0.5" stop-color="#00DDCC"/>
<stop offset="1" stop-color="#00E0C8" stop-opacity="0"/>
</linearGradient>
<linearGradient id="paint38_linear_769_5581" x1="68.6249" y1="237.748" x2="1294.49" y2="460.524" gradientUnits="userSpaceOnUse">
<stop stop-color="#00E1C6" stop-opacity="0"/>
<stop offset="0.5" stop-color="#00DCCE"/>
<stop offset="1" stop-color="#00E1C6" stop-opacity="0"/>
</linearGradient>
<linearGradient id="paint39_linear_769_5581" x1="64.1985" y1="228.101" x2="1297.4" y2="452.211" gradientUnits="userSpaceOnUse">
<stop stop-color="#00E2C5" stop-opacity="0"/>
<stop offset="0.5" stop-color="#00DBCF"/>
<stop offset="1" stop-color="#00E2C5" stop-opacity="0"/>
</linearGradient>
<linearGradient id="paint40_linear_769_5581" x1="59.3759" y1="218.565" x2="1299.93" y2="444.01" gradientUnits="userSpaceOnUse">
<stop stop-color="#00E3C3" stop-opacity="0"/>
<stop offset="0.5" stop-color="#00DAD1"/>
<stop offset="1" stop-color="#00E3C3" stop-opacity="0"/>
</linearGradient>
<linearGradient id="paint41_linear_769_5581" x1="54.1651" y1="209.152" x2="1302.06" y2="435.931" gradientUnits="userSpaceOnUse">
<stop stop-color="#00E4C2" stop-opacity="0"/>
<stop offset="0.5" stop-color="#00D9D2"/>
<stop offset="1" stop-color="#00E4C2" stop-opacity="0"/>
</linearGradient>
<linearGradient id="paint42_linear_769_5581" x1="48.5658" y1="199.861" x2="1303.82" y2="427.978" gradientUnits="userSpaceOnUse">
<stop stop-color="#00E4C0" stop-opacity="0"/>
<stop offset="0.5" stop-color="#00D9D4"/>
<stop offset="1" stop-color="#00E4C0" stop-opacity="0"/>
</linearGradient>
<linearGradient id="paint43_linear_769_5581" x1="42.605" y1="190.717" x2="1305.2" y2="420.168" gradientUnits="userSpaceOnUse">
<stop stop-color="#00E5BF" stop-opacity="0"/>
<stop offset="0.5" stop-color="#00D8D5"/>
<stop offset="1" stop-color="#00E5BF" stop-opacity="0"/>
</linearGradient>
<linearGradient id="paint44_linear_769_5581" x1="36.2833" y1="181.712" x2="1306.21" y2="412.497" gradientUnits="userSpaceOnUse">
<stop stop-color="#00E6BD" stop-opacity="0"/>
<stop offset="0.5" stop-color="#00D7D7"/>
<stop offset="1" stop-color="#00E6BD" stop-opacity="0"/>
</linearGradient>
<linearGradient id="paint45_linear_769_5581" x1="29.5958" y1="172.874" x2="1306.88" y2="404.994" gradientUnits="userSpaceOnUse">
<stop stop-color="#00E7BC" stop-opacity="0"/>
<stop offset="0.5" stop-color="#00D6D8"/>
<stop offset="1" stop-color="#00E7BC" stop-opacity="0"/>
</linearGradient>
<linearGradient id="paint46_linear_769_5581" x1="22.5738" y1="164.199" x2="1307.19" y2="397.653" gradientUnits="userSpaceOnUse">
<stop stop-color="#00E8BA" stop-opacity="0"/>
<stop offset="0.5" stop-color="#00D5DA"/>
<stop offset="1" stop-color="#00E8BA" stop-opacity="0"/>
</linearGradient>
<linearGradient id="paint47_linear_769_5581" x1="15.2138" y1="155.706" x2="1307.17" y2="390.493" gradientUnits="userSpaceOnUse">
<stop stop-color="#00E9B9" stop-opacity="0"/>
<stop offset="0.5" stop-color="#00D4DB"/>
<stop offset="1" stop-color="#00E9B9" stop-opacity="0"/>
</linearGradient>
<linearGradient id="paint48_linear_769_5581" x1="7.51521" y1="147.395" x2="1306.82" y2="383.519" gradientUnits="userSpaceOnUse">
<stop stop-color="#00EAB7" stop-opacity="0"/>
<stop offset="0.5" stop-color="#00D3DD"/>
<stop offset="1" stop-color="#00EAB7" stop-opacity="0"/>
</linearGradient>
<linearGradient id="paint49_linear_769_5581" x1="-0.491323" y1="139.273" x2="1306.16" y2="376.73" gradientUnits="userSpaceOnUse">
<stop stop-color="#00EBB6" stop-opacity="0"/>
<stop offset="0.5" stop-color="#00D2DE"/>
<stop offset="1" stop-color="#00EBB6" stop-opacity="0"/>
</linearGradient>
<linearGradient id="paint50_linear_769_5581" x1="-8.81173" y1="131.368" x2="1305.19" y2="370.161" gradientUnits="userSpaceOnUse">
<stop stop-color="#00ECB4" stop-opacity="0"/>
<stop offset="0.5" stop-color="#00D1E0"/>
<stop offset="1" stop-color="#00ECB4" stop-opacity="0"/>
</linearGradient>
<linearGradient id="paint51_linear_769_5581" x1="-17.435" y1="123.672" x2="1303.9" y2="363.799" gradientUnits="userSpaceOnUse">
<stop stop-color="#00EDB3" stop-opacity="0"/>
<stop offset="0.5" stop-color="#00D0E1"/>
<stop offset="1" stop-color="#00EDB3" stop-opacity="0"/>
</linearGradient>
<linearGradient id="paint52_linear_769_5581" x1="-26.3537" y1="116.207" x2="1302.32" y2="357.667" gradientUnits="userSpaceOnUse">
<stop stop-color="#00EEB1" stop-opacity="0"/>
<stop offset="0.5" stop-color="#00CFE3"/>
<stop offset="1" stop-color="#00EEB1" stop-opacity="0"/>
</linearGradient>
<linearGradient id="paint53_linear_769_5581" x1="-35.549" y1="108.976" x2="1300.47" y2="351.771" gradientUnits="userSpaceOnUse">
<stop stop-color="#00EFB0" stop-opacity="0"/>
<stop offset="0.5" stop-color="#00CEE4"/>
<stop offset="1" stop-color="#00EFB0" stop-opacity="0"/>
</linearGradient>
<linearGradient id="paint54_linear_769_5581" x1="-45.0325" y1="101.988" x2="1298.33" y2="346.118" gradientUnits="userSpaceOnUse">
<stop stop-color="#00EFAE" stop-opacity="0"/>
<stop offset="0.5" stop-color="#00CEE6"/>
<stop offset="1" stop-color="#00EFAE" stop-opacity="0"/>
</linearGradient>
<linearGradient id="paint55_linear_769_5581" x1="-54.7745" y1="95.2472" x2="1295.92" y2="340.709" gradientUnits="userSpaceOnUse">
<stop stop-color="#00F0AD" stop-opacity="0"/>
<stop offset="0.5" stop-color="#00CDE7"/>
<stop offset="1" stop-color="#00F0AD" stop-opacity="0"/>
</linearGradient>
<linearGradient id="paint56_linear_769_5581" x1="-64.7781" y1="88.7748" x2="1293.27" y2="335.573" gradientUnits="userSpaceOnUse">
<stop stop-color="#00F1AB" stop-opacity="0"/>
<stop offset="0.5" stop-color="#00CCE9"/>
<stop offset="1" stop-color="#00F1AB" stop-opacity="0"/>
</linearGradient>
<linearGradient id="paint57_linear_769_5581" x1="-75.0362" y1="82.5809" x2="1290.35" y2="330.713" gradientUnits="userSpaceOnUse">
<stop stop-color="#00F2AA" stop-opacity="0"/>
<stop offset="0.5" stop-color="#00CBEA"/>
<stop offset="1" stop-color="#00F2AA" stop-opacity="0"/>
</linearGradient>
<linearGradient id="paint58_linear_769_5581" x1="-85.5362" y1="76.6576" x2="1287.19" y2="326.123" gradientUnits="userSpaceOnUse">
<stop stop-color="#00F3A8" stop-opacity="0"/>
<stop offset="0.5" stop-color="#00CAEC"/>
<stop offset="1" stop-color="#00F3A8" stop-opacity="0"/>
</linearGradient>
<linearGradient id="paint59_linear_769_5581" x1="-96.2643" y1="71.0388" x2="1283.8" y2="321.838" gradientUnits="userSpaceOnUse">
<stop stop-color="#00F4A7" stop-opacity="0"/>
<stop offset="0.5" stop-color="#00C9ED"/>
<stop offset="1" stop-color="#00F4A7" stop-opacity="0"/>
</linearGradient>
<linearGradient id="paint60_linear_769_5581" x1="-107.219" y1="65.714" x2="1280.19" y2="317.847" gradientUnits="userSpaceOnUse">
<stop stop-color="#00F5A5" stop-opacity="0"/>
<stop offset="0.5" stop-color="#00C8EF"/>
<stop offset="1" stop-color="#00F5A5" stop-opacity="0"/>
</linearGradient>
<linearGradient id="paint61_linear_769_5581" x1="-118.393" y1="60.706" x2="1276.36" y2="314.175" gradientUnits="userSpaceOnUse">
<stop stop-color="#00F6A4" stop-opacity="0"/>
<stop offset="0.5" stop-color="#00C7F0"/>
<stop offset="1" stop-color="#00F6A4" stop-opacity="0"/>
</linearGradient>
<linearGradient id="paint62_linear_769_5581" x1="-129.768" y1="56.016" x2="1272.32" y2="310.817" gradientUnits="userSpaceOnUse">
<stop stop-color="#00F7A2" stop-opacity="0"/>
<stop offset="0.5" stop-color="#00C6F2"/>
<stop offset="1" stop-color="#00F7A2" stop-opacity="0"/>
</linearGradient>
<linearGradient id="paint63_linear_769_5581" x1="-141.345" y1="51.6558" x2="1268.09" y2="307.793" gradientUnits="userSpaceOnUse">
<stop stop-color="#00F8A1" stop-opacity="0"/>
<stop offset="0.5" stop-color="#00C5F3"/>
<stop offset="1" stop-color="#00F8A1" stop-opacity="0"/>
</linearGradient>
<linearGradient id="paint64_linear_769_5581" x1="-153.116" y1="47.6366" x2="1263.66" y2="305.107" gradientUnits="userSpaceOnUse">
<stop stop-color="#00F99F" stop-opacity="0"/>
<stop offset="0.5" stop-color="#00C4F5"/>
<stop offset="1" stop-color="#00F99F" stop-opacity="0"/>
</linearGradient>
<linearGradient id="paint65_linear_769_5581" x1="-165.061" y1="43.9611" x2="1259.05" y2="302.765" gradientUnits="userSpaceOnUse">
<stop stop-color="#00FA9E" stop-opacity="0"/>
<stop offset="0.5" stop-color="#00C3F6"/>
<stop offset="1" stop-color="#00FA9E" stop-opacity="0"/>
</linearGradient>
<linearGradient id="paint66_linear_769_5581" x1="-177.185" y1="40.65" x2="1254.27" y2="300.788" gradientUnits="userSpaceOnUse">
<stop stop-color="#00FA9C" stop-opacity="0"/>
<stop offset="0.5" stop-color="#00C3F8"/>
<stop offset="1" stop-color="#00FA9C" stop-opacity="0"/>
</linearGradient>
<linearGradient id="paint67_linear_769_5581" x1="-189.469" y1="37.7171" x2="1249.33" y2="299.189" gradientUnits="userSpaceOnUse">
<stop stop-color="#00FB9B" stop-opacity="0"/>
<stop offset="0.5" stop-color="#00C2F9"/>
<stop offset="1" stop-color="#00FB9B" stop-opacity="0"/>
</linearGradient>
<linearGradient id="paint68_linear_769_5581" x1="-201.91" y1="35.1508" x2="1244.22" y2="297.957" gradientUnits="userSpaceOnUse">
<stop stop-color="#00FC99" stop-opacity="0"/>
<stop offset="0.5" stop-color="#00C1FB"/>
<stop offset="1" stop-color="#00FC99" stop-opacity="0"/>
</linearGradient>
<linearGradient id="paint69_linear_769_5581" x1="-214.504" y1="32.974" x2="1238.97" y2="297.114" gradientUnits="userSpaceOnUse">
<stop stop-color="#00FD98" stop-opacity="0"/>
<stop offset="0.5" stop-color="#00C0FC"/>
<stop offset="1" stop-color="#00FD98" stop-opacity="0"/>
</linearGradient>
<linearGradient id="paint70_linear_769_5581" x1="-227.232" y1="31.1996" x2="1233.58" y2="296.673" gradientUnits="userSpaceOnUse">
<stop stop-color="#00FE96" stop-opacity="0"/>
<stop offset="0.5" stop-color="#00BFFE"/>
<stop offset="1" stop-color="#00FE96" stop-opacity="0"/>
</linearGradient>
<linearGradient id="paint71_linear_769_5581" x1="-240.084" y1="29.8298" x2="1228.07" y2="296.637" gradientUnits="userSpaceOnUse">
<stop stop-color="#00FF95" stop-opacity="0"/>
<stop offset="0.5" stop-color="#00BEFF"/>
<stop offset="1" stop-color="#00FF95" stop-opacity="0"/>
</linearGradient>
<clipPath id="clip0_769_5581">
<rect width="1590.21" height="670.46" fill="white" transform="translate(-227.121 -41.502) rotate(10.3)"/>
</clipPath>
</defs>
</svg>
