<svg width="64" height="64" viewBox="0 0 64 64" fill="none" xmlns="http://www.w3.org/2000/svg">
<circle cx="32" cy="32" r="31" stroke="#00BEFF" stroke-width="2"/>
<path d="M25.1911 43.45C23.5911 43.45 22.1911 43.115 20.9911 42.445C19.7911 41.775 18.8561 40.84 18.1861 39.64C17.5161 38.44 17.1811 37.04 17.1811 35.44V28.96C17.1811 27.36 17.5161 25.96 18.1861 24.76C18.8561 23.56 19.7911 22.625 20.9911 21.955C22.1911 21.285 23.5911 20.95 25.1911 20.95C26.7911 20.95 28.1911 21.285 29.3911 21.955C30.5911 22.625 31.5261 23.56 32.1961 24.76C32.8661 25.96 33.2011 27.36 33.2011 28.96V35.44C33.2011 37.04 32.8661 38.44 32.1961 39.64C31.5261 40.84 30.5911 41.775 29.3911 42.445C28.1911 43.115 26.7911 43.45 25.1911 43.45ZM25.1911 39.58C25.9111 39.58 26.5611 39.41 27.1411 39.07C27.7211 38.73 28.1811 38.27 28.5211 37.69C28.8611 37.11 29.0311 36.46 29.0311 35.74V28.63C29.0311 27.91 28.8611 27.26 28.5211 26.68C28.1811 26.1 27.7211 25.64 27.1411 25.3C26.5611 24.96 25.9111 24.79 25.1911 24.79C24.4711 24.79 23.8211 24.96 23.2411 25.3C22.6611 25.64 22.2011 26.1 21.8611 26.68C21.5211 27.26 21.3511 27.91 21.3511 28.63V35.74C21.3511 36.46 21.5211 37.11 21.8611 37.69C22.2011 38.27 22.6611 38.73 23.2411 39.07C23.8211 39.41 24.4711 39.58 25.1911 39.58ZM41.1459 43V25.84L37.0959 28.33V23.83L41.1459 21.4H45.3159V43H41.1459Z" fill="#00BEFF"/>
</svg>
