<svg width="64" height="64" viewBox="0 0 64 64" fill="none" xmlns="http://www.w3.org/2000/svg">
<circle cx="32" cy="32" r="31" stroke="#00BEFF" stroke-width="2"/>
<path d="M22.4498 43.45C20.8498 43.45 19.4498 43.115 18.2498 42.445C17.0498 41.775 16.1148 40.84 15.4448 39.64C14.7748 38.44 14.4398 37.04 14.4398 35.44V28.96C14.4398 27.36 14.7748 25.96 15.4448 24.76C16.1148 23.56 17.0498 22.625 18.2498 21.955C19.4498 21.285 20.8498 20.95 22.4498 20.95C24.0498 20.95 25.4498 21.285 26.6498 21.955C27.8498 22.625 28.7848 23.56 29.4548 24.76C30.1248 25.96 30.4598 27.36 30.4598 28.96V35.44C30.4598 37.04 30.1248 38.44 29.4548 39.64C28.7848 40.84 27.8498 41.775 26.6498 42.445C25.4498 43.115 24.0498 43.45 22.4498 43.45ZM22.4498 39.58C23.1698 39.58 23.8198 39.41 24.3998 39.07C24.9798 38.73 25.4398 38.27 25.7798 37.69C26.1198 37.11 26.2898 36.46 26.2898 35.74V28.63C26.2898 27.91 26.1198 27.26 25.7798 26.68C25.4398 26.1 24.9798 25.64 24.3998 25.3C23.8198 24.96 23.1698 24.79 22.4498 24.79C21.7298 24.79 21.0798 24.96 20.4998 25.3C19.9198 25.64 19.4598 26.1 19.1198 26.68C18.7798 27.26 18.6098 27.91 18.6098 28.63V35.74C18.6098 36.46 18.7798 37.11 19.1198 37.69C19.4598 38.27 19.9198 38.73 20.4998 39.07C21.0798 39.41 21.7298 39.58 22.4498 39.58ZM34.0547 42.97V39.43L43.1147 31.39C43.7947 30.79 44.2747 30.225 44.5547 29.695C44.8347 29.165 44.9747 28.67 44.9747 28.21C44.9747 27.55 44.8397 26.965 44.5697 26.455C44.2997 25.935 43.9197 25.53 43.4297 25.24C42.9397 24.94 42.3647 24.79 41.7047 24.79C41.0147 24.79 40.4047 24.95 39.8747 25.27C39.3547 25.58 38.9497 25.995 38.6597 26.515C38.3697 27.025 38.2347 27.58 38.2547 28.18H34.0547C34.0547 26.7 34.3797 25.42 35.0297 24.34C35.6797 23.26 36.5847 22.425 37.7447 21.835C38.9047 21.245 40.2547 20.95 41.7947 20.95C43.2047 20.95 44.4647 21.26 45.5747 21.88C46.6947 22.49 47.5747 23.345 48.2147 24.445C48.8547 25.545 49.1747 26.82 49.1747 28.27C49.1747 29.34 49.0247 30.23 48.7247 30.94C48.4247 31.64 47.9797 32.29 47.3897 32.89C46.7997 33.48 46.0747 34.15 45.2147 34.9L39.3647 40.03L39.0347 39.13H49.1747V42.97H34.0547Z" fill="#00BEFF"/>
</svg>
