<svg width="64" height="64" viewBox="0 0 64 64" fill="none" xmlns="http://www.w3.org/2000/svg">
<circle cx="32" cy="32" r="31" stroke="#00BEFF" stroke-width="2"/>
<path d="M23.1403 43.45C21.5403 43.45 20.1403 43.115 18.9403 42.445C17.7403 41.775 16.8053 40.84 16.1353 39.64C15.4653 38.44 15.1303 37.04 15.1303 35.44V28.96C15.1303 27.36 15.4653 25.96 16.1353 24.76C16.8053 23.56 17.7403 22.625 18.9403 21.955C20.1403 21.285 21.5403 20.95 23.1403 20.95C24.7403 20.95 26.1403 21.285 27.3403 21.955C28.5403 22.625 29.4753 23.56 30.1453 24.76C30.8153 25.96 31.1503 27.36 31.1503 28.96V35.44C31.1503 37.04 30.8153 38.44 30.1453 39.64C29.4753 40.84 28.5403 41.775 27.3403 42.445C26.1403 43.115 24.7403 43.45 23.1403 43.45ZM23.1403 39.58C23.8603 39.58 24.5103 39.41 25.0903 39.07C25.6703 38.73 26.1303 38.27 26.4703 37.69C26.8103 37.11 26.9803 36.46 26.9803 35.74V28.63C26.9803 27.91 26.8103 27.26 26.4703 26.68C26.1303 26.1 25.6703 25.64 25.0903 25.3C24.5103 24.96 23.8603 24.79 23.1403 24.79C22.4203 24.79 21.7703 24.96 21.1903 25.3C20.6103 25.64 20.1503 26.1 19.8103 26.68C19.4703 27.26 19.3003 27.91 19.3003 28.63V35.74C19.3003 36.46 19.4703 37.11 19.8103 37.69C20.1503 38.27 20.6103 38.73 21.1903 39.07C21.7703 39.41 22.4203 39.58 23.1403 39.58ZM41.6451 43.39C40.5651 43.39 39.5351 43.175 38.5551 42.745C37.5751 42.305 36.7201 41.69 35.9901 40.9C35.2701 40.11 34.7551 39.18 34.4451 38.11L38.4051 37.06C38.6151 37.85 39.0251 38.465 39.6351 38.905C40.2551 39.335 40.9251 39.55 41.6451 39.55C42.2651 39.55 42.8301 39.4 43.3401 39.1C43.8601 38.8 44.2701 38.395 44.5701 37.885C44.8801 37.375 45.0351 36.81 45.0351 36.19C45.0351 35.26 44.7151 34.465 44.0751 33.805C43.4451 33.135 42.6351 32.8 41.6451 32.8C41.3451 32.8 41.0551 32.845 40.7751 32.935C40.4951 33.015 40.2251 33.13 39.9651 33.28L38.1351 30.07L45.0051 24.37L45.3051 25.24H35.2851V21.4H48.7851V25.24L43.4451 30.4L43.4151 29.26C44.6551 29.45 45.7001 29.885 46.5501 30.565C47.4101 31.235 48.0601 32.065 48.5001 33.055C48.9501 34.035 49.1751 35.08 49.1751 36.19C49.1751 37.55 48.8301 38.775 48.1401 39.865C47.4501 40.945 46.5351 41.805 45.3951 42.445C44.2551 43.075 43.0051 43.39 41.6451 43.39Z" fill="#00BEFF"/>
</svg>
