<svg width="224" height="200" viewBox="0 0 224 200" fill="none" xmlns="http://www.w3.org/2000/svg">
<path opacity="0.15" d="M111.889 160C145.026 160 171.889 133.137 171.889 100C171.889 66.8629 145.026 40 111.889 40C78.7516 40 51.8887 66.8629 51.8887 100C51.8887 133.137 78.7516 160 111.889 160Z" fill="#00BEFF"/>
<path d="M112.38 136.188V171.977" stroke="#C5E3FF" stroke-miterlimit="10"/>
<path d="M112.38 28.0226V63.8192" stroke="#C5E3FF" stroke-miterlimit="10"/>
<path d="M112.38 28.2579C120.183 28.2579 126.509 21.9322 126.509 14.129C126.509 6.32575 120.183 0 112.38 0C104.577 0 98.251 6.32575 98.251 14.129C98.251 21.9322 104.577 28.2579 112.38 28.2579Z" fill="url(#paint0_linear_1408_3168)"/>
<path d="M112.38 200C120.183 200 126.509 193.674 126.509 185.871C126.509 178.068 120.183 171.742 112.38 171.742C104.577 171.742 98.251 178.068 98.251 185.871C98.251 193.674 104.577 200 112.38 200Z" fill="url(#paint1_linear_1408_3168)"/>
<path d="M112.889 136.188V171.977" stroke="#00BEFF" stroke-miterlimit="10"/>
<path d="M112.889 28.0226V63.8192" stroke="#00BEFF" stroke-miterlimit="10"/>
<path d="M113.018 28.2579C120.821 28.2579 127.147 21.9322 127.147 14.129C127.147 6.32575 120.821 0 113.018 0C105.214 0 98.8887 6.32575 98.8887 14.129C98.8887 21.9322 105.214 28.2579 113.018 28.2579Z" fill="#00BEFF"/>
<path d="M113.018 200C120.821 200 127.147 193.674 127.147 185.871C127.147 178.068 120.821 171.742 113.018 171.742C105.214 171.742 98.8887 178.068 98.8887 185.871C98.8887 193.674 105.214 200 113.018 200Z" fill="#00BEFF"/>
<path d="M143.719 118.092L174.718 135.994" stroke="#00BEFF" stroke-miterlimit="10"/>
<path d="M50.042 64.0131L81.0413 81.9079" stroke="#00BEFF" stroke-miterlimit="10"/>
<path d="M38.0176 71.1987C45.8209 71.1987 52.1466 64.873 52.1466 57.0698C52.1466 49.2666 45.8209 42.9408 38.0176 42.9408C30.2144 42.9408 23.8887 49.2666 23.8887 57.0698C23.8887 64.873 30.2144 71.1987 38.0176 71.1987Z" fill="#00BEFF"/>
<path d="M186.742 157.066C194.545 157.066 200.871 150.741 200.871 142.937C200.871 135.134 194.545 128.808 186.742 128.808C178.939 128.808 172.613 135.134 172.613 142.937C172.613 150.741 178.939 157.066 186.742 157.066Z" fill="#00BEFF"/>
<path d="M143.719 81.9079L174.718 64.0131" stroke="#00BEFF" stroke-miterlimit="10"/>
<path d="M50.042 135.994L81.0413 118.092" stroke="#00BEFF" stroke-miterlimit="10"/>
<path d="M38.0176 157.066C45.8209 157.066 52.1466 150.741 52.1466 142.937C52.1466 135.134 45.8209 128.808 38.0176 128.808C30.2144 128.808 23.8887 135.134 23.8887 142.937C23.8887 150.741 30.2144 157.066 38.0176 157.066Z" fill="#00BEFF"/>
<path d="M186.742 71.1987C194.545 71.1987 200.871 64.873 200.871 57.0698C200.871 49.2666 194.545 42.9408 186.742 42.9408C178.939 42.9408 172.613 49.2666 172.613 57.0698C172.613 64.873 178.939 71.1987 186.742 71.1987Z" fill="#00BEFF"/>
<path d="M73.8887 77.5148V122.553L112.884 145.068L151.889 122.553V77.5148L112.884 55L73.8887 77.5148Z" fill="url(#paint2_linear_1408_3168)"/>
<path d="M126.889 83H96.8887V113H126.889V83Z" fill="white"/>
<defs>
<linearGradient id="paint0_linear_1408_3168" x1="112.38" y1="28.2649" x2="112.38" y2="0" gradientUnits="userSpaceOnUse">
<stop stop-color="#00BEFF"/>
<stop offset="1" stop-color="#00FF95"/>
</linearGradient>
<linearGradient id="paint1_linear_1408_3168" x1="112.38" y1="200.007" x2="112.38" y2="171.742" gradientUnits="userSpaceOnUse">
<stop stop-color="#00BEFF"/>
<stop offset="1" stop-color="#00FF95"/>
</linearGradient>
<linearGradient id="paint2_linear_1408_3168" x1="101.514" y1="120.085" x2="162.768" y2="92.706" gradientUnits="userSpaceOnUse">
<stop stop-color="#00BEFF"/>
<stop offset="1" stop-color="#00FF95"/>
</linearGradient>
</defs>
</svg>
