<svg width="223" height="200" viewBox="0 0 223 200" fill="none" xmlns="http://www.w3.org/2000/svg">
<path opacity="0.15" d="M112 140C134.091 140 152 122.091 152 100C152 77.9086 134.091 60 112 60C89.9086 60 72 77.9086 72 100C72 122.091 89.9086 140 112 140Z" fill="#00BEFF"/>
<path d="M158.741 18.0323H64.0413L16.6953 100.045L64.0413 182.057H158.741L206.087 100.045L158.741 18.0323Z" stroke="#00BEFF" stroke-miterlimit="10"/>
<path d="M64.041 18.0323L159.144 182.057" stroke="#00BEFF" stroke-miterlimit="10"/>
<path d="M159.144 18.0323L64.041 182.057" stroke="#00BEFF" stroke-miterlimit="10"/>
<path d="M16.6953 100.045L159.144 18.0323" stroke="#00BEFF" stroke-miterlimit="10"/>
<path d="M159.144 181.355L16.6953 100.045" stroke="#00BEFF" stroke-miterlimit="10"/>
<path d="M206.086 100.045H18.7061" stroke="#00BEFF" stroke-miterlimit="10"/>
<path d="M64.0635 16.7838L206.086 100.045" stroke="#00BEFF" stroke-miterlimit="10"/>
<path d="M64.0635 182.013L206.086 100.045" stroke="#00BEFF" stroke-miterlimit="10"/>
<path d="M64.0635 16.7838V182.057" stroke="#00BEFF" stroke-miterlimit="10"/>
<path d="M159.145 16.7838V182.057" stroke="#00BEFF" stroke-miterlimit="10"/>
<path d="M64.0627 35.8852C73.9721 35.8852 82.0053 27.852 82.0053 17.9426C82.0053 8.03317 73.9721 0 64.0627 0C54.1533 0 46.1201 8.03317 46.1201 17.9426C46.1201 27.852 54.1533 35.8852 64.0627 35.8852Z" fill="url(#paint0_linear_1408_1302)"/>
<path d="M64.0627 200C73.9721 200 82.0053 191.967 82.0053 182.057C82.0053 172.148 73.9721 164.115 64.0627 164.115C54.1533 164.115 46.1201 172.148 46.1201 182.057C46.1201 191.967 54.1533 200 64.0627 200Z" fill="#00BEFF"/>
<path d="M159.144 35.8852C169.053 35.8852 177.086 27.852 177.086 17.9426C177.086 8.03317 169.053 0 159.144 0C149.234 0 141.201 8.03317 141.201 17.9426C141.201 27.852 149.234 35.8852 159.144 35.8852Z" fill="#00BEFF"/>
<path d="M159.144 200C169.053 200 177.086 191.967 177.086 182.057C177.086 172.148 169.053 164.115 159.144 164.115C149.234 164.115 141.201 172.148 141.201 182.057C141.201 191.967 149.234 200 159.144 200Z" fill="#00BEFF"/>
<path d="M17.9426 117.195C27.852 117.195 35.8852 109.162 35.8852 99.2524C35.8852 89.343 27.852 81.3098 17.9426 81.3098C8.03317 81.3098 0 89.343 0 99.2524C0 109.162 8.03317 117.195 17.9426 117.195Z" fill="#00BEFF"/>
<path d="M204.949 117.195C214.859 117.195 222.892 109.162 222.892 99.2524C222.892 89.343 214.859 81.3098 204.949 81.3098C195.04 81.3098 187.007 89.343 187.007 99.2524C187.007 109.162 195.04 117.195 204.949 117.195Z" fill="#00BEFF"/>
<defs>
<linearGradient id="paint0_linear_1408_1302" x1="46.1201" y1="17.9426" x2="82.0053" y2="17.9426" gradientUnits="userSpaceOnUse">
<stop stop-color="#00BEFF"/>
<stop offset="1" stop-color="#00FF95"/>
</linearGradient>
</defs>
</svg>
