<svg width="450" height="375" viewBox="0 0 450 375" fill="none" xmlns="http://www.w3.org/2000/svg">
<path d="M395.276 277.286L444.147 248.894C450.647 245.12 450.614 238.979 444.069 235.204L394.881 206.813" stroke="url(#paint0_linear_558_1879)" stroke-width="2" stroke-miterlimit="10"/>
<path d="M393.687 276.177C390.152 274.14 384.424 274.14 380.915 276.177C377.405 278.213 377.425 281.533 380.954 283.576C384.482 285.619 390.217 285.612 393.726 283.576C397.235 281.54 397.216 278.219 393.687 276.183" stroke="url(#paint1_linear_558_1879)" stroke-width="2" stroke-miterlimit="10"/>
<path d="M393.687 199.777C390.152 197.741 384.424 197.741 380.915 199.777C377.405 201.813 377.425 205.134 380.954 207.176C384.482 209.219 390.217 209.213 393.726 207.176C397.235 205.14 397.216 201.82 393.687 199.783" stroke="url(#paint2_linear_558_1879)" stroke-width="2" stroke-miterlimit="10"/>
<path d="M54.7239 206.067L5.85296 234.459C-0.646728 238.233 -0.614294 244.374 5.9308 248.148L55.1196 276.54" stroke="url(#paint3_linear_558_1879)" stroke-width="2" stroke-miterlimit="10"/>
<path d="M56.3126 207.176C59.8479 209.213 65.5756 209.213 69.0849 207.176C72.5943 205.14 72.5748 201.82 69.046 199.777C65.5108 197.741 59.783 197.741 56.2737 199.777C52.7644 201.813 52.7838 205.134 56.3126 207.17" stroke="url(#paint4_linear_558_1879)" stroke-width="2" stroke-miterlimit="10"/>
<path d="M56.3126 283.57C59.8479 285.606 65.5756 285.606 69.0849 283.57C72.5943 281.533 72.5748 278.213 69.046 276.17C65.5108 274.134 59.783 274.134 56.2737 276.17C52.7644 278.207 52.7838 281.527 56.3126 283.563" stroke="url(#paint5_linear_558_1879)" stroke-width="2" stroke-miterlimit="10"/>
<path d="M393.363 304.97L349.681 279.757C343.869 276.404 334.45 276.404 328.684 279.757L285.287 304.97C279.514 308.323 279.547 313.777 285.359 317.13L329.04 342.343C334.852 345.696 344.271 345.696 350.038 342.343L393.434 317.13C399.207 313.777 399.175 308.323 393.363 304.97Z" stroke="url(#paint6_linear_558_1879)" stroke-width="2" stroke-miterlimit="10"/>
<path d="M339.497 323.206C339.101 323.206 338.764 323.167 338.498 323.128C338.187 323.076 337.895 322.966 337.622 322.81L321.198 313.329C319.414 312.298 319.408 309.724 321.192 308.686L337.369 299.283C337.648 299.121 337.947 299.01 338.265 298.958C338.518 298.92 338.842 298.887 339.218 298.887C339.614 298.887 339.958 298.926 340.217 298.971C340.528 299.023 340.82 299.134 341.093 299.289L357.511 308.77C359.295 309.801 359.301 312.376 357.517 313.414L341.339 322.81C341.06 322.972 340.762 323.083 340.451 323.135C340.198 323.173 339.873 323.206 339.497 323.206Z" fill="url(#paint7_linear_558_1879)"/>
<path d="M164.635 304.004L120.953 278.79C115.141 275.437 105.722 275.437 99.9558 278.79L56.5596 304.004C50.7864 307.357 50.8189 312.81 56.631 316.163L100.313 341.377C106.125 344.73 115.543 344.73 121.31 341.377L164.706 316.163C170.479 312.81 170.447 307.357 164.635 304.004Z" stroke="url(#paint8_linear_558_1879)" stroke-width="2" stroke-miterlimit="10"/>
<path d="M110.769 322.246C110.374 322.246 110.036 322.207 109.77 322.168C109.459 322.116 109.167 322.006 108.895 321.851L92.4703 312.37C90.6864 311.338 90.68 308.764 92.4638 307.726L108.642 298.323C108.921 298.161 109.219 298.051 109.537 297.999C109.79 297.96 110.114 297.927 110.49 297.927C110.886 297.927 111.223 297.966 111.489 298.012C111.801 298.064 112.093 298.174 112.365 298.329L128.783 307.811C130.567 308.842 130.573 311.416 128.789 312.454L112.612 321.851C112.333 322.013 112.034 322.123 111.723 322.175C111.47 322.214 111.146 322.246 110.769 322.246Z" fill="url(#paint9_linear_558_1879)"/>
<path d="M167.3 343.433L214.264 370.54C220.511 374.146 230.637 374.146 236.844 370.54L283.503 343.433" stroke="url(#paint10_linear_558_1879)" stroke-width="2" stroke-miterlimit="10"/>
<path d="M295.29 336.234C291.833 334.237 286.215 334.237 282.777 336.234C279.339 338.232 279.359 341.481 282.816 343.478C286.274 345.475 291.885 345.475 295.323 343.478C298.761 341.481 298.741 338.232 295.284 336.234" stroke="url(#paint11_linear_558_1879)" stroke-width="2" stroke-miterlimit="10"/>
<path d="M167.177 336.111C163.72 334.114 158.102 334.114 154.664 336.111C151.227 338.108 151.246 341.357 154.703 343.355C158.161 345.352 163.772 345.352 167.21 343.355C170.648 341.357 170.628 338.108 167.171 336.111" stroke="url(#paint12_linear_558_1879)" stroke-width="2" stroke-miterlimit="10"/>
<path d="M323.612 226.502L243.851 180.465C233.245 174.343 216.042 174.343 205.501 180.465L126.26 226.502C115.719 232.623 115.777 242.584 126.383 248.713L206.144 294.75C216.749 300.872 233.952 300.872 244.493 294.75L323.735 248.713C334.276 242.591 334.217 232.63 323.612 226.508" stroke="url(#paint13_linear_558_1879)" stroke-width="2" stroke-miterlimit="10"/>
<path d="M323.612 200.944L243.851 154.907C233.245 148.785 216.042 148.785 205.501 154.907L126.26 200.944C115.719 207.066 115.777 217.027 126.383 223.155L206.144 269.192C216.749 275.314 233.952 275.314 244.493 269.192L323.735 223.155C334.276 217.033 334.217 207.073 323.612 200.951" stroke="url(#paint14_linear_558_1879)" stroke-width="2" stroke-miterlimit="10"/>
<path d="M323.612 175.38L243.851 129.343C233.245 123.222 216.042 123.222 205.501 129.343L126.26 175.38C115.719 181.502 115.777 191.463 126.383 197.592L206.144 243.629C216.749 249.75 233.952 249.75 244.493 243.629L323.735 197.592C334.276 191.47 334.217 181.509 323.612 175.387" stroke="url(#paint15_linear_558_1879)" stroke-width="2" stroke-miterlimit="10"/>
<path d="M323.612 149.823L243.851 103.786C233.245 97.6641 216.042 97.6641 205.501 103.786L126.26 149.823C115.719 155.945 115.777 165.906 126.383 172.034L206.144 218.071C216.749 224.193 233.952 224.193 244.493 218.071L323.735 172.034C334.276 165.912 334.217 155.951 323.612 149.829" stroke="url(#paint16_linear_558_1879)" stroke-width="2" stroke-miterlimit="10"/>
<path d="M323.612 124.259L243.851 78.222C233.245 72.1002 216.042 72.1002 205.501 78.222L126.26 124.259C115.719 130.381 115.777 140.342 126.383 146.47L206.144 192.507C216.749 198.629 233.952 198.629 244.493 192.507L323.735 146.47C334.276 140.348 334.217 130.387 323.612 124.266" stroke="url(#paint17_linear_558_1879)" stroke-width="2" stroke-miterlimit="10"/>
<path d="M323.611 98.7017L243.851 52.6647C233.245 46.5429 216.042 46.5429 205.501 52.6647L126.259 98.7017C115.718 104.824 115.777 114.785 126.383 120.913L206.143 166.95C216.749 173.072 233.952 173.072 244.493 166.95L323.735 120.913C334.275 114.791 334.217 104.83 323.611 98.7082" stroke="url(#paint18_linear_558_1879)" stroke-width="2" stroke-miterlimit="10"/>
<path d="M324.857 72.7358L294.713 90.2518L244.713 119.298C234.056 125.491 216.658 125.491 205.929 119.298L155.274 90.0637L125.26 72.7423C120.999 70.2844 118.423 67.2041 117.535 64.007V85.4918C118.423 88.6889 120.999 91.7692 125.26 94.2271L205.929 140.789C216.658 146.983 234.056 146.976 244.713 140.789L324.857 94.2271C329.047 91.7887 331.577 88.7537 332.453 85.589V64.1042C331.57 67.2689 329.047 70.3039 324.857 72.7423V72.7358Z" fill="url(#paint19_linear_558_1879)"/>
<g style="mix-blend-mode:multiply" opacity="0.25">
<path d="M324.857 72.7358L294.713 90.2518L244.713 119.298C234.056 125.491 216.658 125.491 205.929 119.298L155.274 90.0637L125.26 72.7423C120.999 70.2844 118.423 67.2041 117.535 64.007V85.4918C118.423 88.6889 120.999 91.7692 125.26 94.2271L205.929 140.789C216.658 146.983 234.056 146.976 244.713 140.789L324.857 94.2271C329.047 91.7887 331.577 88.7537 332.453 85.589V64.1042C331.57 67.2689 329.047 70.3039 324.857 72.7423V72.7358Z" fill="black"/>
</g>
<path d="M324.402 51.0305L243.999 4.63029C233.309 -1.54343 215.97 -1.54343 205.345 4.63029L125.468 51.0369C114.842 57.2107 114.901 67.2495 125.591 73.4232L205.987 119.83C216.677 126.004 234.016 125.997 244.642 119.83L324.519 73.4232C335.144 67.2495 335.086 57.2107 324.396 51.0434" fill="url(#paint20_linear_558_1879)"/>
<mask id="mask0_558_1879" style="mask-type:luminance" maskUnits="userSpaceOnUse" x="117" y="0" width="216" height="125">
<path d="M324.403 51.0305L244 4.63029C233.31 -1.54343 215.971 -1.54343 205.345 4.63029L125.468 51.0369C114.843 57.2107 114.901 67.2495 125.591 73.4232L205.988 119.83C216.678 126.004 234.017 125.997 244.642 119.83L324.519 73.4232C335.145 67.2495 335.086 57.2107 324.396 51.0434" fill="white"/>
</mask>
<g mask="url(#mask0_558_1879)">
<path style="mix-blend-mode:overlay" d="M324.403 51.0305L244 4.63029C233.31 -1.54343 215.971 -1.54343 205.345 4.63029L125.468 51.037C114.843 57.2107 114.901 67.2495 125.591 73.4232L205.988 119.83C216.678 126.004 234.017 125.997 244.642 119.83L324.519 73.4232C335.145 67.2495 335.086 57.2107 324.396 51.0434" stroke="url(#paint21_linear_558_1879)" stroke-width="3.15" stroke-miterlimit="10"/>
</g>
<mask id="mask1_558_1879" style="mask-type:luminance" maskUnits="userSpaceOnUse" x="171" y="32" width="107" height="62">
<path d="M171.79 62.1847L223.69 32.0294L277.751 63.2352L225.85 93.384L171.79 62.1847Z" fill="white"/>
</mask>
<g mask="url(#mask1_558_1879)">
<path d="M223.703 37.5352C220.557 35.7194 214.511 36.0566 212.714 38.9489C206.928 48.2355 199.922 59.4351 197.263 63.5336L220.965 58.5142C226.349 57.3728 229.58 54.1822 228.665 50.9008L225.545 39.6688C225.299 38.7803 224.624 38.067 223.703 37.5352Z" fill="white"/>
<path d="M264.907 55.8164C263.162 54.8113 260.496 54.3314 257.797 54.9085L190.517 69.1107C188.033 69.636 187.734 71.3804 189.31 72.2883C189.758 72.5477 190.355 72.7358 191.101 72.8136L244.791 78.2999C250.409 78.8706 255.923 77.0224 257.843 73.9161L266.509 59.9214C267.482 58.3586 266.652 56.8216 264.907 55.8164Z" fill="white"/>
</g>
<defs>
<linearGradient id="paint0_linear_558_1879" x1="422.099" y1="206.249" x2="422.099" y2="277.85" gradientUnits="userSpaceOnUse">
<stop stop-color="#00BEFF"/>
<stop offset="1" stop-color="#00FF95"/>
</linearGradient>
<linearGradient id="paint1_linear_558_1879" x1="383.808" y1="285.963" x2="390.837" y2="273.782" gradientUnits="userSpaceOnUse">
<stop stop-color="#00BEFF"/>
<stop offset="1" stop-color="#00FF95"/>
</linearGradient>
<linearGradient id="paint2_linear_558_1879" x1="390.852" y1="209.582" x2="383.798" y2="197.369" gradientUnits="userSpaceOnUse">
<stop stop-color="#00BEFF"/>
<stop offset="1" stop-color="#00FF95"/>
</linearGradient>
<linearGradient id="paint3_linear_558_1879" x1="27.8948" y1="277.104" x2="27.8948" y2="205.503" gradientUnits="userSpaceOnUse">
<stop stop-color="#00BEFF"/>
<stop offset="1" stop-color="#00FF95"/>
</linearGradient>
<linearGradient id="paint4_linear_558_1879" x1="66.1919" y1="197.39" x2="59.1566" y2="209.571" gradientUnits="userSpaceOnUse">
<stop stop-color="#00BEFF"/>
<stop offset="1" stop-color="#00FF95"/>
</linearGradient>
<linearGradient id="paint5_linear_558_1879" x1="59.1473" y1="273.771" x2="66.1956" y2="285.984" gradientUnits="userSpaceOnUse">
<stop stop-color="#00BEFF"/>
<stop offset="1" stop-color="#00FF95"/>
</linearGradient>
<linearGradient id="paint6_linear_558_1879" x1="280.332" y1="311.047" x2="398.39" y2="311.047" gradientUnits="userSpaceOnUse">
<stop stop-color="#00BEFF"/>
<stop offset="1" stop-color="#00FF95"/>
</linearGradient>
<linearGradient id="paint7_linear_558_1879" x1="319.862" y1="311.047" x2="358.86" y2="311.047" gradientUnits="userSpaceOnUse">
<stop stop-color="#00BEFF"/>
<stop offset="1" stop-color="#00FF95"/>
</linearGradient>
<linearGradient id="paint8_linear_558_1879" x1="51.6038" y1="310.087" x2="169.662" y2="310.087" gradientUnits="userSpaceOnUse">
<stop stop-color="#00BEFF"/>
<stop offset="1" stop-color="#00FF95"/>
</linearGradient>
<linearGradient id="paint9_linear_558_1879" x1="91.134" y1="310.087" x2="130.132" y2="310.087" gradientUnits="userSpaceOnUse">
<stop stop-color="#00BEFF"/>
<stop offset="1" stop-color="#00FF95"/>
</linearGradient>
<linearGradient id="paint10_linear_558_1879" x1="166.976" y1="358.38" x2="283.828" y2="358.38" gradientUnits="userSpaceOnUse">
<stop stop-color="#00BEFF"/>
<stop offset="1" stop-color="#00FF95"/>
</linearGradient>
<linearGradient id="paint11_linear_558_1879" x1="285.599" y1="345.832" x2="292.498" y2="333.872" gradientUnits="userSpaceOnUse">
<stop stop-color="#00FF95"/>
<stop offset="1" stop-color="#00BEFF"/>
</linearGradient>
<linearGradient id="paint12_linear_558_1879" x1="164.401" y1="345.722" x2="157.483" y2="333.736" gradientUnits="userSpaceOnUse">
<stop stop-color="#00BEFF"/>
<stop offset="1" stop-color="#00FF95"/>
</linearGradient>
<linearGradient id="paint13_linear_558_1879" x1="225" y1="299.983" x2="225" y2="175.225" gradientUnits="userSpaceOnUse">
<stop stop-color="#00FF95"/>
<stop offset="1" stop-color="#00FF95" stop-opacity="0"/>
</linearGradient>
<linearGradient id="paint14_linear_558_1879" x1="225" y1="274.426" x2="225" y2="149.661" gradientUnits="userSpaceOnUse">
<stop stop-color="#00F2AA"/>
<stop offset="1" stop-color="#00F2AA" stop-opacity="0"/>
</linearGradient>
<linearGradient id="paint15_linear_558_1879" x1="225" y1="248.862" x2="225" y2="124.104" gradientUnits="userSpaceOnUse">
<stop stop-color="#00E5BF"/>
<stop offset="1" stop-color="#00E5BF" stop-opacity="0"/>
</linearGradient>
<linearGradient id="paint16_linear_558_1879" x1="225" y1="223.305" x2="225" y2="98.5461" gradientUnits="userSpaceOnUse">
<stop stop-color="#00D8D5"/>
<stop offset="1" stop-color="#00D8D5" stop-opacity="0"/>
</linearGradient>
<linearGradient id="paint17_linear_558_1879" x1="225" y1="197.747" x2="225" y2="72.9821" gradientUnits="userSpaceOnUse">
<stop stop-color="#00CBEA"/>
<stop offset="1" stop-color="#00CBEA" stop-opacity="0"/>
</linearGradient>
<linearGradient id="paint18_linear_558_1879" x1="225" y1="172.183" x2="225" y2="47.4248" gradientUnits="userSpaceOnUse">
<stop stop-color="#00BEFF"/>
<stop offset="1" stop-color="#00BEFF" stop-opacity="0"/>
</linearGradient>
<linearGradient id="paint19_linear_558_1879" x1="117.184" y1="104.713" x2="332.816" y2="104.713" gradientUnits="userSpaceOnUse">
<stop stop-color="#00BEFF"/>
<stop offset="1" stop-color="#00FF95"/>
</linearGradient>
<linearGradient id="paint20_linear_558_1879" x1="117.541" y1="62.2236" x2="332.452" y2="62.2236" gradientUnits="userSpaceOnUse">
<stop stop-color="#00BEFF"/>
<stop offset="1" stop-color="#00FF95"/>
</linearGradient>
<linearGradient id="paint21_linear_558_1879" x1="225" y1="125.472" x2="225" y2="-1.02463" gradientUnits="userSpaceOnUse">
<stop stop-color="white"/>
<stop offset="1" stop-color="white" stop-opacity="0"/>
</linearGradient>
</defs>
</svg>
