<svg width="1440" height="441" viewBox="0 0 1440 441" fill="none" xmlns="http://www.w3.org/2000/svg">
<g clip-path="url(#clip0_556_2005)">
<path d="M192.572 651.692C234.151 683.855 276.941 715.506 325.507 735.624C374.07 755.751 429.584 763.533 479.439 746.858C505.139 738.265 528.511 723.526 554.419 715.581C618.423 695.938 686.765 719.985 749.528 743.293C812.292 766.601 881.3 789.61 944.7 768.09C978.398 756.651 1006.81 733.579 1032.79 709.262C1100.94 645.448 1157.88 569.699 1200.22 486.489" stroke="url(#paint0_linear_556_2005)" stroke-miterlimit="10"/>
<path d="M198.214 650.787C240.141 681.711 283.641 712.587 332.712 732.664C336.647 734.274 340.627 735.81 344.64 737.271C390.834 754 441.364 760.175 487.785 745.224C490.01 744.5 492.221 743.743 494.422 742.934C518.05 734.391 539.817 721.546 563.59 714.279C578.439 709.751 593.439 707.467 608.606 707.001C659.549 705.424 711.664 724.022 760.421 742.305C767.489 744.961 774.641 747.613 781.845 750.193C839.092 770.75 900.206 787.537 957.009 768.812C990.633 757.725 1019 734.91 1044.99 710.92C1113.2 647.972 1170.34 572.888 1212.63 490.004" stroke="url(#paint1_linear_556_2005)" stroke-miterlimit="10"/>
<path d="M203.76 649.467C246.035 679.144 290.234 709.252 339.818 729.301C343.795 730.908 347.813 732.451 351.868 733.91C398.638 750.764 449.063 757.742 496.044 743.178C498.295 742.479 500.516 741.724 502.742 740.939C526.798 732.505 548.806 719.846 572.661 712.574C587.678 708.015 602.763 705.655 618.077 705.165C669.513 703.505 722.061 722.293 771.204 740.91C778.336 743.609 785.529 746.309 792.784 748.948C850.423 769.922 911.908 787.458 969.199 769.127C1002.75 758.393 1031.06 735.831 1057.07 712.17C1125.35 650.088 1182.69 575.672 1224.93 493.114" stroke="url(#paint2_linear_556_2005)" stroke-miterlimit="10"/>
<path d="M209.211 647.713C251.835 676.142 296.732 705.483 346.832 725.493C350.85 727.098 354.91 728.638 359.003 730.104C406.352 747.073 456.67 754.866 504.219 740.7C506.488 740.014 508.737 739.274 510.989 738.515C535.495 730.233 557.713 717.704 581.658 710.438C596.843 705.849 612.021 703.424 627.474 702.899C679.393 701.154 732.381 720.144 781.913 739.085C789.097 741.834 796.352 744.586 803.659 747.276C861.691 768.657 923.537 786.949 981.335 769.015C1014.8 758.631 1043.07 736.327 1069.1 712.994C1137.44 651.778 1194.98 578.027 1237.18 495.807" stroke="url(#paint3_linear_556_2005)" stroke-miterlimit="10"/>
<path d="M214.563 645.555C257.524 672.745 303.141 701.312 353.746 721.282C357.805 722.883 361.906 724.421 366.038 725.904C413.965 742.989 464.164 751.603 512.285 737.815C514.57 737.153 516.848 736.419 519.126 735.684C544.081 727.555 566.518 715.167 590.545 707.896C605.887 703.285 621.162 700.776 636.76 700.236C689.171 698.408 742.591 717.598 792.52 736.866C799.758 739.656 807.065 742.457 814.422 745.207C872.846 767.004 935.054 786.044 993.359 768.507C1026.74 758.464 1054.97 736.425 1081.01 713.421C1149.41 653.069 1207.15 579.975 1249.3 498.092" stroke="url(#paint4_linear_556_2005)" stroke-miterlimit="10"/>
<path d="M219.808 642.982C263.117 668.924 309.433 696.723 360.563 716.656C364.663 718.255 368.804 719.8 372.966 721.278C421.473 738.479 471.594 748.024 520.245 734.505C522.558 733.858 524.852 733.147 527.148 732.426C552.553 724.45 575.21 712.194 599.328 704.929C614.837 700.287 630.197 697.702 645.942 697.138C698.846 695.226 752.708 714.609 803.014 734.21C810.314 737.051 817.673 739.903 825.072 742.701C883.889 764.905 946.448 784.7 1005.26 767.559C1038.56 757.857 1066.75 736.086 1092.8 713.41C1161.27 653.914 1219.22 581.497 1261.32 499.94" stroke="url(#paint5_linear_556_2005)" stroke-miterlimit="10"/>
<path d="M224.918 640.028C268.576 664.722 315.593 691.744 367.236 711.649C371.377 713.245 375.559 714.787 379.759 716.282C428.844 733.598 478.864 743.979 528.069 730.825C530.398 730.201 532.722 729.495 535.045 728.789C560.901 720.966 583.766 708.849 607.975 701.581C623.653 696.909 639.106 694.259 654.988 693.669C708.385 691.675 762.678 711.258 813.382 731.185C820.734 734.076 828.144 736.978 835.605 739.828C894.816 762.439 957.726 782.989 1017.05 766.257C1050.26 756.884 1078.41 735.39 1104.49 713.043C1173.02 654.412 1231.16 582.661 1273.22 501.433" stroke="url(#paint6_linear_556_2005)" stroke-miterlimit="10"/>
<path d="M229.908 636.676C273.913 660.132 321.639 686.379 373.788 706.243C377.971 707.837 382.191 709.386 386.433 710.879C436.095 728.319 486.006 739.524 535.774 726.737C538.131 726.128 540.472 725.436 542.812 724.753C569.116 717.093 592.203 705.097 616.493 697.834C632.337 693.141 647.877 690.405 663.905 689.791C717.785 687.712 772.519 707.497 823.612 727.749C831.017 730.68 838.489 733.634 845.992 736.532C905.595 759.56 968.849 780.843 1028.7 764.522C1061.83 755.49 1089.94 734.263 1116.03 712.243C1184.63 654.479 1242.97 583.394 1284.97 502.491" stroke="url(#paint7_linear_556_2005)" stroke-miterlimit="10"/>
<path d="M234.752 632.952C279.106 655.161 327.531 680.64 380.194 700.465C384.418 702.056 388.68 703.603 392.961 705.103C443.201 722.659 493.002 734.697 543.333 722.276C545.706 721.691 548.076 721.014 550.443 720.346C577.206 712.841 600.503 700.975 624.874 693.716C640.877 688.991 656.509 686.191 672.686 685.543C727.059 683.38 782.236 703.358 833.715 723.944C841.182 726.927 848.696 729.929 856.251 732.877C916.247 756.312 979.842 778.348 1040.21 762.426C1073.24 753.711 1101.32 732.774 1127.42 711.081C1196.08 654.181 1254.62 583.764 1296.59 503.188" stroke="url(#paint8_linear_556_2005)" stroke-miterlimit="10"/>
<path d="M239.45 628.856C284.153 649.817 333.276 674.528 386.455 694.316C390.719 695.904 395.011 697.456 399.341 698.965C450.16 716.636 499.859 729.51 550.745 717.454C553.146 716.884 555.523 716.218 557.926 715.578C585.138 708.235 608.655 696.501 633.108 689.236C649.277 684.49 665.006 681.606 681.318 680.942C736.183 678.696 791.792 698.874 843.66 719.775C851.179 722.808 858.757 725.852 866.362 728.86C926.742 752.701 990.679 775.48 1051.58 759.97C1084.52 751.584 1112.57 730.926 1138.68 709.561C1207.41 653.516 1266.15 583.774 1308.06 503.525" stroke="url(#paint9_linear_556_2005)" stroke-miterlimit="10"/>
<path d="M243.979 624.404C289.029 644.127 338.862 668.063 392.546 687.81C396.852 689.396 401.185 690.945 405.545 692.459C456.943 710.246 506.531 723.953 557.99 712.266C560.407 711.719 562.812 711.069 565.235 710.432C592.904 703.253 616.623 691.637 641.167 684.378C657.504 679.603 673.316 676.652 689.776 675.954C745.135 673.625 801.174 694.003 853.441 715.231C861.013 718.304 868.641 721.408 876.298 724.466C937.07 748.723 1001.34 772.224 1062.78 757.136C1095.62 749.068 1123.64 728.699 1149.77 707.663C1218.56 652.484 1277.5 583.409 1319.37 503.487" stroke="url(#paint10_linear_556_2005)" stroke-miterlimit="10"/>
<path d="M248.339 619.596C293.737 638.071 344.269 661.24 398.467 680.958C402.814 682.541 407.188 684.088 411.585 685.619C463.561 703.521 513.04 718.052 565.059 706.751C567.504 706.219 569.927 705.582 572.376 704.97C600.503 697.957 624.432 686.47 649.058 679.206C665.563 674.4 681.461 671.374 698.066 670.661C753.909 668.237 810.399 688.819 863.043 710.379C870.677 713.505 878.347 716.657 886.055 719.765C947.221 744.429 1011.83 768.672 1073.79 754.004C1106.53 746.254 1134.52 726.165 1160.67 705.466C1229.53 651.153 1288.66 582.734 1330.49 503.16" stroke="url(#paint11_linear_556_2005)" stroke-miterlimit="10"/>
<path d="M252.528 614.442C298.263 631.678 349.515 654.072 404.218 673.75C408.606 675.33 413.02 676.885 417.458 678.413C470.013 696.43 519.382 711.795 571.964 700.861C574.425 700.352 576.875 699.73 579.352 699.134C607.927 692.283 632.079 680.918 656.796 673.65C673.458 668.822 689.452 665.711 706.204 664.974C762.54 662.467 819.461 683.25 872.503 705.136C880.189 708.312 887.922 711.506 895.673 714.662C957.232 739.733 1022.16 764.706 1084.67 750.462C1117.31 743.019 1145.27 723.229 1171.44 702.859C1240.35 649.411 1299.7 581.661 1341.47 502.411" stroke="url(#paint12_linear_556_2005)" stroke-miterlimit="10"/>
<path d="M256.525 608.948C302.609 624.936 354.559 646.563 409.777 666.203C414.207 667.78 418.661 669.332 423.139 670.867C476.271 689.009 525.53 705.198 578.676 694.63C581.164 694.137 583.633 693.529 586.126 692.955C615.159 686.269 639.511 675.032 664.321 667.761C681.151 662.902 697.237 659.727 714.128 658.954C770.957 656.364 828.309 677.346 881.739 699.558C889.488 702.775 897.262 706.028 905.074 709.236C967.025 734.724 1032.29 760.406 1095.33 746.596C1127.87 739.469 1155.82 719.972 1181.99 699.939C1250.97 647.346 1310.52 580.272 1352.24 501.35" stroke="url(#paint13_linear_556_2005)" stroke-miterlimit="10"/>
<path d="M260.316 603.132C306.749 617.872 359.397 638.732 415.131 658.333C419.601 659.908 424.095 661.466 428.612 663.009C482.323 681.267 531.473 698.279 585.181 688.088C587.687 687.608 590.183 687.015 592.702 686.466C622.193 679.944 646.746 668.775 671.647 661.561C688.631 656.638 704.817 653.42 721.852 652.634C779.174 649.96 836.96 671.133 890.776 693.679C898.577 696.946 906.414 700.241 914.267 703.507C976.612 729.402 1042.19 755.812 1105.77 742.426C1138.21 735.595 1166.13 716.409 1192.32 696.705C1261.38 644.978 1321.11 578.569 1362.8 499.975" stroke="url(#paint14_linear_556_2005)" stroke-miterlimit="10"/>
<path d="M263.901 596.995C310.681 610.496 364.04 630.581 420.278 650.142C424.79 651.714 429.325 653.269 433.871 654.817C488.161 673.19 537.2 691.036 591.472 681.212C594.004 680.757 596.518 680.177 599.066 679.634C629.023 673.288 653.769 662.235 678.762 655.017C695.914 650.064 712.183 646.78 729.367 645.96C787.172 643.201 845.408 664.578 899.612 687.448C907.466 690.766 915.355 694.11 923.259 697.427C985.997 723.729 1051.89 750.857 1116.03 737.907C1148.36 731.382 1176.26 712.497 1202.47 693.121C1271.59 642.26 1331.53 576.518 1373.15 498.249" stroke="url(#paint15_linear_556_2005)" stroke-miterlimit="10"/>
<path d="M267.279 590.545C314.407 602.799 368.464 622.115 425.228 641.64C429.781 643.209 434.355 644.772 438.941 646.327C493.81 664.815 542.73 683.483 597.573 674.037C600.123 673.596 602.665 673.031 605.229 672.511C635.644 666.33 660.602 655.396 685.675 648.183C702.994 643.21 719.36 639.842 736.678 639.005C794.976 636.163 853.643 657.74 908.236 680.935C916.153 684.295 924.092 687.699 932.048 691.066C995.178 717.784 1061.38 745.61 1126.08 733.106C1158.3 726.878 1186.18 708.303 1212.41 689.256C1281.58 639.259 1341.73 574.184 1383.31 496.244" stroke="url(#paint16_linear_556_2005)" stroke-miterlimit="10"/>
<path d="M270.416 583.797C317.893 594.803 372.649 613.352 429.928 632.838C434.522 634.405 439.137 635.965 443.762 637.527C499.209 656.131 548.021 675.623 603.435 666.555C606.001 666.137 608.571 665.587 611.163 665.083C642.034 659.076 667.195 648.25 692.36 641.043C709.846 636.039 726.297 632.595 743.762 631.734C802.553 628.809 861.653 650.577 916.642 674.108C924.61 677.518 932.603 680.963 940.61 684.389C1004.13 711.515 1070.64 740.056 1135.89 727.998C1168 722.064 1195.87 703.804 1222.11 685.084C1291.35 635.952 1351.7 571.545 1393.24 493.931" stroke="url(#paint17_linear_556_2005)" stroke-miterlimit="10"/>
<path d="M273.32 576.763C321.144 586.531 376.61 604.305 434.394 623.75C439.029 625.314 443.684 626.882 448.349 628.451C504.373 647.18 553.075 667.496 609.053 658.794C611.647 658.392 614.233 657.865 616.852 657.376C648.18 651.543 673.555 640.828 698.8 633.625C716.444 628.589 732.988 625.081 750.602 624.186C809.885 621.177 869.427 643.147 924.796 666.992C932.818 670.442 940.871 673.948 948.921 677.413C1012.83 704.944 1079.66 734.194 1145.46 722.583C1177.47 716.934 1205.31 698.994 1231.57 680.602C1300.87 632.326 1361.42 568.584 1402.9 491.307" stroke="url(#paint18_linear_556_2005)" stroke-miterlimit="10"/>
<path d="M275.973 569.439C324.145 577.96 380.31 594.966 438.609 614.373C443.285 615.934 447.981 617.499 452.685 619.075C509.288 637.92 557.881 659.059 614.421 650.734C617.033 650.345 619.646 649.834 622.282 649.368C654.077 643.701 679.653 633.114 704.989 625.908C722.802 620.841 739.441 617.258 757.19 616.347C816.956 613.254 876.938 635.426 932.705 659.597C940.79 663.098 948.886 666.643 956.986 670.168C1021.29 698.116 1088.41 728.051 1154.79 716.899C1186.68 711.545 1214.52 693.919 1240.78 675.853C1310.16 628.444 1370.9 565.369 1412.34 488.428" stroke="url(#paint19_linear_556_2005)" stroke-miterlimit="10"/>
<path d="M278.379 561.847C326.9 569.12 383.763 585.359 442.578 604.727C447.295 606.285 452.032 607.847 456.766 609.429C513.947 628.389 562.421 650.35 619.531 642.414C622.169 642.049 624.8 641.552 627.465 641.091C659.717 635.599 685.496 625.12 710.923 617.92C728.902 612.833 745.626 609.174 763.524 608.229C823.783 605.052 884.198 627.415 940.351 651.92C948.487 655.472 956.636 659.067 964.798 662.644C1029.49 690.998 1096.92 721.628 1163.85 710.933C1195.62 705.852 1223.45 688.559 1249.74 670.823C1319.17 624.277 1380.12 561.87 1421.5 485.255" stroke="url(#paint20_linear_556_2005)" stroke-miterlimit="10"/>
<path d="M280.509 553.981C329.368 560.014 386.951 575.479 446.269 594.817C451.028 596.373 455.794 597.941 460.577 599.531C518.337 618.606 566.702 641.391 624.373 633.831C627.029 633.48 629.688 632.998 632.379 632.562C665.095 627.256 691.08 616.875 716.588 609.68C734.725 604.561 751.544 600.828 769.586 599.868C830.338 596.608 891.194 619.173 947.736 644.003C955.925 647.595 964.134 651.252 972.338 654.877C1037.42 683.648 1105.16 714.953 1172.65 704.727C1204.31 699.93 1232.13 682.961 1258.43 665.552C1327.93 619.873 1389.07 558.13 1430.42 481.844" stroke="url(#paint21_linear_556_2005)" stroke-miterlimit="10"/>
<path d="M282.371 545.863C331.578 550.649 389.86 565.346 449.693 584.645C454.495 586.189 459.3 587.764 464.122 589.361C522.461 608.552 570.718 632.161 628.95 624.977C631.632 624.651 634.309 624.182 637.018 623.76C670.19 618.628 696.379 608.355 721.977 601.166C740.283 596.017 757.184 592.217 775.375 591.224C836.62 587.881 897.907 610.646 954.837 635.8C963.088 639.444 971.341 643.139 979.595 646.825C1045.07 676.002 1113.1 707.991 1181.16 698.243C1212.71 693.721 1240.51 677.084 1266.83 660.005C1336.39 615.181 1397.74 554.116 1439.04 478.156" stroke="url(#paint22_linear_556_2005)" stroke-miterlimit="10"/>
<path d="M283.942 537.499C333.498 541.037 392.478 554.967 452.826 574.228C457.669 575.768 462.514 577.35 467.375 578.955C526.293 598.261 574.43 622.692 633.235 615.886C635.934 615.574 638.639 615.12 641.374 614.723C675.012 609.768 701.403 599.613 727.083 592.419C745.557 587.238 762.554 583.365 780.881 582.345C842.609 578.917 904.339 601.874 961.665 627.365C969.968 631.059 978.282 634.806 986.59 638.532C1052.46 668.117 1120.78 700.789 1189.42 691.511C1220.84 687.262 1248.64 670.96 1274.97 654.208C1344.61 610.25 1406.15 549.85 1447.4 474.217" stroke="url(#paint23_linear_556_2005)" stroke-miterlimit="10"/>
<path d="M285.22 528.899C335.123 531.199 394.813 544.353 455.667 563.574C460.551 565.112 465.437 566.691 470.338 568.303C529.832 587.734 577.864 612.969 637.238 606.552C639.956 606.253 642.686 605.824 645.451 605.432C679.553 600.663 706.15 590.606 731.912 583.407C750.553 578.206 767.636 574.247 786.109 573.213C848.329 569.701 910.49 592.859 968.204 618.674C976.561 622.409 984.927 626.206 993.285 629.991C1059.55 659.993 1128.16 693.328 1197.37 684.531C1228.68 680.555 1256.47 664.587 1282.82 648.164C1352.51 605.07 1414.27 545.339 1455.46 470.032" stroke="url(#paint24_linear_556_2005)" stroke-miterlimit="10"/>
<path d="M286.184 520.069C336.436 521.121 396.824 533.508 458.194 552.69C463.118 554.226 468.044 555.812 472.976 557.42C533.049 576.966 580.962 603.023 640.908 596.984C643.651 596.71 646.402 596.285 649.183 595.916C683.741 591.321 710.54 581.383 736.394 574.179C755.193 568.946 772.369 564.923 790.99 563.855C853.704 560.26 916.306 583.62 974.398 609.758C982.817 613.544 991.235 617.392 999.635 621.225C1066.29 651.634 1135.2 685.633 1204.97 677.324C1236.16 673.61 1263.95 657.988 1290.31 641.892C1360.07 599.664 1422.02 540.589 1463.18 465.62" stroke="url(#paint25_linear_556_2005)" stroke-miterlimit="10"/>
<path d="M286.843 511.021C337.443 510.825 398.53 522.445 460.415 541.589C465.381 543.121 470.347 544.705 475.317 546.33C535.969 565.991 583.773 592.872 644.28 587.209C647.042 586.949 649.818 586.549 652.626 586.195C687.649 581.786 714.654 571.946 740.598 564.749C759.565 559.486 776.836 555.388 795.592 554.304C858.799 550.626 921.833 574.176 980.322 600.651C988.793 604.487 997.263 608.384 1005.71 612.268C1072.77 643.083 1141.96 677.745 1212.31 669.928C1243.38 666.477 1271.16 651.198 1297.55 635.431C1367.37 594.059 1429.51 535.659 1470.62 461.016" stroke="url(#paint26_linear_556_2005)" stroke-miterlimit="10"/>
<path d="M287.174 501.761C338.121 500.327 399.92 511.162 462.318 530.277C467.325 531.807 472.333 533.387 477.342 535.019C538.572 554.796 586.259 582.489 647.337 577.215C650.124 576.979 652.918 576.593 655.754 576.254C691.241 572.031 718.451 562.29 744.477 555.097C763.61 549.813 780.966 545.639 799.87 544.521C863.56 540.758 927.036 564.511 985.914 591.3C994.439 595.176 1002.97 599.126 1011.47 603.069C1078.91 634.301 1148.4 669.605 1219.33 662.289C1250.28 659.102 1278.06 644.168 1304.46 628.729C1374.34 588.222 1436.69 530.489 1477.75 456.183" stroke="url(#paint27_linear_556_2005)" stroke-miterlimit="10"/>
<path d="M287.178 492.289C338.474 489.608 400.971 499.674 463.884 518.751C468.932 520.278 473.979 521.866 479.028 523.505C540.837 543.397 588.415 571.914 650.052 567.026C652.857 566.804 655.679 566.433 658.531 566.117C694.482 562.08 721.887 552.445 748.004 545.249C767.306 539.935 784.747 535.684 803.798 534.542C867.98 530.696 931.897 554.651 991.164 581.765C999.75 585.693 1008.32 589.691 1016.88 593.684C1084.7 625.322 1154.49 661.279 1225.99 654.473C1256.82 651.539 1284.58 636.958 1310.99 621.856C1380.93 582.214 1443.49 525.148 1484.5 451.17" stroke="url(#paint28_linear_556_2005)" stroke-miterlimit="10"/>
<path d="M286.827 482.641C338.472 478.712 401.667 488.011 465.096 507.049C470.185 508.574 475.274 510.159 480.361 511.805C542.747 531.823 590.21 561.141 652.417 556.642C655.24 556.433 658.088 556.087 660.969 555.777C697.375 551.924 724.995 542.389 751.193 535.197C770.653 529.851 788.198 525.528 807.385 524.37C872.059 520.441 936.409 544.586 996.063 572.034C1004.7 576.013 1013.34 580.052 1021.93 584.094C1090.15 616.138 1160.22 652.736 1232.31 646.444C1263.01 643.76 1290.78 629.527 1317.2 614.762C1387.21 575.985 1449.96 519.587 1490.92 445.934" stroke="url(#paint29_linear_556_2005)" stroke-miterlimit="10"/>
<path d="M286.136 472.799C338.118 467.63 402.033 476.155 465.965 495.163C471.095 496.685 476.223 498.277 481.342 499.919C544.307 520.052 591.661 550.194 654.429 546.071C657.278 545.887 660.144 545.554 663.053 545.26C699.923 541.593 727.749 532.156 754.027 524.969C773.653 519.602 791.284 515.203 810.619 514.011C875.788 509.989 940.567 534.344 1000.62 562.119C1009.32 566.139 1018 570.237 1026.65 574.331C1095.27 606.792 1165.62 644.022 1238.29 638.241C1268.88 635.811 1296.63 621.931 1323.07 607.495C1393.15 569.584 1456.1 513.852 1497.02 440.526" stroke="url(#paint30_linear_556_2005)" stroke-miterlimit="10"/>
<path d="M285.071 462.777C337.401 456.36 402.015 464.118 466.462 483.087C471.634 484.606 476.803 486.196 481.959 487.855C545.503 508.103 592.739 539.058 656.088 535.324C658.954 535.154 661.848 534.836 664.774 534.565C702.107 531.084 730.127 521.754 756.498 514.563C776.292 509.166 794.008 504.691 813.487 503.485C879.14 499.377 944.37 523.936 1004.8 552.034C1013.55 556.104 1022.28 560.252 1030.99 564.396C1100 597.264 1170.64 635.124 1243.88 629.865C1274.34 627.677 1302.07 614.117 1328.55 600.055C1398.62 562.864 1461.84 507.942 1502.71 434.944" stroke="url(#paint31_linear_556_2005)" stroke-miterlimit="10"/>
<path d="M283.638 452.597C336.317 444.932 401.639 451.925 466.592 470.853C471.804 472.37 477.013 473.967 482.21 475.623C546.333 495.986 593.452 527.753 657.37 524.408C660.265 524.253 663.174 523.958 666.128 523.702C703.926 520.407 732.151 511.175 758.602 503.989C778.565 498.561 796.373 494.022 815.992 492.78C882.137 488.589 947.8 513.339 1008.63 541.773C1017.43 545.883 1026.22 550.083 1034.97 554.285C1104.37 587.56 1175.29 626.041 1249.12 621.315C1279.46 619.379 1307.18 606.163 1333.68 592.44C1403.81 556.103 1467.24 501.851 1508.06 429.189" stroke="url(#paint32_linear_556_2005)" stroke-miterlimit="10"/>
<path d="M281.817 442.254C334.844 433.352 400.866 439.567 466.334 458.457C471.588 459.971 476.827 461.564 482.072 463.238C546.764 483.715 593.786 516.298 658.264 513.339C661.174 513.207 664.111 512.928 667.093 512.687C705.353 509.588 733.784 500.455 760.328 493.265C780.447 487.814 798.352 483.191 818.117 481.925C884.755 477.651 950.849 502.601 1012.06 531.359C1020.93 535.522 1029.76 539.77 1038.57 544.022C1108.36 577.714 1179.55 616.804 1253.97 612.622C1284.19 610.919 1311.92 598.079 1338.43 584.683C1408.62 549.212 1472.25 495.625 1513.03 423.291" stroke="url(#paint33_linear_556_2005)" stroke-miterlimit="10"/>
<path d="M279.616 431.772C332.991 421.622 399.712 427.07 465.695 445.921C470.98 447.431 476.271 449.022 481.555 450.704C546.825 471.296 593.73 504.691 658.778 502.12C661.716 502.004 664.671 501.738 667.67 501.51C706.395 498.598 735.032 489.562 761.656 482.377C781.943 476.896 799.931 472.207 819.843 470.916C886.974 466.559 953.499 491.709 1015.11 520.794C1024.03 525.007 1032.93 529.297 1041.78 533.599C1111.97 567.698 1183.45 607.399 1258.44 603.758C1288.53 602.296 1316.25 589.821 1342.79 576.755C1413.05 542.14 1476.88 489.23 1517.6 417.22" stroke="url(#paint34_linear_556_2005)" stroke-miterlimit="10"/>
<path d="M277.005 421.144C330.727 409.756 398.158 414.428 464.646 433.239C469.972 434.746 475.302 436.345 480.618 438.022C546.465 458.739 593.262 492.948 658.872 490.754C661.828 490.651 664.809 490.41 667.836 490.198C707.023 487.481 735.856 478.542 762.572 471.353C783.025 465.851 801.1 461.076 821.159 459.762C888.773 455.319 955.75 480.664 1017.74 510.081C1026.71 514.334 1035.66 518.684 1044.57 523.037C1115.14 557.542 1186.9 597.842 1262.48 594.756C1292.45 593.536 1320.18 581.427 1346.72 568.688C1417.05 534.939 1481.07 482.695 1521.75 411.023" stroke="url(#paint35_linear_556_2005)" stroke-miterlimit="10"/>
<path d="M273.975 410.409C328.046 397.773 396.175 401.678 463.179 420.451C468.546 421.955 473.917 423.551 479.271 425.245C545.696 446.078 592.377 481.099 658.556 479.293C661.528 479.213 664.537 478.987 667.591 478.79C707.241 476.269 736.282 467.419 763.08 460.224C783.701 454.692 801.871 449.843 822.065 448.512C890.171 443.987 957.58 469.531 1019.96 499.264C1028.99 503.569 1037.99 507.969 1046.94 512.369C1117.91 547.292 1189.96 588.183 1266.12 585.65C1295.97 584.661 1323.68 572.927 1350.25 560.517C1420.64 527.634 1484.87 476.057 1525.5 404.712" stroke="url(#paint36_linear_556_2005)" stroke-miterlimit="10"/>
<path d="M270.54 399.723C324.96 385.839 393.788 388.976 461.306 407.711C466.715 409.212 472.126 410.815 477.52 412.507C544.524 433.455 591.089 469.278 657.835 467.88C660.835 467.815 663.862 467.603 666.932 467.429C707.036 465.092 736.29 456.352 763.171 449.152C783.961 443.59 802.214 438.674 822.555 437.309C891.155 432.701 958.995 458.446 1021.77 488.505C1030.86 492.86 1039.91 497.3 1048.92 501.762C1120.27 537.09 1192.61 578.572 1269.35 576.602C1299.07 575.844 1326.79 564.487 1353.37 552.405C1423.82 520.375 1488.25 469.475 1528.83 398.457" stroke="url(#paint37_linear_556_2005)" stroke-miterlimit="10"/>
<path d="M266.693 389.073C321.459 373.952 390.997 376.313 459.021 395.007C464.471 396.506 469.922 398.106 475.354 399.815C542.937 420.879 589.395 457.516 656.701 456.504C659.717 456.462 662.771 456.265 665.871 456.097C706.438 453.956 735.89 445.302 762.861 438.109C783.807 432.524 802.156 427.524 822.645 426.135C891.737 421.444 960.02 447.381 1023.17 477.772C1032.31 482.168 1041.43 486.67 1050.48 491.18C1122.22 526.915 1194.84 568.977 1272.17 567.59C1301.77 567.054 1329.48 556.082 1356.07 544.327C1426.59 513.164 1491.21 462.929 1531.75 392.239" stroke="url(#paint38_linear_556_2005)" stroke-miterlimit="10"/>
<path d="M262.559 377.813C317.664 361.442 387.911 363.038 456.458 381.705C461.949 383.201 467.44 384.808 472.903 386.513C541.065 407.691 587.406 445.141 655.291 444.519C658.335 444.492 661.405 444.319 664.523 444.164C705.552 442.218 735.21 433.663 762.263 426.464C783.377 420.849 801.82 415.785 822.445 414.37C892.021 409.593 960.744 435.732 1024.3 466.451C1033.5 470.898 1042.65 475.438 1051.75 480.009C1123.89 516.16 1196.8 558.792 1274.71 557.979C1304.19 557.675 1331.9 547.079 1358.5 535.652C1429.08 505.344 1493.91 455.786 1534.4 385.423" stroke="url(#paint39_linear_556_2005)" stroke-miterlimit="10"/>
<path d="M258.042 366.655C313.496 349.036 384.441 349.865 453.503 368.493C459.035 369.987 464.567 371.592 470.068 373.313C538.807 394.617 585.032 432.868 653.487 432.634C656.549 432.622 659.647 432.463 662.791 432.333C704.282 430.584 734.147 422.117 761.291 414.925C782.571 409.289 801.101 404.139 821.873 402.7C891.941 397.84 961.096 424.179 1025.04 455.222C1034.29 459.719 1043.5 464.31 1052.65 468.92C1125.18 505.478 1198.36 548.678 1276.85 548.45C1306.21 548.368 1333.92 538.158 1360.54 527.058C1431.19 497.616 1496.21 448.714 1536.66 378.687" stroke="url(#paint40_linear_556_2005)" stroke-miterlimit="10"/>
<path d="M253.136 355.62C308.936 336.763 380.592 336.816 450.159 355.405C455.732 356.895 461.304 358.507 466.846 360.226C536.163 381.645 582.281 420.711 651.296 420.863C654.374 420.874 657.5 420.73 660.672 420.615C702.626 419.062 732.696 410.694 759.922 403.496C781.371 397.829 799.985 392.604 820.902 391.15C891.463 386.207 961.061 412.739 1025.39 444.116C1034.7 448.653 1043.96 453.305 1053.17 457.966C1126.09 494.941 1199.55 538.691 1278.63 539.056C1307.87 539.196 1335.57 529.371 1362.21 518.6C1432.93 490.024 1498.15 441.789 1538.55 372.089" stroke="url(#paint41_linear_556_2005)" stroke-miterlimit="10"/>
<path d="M247.843 344.698C303.993 324.593 376.347 323.879 446.429 342.429C452.044 343.916 457.656 345.526 463.238 347.252C533.134 368.786 579.137 408.654 648.719 409.204C651.825 409.23 654.967 409.11 658.157 409.009C700.571 407.661 730.841 399.369 758.157 392.178C779.774 386.481 798.482 381.191 819.537 379.702C890.591 374.675 960.62 401.407 1025.33 433.109C1034.7 437.698 1044.02 442.389 1053.27 447.11C1126.59 484.491 1200.34 528.792 1280 529.761C1309.11 530.112 1336.82 520.674 1363.46 510.24C1434.25 482.53 1499.67 434.96 1540.01 365.586" stroke="url(#paint42_linear_556_2005)" stroke-miterlimit="10"/>
<path d="M242.189 333.923C298.687 312.571 371.739 311.089 442.337 329.6C447.992 331.085 453.646 332.692 459.265 334.435C529.74 356.085 575.636 396.767 645.778 397.703C648.902 397.742 652.072 397.637 655.289 397.551C698.166 396.399 728.642 388.206 756.04 381.009C777.814 375.29 796.618 369.916 817.82 368.402C889.357 363.291 959.826 390.225 1024.94 422.253C1034.36 426.893 1043.73 431.635 1053.03 436.404C1126.74 474.193 1200.78 519.043 1281.01 520.614C1310 521.188 1337.7 512.134 1364.36 502.039C1435.22 475.185 1500.83 428.29 1541.13 359.254" stroke="url(#paint43_linear_556_2005)" stroke-miterlimit="10"/>
<path d="M236.164 323.284C293.009 300.694 366.771 298.437 437.874 316.908C443.571 318.39 449.264 320.004 454.915 321.742C525.968 343.508 571.746 385.001 642.459 386.326C645.608 386.39 648.796 386.299 652.041 386.228C695.381 385.272 726.064 377.167 753.543 369.975C775.485 364.225 794.372 358.785 815.721 357.247C887.75 352.052 958.653 379.177 1024.15 411.54C1033.63 416.22 1043.05 421.012 1052.41 425.843C1126.51 464.048 1200.83 509.417 1281.65 511.623C1310.52 512.409 1338.22 503.751 1364.89 493.983C1435.81 467.995 1501.63 421.768 1541.88 353.058" stroke="url(#paint44_linear_556_2005)" stroke-miterlimit="10"/>
<path d="M229.795 312.807C286.988 288.969 361.449 285.944 433.068 304.376C438.805 305.856 444.53 307.466 450.228 309.223C521.86 331.103 567.523 373.399 638.802 375.132C641.969 375.21 645.183 375.143 648.445 375.086C692.245 374.335 723.137 366.319 750.698 359.121C772.806 353.351 791.78 347.825 813.275 346.263C885.798 340.985 957.141 368.312 1023.03 400.989C1032.57 405.721 1042.04 410.564 1051.45 415.433C1125.94 454.045 1200.55 499.944 1281.94 502.774C1310.69 503.769 1338.38 495.508 1365.08 486.069C1436.07 460.947 1502.08 415.385 1542.28 347.002" stroke="url(#paint45_linear_556_2005)" stroke-miterlimit="10"/>
<path d="M223.071 302.488C280.614 277.403 355.773 273.61 427.907 292.004C433.686 293.481 439.449 295.098 445.188 296.852C517.397 318.858 562.955 361.958 634.804 364.079C637.999 364.172 641.228 364.129 644.519 364.086C688.781 363.532 719.87 355.602 747.531 348.413C769.807 342.612 788.874 337.021 810.507 335.433C883.512 330.071 955.297 357.599 1021.57 390.602C1031.17 395.373 1040.69 400.276 1050.15 405.195C1125.04 444.215 1199.93 490.644 1281.89 494.095C1310.52 495.303 1338.21 487.437 1364.92 478.326C1435.97 454.07 1502.19 409.175 1542.34 341.119" stroke="url(#paint46_linear_556_2005)" stroke-miterlimit="10"/>
<path d="M216.011 292.342C273.901 266.019 349.77 261.451 422.409 279.805C428.229 281.279 434.034 282.893 439.813 284.654C512.6 306.776 558.043 350.678 630.459 353.197C633.67 353.313 636.93 353.275 640.246 353.258C684.969 352.909 716.266 345.068 744.009 337.873C766.452 332.052 785.605 326.375 807.384 324.763C880.883 319.317 953.1 347.036 1019.76 380.373C1029.42 385.197 1039 390.14 1048.49 395.117C1123.76 434.551 1198.95 481.482 1281.5 485.577C1310.01 486.987 1337.7 479.528 1364.42 470.744C1435.54 447.353 1501.95 403.115 1542.06 335.396" stroke="url(#paint47_linear_556_2005)" stroke-miterlimit="10"/>
<path d="M208.633 282.383C266.862 254.81 343.441 249.466 416.592 267.801C422.453 269.273 428.298 270.894 434.115 272.663C507.481 294.899 552.809 339.604 625.793 342.521C629.022 342.65 632.307 342.637 635.644 342.624C680.829 342.47 712.342 334.781 740.159 327.518C762.772 321.707 782.008 315.913 803.934 314.277C877.927 308.738 950.583 336.669 1017.64 370.331C1027.34 375.205 1036.97 380.197 1046.53 385.227C1122.19 425.068 1197.68 472.509 1280.8 477.248C1309.19 478.87 1336.87 471.805 1363.6 463.348C1434.78 440.823 1501.39 397.25 1541.45 329.858" stroke="url(#paint48_linear_556_2005)" stroke-miterlimit="10"/>
<path d="M200.925 272.617C259.502 243.796 336.79 237.687 410.446 255.982C416.349 257.451 422.234 259.069 428.081 260.843C502.026 283.195 547.246 328.714 620.791 332.017C624.047 332.161 627.349 332.172 630.712 332.173C676.359 332.226 708.081 324.615 735.978 317.356C758.758 311.525 778.089 305.657 800.151 303.995C874.637 298.373 947.725 326.504 1015.16 360.49C1024.92 365.404 1034.62 370.449 1044.21 375.537C1120.27 415.785 1196.05 463.727 1279.73 469.126C1308 470.95 1335.68 464.292 1362.42 456.163C1433.68 434.503 1500.48 391.597 1540.5 324.532" stroke="url(#paint49_linear_556_2005)" stroke-miterlimit="10"/>
<path d="M192.918 263.041C251.843 232.982 329.831 226.096 404.012 244.354C409.955 245.82 415.882 247.436 421.766 249.227C496.29 271.694 541.395 318.015 615.507 321.716C618.78 321.884 622.109 321.91 625.501 321.926C671.608 322.185 703.537 314.662 731.517 307.398C754.465 301.537 773.88 295.593 796.09 293.906C871.058 288.199 944.589 316.523 1012.43 350.845C1022.25 355.811 1031.98 360.904 1041.63 366.042C1118.08 406.706 1194.15 455.128 1278.41 461.192C1306.56 463.218 1334.25 457.018 1360.99 449.164C1432.36 428.511 1499.31 386.13 1539.29 319.392" stroke="url(#paint50_linear_556_2005)" stroke-miterlimit="10"/>
<path d="M184.598 253.683C243.87 222.376 322.557 214.722 397.253 232.941C403.238 234.405 409.204 236.028 415.13 237.816C490.23 260.409 535.231 307.524 609.902 311.621C613.202 311.804 616.549 311.843 619.957 311.883C666.525 312.347 698.653 304.902 726.724 297.644C749.84 291.752 769.338 285.742 791.694 284.032C867.156 278.241 941.127 306.767 1009.34 341.412C1019.21 346.428 1029 351.561 1038.71 356.751C1115.56 397.822 1191.92 446.725 1276.76 453.462C1304.79 455.69 1332.46 449.894 1359.23 442.369C1430.65 422.58 1497.82 380.868 1537.74 314.465" stroke="url(#paint51_linear_556_2005)" stroke-miterlimit="10"/>
<path d="M175.993 244.547C235.614 211.993 315.009 203.573 390.21 221.752C396.236 223.213 402.243 224.833 408.208 226.629C483.888 249.336 528.773 297.254 604.012 301.749C607.33 301.946 610.703 302.01 614.141 302.055C661.169 302.725 693.507 295.358 721.658 288.104C744.94 282.192 764.535 276.098 787.028 274.361C862.983 268.487 937.385 297.214 1006 332.185C1015.92 337.242 1025.77 342.436 1035.52 347.674C1112.76 389.153 1189.43 438.527 1274.82 445.944C1302.74 448.365 1330.4 442.985 1357.18 435.787C1428.67 416.864 1496.03 375.817 1535.91 309.743" stroke="url(#paint52_linear_556_2005)" stroke-miterlimit="10"/>
<path d="M167.101 235.643C227.07 201.851 307.165 192.654 382.881 210.795C388.948 212.253 394.995 213.881 400.999 215.683C477.257 238.506 522.026 287.236 597.844 292.121C601.18 292.331 604.579 292.42 608.044 292.481C655.533 293.356 688.079 286.078 716.322 278.821C739.762 272.876 759.451 266.717 782.092 264.947C858.539 258.99 933.375 287.907 1002.37 323.213C1012.36 328.321 1022.25 333.564 1032.06 338.852C1109.69 380.747 1186.66 430.583 1272.61 438.683C1300.42 441.307 1328.07 436.33 1354.87 429.461C1426.42 411.394 1493.99 371.024 1533.81 305.274" stroke="url(#paint53_linear_556_2005)" stroke-miterlimit="10"/>
<path d="M157.933 226.975C218.251 191.935 299.044 181.97 375.276 200.072C381.384 201.528 387.472 203.153 393.506 204.961C470.343 227.899 515.006 277.433 591.38 282.724C594.743 282.959 598.159 283.061 601.642 283.135C649.582 284.214 682.337 277.015 710.67 269.764C734.277 263.799 754.052 257.554 776.838 255.77C853.768 249.728 929.045 278.846 998.444 314.469C1008.48 319.627 1018.44 324.912 1028.28 330.259C1106.31 372.561 1183.58 422.858 1270.1 431.66C1297.79 434.477 1325.43 429.915 1352.24 423.374C1423.86 406.172 1491.63 366.458 1531.4 301.047" stroke="url(#paint54_linear_556_2005)" stroke-miterlimit="10"/>
<path d="M148.497 218.552C209.163 182.264 290.665 171.534 367.402 189.596C373.554 191.039 379.679 192.68 385.752 194.496C463.168 217.549 507.715 267.885 584.658 273.575C588.038 273.823 591.482 273.941 594.991 274.04C643.392 275.324 676.354 268.214 704.769 260.957C728.545 254.962 748.405 248.641 771.338 246.832C848.761 240.707 924.48 270.018 994.256 305.973C1004.35 311.172 1014.35 316.517 1024.26 321.915C1102.68 364.624 1180.25 415.363 1267.33 424.875C1294.9 427.884 1322.53 423.737 1349.36 417.525C1421.04 401.187 1489.01 362.14 1528.74 297.057" stroke="url(#paint55_linear_556_2005)" stroke-miterlimit="10"/>
<path d="M138.799 210.396C199.812 172.871 282.014 161.363 359.267 179.386C365.459 180.827 371.625 182.466 377.738 184.288C455.73 207.467 500.174 258.597 577.675 264.683C581.083 264.946 584.544 265.087 588.08 265.201C636.941 266.692 670.113 259.66 698.609 252.408C722.552 246.382 742.505 239.997 765.575 238.162C843.491 231.953 919.641 261.465 989.815 297.747C999.97 302.997 1010.03 308.382 1019.98 313.829C1098.77 356.953 1176.68 408.137 1264.3 418.349C1291.76 421.551 1319.39 417.82 1346.23 411.935C1417.97 396.463 1486.14 358.084 1525.82 293.324" stroke="url(#paint56_linear_556_2005)" stroke-miterlimit="10"/>
<path d="M128.861 202.502C190.212 163.727 273.123 151.454 350.889 169.448C357.122 170.886 363.33 172.522 369.48 174.362C448.051 197.656 492.38 249.588 570.448 256.072C573.872 256.359 577.361 256.515 580.917 256.633C630.238 258.329 663.608 251.383 692.196 244.128C716.296 238.08 736.346 231.61 759.562 229.751C837.971 223.46 914.552 253.171 985.114 289.778C995.321 295.078 1005.43 300.514 1015.43 306.01C1094.62 349.541 1172.83 401.157 1261.02 412.091C1288.37 415.487 1315.97 412.168 1342.84 406.622C1414.65 392.006 1483.01 354.302 1522.65 289.871" stroke="url(#paint57_linear_556_2005)" stroke-miterlimit="10"/>
<path d="M118.678 194.889C180.378 154.866 263.997 141.827 342.268 159.781C348.543 161.216 354.78 162.858 360.981 164.696C440.131 188.106 484.354 240.843 562.981 247.722C566.433 248.024 569.937 248.204 573.521 248.337C623.303 250.238 656.882 243.372 685.551 236.121C709.819 230.042 729.952 223.506 753.317 221.614C832.208 215.237 909.242 245.143 980.181 282.082C990.441 287.422 1000.61 292.919 1010.66 298.466C1090.25 342.414 1168.78 394.444 1257.5 406.106C1284.74 409.684 1312.34 406.791 1339.2 401.571C1411.08 387.821 1479.65 350.784 1519.24 286.68" stroke="url(#paint58_linear_556_2005)" stroke-miterlimit="10"/>
<path d="M108.261 187.558C170.308 146.297 254.627 132.481 333.414 150.397C339.729 151.829 346.007 153.468 352.238 155.312C431.967 178.836 476.075 232.376 555.27 239.653C558.739 239.969 562.271 240.163 565.881 240.321C616.122 242.439 649.912 235.641 678.661 228.394C703.097 222.285 723.325 215.675 746.825 213.766C826.209 207.306 903.675 237.412 975.011 274.678C985.333 280.071 995.548 285.606 1005.65 291.212C1085.63 335.567 1164.48 388.022 1253.75 400.413C1280.88 404.186 1308.45 401.705 1335.34 396.813C1407.27 383.928 1476.04 347.558 1515.58 283.79" stroke="url(#paint59_linear_556_2005)" stroke-miterlimit="10"/>
<path d="M97.6173 180.521C160.013 138.013 245.031 123.429 324.332 141.306C330.689 142.736 337.007 144.382 343.277 146.233C423.584 169.873 467.586 224.217 547.349 231.892C550.835 232.231 554.395 232.441 558.023 232.612C608.724 234.935 642.712 228.224 671.565 220.966C696.167 214.836 716.482 208.14 740.129 206.207C820.006 199.664 897.902 229.97 969.627 267.561C980.003 272.993 990.268 278.589 1000.42 284.245C1080.79 329.007 1159.97 381.866 1249.77 395.015C1276.8 398.971 1304.35 396.914 1331.25 392.351C1403.25 380.331 1472.22 344.626 1511.72 281.187" stroke="url(#paint60_linear_556_2005)" stroke-miterlimit="10"/>
<path d="M86.7673 173.783C149.51 130.036 235.238 114.677 315.045 132.514C321.443 133.941 327.801 135.584 334.111 137.443C414.997 161.198 458.901 216.194 539.215 224.417C542.73 224.761 546.304 225.004 549.96 225.191C601.12 227.729 635.319 221.087 664.252 213.833C689.023 207.673 709.421 200.911 733.214 198.954C813.584 192.328 891.923 222.826 964.034 260.751C974.462 266.234 984.79 271.871 994.995 277.578C1075.76 322.756 1155.26 376.009 1245.61 389.908C1272.52 394.047 1300.06 392.414 1326.98 388.179C1399.05 377.015 1468.22 341.978 1507.66 278.875" stroke="url(#paint61_linear_556_2005)" stroke-miterlimit="10"/>
<path d="M75.7502 167.126C138.842 122.132 225.268 106.005 305.6 123.805C312.039 125.229 318.437 126.88 324.786 128.745C406.249 152.626 450.047 208.426 530.92 217.045C534.451 217.412 538.053 217.671 541.738 217.863C593.349 220.605 627.765 214.053 656.781 206.794C681.708 200.611 702.212 193.767 726.142 191.784C806.995 185.073 885.775 215.773 958.275 254.023C968.764 259.557 979.134 265.243 989.39 271C1070.55 316.585 1149.82 374.269 1241.27 384.891C1268.24 388.024 1295.59 388.005 1322.53 384.098C1394.66 373.799 1464.02 339.428 1503.42 276.651" stroke="url(#paint62_linear_556_2005)" stroke-miterlimit="10"/>
<path d="M64.4754 161.103C127.916 114.861 215.041 97.9665 295.888 115.728C302.368 117.15 308.807 118.798 315.195 120.67C397.237 144.666 440.918 201.279 522.36 210.286C525.919 210.668 529.537 210.95 533.24 211.155C585.31 214.113 619.928 207.628 649.033 200.375C674.129 194.162 694.716 187.252 718.795 185.235C800.141 178.44 879.352 209.341 952.251 247.907C962.794 253.482 973.224 259.23 983.522 265.034C1065.07 311.027 1144.69 368.713 1236.65 380.484C1263.52 383.924 1290.85 384.205 1317.8 380.627C1389.99 371.192 1459.57 337.49 1498.92 275.039" stroke="url(#paint63_linear_556_2005)" stroke-miterlimit="10"/>
<path d="M53.0201 155.403C116.807 107.923 204.642 90.253 285.995 107.974C292.516 109.393 298.996 111.039 305.414 112.916C388.034 137.028 431.609 194.454 513.61 203.847C517.187 204.243 520.833 204.54 524.562 204.771C577.093 207.934 611.918 201.538 641.106 194.28C666.369 188.036 687.041 181.05 711.265 179.018C793.104 172.14 872.748 203.232 946.033 242.132C956.638 247.759 967.112 253.545 977.461 259.41C1059.4 305.819 1139.39 363.471 1231.85 376.42C1258.6 380.164 1285.93 380.749 1312.89 377.499C1385.15 368.93 1454.92 335.893 1494.22 273.769" stroke="url(#paint64_linear_556_2005)" stroke-miterlimit="10"/>
<path d="M41.3822 150.035C105.518 101.308 194.052 82.8704 275.919 100.553C282.482 101.97 289.001 103.622 295.458 105.507C378.657 129.733 422.124 187.974 504.686 197.754C508.279 198.173 511.953 198.485 515.709 198.73C568.699 202.109 603.735 195.782 633.003 188.528C658.433 182.264 679.191 175.202 703.563 173.136C785.894 166.175 865.979 197.469 939.653 236.694C950.31 242.371 960.846 248.209 971.246 254.124C1053.58 300.94 1133.95 358.538 1226.89 372.705C1253.53 376.762 1280.84 377.63 1307.83 374.718C1380.15 367.015 1450.12 334.644 1489.38 272.848" stroke="url(#paint65_linear_556_2005)" stroke-miterlimit="10"/>
<path d="M29.5699 145.012C94.0449 95.0351 183.296 75.8339 265.669 93.4766C272.273 94.8902 278.834 96.5398 285.33 98.4319C369.098 122.772 412.456 181.836 495.589 191.994C499.21 192.429 502.899 192.764 506.676 193.013C560.126 196.598 595.362 190.347 624.721 183.1C650.309 176.804 671.171 169.669 695.678 167.587C778.494 160.531 859.018 192.037 933.08 231.586C943.791 237.303 954.378 243.191 964.829 249.166C1047.55 296.388 1128.32 353.917 1221.73 369.306C1248.24 373.678 1275.56 374.84 1302.55 372.255C1374.93 365.407 1445.11 333.714 1484.32 272.245" stroke="url(#paint66_linear_556_2005)" stroke-miterlimit="10"/>
<path d="M17.6048 140.327C82.4267 89.1122 172.378 69.1338 255.265 86.7478C261.91 88.1586 268.51 89.8155 275.045 91.7147C359.39 116.18 402.643 176.048 486.346 186.594C489.983 187.052 493.7 187.402 497.504 187.667C551.405 191.567 586.858 185.295 616.309 178.044C642.063 171.727 663.012 164.507 687.666 162.401C770.975 155.262 851.932 186.958 926.39 226.844C937.163 232.613 947.802 238.551 958.296 244.564C1041.41 292.202 1122.96 347.678 1216.46 366.265C1242.76 371.491 1270.15 372.405 1297.17 370.149C1369.62 364.167 1439.99 333.139 1479.15 271.996" stroke="url(#paint67_linear_556_2005)" stroke-miterlimit="10"/>
<path d="M5.49466 135.992C70.6653 83.5294 161.317 62.7736 244.717 80.359C251.403 81.7671 258.044 83.4213 264.619 85.3276C349.543 109.908 392.678 170.589 476.951 181.523C480.616 181.996 484.349 182.369 488.181 182.649C542.536 186.734 578.205 180.562 607.736 173.315C633.659 166.968 654.691 159.681 679.493 157.541C763.295 150.319 844.693 182.217 919.53 222.426C930.354 228.245 941.045 234.233 951.601 240.298C1035.11 288.343 1117.01 344.168 1211.02 363.56C1237.22 368.961 1264.6 370.308 1291.63 368.38C1364.14 363.263 1434.72 332.893 1473.83 272.096" stroke="url(#paint68_linear_556_2005)" stroke-miterlimit="10"/>
<path d="M-6.77537 132.034C58.7538 78.3257 150.104 56.8024 234.019 74.3493C240.746 75.7548 247.427 77.416 254.033 79.3179C339.536 104.014 382.564 165.508 467.396 176.829C471.079 177.315 474.838 177.714 478.688 178.007C533.506 182.287 569.38 176.214 598.994 168.962C625.085 162.584 646.211 155.223 671.149 153.067C755.443 145.761 837.273 177.86 912.497 218.393C923.375 224.253 934.128 230.293 944.724 236.416C1028.62 284.868 1110.89 341.032 1205.4 361.236C1231.5 366.813 1258.84 368.591 1285.89 366.99C1358.46 362.739 1429.24 333.035 1468.31 272.566" stroke="url(#paint69_linear_556_2005)" stroke-miterlimit="10"/>
<path d="M-19.168 128.471C46.7 73.5129 138.759 51.2239 223.179 68.7305C229.947 70.1333 236.659 71.7901 243.313 73.7107C329.394 98.522 372.315 160.83 457.706 172.547C461.414 173.059 465.193 173.461 469.069 173.779C524.341 178.244 560.421 172.268 590.125 165.023C616.372 158.623 637.594 151.187 662.68 148.997C747.457 141.607 829.73 173.897 905.351 214.767C916.29 220.678 927.085 226.767 937.733 232.94C1022.02 281.809 1104.66 338.294 1199.67 359.331C1225.68 365.084 1252.99 367.294 1280.04 366.02C1352.68 362.623 1423.67 333.598 1462.68 273.454" stroke="url(#paint70_linear_556_2005)" stroke-miterlimit="10"/>
<path d="M-31.6929 125.301C39.823 64.5996 142.317 42.5504 232.472 68.4882C322.889 94.494 365.572 162.085 459.333 169.916C564.497 178.701 600.419 149.991 654.094 145.292C751.697 136.736 845.943 180.543 930.627 229.819C1015.31 279.095 1098.31 335.901 1193.82 357.77C1289.33 379.64 1403.47 356.779 1456.95 274.689" stroke="url(#paint71_linear_556_2005)" stroke-miterlimit="10"/>
</g>
<defs>
<linearGradient id="paint0_linear_556_2005" x1="217.127" y1="515.285" x2="1164.2" y2="687.395" gradientUnits="userSpaceOnUse">
<stop stop-color="#00BEFF" stop-opacity="0"/>
<stop offset="0.5" stop-color="#00FF95"/>
<stop offset="1" stop-color="#00BEFF" stop-opacity="0"/>
</linearGradient>
<linearGradient id="paint1_linear_556_2005" x1="222.683" y1="514.912" x2="1177.06" y2="688.351" gradientUnits="userSpaceOnUse">
<stop stop-color="#00BFFE" stop-opacity="0"/>
<stop offset="0.5" stop-color="#00FE96"/>
<stop offset="1" stop-color="#00BFFE" stop-opacity="0"/>
</linearGradient>
<linearGradient id="paint2_linear_556_2005" x1="228.145" y1="514.106" x2="1189.85" y2="688.877" gradientUnits="userSpaceOnUse">
<stop stop-color="#00C0FC" stop-opacity="0"/>
<stop offset="0.5" stop-color="#00FD98"/>
<stop offset="1" stop-color="#00C0FC" stop-opacity="0"/>
</linearGradient>
<linearGradient id="paint3_linear_556_2005" x1="233.508" y1="512.895" x2="1202.56" y2="689" gradientUnits="userSpaceOnUse">
<stop stop-color="#00C1FB" stop-opacity="0"/>
<stop offset="0.5" stop-color="#00FC99"/>
<stop offset="1" stop-color="#00C1FB" stop-opacity="0"/>
</linearGradient>
<linearGradient id="paint4_linear_556_2005" x1="238.772" y1="511.28" x2="1215.14" y2="688.716" gradientUnits="userSpaceOnUse">
<stop stop-color="#00C2F9" stop-opacity="0"/>
<stop offset="0.5" stop-color="#00FB9B"/>
<stop offset="1" stop-color="#00C2F9" stop-opacity="0"/>
</linearGradient>
<linearGradient id="paint5_linear_556_2005" x1="243.925" y1="509.269" x2="1227.62" y2="688.037" gradientUnits="userSpaceOnUse">
<stop stop-color="#00C3F8" stop-opacity="0"/>
<stop offset="0.5" stop-color="#00FA9C"/>
<stop offset="1" stop-color="#00C3F8" stop-opacity="0"/>
</linearGradient>
<linearGradient id="paint6_linear_556_2005" x1="248.953" y1="506.88" x2="1239.97" y2="686.977" gradientUnits="userSpaceOnUse">
<stop stop-color="#00C3F6" stop-opacity="0"/>
<stop offset="0.5" stop-color="#00FA9E"/>
<stop offset="1" stop-color="#00C3F6" stop-opacity="0"/>
</linearGradient>
<linearGradient id="paint7_linear_556_2005" x1="253.847" y1="504.11" x2="1252.19" y2="685.538" gradientUnits="userSpaceOnUse">
<stop stop-color="#00C4F5" stop-opacity="0"/>
<stop offset="0.5" stop-color="#00F99F"/>
<stop offset="1" stop-color="#00C4F5" stop-opacity="0"/>
</linearGradient>
<linearGradient id="paint8_linear_556_2005" x1="258.593" y1="500.978" x2="1264.26" y2="683.738" gradientUnits="userSpaceOnUse">
<stop stop-color="#00C5F3" stop-opacity="0"/>
<stop offset="0.5" stop-color="#00F8A1"/>
<stop offset="1" stop-color="#00C5F3" stop-opacity="0"/>
</linearGradient>
<linearGradient id="paint9_linear_556_2005" x1="263.192" y1="497.484" x2="1276.19" y2="681.576" gradientUnits="userSpaceOnUse">
<stop stop-color="#00C6F2" stop-opacity="0"/>
<stop offset="0.5" stop-color="#00F7A2"/>
<stop offset="1" stop-color="#00C6F2" stop-opacity="0"/>
</linearGradient>
<linearGradient id="paint10_linear_556_2005" x1="267.622" y1="493.634" x2="1287.95" y2="679.059" gradientUnits="userSpaceOnUse">
<stop stop-color="#00C7F0" stop-opacity="0"/>
<stop offset="0.5" stop-color="#00F6A4"/>
<stop offset="1" stop-color="#00C7F0" stop-opacity="0"/>
</linearGradient>
<linearGradient id="paint11_linear_556_2005" x1="271.889" y1="489.45" x2="1299.54" y2="676.204" gradientUnits="userSpaceOnUse">
<stop stop-color="#00C8EF" stop-opacity="0"/>
<stop offset="0.5" stop-color="#00F5A5"/>
<stop offset="1" stop-color="#00C8EF" stop-opacity="0"/>
</linearGradient>
<linearGradient id="paint12_linear_556_2005" x1="275.972" y1="484.937" x2="1310.94" y2="673.022" gradientUnits="userSpaceOnUse">
<stop stop-color="#00C9ED" stop-opacity="0"/>
<stop offset="0.5" stop-color="#00F4A7"/>
<stop offset="1" stop-color="#00C9ED" stop-opacity="0"/>
</linearGradient>
<linearGradient id="paint13_linear_556_2005" x1="279.86" y1="480.094" x2="1322.15" y2="669.509" gradientUnits="userSpaceOnUse">
<stop stop-color="#00CAEC" stop-opacity="0"/>
<stop offset="0.5" stop-color="#00F3A8"/>
<stop offset="1" stop-color="#00CAEC" stop-opacity="0"/>
</linearGradient>
<linearGradient id="paint14_linear_556_2005" x1="283.551" y1="474.941" x2="1333.17" y2="665.688" gradientUnits="userSpaceOnUse">
<stop stop-color="#00CBEA" stop-opacity="0"/>
<stop offset="0.5" stop-color="#00F2AA"/>
<stop offset="1" stop-color="#00CBEA" stop-opacity="0"/>
</linearGradient>
<linearGradient id="paint15_linear_556_2005" x1="287.025" y1="469.474" x2="1343.97" y2="661.553" gradientUnits="userSpaceOnUse">
<stop stop-color="#00CCE9" stop-opacity="0"/>
<stop offset="0.5" stop-color="#00F1AB"/>
<stop offset="1" stop-color="#00CCE9" stop-opacity="0"/>
</linearGradient>
<linearGradient id="paint16_linear_556_2005" x1="290.287" y1="463.715" x2="1354.56" y2="657.124" gradientUnits="userSpaceOnUse">
<stop stop-color="#00CDE7" stop-opacity="0"/>
<stop offset="0.5" stop-color="#00F0AD"/>
<stop offset="1" stop-color="#00CDE7" stop-opacity="0"/>
</linearGradient>
<linearGradient id="paint17_linear_556_2005" x1="293.318" y1="457.659" x2="1364.91" y2="652.399" gradientUnits="userSpaceOnUse">
<stop stop-color="#00CEE6" stop-opacity="0"/>
<stop offset="0.5" stop-color="#00EFAE"/>
<stop offset="1" stop-color="#00CEE6" stop-opacity="0"/>
</linearGradient>
<linearGradient id="paint18_linear_556_2005" x1="296.106" y1="451.325" x2="1375.01" y2="647.396" gradientUnits="userSpaceOnUse">
<stop stop-color="#00CEE4" stop-opacity="0"/>
<stop offset="0.5" stop-color="#00EFB0"/>
<stop offset="1" stop-color="#00CEE4" stop-opacity="0"/>
</linearGradient>
<linearGradient id="paint19_linear_556_2005" x1="298.637" y1="444.722" x2="1384.89" y2="642.126" gradientUnits="userSpaceOnUse">
<stop stop-color="#00CFE3" stop-opacity="0"/>
<stop offset="0.5" stop-color="#00EEB1"/>
<stop offset="1" stop-color="#00CFE3" stop-opacity="0"/>
</linearGradient>
<linearGradient id="paint20_linear_556_2005" x1="300.892" y1="437.854" x2="1394.49" y2="636.594" gradientUnits="userSpaceOnUse">
<stop stop-color="#00D0E1" stop-opacity="0"/>
<stop offset="0.5" stop-color="#00EDB3"/>
<stop offset="1" stop-color="#00D0E1" stop-opacity="0"/>
</linearGradient>
<linearGradient id="paint21_linear_556_2005" x1="302.878" y1="430.724" x2="1403.83" y2="630.8" gradientUnits="userSpaceOnUse">
<stop stop-color="#00D1E0" stop-opacity="0"/>
<stop offset="0.5" stop-color="#00ECB4"/>
<stop offset="1" stop-color="#00D1E0" stop-opacity="0"/>
</linearGradient>
<linearGradient id="paint22_linear_556_2005" x1="304.594" y1="423.352" x2="1412.88" y2="624.762" gradientUnits="userSpaceOnUse">
<stop stop-color="#00D2DE" stop-opacity="0"/>
<stop offset="0.5" stop-color="#00EBB6"/>
<stop offset="1" stop-color="#00D2DE" stop-opacity="0"/>
</linearGradient>
<linearGradient id="paint23_linear_556_2005" x1="306.017" y1="415.744" x2="1421.65" y2="618.489" gradientUnits="userSpaceOnUse">
<stop stop-color="#00D3DD" stop-opacity="0"/>
<stop offset="0.5" stop-color="#00EAB7"/>
<stop offset="1" stop-color="#00D3DD" stop-opacity="0"/>
</linearGradient>
<linearGradient id="paint24_linear_556_2005" x1="307.139" y1="407.898" x2="1430.14" y2="611.98" gradientUnits="userSpaceOnUse">
<stop stop-color="#00D4DB" stop-opacity="0"/>
<stop offset="0.5" stop-color="#00E9B9"/>
<stop offset="1" stop-color="#00D4DB" stop-opacity="0"/>
</linearGradient>
<linearGradient id="paint25_linear_556_2005" x1="307.963" y1="399.836" x2="1438.3" y2="605.252" gradientUnits="userSpaceOnUse">
<stop stop-color="#00D5DA" stop-opacity="0"/>
<stop offset="0.5" stop-color="#00E8BA"/>
<stop offset="1" stop-color="#00D5DA" stop-opacity="0"/>
</linearGradient>
<linearGradient id="paint26_linear_556_2005" x1="308.461" y1="391.561" x2="1446.16" y2="598.315" gradientUnits="userSpaceOnUse">
<stop stop-color="#00D6D8" stop-opacity="0"/>
<stop offset="0.5" stop-color="#00E7BC"/>
<stop offset="1" stop-color="#00D6D8" stop-opacity="0"/>
</linearGradient>
<linearGradient id="paint27_linear_556_2005" x1="308.639" y1="383.087" x2="1453.68" y2="591.176" gradientUnits="userSpaceOnUse">
<stop stop-color="#00D7D7" stop-opacity="0"/>
<stop offset="0.5" stop-color="#00E6BD"/>
<stop offset="1" stop-color="#00D7D7" stop-opacity="0"/>
</linearGradient>
<linearGradient id="paint28_linear_556_2005" x1="308.486" y1="374.42" x2="1460.87" y2="583.843" gradientUnits="userSpaceOnUse">
<stop stop-color="#00D8D5" stop-opacity="0"/>
<stop offset="0.5" stop-color="#00E5BF"/>
<stop offset="1" stop-color="#00D8D5" stop-opacity="0"/>
</linearGradient>
<linearGradient id="paint29_linear_556_2005" x1="307.981" y1="365.567" x2="1467.72" y2="576.325" gradientUnits="userSpaceOnUse">
<stop stop-color="#00D9D4" stop-opacity="0"/>
<stop offset="0.5" stop-color="#00E4C0"/>
<stop offset="1" stop-color="#00D9D4" stop-opacity="0"/>
</linearGradient>
<linearGradient id="paint30_linear_556_2005" x1="307.123" y1="356.528" x2="1474.21" y2="568.622" gradientUnits="userSpaceOnUse">
<stop stop-color="#00D9D2" stop-opacity="0"/>
<stop offset="0.5" stop-color="#00E4C2"/>
<stop offset="1" stop-color="#00D9D2" stop-opacity="0"/>
</linearGradient>
<linearGradient id="paint31_linear_556_2005" x1="305.9" y1="347.321" x2="1480.33" y2="560.751" gradientUnits="userSpaceOnUse">
<stop stop-color="#00DAD1" stop-opacity="0"/>
<stop offset="0.5" stop-color="#00E3C3"/>
<stop offset="1" stop-color="#00DAD1" stop-opacity="0"/>
</linearGradient>
<linearGradient id="paint32_linear_556_2005" x1="304.307" y1="337.965" x2="1486.09" y2="552.731" gradientUnits="userSpaceOnUse">
<stop stop-color="#00DBCF" stop-opacity="0"/>
<stop offset="0.5" stop-color="#00E2C5"/>
<stop offset="1" stop-color="#00DBCF" stop-opacity="0"/>
</linearGradient>
<linearGradient id="paint33_linear_556_2005" x1="302.327" y1="328.448" x2="1491.46" y2="544.549" gradientUnits="userSpaceOnUse">
<stop stop-color="#00DCCE" stop-opacity="0"/>
<stop offset="0.5" stop-color="#00E1C6"/>
<stop offset="1" stop-color="#00DCCE" stop-opacity="0"/>
</linearGradient>
<linearGradient id="paint34_linear_556_2005" x1="299.966" y1="318.79" x2="1496.44" y2="536.225" gradientUnits="userSpaceOnUse">
<stop stop-color="#00DDCC" stop-opacity="0"/>
<stop offset="0.5" stop-color="#00E0C8"/>
<stop offset="1" stop-color="#00DDCC" stop-opacity="0"/>
</linearGradient>
<linearGradient id="paint35_linear_556_2005" x1="297.19" y1="309.006" x2="1501.01" y2="527.777" gradientUnits="userSpaceOnUse">
<stop stop-color="#00DECB" stop-opacity="0"/>
<stop offset="0.5" stop-color="#00DFC9"/>
<stop offset="1" stop-color="#00DECB" stop-opacity="0"/>
</linearGradient>
<linearGradient id="paint36_linear_556_2005" x1="293.997" y1="299.116" x2="1505.17" y2="519.222" gradientUnits="userSpaceOnUse">
<stop stop-color="#00DFC9" stop-opacity="0"/>
<stop offset="0.5" stop-color="#00DECB"/>
<stop offset="1" stop-color="#00DFC9" stop-opacity="0"/>
</linearGradient>
<linearGradient id="paint37_linear_556_2005" x1="290.399" y1="289.274" x2="1508.91" y2="510.714" gradientUnits="userSpaceOnUse">
<stop stop-color="#00E0C8" stop-opacity="0"/>
<stop offset="0.5" stop-color="#00DDCC"/>
<stop offset="1" stop-color="#00E0C8" stop-opacity="0"/>
</linearGradient>
<linearGradient id="paint38_linear_556_2005" x1="286.375" y1="279.537" x2="1512.24" y2="502.313" gradientUnits="userSpaceOnUse">
<stop stop-color="#00E1C6" stop-opacity="0"/>
<stop offset="0.5" stop-color="#00DCCE"/>
<stop offset="1" stop-color="#00E1C6" stop-opacity="0"/>
</linearGradient>
<linearGradient id="paint39_linear_556_2005" x1="281.948" y1="269.89" x2="1515.15" y2="494" gradientUnits="userSpaceOnUse">
<stop stop-color="#00E2C5" stop-opacity="0"/>
<stop offset="0.5" stop-color="#00DBCF"/>
<stop offset="1" stop-color="#00E2C5" stop-opacity="0"/>
</linearGradient>
<linearGradient id="paint40_linear_556_2005" x1="277.126" y1="260.354" x2="1517.68" y2="485.8" gradientUnits="userSpaceOnUse">
<stop stop-color="#00E3C3" stop-opacity="0"/>
<stop offset="0.5" stop-color="#00DAD1"/>
<stop offset="1" stop-color="#00E3C3" stop-opacity="0"/>
</linearGradient>
<linearGradient id="paint41_linear_556_2005" x1="271.915" y1="250.941" x2="1519.81" y2="477.72" gradientUnits="userSpaceOnUse">
<stop stop-color="#00E4C2" stop-opacity="0"/>
<stop offset="0.5" stop-color="#00D9D2"/>
<stop offset="1" stop-color="#00E4C2" stop-opacity="0"/>
</linearGradient>
<linearGradient id="paint42_linear_556_2005" x1="266.316" y1="241.65" x2="1521.57" y2="469.767" gradientUnits="userSpaceOnUse">
<stop stop-color="#00E4C0" stop-opacity="0"/>
<stop offset="0.5" stop-color="#00D9D4"/>
<stop offset="1" stop-color="#00E4C0" stop-opacity="0"/>
</linearGradient>
<linearGradient id="paint43_linear_556_2005" x1="260.355" y1="232.507" x2="1522.94" y2="461.957" gradientUnits="userSpaceOnUse">
<stop stop-color="#00E5BF" stop-opacity="0"/>
<stop offset="0.5" stop-color="#00D8D5"/>
<stop offset="1" stop-color="#00E5BF" stop-opacity="0"/>
</linearGradient>
<linearGradient id="paint44_linear_556_2005" x1="254.033" y1="223.501" x2="1523.96" y2="454.286" gradientUnits="userSpaceOnUse">
<stop stop-color="#00E6BD" stop-opacity="0"/>
<stop offset="0.5" stop-color="#00D7D7"/>
<stop offset="1" stop-color="#00E6BD" stop-opacity="0"/>
</linearGradient>
<linearGradient id="paint45_linear_556_2005" x1="247.346" y1="214.663" x2="1524.63" y2="446.783" gradientUnits="userSpaceOnUse">
<stop stop-color="#00E7BC" stop-opacity="0"/>
<stop offset="0.5" stop-color="#00D6D8"/>
<stop offset="1" stop-color="#00E7BC" stop-opacity="0"/>
</linearGradient>
<linearGradient id="paint46_linear_556_2005" x1="240.324" y1="205.988" x2="1524.94" y2="439.442" gradientUnits="userSpaceOnUse">
<stop stop-color="#00E8BA" stop-opacity="0"/>
<stop offset="0.5" stop-color="#00D5DA"/>
<stop offset="1" stop-color="#00E8BA" stop-opacity="0"/>
</linearGradient>
<linearGradient id="paint47_linear_556_2005" x1="232.964" y1="197.495" x2="1524.92" y2="432.283" gradientUnits="userSpaceOnUse">
<stop stop-color="#00E9B9" stop-opacity="0"/>
<stop offset="0.5" stop-color="#00D4DB"/>
<stop offset="1" stop-color="#00E9B9" stop-opacity="0"/>
</linearGradient>
<linearGradient id="paint48_linear_556_2005" x1="225.265" y1="189.185" x2="1524.57" y2="425.308" gradientUnits="userSpaceOnUse">
<stop stop-color="#00EAB7" stop-opacity="0"/>
<stop offset="0.5" stop-color="#00D3DD"/>
<stop offset="1" stop-color="#00EAB7" stop-opacity="0"/>
</linearGradient>
<linearGradient id="paint49_linear_556_2005" x1="217.259" y1="181.062" x2="1523.91" y2="418.519" gradientUnits="userSpaceOnUse">
<stop stop-color="#00EBB6" stop-opacity="0"/>
<stop offset="0.5" stop-color="#00D2DE"/>
<stop offset="1" stop-color="#00EBB6" stop-opacity="0"/>
</linearGradient>
<linearGradient id="paint50_linear_556_2005" x1="208.938" y1="173.157" x2="1522.94" y2="411.95" gradientUnits="userSpaceOnUse">
<stop stop-color="#00ECB4" stop-opacity="0"/>
<stop offset="0.5" stop-color="#00D1E0"/>
<stop offset="1" stop-color="#00ECB4" stop-opacity="0"/>
</linearGradient>
<linearGradient id="paint51_linear_556_2005" x1="200.315" y1="165.461" x2="1521.65" y2="405.588" gradientUnits="userSpaceOnUse">
<stop stop-color="#00EDB3" stop-opacity="0"/>
<stop offset="0.5" stop-color="#00D0E1"/>
<stop offset="1" stop-color="#00EDB3" stop-opacity="0"/>
</linearGradient>
<linearGradient id="paint52_linear_556_2005" x1="191.396" y1="157.996" x2="1520.07" y2="399.457" gradientUnits="userSpaceOnUse">
<stop stop-color="#00EEB1" stop-opacity="0"/>
<stop offset="0.5" stop-color="#00CFE3"/>
<stop offset="1" stop-color="#00EEB1" stop-opacity="0"/>
</linearGradient>
<linearGradient id="paint53_linear_556_2005" x1="182.201" y1="150.766" x2="1518.22" y2="393.56" gradientUnits="userSpaceOnUse">
<stop stop-color="#00EFB0" stop-opacity="0"/>
<stop offset="0.5" stop-color="#00CEE4"/>
<stop offset="1" stop-color="#00EFB0" stop-opacity="0"/>
</linearGradient>
<linearGradient id="paint54_linear_556_2005" x1="172.718" y1="143.777" x2="1516.08" y2="387.907" gradientUnits="userSpaceOnUse">
<stop stop-color="#00EFAE" stop-opacity="0"/>
<stop offset="0.5" stop-color="#00CEE6"/>
<stop offset="1" stop-color="#00EFAE" stop-opacity="0"/>
</linearGradient>
<linearGradient id="paint55_linear_556_2005" x1="162.976" y1="137.037" x2="1513.67" y2="382.499" gradientUnits="userSpaceOnUse">
<stop stop-color="#00F0AD" stop-opacity="0"/>
<stop offset="0.5" stop-color="#00CDE7"/>
<stop offset="1" stop-color="#00F0AD" stop-opacity="0"/>
</linearGradient>
<linearGradient id="paint56_linear_556_2005" x1="152.972" y1="130.564" x2="1511.02" y2="377.362" gradientUnits="userSpaceOnUse">
<stop stop-color="#00F1AB" stop-opacity="0"/>
<stop offset="0.5" stop-color="#00CCE9"/>
<stop offset="1" stop-color="#00F1AB" stop-opacity="0"/>
</linearGradient>
<linearGradient id="paint57_linear_556_2005" x1="142.714" y1="124.37" x2="1508.1" y2="372.502" gradientUnits="userSpaceOnUse">
<stop stop-color="#00F2AA" stop-opacity="0"/>
<stop offset="0.5" stop-color="#00CBEA"/>
<stop offset="1" stop-color="#00F2AA" stop-opacity="0"/>
</linearGradient>
<linearGradient id="paint58_linear_556_2005" x1="132.214" y1="118.447" x2="1504.94" y2="367.913" gradientUnits="userSpaceOnUse">
<stop stop-color="#00F3A8" stop-opacity="0"/>
<stop offset="0.5" stop-color="#00CAEC"/>
<stop offset="1" stop-color="#00F3A8" stop-opacity="0"/>
</linearGradient>
<linearGradient id="paint59_linear_556_2005" x1="121.486" y1="112.828" x2="1501.55" y2="363.628" gradientUnits="userSpaceOnUse">
<stop stop-color="#00F4A7" stop-opacity="0"/>
<stop offset="0.5" stop-color="#00C9ED"/>
<stop offset="1" stop-color="#00F4A7" stop-opacity="0"/>
</linearGradient>
<linearGradient id="paint60_linear_556_2005" x1="110.531" y1="107.504" x2="1497.94" y2="359.637" gradientUnits="userSpaceOnUse">
<stop stop-color="#00F5A5" stop-opacity="0"/>
<stop offset="0.5" stop-color="#00C8EF"/>
<stop offset="1" stop-color="#00F5A5" stop-opacity="0"/>
</linearGradient>
<linearGradient id="paint61_linear_556_2005" x1="99.3566" y1="102.495" x2="1494.11" y2="355.964" gradientUnits="userSpaceOnUse">
<stop stop-color="#00F6A4" stop-opacity="0"/>
<stop offset="0.5" stop-color="#00C7F0"/>
<stop offset="1" stop-color="#00F6A4" stop-opacity="0"/>
</linearGradient>
<linearGradient id="paint62_linear_556_2005" x1="87.9819" y1="97.8057" x2="1490.07" y2="352.607" gradientUnits="userSpaceOnUse">
<stop stop-color="#00F7A2" stop-opacity="0"/>
<stop offset="0.5" stop-color="#00C6F2"/>
<stop offset="1" stop-color="#00F7A2" stop-opacity="0"/>
</linearGradient>
<linearGradient id="paint63_linear_556_2005" x1="76.4049" y1="93.4454" x2="1485.84" y2="349.582" gradientUnits="userSpaceOnUse">
<stop stop-color="#00F8A1" stop-opacity="0"/>
<stop offset="0.5" stop-color="#00C5F3"/>
<stop offset="1" stop-color="#00F8A1" stop-opacity="0"/>
</linearGradient>
<linearGradient id="paint64_linear_556_2005" x1="64.634" y1="89.4259" x2="1481.41" y2="346.897" gradientUnits="userSpaceOnUse">
<stop stop-color="#00F99F" stop-opacity="0"/>
<stop offset="0.5" stop-color="#00C4F5"/>
<stop offset="1" stop-color="#00F99F" stop-opacity="0"/>
</linearGradient>
<linearGradient id="paint65_linear_556_2005" x1="52.6886" y1="85.7508" x2="1476.8" y2="344.555" gradientUnits="userSpaceOnUse">
<stop stop-color="#00FA9E" stop-opacity="0"/>
<stop offset="0.5" stop-color="#00C3F6"/>
<stop offset="1" stop-color="#00FA9E" stop-opacity="0"/>
</linearGradient>
<linearGradient id="paint66_linear_556_2005" x1="40.5651" y1="82.4398" x2="1472.02" y2="342.578" gradientUnits="userSpaceOnUse">
<stop stop-color="#00FA9C" stop-opacity="0"/>
<stop offset="0.5" stop-color="#00C3F8"/>
<stop offset="1" stop-color="#00FA9C" stop-opacity="0"/>
</linearGradient>
<linearGradient id="paint67_linear_556_2005" x1="28.2817" y1="79.5062" x2="1467.08" y2="340.978" gradientUnits="userSpaceOnUse">
<stop stop-color="#00FB9B" stop-opacity="0"/>
<stop offset="0.5" stop-color="#00C2F9"/>
<stop offset="1" stop-color="#00FB9B" stop-opacity="0"/>
</linearGradient>
<linearGradient id="paint68_linear_556_2005" x1="15.8399" y1="76.9404" x2="1461.97" y2="339.746" gradientUnits="userSpaceOnUse">
<stop stop-color="#00FC99" stop-opacity="0"/>
<stop offset="0.5" stop-color="#00C1FB"/>
<stop offset="1" stop-color="#00FC99" stop-opacity="0"/>
</linearGradient>
<linearGradient id="paint69_linear_556_2005" x1="3.24628" y1="74.7634" x2="1456.72" y2="338.903" gradientUnits="userSpaceOnUse">
<stop stop-color="#00FD98" stop-opacity="0"/>
<stop offset="0.5" stop-color="#00C0FC"/>
<stop offset="1" stop-color="#00FD98" stop-opacity="0"/>
</linearGradient>
<linearGradient id="paint70_linear_556_2005" x1="-9.48165" y1="72.989" x2="1451.33" y2="338.463" gradientUnits="userSpaceOnUse">
<stop stop-color="#00FE96" stop-opacity="0"/>
<stop offset="0.5" stop-color="#00BFFE"/>
<stop offset="1" stop-color="#00FE96" stop-opacity="0"/>
</linearGradient>
<linearGradient id="paint71_linear_556_2005" x1="-22.3338" y1="71.619" x2="1445.82" y2="338.427" gradientUnits="userSpaceOnUse">
<stop stop-color="#00FF95" stop-opacity="0"/>
<stop offset="0.5" stop-color="#00BEFF"/>
<stop offset="1" stop-color="#00FF95" stop-opacity="0"/>
</linearGradient>
<clipPath id="clip0_556_2005">
<rect width="1590.21" height="670.46" fill="white" transform="translate(-9.37061 0.287354) rotate(10.3)"/>
</clipPath>
</defs>
</svg>
