<svg width="288" height="432" viewBox="0 0 288 432" fill="none" xmlns="http://www.w3.org/2000/svg">
<path d="M-284.027 348.435C-259.935 365.816 -235.141 382.92 -207.001 393.792C-178.861 404.67 -146.695 408.875 -117.808 399.864C-102.916 395.22 -89.3736 387.255 -74.3616 382.961C-37.276 372.346 2.32321 385.341 38.6906 397.937C75.0579 410.533 115.043 422.967 151.779 411.337C171.305 405.156 187.768 392.687 202.82 379.546C242.307 345.061 275.301 304.125 299.834 259.157" stroke="url(#paint0_linear_765_4809)" stroke-miterlimit="10"/>
<path d="M-280.758 347.945C-256.464 364.657 -231.259 381.343 -202.826 392.193C-200.545 393.063 -198.239 393.893 -195.914 394.682C-169.148 403.723 -139.869 407.06 -112.971 398.98C-111.682 398.589 -110.401 398.18 -109.126 397.742C-95.4351 393.126 -82.8224 386.184 -69.0479 382.257C-60.444 379.81 -51.7525 378.576 -42.9638 378.324C-13.446 377.472 16.7507 387.522 45.0019 397.402C49.0978 398.838 53.2414 400.271 57.4161 401.665C90.5867 412.774 125.998 421.847 158.911 411.727C178.394 405.736 194.831 393.406 209.889 380.442C249.415 346.424 282.521 305.848 307.026 261.056" stroke="url(#paint1_linear_765_4809)" stroke-miterlimit="10"/>
<path d="M-277.545 347.232C-253.049 363.27 -227.439 379.541 -198.708 390.375C-196.404 391.244 -194.075 392.078 -191.726 392.866C-164.626 401.974 -135.408 405.745 -108.186 397.875C-106.882 397.497 -105.595 397.089 -104.305 396.665C-90.3662 392.107 -77.614 385.266 -63.7919 381.336C-55.0906 378.872 -46.3498 377.597 -37.4762 377.332C-7.67277 376.435 22.7748 386.588 51.2499 396.649C55.3826 398.108 59.5506 399.566 63.7544 400.993C97.152 412.328 132.778 421.804 165.975 411.898C185.414 406.097 201.818 393.904 216.889 381.118C256.453 347.568 289.677 307.352 314.154 262.737" stroke="url(#paint2_linear_765_4809)" stroke-miterlimit="10"/>
<path d="M-274.386 346.284C-249.689 361.648 -223.674 377.504 -194.645 388.318C-192.316 389.185 -189.964 390.017 -187.592 390.809C-160.157 399.98 -131.001 404.191 -103.45 396.535C-102.135 396.165 -100.832 395.765 -99.5269 395.354C-85.3276 390.879 -72.4536 384.108 -58.5792 380.181C-49.7804 377.702 -40.9856 376.391 -32.0317 376.107C-1.94845 375.164 28.7546 385.427 57.4547 395.663C61.6174 397.148 65.8212 398.635 70.0549 400.089C103.681 411.643 139.516 421.529 173.006 411.837C192.397 406.226 208.78 394.172 223.857 381.563C263.46 348.481 296.797 308.625 321.249 264.192" stroke="url(#paint3_linear_765_4809)" stroke-miterlimit="10"/>
<path d="M-271.285 345.118C-246.392 359.811 -219.96 375.249 -190.638 386.041C-188.286 386.907 -185.91 387.738 -183.516 388.539C-155.745 397.772 -126.659 402.427 -98.7758 394.976C-97.4517 394.618 -96.1318 394.221 -94.8118 393.824C-80.3518 389.431 -67.3513 382.737 -53.4292 378.807C-44.5397 376.315 -35.689 374.959 -26.6511 374.668C3.71768 373.68 34.6706 384.051 63.6012 394.463C67.7951 395.971 72.0289 397.485 76.2917 398.971C110.144 410.75 146.19 421.04 179.974 411.562C199.317 406.135 215.672 394.225 230.762 381.793C270.397 349.178 303.853 309.678 328.276 265.427" stroke="url(#paint4_linear_765_4809)" stroke-miterlimit="10"/>
<path d="M-268.246 343.727C-243.151 357.747 -216.314 372.77 -186.688 383.542C-184.313 384.406 -181.913 385.241 -179.501 386.04C-151.395 395.335 -122.354 400.494 -94.1638 393.188C-92.8236 392.838 -91.4943 392.454 -90.1639 392.064C-75.4432 387.754 -62.3153 381.13 -48.3408 377.204C-39.3539 374.696 -30.454 373.299 -21.3311 372.994C9.32324 371.961 40.5327 382.436 69.6816 393.028C73.9112 394.564 78.175 396.105 82.4622 397.617C116.543 409.616 152.791 420.314 186.869 411.051C206.165 405.808 222.497 394.042 237.594 381.787C277.269 349.635 310.842 310.5 335.237 266.426" stroke="url(#paint5_linear_765_4809)" stroke-miterlimit="10"/>
<path d="M-265.284 342.131C-239.988 355.476 -212.745 370.079 -182.821 380.836C-180.422 381.699 -177.999 382.532 -175.565 383.34C-147.124 392.698 -118.141 398.308 -89.6297 391.199C-88.2802 390.862 -86.9338 390.481 -85.5874 390.099C-70.606 385.871 -57.3573 379.323 -43.3294 375.395C-34.2451 372.87 -25.2913 371.439 -16.0891 371.12C14.8508 370.042 46.3101 380.625 75.6896 391.394C79.9493 392.956 84.2432 394.524 88.5662 396.064C122.875 408.284 159.327 419.389 193.703 410.347C212.946 405.282 229.255 393.666 244.365 381.589C284.078 349.905 317.763 311.13 342.135 267.233" stroke="url(#paint6_linear_765_4809)" stroke-miterlimit="10"/>
<path d="M-262.394 340.32C-236.896 352.996 -209.242 367.179 -179.025 377.914C-176.602 378.776 -174.156 379.613 -171.699 380.42C-142.923 389.845 -114.003 395.9 -85.1657 388.989C-83.8001 388.661 -82.4433 388.286 -81.0876 387.917C-65.8465 383.778 -52.4693 377.295 -38.3948 373.37C-29.2141 370.834 -20.21 369.356 -10.9228 369.024C20.297 367.9 52.0118 378.592 81.6162 389.536C85.907 391.12 90.2367 392.717 94.584 394.283C129.12 406.728 165.771 418.229 200.452 409.409C219.647 404.528 235.934 393.057 251.05 381.157C290.801 349.94 324.605 311.526 348.943 267.804" stroke="url(#paint7_linear_765_4809)" stroke-miterlimit="10"/>
<path d="M-259.587 338.307C-233.887 350.309 -205.828 364.078 -175.313 374.792C-172.866 375.652 -170.396 376.488 -167.916 377.298C-138.805 386.786 -109.949 393.291 -80.7855 386.579C-79.4106 386.263 -78.0378 385.897 -76.666 385.536C-61.1585 381.48 -47.6594 375.068 -33.5383 371.145C-24.2658 368.591 -15.2079 367.078 -5.83467 366.728C25.6707 365.559 57.642 376.355 87.4703 387.48C91.7969 389.092 96.1509 390.715 100.528 392.308C135.292 404.973 172.141 416.881 207.121 408.276C226.26 403.567 242.528 392.252 257.651 380.529C297.435 349.779 331.357 311.725 355.672 268.181" stroke="url(#paint8_linear_765_4809)" stroke-miterlimit="10"/>
<path d="M-256.865 336.093C-230.963 347.421 -202.499 360.775 -171.686 371.468C-169.215 372.327 -166.728 373.166 -164.219 373.981C-134.773 383.531 -105.975 390.488 -76.4908 383.973C-75.0998 383.665 -73.7223 383.305 -72.3298 382.959C-56.5627 378.991 -42.9361 372.649 -28.7673 368.723C-19.3985 366.159 -10.2845 364.6 -0.833065 364.241C30.9578 363.027 63.179 373.932 93.2333 385.227C97.5899 386.866 101.981 388.511 106.387 390.137C141.373 403.02 178.421 415.331 213.711 406.949C232.797 402.417 249.048 391.253 264.177 379.707C304.001 349.42 338.034 311.731 362.321 268.363" stroke="url(#paint9_linear_765_4809)" stroke-miterlimit="10"/>
<path d="M-254.24 333.688C-228.137 344.346 -199.262 357.282 -168.156 367.953C-165.661 368.81 -163.15 369.647 -160.624 370.466C-130.843 380.078 -102.11 387.485 -72.2928 381.169C-70.8925 380.874 -69.4989 380.522 -68.095 380.178C-52.0625 376.299 -38.3189 370.021 -24.0977 366.099C-14.6314 363.518 -5.46928 361.923 4.0682 361.546C36.1447 360.287 68.6156 371.3 98.9006 382.771C103.288 384.432 107.708 386.11 112.145 387.763C147.358 400.871 184.6 413.572 220.199 405.418C239.228 401.058 255.46 390.05 270.602 378.682C310.464 348.862 344.616 311.534 368.874 268.343" stroke="url(#paint10_linear_765_4809)" stroke-miterlimit="10"/>
<path d="M-251.714 331.089C-225.409 341.073 -196.129 353.594 -164.726 364.25C-162.207 365.105 -159.672 365.941 -157.125 366.768C-127.008 376.443 -98.338 384.296 -68.1967 378.188C-66.7803 377.901 -65.3764 377.557 -63.9574 377.226C-47.6596 373.436 -33.7941 367.228 -19.5252 363.303C-9.96154 360.705 -0.750163 359.07 8.87127 358.685C41.2286 357.375 73.9608 368.498 104.464 380.149C108.887 381.838 113.332 383.542 117.798 385.221C153.239 398.55 190.674 411.651 226.577 403.724C245.549 399.536 261.769 388.68 276.917 377.494C316.817 348.143 351.082 311.168 375.315 268.165" stroke="url(#paint11_linear_765_4809)" stroke-miterlimit="10"/>
<path d="M-249.287 328.304C-222.787 337.618 -193.09 349.721 -161.393 360.355C-158.85 361.209 -156.293 362.049 -153.722 362.875C-123.269 372.611 -94.6639 380.915 -64.196 375.006C-62.7703 374.731 -61.3503 374.395 -59.9153 374.072C-43.3578 370.37 -29.3638 364.228 -15.0416 360.301C-5.38717 357.691 3.88018 356.01 13.5866 355.612C46.2295 354.257 79.2115 365.488 109.945 377.316C114.399 379.032 118.88 380.758 123.371 382.464C159.04 396.013 196.663 409.508 232.88 401.811C251.797 397.789 267.997 387.094 283.157 376.086C323.09 347.201 357.479 310.589 381.678 267.761" stroke="url(#paint12_linear_765_4809)" stroke-miterlimit="10"/>
<path d="M-246.971 325.335C-220.268 333.975 -190.167 345.663 -158.172 356.276C-155.605 357.129 -153.024 357.967 -150.43 358.797C-119.643 368.601 -91.1009 377.35 -60.3065 371.639C-58.8648 371.372 -57.4344 371.044 -55.99 370.734C-39.1672 367.12 -25.0571 361.048 -10.6815 357.118C-0.929668 354.492 8.39157 352.777 18.1783 352.359C51.1068 350.959 84.3386 362.298 115.297 374.302C119.788 376.04 124.292 377.798 128.819 379.532C164.715 393.306 202.528 407.185 239.059 399.722C257.913 395.87 274.106 385.334 289.272 374.508C329.244 346.086 363.745 309.838 387.921 267.188" stroke="url(#paint13_linear_765_4809)" stroke-miterlimit="10"/>
<path d="M-244.774 322.192C-217.87 330.158 -187.364 341.431 -155.07 352.023C-152.48 352.874 -149.876 353.717 -147.258 354.55C-116.137 364.417 -87.6575 373.611 -56.5377 368.103C-55.0855 367.844 -53.6391 367.523 -52.1797 367.227C-35.0915 363.702 -20.8648 357.666 -6.43632 353.768C3.40465 351.107 12.7834 349.368 22.6541 348.943C55.8681 347.498 89.3507 358.941 120.533 371.125C125.054 372.89 129.595 374.671 134.145 376.436C170.269 390.43 208.265 404.702 245.11 397.468C263.903 393.777 280.081 383.408 295.26 372.76C335.27 344.806 369.884 308.918 394.037 266.445" stroke="url(#paint14_linear_765_4809)" stroke-miterlimit="10"/>
<path d="M-242.697 318.875C-215.592 326.171 -184.674 337.025 -152.087 347.596C-149.473 348.445 -146.846 349.286 -144.211 350.123C-112.754 360.052 -84.3392 369.696 -52.8928 364.387C-51.4256 364.141 -49.9688 363.828 -48.4923 363.534C-31.1341 360.105 -16.7959 354.131 -2.31408 350.231C7.62432 347.554 17.0513 345.78 27.008 345.336C60.5019 343.845 94.2457 355.398 125.653 367.757C130.204 369.55 134.775 371.357 139.355 373.15C175.707 387.363 213.887 402.024 251.051 395.025C269.783 391.499 285.952 381.294 301.137 370.822C341.186 343.336 375.918 307.809 400.037 265.511" stroke="url(#paint15_linear_765_4809)" stroke-miterlimit="10"/>
<path d="M-240.74 315.39C-213.432 322.012 -182.11 332.451 -149.219 343.002C-146.581 343.85 -143.931 344.695 -141.274 345.535C-109.481 355.527 -81.135 365.615 -49.3574 360.51C-47.8799 360.272 -46.407 359.967 -44.9212 359.686C-27.2976 356.345 -12.8367 350.436 1.69183 346.538C11.7266 343.851 21.2095 342.031 31.2445 341.578C65.024 340.042 99.0176 351.703 130.65 364.238C135.237 366.054 139.838 367.893 144.448 369.713C181.027 384.152 219.386 399.189 256.875 392.432C275.546 389.066 291.7 379.028 306.898 368.735C346.98 341.716 381.829 306.548 405.925 264.429" stroke="url(#paint16_linear_765_4809)" stroke-miterlimit="10"/>
<path d="M-238.922 311.743C-211.413 317.691 -179.685 327.715 -146.496 338.246C-143.834 339.092 -141.16 339.936 -138.48 340.78C-106.352 350.834 -78.0695 361.367 -45.9607 356.467C-44.4739 356.241 -42.9849 355.944 -41.483 355.671C-23.5951 352.425 -9.01604 346.575 5.56481 342.68C15.697 339.976 25.2292 338.115 35.3492 337.649C69.4142 336.068 103.659 347.832 135.521 360.549C140.138 362.391 144.769 364.253 149.409 366.105C186.216 380.764 224.753 396.188 262.56 389.672C281.164 386.464 297.315 376.596 312.52 366.48C352.64 339.929 387.608 305.122 411.675 263.179" stroke="url(#paint17_linear_765_4809)" stroke-miterlimit="10"/>
<path d="M-237.239 307.942C-209.528 313.221 -177.39 322.826 -143.908 333.335C-141.222 334.18 -138.525 335.027 -135.822 335.875C-103.36 345.997 -75.1405 356.975 -42.7052 352.273C-41.2023 352.055 -39.704 351.771 -38.1861 351.507C-20.0338 348.355 -5.33086 342.564 9.29663 338.672C19.5206 335.95 29.1067 334.054 39.3127 333.57C73.6632 331.944 108.163 343.817 140.246 356.703C144.894 358.567 149.56 360.462 154.225 362.335C191.255 377.213 229.976 393.02 268.106 386.745C286.651 383.693 302.787 373.998 317.998 364.058C358.157 337.97 393.238 303.523 417.276 261.761" stroke="url(#paint18_linear_765_4809)" stroke-miterlimit="10"/>
<path d="M-235.702 303.984C-207.79 308.588 -175.246 317.779 -141.466 328.267C-138.756 329.11 -136.035 329.956 -133.31 330.808C-100.512 340.992 -72.3558 352.415 -39.595 347.917C-38.0817 347.706 -36.5673 347.43 -35.04 347.178C-16.6168 344.116 -1.79768 338.394 12.8832 334.5C23.2046 331.762 32.8455 329.826 43.1298 329.334C77.7602 327.662 112.516 339.644 144.829 352.706C149.513 354.599 154.204 356.514 158.898 358.419C196.155 373.522 235.052 389.7 273.511 383.673C291.989 380.779 308.121 371.254 323.339 361.491C363.537 335.871 398.735 301.784 422.744 260.204" stroke="url(#paint19_linear_765_4809)" stroke-miterlimit="10"/>
<path d="M-234.308 299.881C-206.193 303.811 -173.245 312.587 -139.166 323.054C-136.433 323.896 -133.688 324.74 -130.945 325.595C-97.8127 335.841 -69.7251 347.709 -36.6341 343.42C-35.1058 343.223 -33.5811 342.954 -32.0367 342.705C-13.3491 339.737 1.58812 334.074 16.3213 330.183C26.7391 327.434 36.4293 325.457 46.7996 324.946C81.7156 323.229 116.722 335.314 149.259 348.557C153.973 350.477 158.695 352.419 163.424 354.353C200.909 369.675 239.98 386.228 278.762 380.449C297.17 377.703 313.296 368.358 328.526 358.773C368.757 333.619 404.074 299.893 428.054 258.49" stroke="url(#paint20_linear_765_4809)" stroke-miterlimit="10"/>
<path d="M-233.073 295.63C-204.763 298.89 -171.398 307.248 -137.027 317.698C-134.27 318.539 -131.508 319.386 -128.737 320.246C-95.269 330.554 -67.2446 342.867 -33.8281 338.782C-32.2895 338.592 -30.7487 338.331 -29.1893 338.096C-10.2327 335.229 4.82376 329.618 19.6036 325.73C30.1131 322.964 39.8583 320.946 50.3125 320.428C85.5141 318.666 120.776 330.86 153.538 344.279C158.283 346.22 163.039 348.196 167.793 350.155C205.505 365.703 244.752 382.621 283.862 377.095C302.205 374.502 318.326 365.332 333.563 355.924C373.832 331.238 409.262 297.872 433.219 256.646" stroke="url(#paint21_linear_765_4809)" stroke-miterlimit="10"/>
<path d="M-231.995 291.243C-203.482 293.829 -169.713 301.772 -135.043 312.201C-132.261 313.035 -129.476 313.886 -126.682 314.75C-92.8791 325.121 -64.9179 337.879 -31.176 333.997C-29.6223 333.821 -28.0711 333.568 -26.5013 333.339C-7.28043 330.566 7.89418 325.015 22.7264 321.13C33.3333 318.346 43.1267 316.293 53.667 315.756C89.154 313.95 124.666 326.252 157.653 339.846C162.434 341.815 167.215 343.812 171.998 345.804C209.938 361.572 249.355 378.859 288.791 373.591C307.07 371.147 323.18 362.156 338.429 352.926C378.737 328.703 414.284 295.703 438.213 254.653" stroke="url(#paint22_linear_765_4809)" stroke-miterlimit="10"/>
<path d="M-231.085 286.723C-202.371 288.635 -168.196 296.163 -133.228 306.571C-130.422 307.404 -127.615 308.259 -124.798 309.126C-90.6592 319.559 -62.7669 332.762 -28.6938 329.084C-27.1297 328.915 -25.5625 328.67 -23.9777 328.455C-4.48679 325.778 10.805 320.29 25.6849 316.402C36.3892 313.602 46.2375 311.509 56.8571 310.958C92.624 309.106 128.392 321.512 161.609 335.287C166.42 337.284 171.237 339.309 176.051 341.322C214.219 357.31 253.805 374.966 293.574 369.953C311.784 367.656 327.894 358.847 343.15 349.794C383.497 326.038 419.156 293.397 443.056 252.524" stroke="url(#paint23_linear_765_4809)" stroke-miterlimit="10"/>
<path d="M-230.344 282.075C-201.429 283.318 -166.843 290.427 -131.582 300.814C-128.752 301.645 -125.921 302.498 -123.081 303.37C-88.6084 313.87 -60.7772 327.508 -26.3739 324.04C-24.7995 323.878 -23.2173 323.646 -21.6154 323.435C-1.85543 320.857 13.5555 315.423 28.4831 311.532C39.2839 308.721 49.1824 306.581 59.8859 306.023C95.9384 304.125 131.956 316.64 165.398 330.591C170.24 332.609 175.088 334.661 179.93 336.707C218.325 352.92 258.083 370.935 298.185 366.181C316.324 364.032 332.428 355.402 347.697 346.527C388.076 323.239 423.859 290.959 447.731 250.263" stroke="url(#paint24_linear_765_4809)" stroke-miterlimit="10"/>
<path d="M-229.785 277.304C-200.668 277.873 -165.677 284.567 -130.118 294.933C-127.264 295.763 -124.41 296.62 -121.553 297.489C-86.7443 308.052 -58.982 322.133 -24.2475 318.87C-22.6581 318.722 -21.0644 318.492 -19.4532 318.293C0.571067 315.809 16.0991 310.439 31.0801 306.546C41.9726 303.718 51.925 301.543 62.7146 300.966C99.0526 299.024 135.326 311.648 168.987 325.773C173.865 327.819 178.742 329.898 183.61 331.97C222.233 348.403 262.162 366.777 302.589 362.286C320.659 360.28 336.762 351.837 352.038 343.139C392.456 320.318 428.352 288.393 452.2 247.879" stroke="url(#paint25_linear_765_4809)" stroke-miterlimit="10"/>
<path d="M-229.404 272.414C-200.084 272.308 -164.689 278.588 -128.831 288.933C-125.954 289.761 -123.076 290.617 -120.196 291.495C-85.0526 302.12 -57.3535 316.647 -22.2936 313.587C-20.6937 313.446 -19.0851 313.23 -17.4578 313.039C2.83547 310.656 18.4828 305.338 33.516 301.449C44.506 298.605 54.5133 296.39 65.3812 295.804C102.005 293.817 138.529 306.544 172.419 320.851C177.327 322.924 182.235 325.03 187.132 327.129C225.984 343.782 266.079 362.513 306.842 358.289C324.844 356.424 340.94 348.167 356.228 339.647C396.686 317.288 432.693 285.729 456.513 245.391" stroke="url(#paint26_linear_765_4809)" stroke-miterlimit="10"/>
<path d="M-229.212 267.41C-199.692 266.636 -163.884 272.491 -127.729 282.821C-124.827 283.647 -121.926 284.502 -119.023 285.384C-83.5443 296.071 -55.913 311.037 -20.523 308.186C-18.9081 308.059 -17.2891 307.85 -15.6457 307.667C4.91652 305.385 20.683 300.121 35.763 296.234C46.8493 293.378 56.9059 291.122 67.8597 290.518C104.763 288.485 141.543 301.321 175.659 315.798C180.598 317.893 185.542 320.027 190.468 322.159C229.546 339.037 269.809 358.115 310.909 354.162C328.842 352.439 344.937 344.369 360.232 336.025C400.727 314.135 436.853 282.936 460.643 242.78" stroke="url(#paint27_linear_765_4809)" stroke-miterlimit="10"/>
<path d="M-229.21 262.291C-199.487 260.842 -163.275 266.282 -126.821 276.591C-123.896 277.416 -120.971 278.275 -118.046 279.16C-82.2319 289.91 -54.6638 305.321 -18.9493 302.68C-17.3241 302.56 -15.689 302.359 -14.0363 302.189C6.79492 300.007 22.6739 294.8 37.8072 290.911C48.9909 288.039 59.0968 285.742 70.1357 285.125C107.325 283.047 144.36 295.992 178.701 310.645C183.676 312.768 188.644 314.928 193.6 317.086C232.901 334.183 273.337 353.615 314.765 349.937C332.63 348.351 348.718 340.472 364.018 332.31C404.546 310.887 440.791 280.048 464.558 240.07" stroke="url(#paint28_linear_765_4809)" stroke-miterlimit="10"/>
<path d="M-229.413 257.078C-199.488 254.954 -162.871 259.98 -126.119 270.268C-123.17 271.092 -120.221 271.949 -117.273 272.838C-81.125 283.656 -53.6237 299.5 -17.579 297.069C-15.9434 296.956 -14.2933 296.769 -12.6235 296.601C8.47102 294.519 24.4749 289.366 39.6549 285.48C50.9303 282.59 61.0968 280.254 72.2139 279.629C109.688 277.505 146.975 290.553 181.54 305.387C186.545 307.537 191.549 309.72 196.53 311.904C236.059 329.221 276.657 348.999 318.426 345.599C336.217 344.149 352.309 336.457 367.615 328.478C408.182 307.522 444.545 277.044 468.278 237.241" stroke="url(#paint29_linear_765_4809)" stroke-miterlimit="10"/>
<path d="M-229.814 251.758C-199.694 248.965 -162.659 253.572 -125.615 263.844C-122.642 264.667 -119.671 265.527 -116.705 266.415C-80.2213 277.294 -52.7832 293.584 -16.4131 291.356C-14.7624 291.256 -13.1019 291.076 -11.416 290.917C9.94742 288.936 26.0705 283.836 41.2971 279.952C52.6689 277.051 62.8847 274.674 74.0878 274.03C111.849 271.856 149.384 285.018 184.18 300.028C189.222 302.201 194.249 304.415 199.266 306.628C239.021 324.17 279.788 344.289 321.892 341.165C339.616 339.852 355.7 332.351 371.019 324.55C411.624 304.062 448.099 273.944 471.809 234.318" stroke="url(#paint30_linear_765_4809)" stroke-miterlimit="10"/>
<path d="M-230.431 246.342C-200.109 242.874 -162.669 247.067 -125.327 257.318C-122.33 258.139 -119.335 258.998 -116.347 259.894C-79.5282 270.837 -52.1579 287.565 -15.4519 285.547C-13.7909 285.455 -12.1144 285.284 -10.4192 285.137C11.2133 283.256 27.4488 278.214 42.7288 274.328C54.1981 271.411 64.463 268.993 75.7501 268.341C113.791 266.121 151.587 279.393 186.602 294.577C191.674 296.777 196.732 299.019 201.779 301.258C241.762 319.02 282.693 339.481 325.13 336.638C342.781 335.456 358.85 328.128 374.194 320.529C414.794 300.43 451.425 270.75 475.106 231.301" stroke="url(#paint31_linear_765_4809)" stroke-miterlimit="10"/>
<path d="M-231.261 240.84C-200.737 236.698 -162.887 240.477 -125.252 250.706C-122.232 251.526 -119.214 252.389 -116.202 253.284C-79.0475 264.289 -51.7451 281.456 -14.709 279.648C-13.0319 279.564 -11.346 279.405 -9.63476 279.267C12.2667 277.486 28.6214 272.497 43.948 268.613C55.5148 265.68 65.8336 263.227 77.201 262.556C115.528 260.291 153.575 273.666 188.819 289.032C193.922 291.254 199.016 293.523 204.086 295.794C244.297 313.776 285.392 334.572 328.168 332.018C345.751 330.972 361.813 323.829 377.168 316.413C417.802 296.777 454.557 267.458 478.209 228.19" stroke="url(#paint32_linear_765_4809)" stroke-miterlimit="10"/>
<path d="M-232.316 235.252C-201.591 230.441 -163.335 233.8 -125.401 244.008C-122.357 244.826 -119.321 245.687 -116.282 246.592C-78.7976 257.658 -51.5517 275.266 -14.1911 273.667C-12.5047 273.596 -10.8027 273.445 -9.0754 273.315C13.094 271.64 29.5679 266.704 44.9479 262.819C56.6054 259.873 66.9802 257.375 78.4326 256.69C117.045 254.381 155.342 267.864 190.811 283.405C195.95 285.655 201.068 287.95 206.168 290.248C246.606 308.456 287.861 329.581 330.98 327.321C348.491 326.4 364.555 319.461 379.917 312.222C420.589 293.053 457.456 264.094 481.086 225.004" stroke="url(#paint33_linear_765_4809)" stroke-miterlimit="10"/>
<path d="M-233.591 229.587C-202.664 224.102 -164.004 227.046 -125.771 237.233C-122.709 238.049 -119.643 238.909 -116.581 239.818C-78.7619 250.946 -51.5838 268.993 -13.893 267.604C-12.1906 267.541 -10.4782 267.397 -8.74054 267.274C13.6978 265.7 30.291 260.817 45.7176 256.934C57.4725 253.972 67.8955 251.438 79.4329 250.741C118.331 248.386 156.877 261.977 192.577 277.695C197.746 279.972 202.901 282.29 208.031 284.615C248.698 303.043 290.117 324.498 333.569 322.53C351.007 321.74 367.068 314.998 382.442 307.937C423.154 289.231 460.138 260.638 483.734 221.723" stroke="url(#paint34_linear_765_4809)" stroke-miterlimit="10"/>
<path d="M-235.104 223.844C-203.976 217.689 -164.905 220.214 -126.379 230.38C-123.293 231.194 -120.205 232.058 -117.125 232.965C-78.971 244.161 -51.8551 262.647 -13.8388 261.462C-12.126 261.406 -10.3986 261.276 -8.64487 261.161C14.0615 259.693 30.7681 254.862 46.2481 250.977C58.0994 248.004 68.5726 245.424 80.195 244.713C119.373 242.312 158.182 256.009 194.1 271.906C199.3 274.205 204.484 276.556 209.644 278.908C250.538 297.555 292.119 319.334 335.912 317.666C353.278 317.006 369.341 310.463 384.722 303.578C425.472 285.34 462.569 257.106 486.141 218.374" stroke="url(#paint35_linear_765_4809)" stroke-miterlimit="10"/>
<path d="M-236.86 218.042C-205.53 211.214 -166.053 213.324 -127.229 223.469C-124.119 224.282 -121.007 225.144 -117.905 226.06C-79.4162 237.318 -52.3681 256.244 -14.0217 255.268C-12.2995 255.225 -10.5561 255.103 -8.78628 254.996C14.188 253.634 31.0149 248.851 46.5426 244.963C58.4913 241.973 69.0195 239.353 80.7201 238.634C120.183 236.188 159.242 249.993 195.386 266.06C200.622 268.387 205.836 270.765 211.02 273.143C252.142 292.015 293.89 314.113 338.019 312.744C355.314 312.21 371.373 305.869 386.767 299.162C427.555 281.392 464.77 253.519 488.313 214.963" stroke="url(#paint36_linear_765_4809)" stroke-miterlimit="10"/>
<path d="M-238.85 212.267C-207.318 204.764 -167.436 206.459 -128.314 216.583C-125.18 217.395 -122.045 218.261 -118.919 219.175C-80.0951 230.496 -53.1139 249.855 -14.4394 249.1C-12.7012 249.065 -10.9474 248.95 -9.16824 248.856C14.0693 247.593 31.0201 242.87 46.5955 238.979C58.6416 235.973 69.218 233.317 81.0046 232.579C120.753 230.089 160.062 244.001 196.437 260.246C201.703 262.599 206.948 264.999 212.167 267.41C253.511 286.501 295.426 308.919 339.891 307.854C357.114 307.445 373.174 301.307 388.575 294.778C429.397 277.469 466.729 249.962 490.244 211.583" stroke="url(#paint37_linear_765_4809)" stroke-miterlimit="10"/>
<path d="M-241.08 206.512C-209.346 198.34 -169.054 199.616 -129.639 209.719C-126.481 210.528 -123.322 211.393 -120.175 212.317C-81.0149 223.7 -54.0958 243.499 -15.0969 242.952C-13.3493 242.93 -11.5795 242.823 -9.78319 242.732C13.7223 241.575 30.7876 236.899 46.4154 233.011C58.5522 229.993 69.1845 227.291 81.0562 226.541C121.09 224.005 160.656 238.022 197.249 254.446C202.546 256.821 207.825 259.254 213.069 261.692C254.641 281.003 296.719 303.734 341.523 302.984C358.676 302.695 374.731 296.765 390.138 290.413C430.998 273.572 468.443 246.424 491.935 208.222" stroke="url(#paint38_linear_765_4809)" stroke-miterlimit="10"/>
<path d="M-243.474 200.427C-211.545 191.58 -170.842 192.443 -131.123 202.531C-127.942 203.339 -124.76 204.208 -121.595 205.129C-82.0996 216.574 -55.2483 236.812 -15.9136 236.476C-14.1499 236.462 -12.3707 236.368 -10.5641 236.284C13.2094 235.233 30.3939 230.61 46.0693 226.719C58.3035 223.685 68.9898 220.948 80.9407 220.183C121.255 217.602 161.075 231.728 197.899 248.328C203.232 250.732 208.537 253.185 213.809 255.655C255.609 275.192 297.85 298.231 342.994 297.791C360.076 297.627 376.132 291.901 391.546 285.725C432.446 269.347 470.008 242.565 493.471 204.54" stroke="url(#paint39_linear_765_4809)" stroke-miterlimit="10"/>
<path d="M-246.092 194.397C-213.96 184.876 -172.852 185.324 -132.836 195.391C-129.63 196.198 -126.425 197.065 -123.237 197.995C-83.4081 209.508 -56.6237 230.18 -16.9588 230.053C-15.1848 230.047 -13.3895 229.961 -11.5679 229.891C12.4736 228.945 29.7783 224.37 45.506 220.483C57.8367 217.437 68.5732 214.654 80.6092 213.876C121.209 211.25 161.279 225.484 198.328 242.26C203.691 244.69 209.026 247.171 214.329 249.663C256.357 269.419 298.757 292.765 344.239 292.641C361.25 292.597 377.307 287.08 392.728 281.081C433.667 265.17 471.342 238.743 494.776 200.899" stroke="url(#paint40_linear_765_4809)" stroke-miterlimit="10"/>
<path d="M-248.935 188.433C-216.602 178.243 -175.083 178.272 -134.774 188.317C-131.544 189.123 -128.316 189.994 -125.105 190.923C-84.9401 202.498 -58.2178 223.609 -18.2285 223.692C-16.4452 223.697 -14.6338 223.62 -12.7961 223.558C11.5133 222.718 28.9372 218.196 44.7126 214.306C57.1407 211.244 67.9265 208.42 80.0464 207.634C120.932 204.963 161.259 219.301 198.531 236.258C203.925 238.71 209.295 241.224 214.628 243.743C256.883 263.724 299.449 287.367 345.269 287.565C362.21 287.64 378.262 282.331 393.695 276.51C434.672 261.067 472.465 235 495.871 197.333" stroke="url(#paint41_linear_765_4809)" stroke-miterlimit="10"/>
<path d="M-252.001 182.531C-219.466 171.667 -177.543 171.281 -136.934 181.305C-133.681 182.109 -130.429 182.979 -127.195 183.912C-86.6953 195.549 -60.0398 217.094 -19.7213 217.392C-17.922 217.406 -16.1013 217.341 -14.2532 217.286C10.3231 216.557 27.8626 212.077 43.6904 208.19C56.2159 205.112 67.0555 202.253 79.2558 201.448C120.426 198.732 161.003 213.178 198.501 230.31C203.93 232.79 209.326 235.325 214.688 237.876C257.171 258.078 299.902 282.018 346.06 282.542C362.931 282.732 378.984 277.631 394.422 271.992C435.438 257.017 473.344 231.31 496.721 193.82" stroke="url(#paint42_linear_765_4809)" stroke-miterlimit="10"/>
<path d="M-255.278 176.709C-222.541 165.17 -180.212 164.369 -139.306 174.373C-136.029 175.175 -132.753 176.044 -129.497 176.985C-88.6618 188.685 -62.0685 210.67 -21.4256 211.176C-19.6158 211.197 -17.7791 211.141 -15.915 211.094C8.92925 210.472 26.588 206.044 42.4634 202.155C55.0797 199.064 65.9753 196.16 78.2605 195.342C119.711 192.579 160.543 207.135 198.272 224.443C203.731 226.951 209.162 229.514 214.549 232.091C257.26 252.512 300.157 276.75 346.646 277.599C363.447 277.909 379.494 273.016 394.944 267.56C435.999 253.048 474.017 227.706 497.369 190.398" stroke="url(#paint43_linear_765_4809)" stroke-miterlimit="10"/>
<path d="M-258.769 170.959C-225.831 158.751 -183.091 157.531 -141.891 167.513C-138.591 168.314 -135.292 169.187 -132.018 170.126C-90.8474 181.888 -64.3219 204.312 -23.3489 205.028C-21.5241 205.063 -19.677 205.013 -17.7968 204.975C7.31541 204.458 25.0944 200.078 41.0165 196.191C53.7301 193.084 64.6739 190.144 77.0442 189.313C118.78 186.506 159.863 201.164 197.816 218.654C203.306 221.183 208.767 223.772 214.189 226.383C257.127 247.03 300.187 271.548 347.016 272.74C363.747 273.164 379.794 268.485 395.251 263.207C436.344 249.163 474.48 224.181 497.804 187.049" stroke="url(#paint44_linear_765_4809)" stroke-miterlimit="10"/>
<path d="M-262.459 165.296C-229.319 152.414 -186.174 150.779 -144.677 160.741C-141.352 161.54 -138.035 162.41 -134.733 163.36C-93.2277 175.184 -66.769 198.042 -25.4679 198.978C-23.6327 199.02 -21.7706 198.984 -19.88 198.953C5.49907 198.547 23.3983 194.215 39.3681 190.325C52.1781 187.207 63.1722 184.221 75.6274 183.377C117.649 180.524 158.988 195.292 197.166 212.951C202.692 215.508 208.183 218.125 213.631 220.757C256.796 241.623 300.025 266.428 347.188 267.957C363.844 268.495 379.89 264.03 395.36 258.93C436.491 245.353 474.74 220.731 498.036 183.776" stroke="url(#paint45_linear_765_4809)" stroke-miterlimit="10"/>
<path d="M-266.355 159.72C-233.013 146.164 -189.463 144.114 -147.667 154.055C-144.319 154.853 -140.979 155.726 -137.654 156.674C-95.8134 168.567 -69.4159 191.859 -27.7846 193.005C-25.9334 193.055 -24.0619 193.031 -22.1553 193.009C3.49176 192.709 21.5055 188.424 37.5333 184.538C50.4408 181.404 61.4887 178.382 74.0233 177.524C116.325 174.626 157.919 189.503 196.322 207.338C201.88 209.917 207.4 212.566 212.877 215.224C256.271 236.311 299.667 261.402 347.16 263.267C363.746 263.919 379.792 259.669 395.268 254.745C436.438 241.637 474.804 217.375 498.072 180.597" stroke="url(#paint46_linear_765_4809)" stroke-miterlimit="10"/>
<path d="M-270.446 154.237C-236.903 140.012 -192.942 137.543 -150.852 147.462C-147.48 148.258 -144.116 149.131 -140.768 150.083C-98.593 162.037 -72.2623 185.763 -30.3019 187.124C-28.4413 187.186 -26.5528 187.166 -24.6311 187.157C1.28285 186.968 19.4168 182.731 35.4924 178.842C48.4962 175.697 59.5944 172.629 72.214 171.758C114.801 168.815 156.646 183.794 195.273 201.81C200.866 204.417 206.418 207.088 211.918 209.778C255.533 231.089 299.101 256.45 346.932 258.664C363.45 259.426 379.494 255.395 394.977 250.648C436.185 238.007 474.665 214.1 497.909 177.504" stroke="url(#paint47_linear_765_4809)" stroke-miterlimit="10"/>
<path d="M-274.721 148.856C-240.982 133.955 -196.609 131.067 -154.223 140.976C-150.827 141.771 -147.441 142.647 -144.07 143.603C-101.559 155.62 -75.2954 179.779 -33.0059 181.355C-31.1349 181.425 -29.2314 181.418 -27.2983 181.411C-1.11637 181.328 17.1431 177.172 33.2611 173.247C46.3639 170.107 57.5098 166.976 70.2143 166.092C113.088 163.098 155.187 178.193 194.039 196.384C199.663 199.018 205.244 201.716 210.78 204.434C254.623 225.964 298.361 251.602 346.525 254.163C362.973 255.04 379.011 251.222 394.501 246.652C435.748 234.479 474.34 210.931 497.555 174.512" stroke="url(#paint48_linear_765_4809)" stroke-miterlimit="10"/>
<path d="M-279.187 143.578C-245.246 128.003 -200.463 124.701 -157.784 134.588C-154.364 135.382 -150.954 136.256 -147.566 137.215C-104.72 149.294 -78.5182 173.893 -35.9042 175.678C-34.0172 175.756 -32.1044 175.762 -30.1552 175.763C-3.70639 175.791 14.6743 171.678 30.839 167.756C44.0382 164.604 55.2391 161.433 68.0229 160.535C111.182 157.497 153.531 172.699 192.608 191.066C198.263 193.721 203.88 196.447 209.439 199.197C253.51 220.947 297.419 246.856 345.908 249.774C362.288 250.76 378.325 247.161 393.821 242.768C435.106 231.063 473.817 207.876 497.003 171.633" stroke="url(#paint49_linear_765_4809)" stroke-miterlimit="10"/>
<path d="M-283.826 138.403C-249.684 122.159 -204.495 118.437 -161.513 128.304C-158.069 129.097 -154.635 129.97 -151.225 130.938C-108.044 143.079 -81.9087 168.112 -38.9656 170.112C-37.0693 170.202 -35.1404 170.216 -33.1751 170.225C-6.4594 170.365 12.0415 166.3 28.2538 162.374C41.5505 159.207 52.8006 155.994 65.6693 155.083C109.108 151.999 151.714 167.305 191.021 185.853C196.711 188.537 202.352 191.289 207.942 194.066C252.24 216.041 296.316 242.209 345.141 245.486C361.453 246.581 377.494 243.231 392.991 238.986C434.341 227.825 473.138 204.922 496.302 168.856" stroke="url(#paint50_linear_765_4809)" stroke-miterlimit="10"/>
<path d="M-288.648 133.345C-254.303 116.427 -208.71 112.291 -165.429 122.137C-161.961 122.928 -158.504 123.805 -155.07 124.771C-111.555 136.98 -85.4798 162.442 -42.2133 164.656C-40.301 164.755 -38.3616 164.776 -36.3871 164.798C-9.40443 165.048 9.21206 161.025 25.4767 157.103C38.8708 153.919 50.1691 150.671 63.1229 149.746C106.848 146.617 149.709 162.033 189.235 180.755C194.955 183.466 200.627 186.24 206.253 189.045C250.779 211.24 295.028 237.668 344.183 241.308C360.426 242.513 376.46 239.381 391.97 235.314C433.352 224.62 472.273 202.078 495.402 166.193" stroke="url(#paint51_linear_765_4809)" stroke-miterlimit="10"/>
<path d="M-293.634 128.409C-259.087 110.816 -213.084 106.266 -169.51 116.09C-166.018 116.88 -162.537 117.755 -159.081 118.725C-115.23 130.997 -89.2218 156.892 -45.6262 159.321C-43.7034 159.428 -41.7491 159.462 -39.7574 159.487C-12.5079 159.849 6.22993 155.868 22.5412 151.948C36.0317 148.753 47.3859 145.459 60.419 144.521C104.429 141.346 147.54 156.87 187.297 175.77C193.048 178.502 198.755 181.309 204.405 184.14C249.159 206.556 293.583 233.238 343.06 237.246C359.236 238.554 375.268 235.647 390.784 231.757C432.205 221.531 471.238 199.349 494.344 163.641" stroke="url(#paint52_linear_765_4809)" stroke-miterlimit="10"/>
<path d="M-298.786 123.597C-264.038 105.335 -217.628 100.365 -173.756 110.169C-170.24 110.957 -166.737 111.836 -163.258 112.81C-119.072 125.144 -93.1313 151.478 -49.1998 154.118C-47.2667 154.232 -45.2973 154.28 -43.2896 154.313C-15.7731 154.786 3.08489 150.852 19.4496 146.931C33.0318 143.718 44.4399 140.39 57.5591 139.433C101.855 136.214 145.217 151.841 185.197 170.921C190.984 173.681 196.716 176.514 202.396 179.372C247.377 202.013 291.976 228.945 341.782 233.322C357.895 234.74 373.914 232.05 389.442 228.338C430.903 218.575 470.053 196.759 493.125 161.226" stroke="url(#paint53_linear_765_4809)" stroke-miterlimit="10"/>
<path d="M-304.098 118.912C-269.148 99.9761 -222.334 94.5911 -178.163 104.374C-174.624 105.16 -171.096 106.038 -167.6 107.015C-123.078 119.411 -97.1993 146.18 -52.9454 149.04C-50.9973 149.167 -49.0175 149.222 -46.9994 149.262C-19.2218 149.845 -0.242457 145.955 16.1746 142.036C29.8532 138.812 41.3116 135.438 54.5146 134.473C99.0903 131.208 142.708 146.944 182.92 166.195C188.737 168.983 194.505 171.839 200.209 174.728C245.418 197.589 290.192 224.77 340.324 229.526C356.37 231.049 372.386 228.584 387.922 225.049C429.42 215.753 468.684 194.291 491.732 158.941" stroke="url(#paint54_linear_765_4809)" stroke-miterlimit="10"/>
<path d="M-309.565 114.36C-274.414 94.75 -227.189 88.9512 -182.725 98.712C-179.161 99.4919 -175.612 100.379 -172.093 101.36C-127.236 113.818 -101.424 141.021 -56.8407 144.095C-54.8821 144.229 -52.8863 144.293 -50.8532 144.347C-22.8086 145.041 -3.70905 141.198 12.7557 137.277C26.5317 134.037 38.0393 130.621 51.3274 129.643C96.1886 126.333 140.063 142.173 180.493 161.604C186.341 164.413 192.139 167.302 197.877 170.219C243.315 193.299 288.266 220.719 338.718 225.86C354.697 227.486 370.705 225.245 386.253 221.887C427.784 213.059 467.166 191.957 490.191 156.785" stroke="url(#paint55_linear_765_4809)" stroke-miterlimit="10"/>
<path d="M-315.185 109.953C-279.832 89.6741 -232.202 83.4553 -187.439 93.1953C-183.851 93.9737 -180.278 94.8594 -176.737 95.8442C-131.545 108.37 -105.793 136.002 -60.8868 139.29C-58.9122 139.433 -56.907 139.509 -54.8578 139.571C-26.5464 140.376 -7.3255 136.576 9.18586 132.657C23.0593 129.4 34.6208 125.95 47.9882 124.958C93.1349 121.603 137.259 137.551 177.92 157.159C183.804 159.996 189.632 162.906 195.396 165.849C241.054 189.154 286.194 216.815 336.967 222.334C352.878 224.064 368.884 222.047 384.438 218.867C426.008 210.506 465.508 189.765 488.499 154.769" stroke="url(#paint56_linear_765_4809)" stroke-miterlimit="10"/>
<path d="M-320.943 105.687C-285.394 84.7327 -237.353 78.1001 -192.294 87.8246C-188.682 88.6016 -185.085 89.4858 -181.521 90.4798C-135.995 103.068 -110.309 131.133 -65.074 134.637C-63.0901 134.792 -61.0689 134.876 -59.0083 134.94C-30.4299 135.857 -11.0946 132.103 5.47018 128.182C19.4344 124.914 31.0519 121.418 44.5042 120.413C89.9365 117.013 134.31 133.07 175.196 152.852C181.11 155.716 186.969 158.654 192.762 161.624C238.649 185.149 283.967 213.043 335.064 218.952C350.914 220.787 366.905 218.993 382.471 215.996C424.081 208.098 463.692 187.722 486.66 152.903" stroke="url(#paint57_linear_765_4809)" stroke-miterlimit="10"/>
<path d="M-326.844 101.572C-291.093 79.9436 -242.641 72.8972 -197.289 82.5999C-193.653 83.3754 -190.039 84.2626 -186.446 85.2561C-140.584 97.9068 -114.96 126.406 -69.4009 130.124C-67.4009 130.287 -65.3704 130.384 -63.2937 130.456C-34.4484 131.484 -14.9917 127.773 1.61965 123.855C15.6813 120.57 27.3469 117.038 40.8853 116.015C86.5974 112.569 131.233 128.73 172.337 148.693C178.283 151.579 184.176 154.549 189.999 157.547C236.113 181.297 281.617 209.414 333.027 215.717C348.81 217.65 364.798 216.087 380.365 213.266C422.013 205.835 461.743 185.82 484.682 151.177" stroke="url(#paint58_linear_765_4809)" stroke-miterlimit="10"/>
<path d="M-332.88 97.611C-296.927 75.3132 -248.07 67.8467 -202.419 77.5286C-198.76 78.3027 -195.122 79.1884 -191.512 80.1848C-145.315 92.8978 -119.757 121.831 -73.8691 125.764C-71.8587 125.934 -69.8121 126.04 -67.7204 126.125C-38.6092 127.269 -19.0303 123.596 -2.37224 119.679C11.7868 116.378 23.5074 112.806 37.124 111.774C83.1217 108.283 128.008 124.553 169.342 144.692C175.323 147.606 181.242 150.597 187.094 153.627C233.436 177.597 279.125 205.944 330.853 212.641C346.574 214.679 362.548 213.338 378.127 210.695C419.808 203.731 459.656 184.077 482.566 149.616" stroke="url(#paint59_linear_765_4809)" stroke-miterlimit="10"/>
<path d="M-339.047 93.8082C-302.893 70.8361 -253.631 62.9548 -207.681 72.6159C-203.998 73.3885 -200.337 74.2781 -196.704 75.2784C-150.172 88.0537 -124.675 117.422 -78.4583 121.569C-76.4387 121.752 -74.376 121.866 -72.2739 121.959C-42.8958 123.214 -23.2023 119.587 -6.48416 115.665C7.77128 112.352 19.5422 108.734 33.2438 107.689C79.527 104.153 124.663 120.531 166.222 140.845C172.234 143.781 178.182 146.805 184.065 149.862C230.634 174.052 276.511 202.617 328.547 209.723C344.208 211.861 360.172 210.75 375.759 208.283C417.477 201.787 457.438 182.492 480.325 148.209" stroke="url(#paint60_linear_765_4809)" stroke-miterlimit="10"/>
<path d="M-345.333 90.1669C-308.978 66.5258 -259.305 58.2255 -213.062 67.8649C-209.355 68.636 -205.671 69.5241 -202.015 70.5283C-155.147 83.3659 -129.708 113.087 -83.1714 117.53C-81.1346 117.716 -79.0637 117.848 -76.9455 117.948C-47.3015 119.32 -27.4857 115.731 -10.7209 111.811C3.63192 108.482 15.451 104.827 29.2376 103.77C75.8064 100.189 121.199 116.671 162.982 137.166C169.024 140.129 175.009 143.175 180.921 146.259C227.718 170.674 273.783 199.452 326.135 206.964C341.729 209.2 357.684 208.318 373.283 206.029C415.041 199.996 455.12 181.062 477.978 146.96" stroke="url(#paint61_linear_765_4809)" stroke-miterlimit="10"/>
<path d="M-351.718 86.5692C-315.16 62.2538 -265.082 53.5388 -218.536 63.1582C-214.805 63.9279 -211.097 64.8199 -207.419 65.8279C-160.217 78.7332 -134.838 108.888 -87.9785 113.546C-85.9324 113.745 -83.8454 113.884 -81.7102 113.988C-51.805 115.47 -31.8632 111.929 -15.0507 108.006C-0.607177 104.665 11.2736 100.967 25.1395 99.8949C71.9881 96.2679 117.636 112.859 159.644 133.529C165.722 136.52 171.731 139.593 177.674 142.704C224.698 167.339 270.632 198.512 323.618 204.252C339.248 205.945 355.097 205.935 370.703 203.823C412.5 198.258 452.691 179.683 475.52 145.758" stroke="url(#paint62_linear_765_4809)" stroke-miterlimit="10"/>
<path d="M-358.25 83.3142C-321.491 58.3245 -271.008 49.1947 -224.163 58.7933C-220.408 59.5616 -216.677 60.4521 -212.976 61.464C-165.438 74.4316 -140.128 105.026 -92.9378 109.893C-90.8756 110.1 -88.7792 110.252 -86.6336 110.363C-56.4625 111.962 -36.4042 108.457 -19.5394 104.538C-4.99836 101.18 6.93053 97.4456 20.8825 96.3555C68.0167 92.6835 113.914 109.383 156.154 130.224C162.263 133.237 168.307 136.343 174.274 139.48C221.527 164.335 267.66 195.509 320.943 201.871C336.511 203.729 352.347 203.881 367.965 201.948C409.794 196.849 450.11 178.636 472.91 144.887" stroke="url(#paint63_linear_765_4809)" stroke-miterlimit="10"/>
<path d="M-364.888 80.234C-327.928 54.5754 -277.034 45.0264 -229.896 54.6033C-226.117 55.3701 -222.362 56.2592 -218.643 57.274C-170.771 70.3039 -145.522 101.338 -98.0081 106.414C-95.9355 106.628 -93.8231 106.788 -91.6625 106.913C-61.2245 108.623 -41.0459 105.166 -24.1334 101.244C-9.49496 97.8696 2.48319 94.0941 16.5191 92.9962C63.9389 89.2793 110.087 106.082 152.551 127.104C158.696 130.145 164.765 133.271 170.761 136.441C218.241 161.521 264.59 192.677 318.161 199.675C333.662 201.698 349.495 202.014 365.12 200.257C406.988 195.627 447.415 177.773 470.188 144.201" stroke="url(#paint64_linear_765_4809)" stroke-miterlimit="10"/>
<path d="M-371.631 77.3331C-334.469 51.0002 -283.17 41.0365 -235.733 50.5926C-231.931 51.3579 -228.153 52.2509 -224.412 53.2695C-176.204 66.3618 -151.017 97.8356 -103.179 103.121C-101.097 103.347 -98.9683 103.516 -96.7916 103.649C-66.0877 105.475 -45.7868 102.055 -28.8277 98.1352C-14.0929 94.7501 -2.06547 90.9335 12.0565 89.8172C59.7618 86.0553 106.166 102.967 148.854 124.164C155.029 127.232 161.134 130.387 167.16 133.584C214.868 158.884 261.435 190.01 315.29 197.666C330.723 199.859 346.55 200.328 362.186 198.754C404.092 194.592 444.632 177.098 467.382 143.703" stroke="url(#paint65_linear_765_4809)" stroke-miterlimit="10"/>
<path d="M-378.476 74.6187C-341.117 47.6104 -289.402 37.2339 -241.673 46.7682C-237.846 47.5321 -234.045 48.4236 -230.28 49.4461C-181.743 62.5998 -156.62 94.5188 -108.45 100.008C-106.352 100.243 -104.214 100.424 -102.026 100.559C-71.0552 102.496 -50.6387 99.1182 -33.6272 95.2016C-18.8007 91.7991 -6.71268 87.9433 7.4875 86.8184C55.4737 83.0052 102.132 100.031 145.046 121.404C151.252 124.494 157.387 127.676 163.442 130.905C211.372 156.424 258.176 187.514 312.297 195.83C327.661 198.192 343.486 198.82 359.129 197.424C401.069 193.722 441.732 176.595 464.453 143.377" stroke="url(#paint66_linear_765_4809)" stroke-miterlimit="10"/>
<path d="M-385.409 72.0874C-347.849 44.4101 -295.728 33.6136 -247.701 43.1324C-243.851 43.8948 -240.027 44.7902 -236.24 45.8165C-187.368 59.0378 -162.306 91.3914 -113.806 97.0907C-111.699 97.338 -109.545 97.5273 -107.34 97.6702C-76.1084 99.7781 -55.566 96.3886 -38.5011 92.4701C-23.5782 89.0564 -11.4399 85.1542 2.84525 84.0162C51.117 80.1581 98.0262 97.287 141.17 118.842C147.411 121.959 153.576 125.169 159.657 128.418C207.814 154.162 255.07 184.142 309.243 194.187C324.481 197.011 340.357 197.505 356.012 196.286C397.99 193.053 438.766 176.285 461.458 143.243" stroke="url(#paint67_linear_765_4809)" stroke-miterlimit="10"/>
<path d="M-392.426 69.7445C-354.664 41.393 -302.137 30.1763 -253.813 39.6797C-249.939 40.4407 -246.091 41.3346 -242.281 42.3648C-193.074 55.6484 -168.08 88.4409 -119.249 94.3499C-117.126 94.6055 -114.963 94.8073 -112.742 94.9584C-81.2472 97.1658 -60.5799 93.8305 -43.4684 89.9144C-28.448 86.4842 -16.2615 82.5463 -1.8903 81.3899C46.6671 77.4868 93.8317 94.725 137.194 116.454C143.466 119.599 149.661 122.835 155.777 126.113C204.163 152.077 251.623 182.245 306.094 192.725C321.273 195.643 337.138 196.371 352.8 195.33C394.817 192.564 435.712 176.152 458.374 143.297" stroke="url(#paint68_linear_765_4809)" stroke-miterlimit="10"/>
<path d="M-399.535 67.6058C-361.566 38.5809 -308.634 26.9495 -260.012 36.4321C-256.114 37.1916 -252.243 38.0894 -248.415 39.1172C-198.872 52.4631 -173.94 85.6954 -124.786 91.8133C-122.652 92.076 -120.474 92.2914 -118.243 92.4498C-86.4798 94.763 -65.6933 91.4808 -48.5341 87.5618C-33.4163 84.1153 -21.1749 80.1372 -6.7254 78.9721C42.1175 75.024 89.532 92.3704 133.12 114.275C139.422 117.442 145.653 120.706 151.793 124.015C200.406 150.199 248.072 180.551 302.834 191.469C317.96 194.483 333.803 195.444 349.472 194.579C391.527 192.281 432.534 176.229 455.173 143.551" stroke="url(#paint69_linear_765_4809)" stroke-miterlimit="10"/>
<path d="M-406.716 65.6801C-368.55 35.9799 -315.208 23.9347 -266.293 33.3955C-262.371 34.1536 -258.482 35.0489 -254.627 36.0869C-204.749 49.4951 -179.879 83.1673 -130.401 89.4993C-128.252 89.7756 -126.062 89.9929 -123.817 90.1648C-91.7903 92.5776 -70.8846 89.3485 -53.6731 85.4329C-38.4646 81.9743 -26.1682 77.9561 -11.6327 76.7726C37.4901 72.7786 85.1611 90.2289 128.978 112.315C135.317 115.51 141.572 118.8 147.742 122.136C196.582 148.545 244.462 179.071 299.513 190.439C314.584 193.548 330.412 194.743 346.087 194.054C388.176 192.219 429.306 176.533 451.911 144.03" stroke="url(#paint70_linear_765_4809)" stroke-miterlimit="10"/>
<path d="M-413.973 63.9665C-372.534 31.1629 -313.146 19.2473 -260.908 33.2644C-208.517 47.3182 -183.786 83.8451 -129.458 88.077C-68.5225 92.8245 -47.7081 77.3094 -16.6071 74.7703C39.9469 70.1463 94.5559 93.8203 143.624 120.449C192.693 147.079 240.786 177.777 296.127 189.596C351.468 201.414 417.602 189.06 448.59 144.698" stroke="url(#paint71_linear_765_4809)" stroke-miterlimit="10"/>
<defs>
<linearGradient id="paint0_linear_765_4809" x1="-269.799" y1="274.719" x2="276.349" y2="381.136" gradientUnits="userSpaceOnUse">
<stop stop-color="#00BEFF" stop-opacity="0"/>
<stop offset="0.5" stop-color="#00FF95"/>
<stop offset="1" stop-color="#00BEFF" stop-opacity="0"/>
</linearGradient>
<linearGradient id="paint1_linear_765_4809" x1="-266.58" y1="274.517" x2="283.784" y2="381.756" gradientUnits="userSpaceOnUse">
<stop stop-color="#00BFFE" stop-opacity="0"/>
<stop offset="0.5" stop-color="#00FE96"/>
<stop offset="1" stop-color="#00BFFE" stop-opacity="0"/>
</linearGradient>
<linearGradient id="paint2_linear_765_4809" x1="-263.415" y1="274.081" x2="291.176" y2="382.144" gradientUnits="userSpaceOnUse">
<stop stop-color="#00C0FC" stop-opacity="0"/>
<stop offset="0.5" stop-color="#00FD98"/>
<stop offset="1" stop-color="#00C0FC" stop-opacity="0"/>
</linearGradient>
<linearGradient id="paint3_linear_765_4809" x1="-260.308" y1="273.427" x2="298.516" y2="382.314" gradientUnits="userSpaceOnUse">
<stop stop-color="#00C1FB" stop-opacity="0"/>
<stop offset="0.5" stop-color="#00FC99"/>
<stop offset="1" stop-color="#00C1FB" stop-opacity="0"/>
</linearGradient>
<linearGradient id="paint4_linear_765_4809" x1="-257.258" y1="272.554" x2="305.787" y2="382.264" gradientUnits="userSpaceOnUse">
<stop stop-color="#00C2F9" stop-opacity="0"/>
<stop offset="0.5" stop-color="#00FB9B"/>
<stop offset="1" stop-color="#00C2F9" stop-opacity="0"/>
</linearGradient>
<linearGradient id="paint5_linear_765_4809" x1="-254.272" y1="271.468" x2="312.999" y2="382.001" gradientUnits="userSpaceOnUse">
<stop stop-color="#00C3F8" stop-opacity="0"/>
<stop offset="0.5" stop-color="#00FA9C"/>
<stop offset="1" stop-color="#00C3F8" stop-opacity="0"/>
</linearGradient>
<linearGradient id="paint6_linear_765_4809" x1="-251.358" y1="270.176" x2="320.135" y2="381.533" gradientUnits="userSpaceOnUse">
<stop stop-color="#00C3F6" stop-opacity="0"/>
<stop offset="0.5" stop-color="#00FA9E"/>
<stop offset="1" stop-color="#00C3F6" stop-opacity="0"/>
</linearGradient>
<linearGradient id="paint7_linear_765_4809" x1="-248.523" y1="268.679" x2="327.191" y2="380.858" gradientUnits="userSpaceOnUse">
<stop stop-color="#00C4F5" stop-opacity="0"/>
<stop offset="0.5" stop-color="#00F99F"/>
<stop offset="1" stop-color="#00C4F5" stop-opacity="0"/>
</linearGradient>
<linearGradient id="paint8_linear_765_4809" x1="-245.773" y1="266.987" x2="334.168" y2="379.989" gradientUnits="userSpaceOnUse">
<stop stop-color="#00C5F3" stop-opacity="0"/>
<stop offset="0.5" stop-color="#00F8A1"/>
<stop offset="1" stop-color="#00C5F3" stop-opacity="0"/>
</linearGradient>
<linearGradient id="paint9_linear_765_4809" x1="-243.108" y1="265.098" x2="341.06" y2="378.924" gradientUnits="userSpaceOnUse">
<stop stop-color="#00C6F2" stop-opacity="0"/>
<stop offset="0.5" stop-color="#00F7A2"/>
<stop offset="1" stop-color="#00C6F2" stop-opacity="0"/>
</linearGradient>
<linearGradient id="paint10_linear_765_4809" x1="-240.541" y1="263.018" x2="347.854" y2="377.668" gradientUnits="userSpaceOnUse">
<stop stop-color="#00C7F0" stop-opacity="0"/>
<stop offset="0.5" stop-color="#00F6A4"/>
<stop offset="1" stop-color="#00C7F0" stop-opacity="0"/>
</linearGradient>
<linearGradient id="paint11_linear_765_4809" x1="-238.069" y1="260.756" x2="354.548" y2="376.228" gradientUnits="userSpaceOnUse">
<stop stop-color="#00C8EF" stop-opacity="0"/>
<stop offset="0.5" stop-color="#00F5A5"/>
<stop offset="1" stop-color="#00C8EF" stop-opacity="0"/>
</linearGradient>
<linearGradient id="paint12_linear_765_4809" x1="-235.703" y1="258.318" x2="361.135" y2="374.613" gradientUnits="userSpaceOnUse">
<stop stop-color="#00C9ED" stop-opacity="0"/>
<stop offset="0.5" stop-color="#00F4A7"/>
<stop offset="1" stop-color="#00C9ED" stop-opacity="0"/>
</linearGradient>
<linearGradient id="paint13_linear_765_4809" x1="-233.45" y1="255.701" x2="367.609" y2="372.818" gradientUnits="userSpaceOnUse">
<stop stop-color="#00CAEC" stop-opacity="0"/>
<stop offset="0.5" stop-color="#00F3A8"/>
<stop offset="1" stop-color="#00CAEC" stop-opacity="0"/>
</linearGradient>
<linearGradient id="paint14_linear_765_4809" x1="-231.311" y1="252.916" x2="373.975" y2="370.857" gradientUnits="userSpaceOnUse">
<stop stop-color="#00CBEA" stop-opacity="0"/>
<stop offset="0.5" stop-color="#00F2AA"/>
<stop offset="1" stop-color="#00CBEA" stop-opacity="0"/>
</linearGradient>
<linearGradient id="paint15_linear_765_4809" x1="-229.299" y1="249.961" x2="380.214" y2="368.725" gradientUnits="userSpaceOnUse">
<stop stop-color="#00CCE9" stop-opacity="0"/>
<stop offset="0.5" stop-color="#00F1AB"/>
<stop offset="1" stop-color="#00CCE9" stop-opacity="0"/>
</linearGradient>
<linearGradient id="paint16_linear_765_4809" x1="-227.408" y1="246.849" x2="386.326" y2="366.436" gradientUnits="userSpaceOnUse">
<stop stop-color="#00CDE7" stop-opacity="0"/>
<stop offset="0.5" stop-color="#00F0AD"/>
<stop offset="1" stop-color="#00CDE7" stop-opacity="0"/>
</linearGradient>
<linearGradient id="paint17_linear_765_4809" x1="-225.652" y1="243.577" x2="392.304" y2="363.986" gradientUnits="userSpaceOnUse">
<stop stop-color="#00CEE6" stop-opacity="0"/>
<stop offset="0.5" stop-color="#00EFAE"/>
<stop offset="1" stop-color="#00CEE6" stop-opacity="0"/>
</linearGradient>
<linearGradient id="paint18_linear_765_4809" x1="-224.037" y1="240.155" x2="398.14" y2="361.387" gradientUnits="userSpaceOnUse">
<stop stop-color="#00CEE4" stop-opacity="0"/>
<stop offset="0.5" stop-color="#00EFB0"/>
<stop offset="1" stop-color="#00CEE4" stop-opacity="0"/>
</linearGradient>
<linearGradient id="paint19_linear_765_4809" x1="-222.57" y1="236.585" x2="403.84" y2="358.642" gradientUnits="userSpaceOnUse">
<stop stop-color="#00CFE3" stop-opacity="0"/>
<stop offset="0.5" stop-color="#00EEB1"/>
<stop offset="1" stop-color="#00CFE3" stop-opacity="0"/>
</linearGradient>
<linearGradient id="paint20_linear_765_4809" x1="-221.263" y1="232.873" x2="409.384" y2="355.756" gradientUnits="userSpaceOnUse">
<stop stop-color="#00D0E1" stop-opacity="0"/>
<stop offset="0.5" stop-color="#00EDB3"/>
<stop offset="1" stop-color="#00D0E1" stop-opacity="0"/>
</linearGradient>
<linearGradient id="paint21_linear_765_4809" x1="-220.112" y1="229.02" x2="414.774" y2="352.729" gradientUnits="userSpaceOnUse">
<stop stop-color="#00D1E0" stop-opacity="0"/>
<stop offset="0.5" stop-color="#00ECB4"/>
<stop offset="1" stop-color="#00D1E0" stop-opacity="0"/>
</linearGradient>
<linearGradient id="paint22_linear_765_4809" x1="-219.118" y1="225.037" x2="420.001" y2="349.57" gradientUnits="userSpaceOnUse">
<stop stop-color="#00D2DE" stop-opacity="0"/>
<stop offset="0.5" stop-color="#00EBB6"/>
<stop offset="1" stop-color="#00D2DE" stop-opacity="0"/>
</linearGradient>
<linearGradient id="paint23_linear_765_4809" x1="-218.294" y1="220.925" x2="425.063" y2="346.284" gradientUnits="userSpaceOnUse">
<stop stop-color="#00D3DD" stop-opacity="0"/>
<stop offset="0.5" stop-color="#00EAB7"/>
<stop offset="1" stop-color="#00D3DD" stop-opacity="0"/>
</linearGradient>
<linearGradient id="paint24_linear_765_4809" x1="-217.644" y1="216.685" x2="429.957" y2="342.871" gradientUnits="userSpaceOnUse">
<stop stop-color="#00D4DB" stop-opacity="0"/>
<stop offset="0.5" stop-color="#00E9B9"/>
<stop offset="1" stop-color="#00D4DB" stop-opacity="0"/>
</linearGradient>
<linearGradient id="paint25_linear_765_4809" x1="-217.166" y1="212.329" x2="434.668" y2="339.339" gradientUnits="userSpaceOnUse">
<stop stop-color="#00D5DA" stop-opacity="0"/>
<stop offset="0.5" stop-color="#00E8BA"/>
<stop offset="1" stop-color="#00D5DA" stop-opacity="0"/>
</linearGradient>
<linearGradient id="paint26_linear_765_4809" x1="-216.878" y1="207.856" x2="439.2" y2="335.694" gradientUnits="userSpaceOnUse">
<stop stop-color="#00D6D8" stop-opacity="0"/>
<stop offset="0.5" stop-color="#00E7BC"/>
<stop offset="1" stop-color="#00D6D8" stop-opacity="0"/>
</linearGradient>
<linearGradient id="paint27_linear_765_4809" x1="-216.775" y1="203.277" x2="443.541" y2="331.941" gradientUnits="userSpaceOnUse">
<stop stop-color="#00D7D7" stop-opacity="0"/>
<stop offset="0.5" stop-color="#00E6BD"/>
<stop offset="1" stop-color="#00D7D7" stop-opacity="0"/>
</linearGradient>
<linearGradient id="paint28_linear_765_4809" x1="-216.863" y1="198.593" x2="447.686" y2="328.081" gradientUnits="userSpaceOnUse">
<stop stop-color="#00D8D5" stop-opacity="0"/>
<stop offset="0.5" stop-color="#00E5BF"/>
<stop offset="1" stop-color="#00D8D5" stop-opacity="0"/>
</linearGradient>
<linearGradient id="paint29_linear_765_4809" x1="-217.156" y1="193.81" x2="451.631" y2="324.124" gradientUnits="userSpaceOnUse">
<stop stop-color="#00D9D4" stop-opacity="0"/>
<stop offset="0.5" stop-color="#00E4C0"/>
<stop offset="1" stop-color="#00D9D4" stop-opacity="0"/>
</linearGradient>
<linearGradient id="paint30_linear_765_4809" x1="-217.653" y1="188.924" x2="455.372" y2="320.064" gradientUnits="userSpaceOnUse">
<stop stop-color="#00D9D2" stop-opacity="0"/>
<stop offset="0.5" stop-color="#00E4C2"/>
<stop offset="1" stop-color="#00D9D2" stop-opacity="0"/>
</linearGradient>
<linearGradient id="paint31_linear_765_4809" x1="-218.362" y1="183.948" x2="458.902" y2="315.914" gradientUnits="userSpaceOnUse">
<stop stop-color="#00DAD1" stop-opacity="0"/>
<stop offset="0.5" stop-color="#00E3C3"/>
<stop offset="1" stop-color="#00DAD1" stop-opacity="0"/>
</linearGradient>
<linearGradient id="paint32_linear_765_4809" x1="-219.285" y1="178.892" x2="462.217" y2="311.684" gradientUnits="userSpaceOnUse">
<stop stop-color="#00DBCF" stop-opacity="0"/>
<stop offset="0.5" stop-color="#00E2C5"/>
<stop offset="1" stop-color="#00DBCF" stop-opacity="0"/>
</linearGradient>
<linearGradient id="paint33_linear_765_4809" x1="-220.432" y1="173.749" x2="465.308" y2="307.367" gradientUnits="userSpaceOnUse">
<stop stop-color="#00DCCE" stop-opacity="0"/>
<stop offset="0.5" stop-color="#00E1C6"/>
<stop offset="1" stop-color="#00DCCE" stop-opacity="0"/>
</linearGradient>
<linearGradient id="paint34_linear_765_4809" x1="-221.8" y1="168.53" x2="468.173" y2="302.972" gradientUnits="userSpaceOnUse">
<stop stop-color="#00DDCC" stop-opacity="0"/>
<stop offset="0.5" stop-color="#00E0C8"/>
<stop offset="1" stop-color="#00DDCC" stop-opacity="0"/>
</linearGradient>
<linearGradient id="paint35_linear_765_4809" x1="-223.408" y1="163.243" x2="470.803" y2="298.511" gradientUnits="userSpaceOnUse">
<stop stop-color="#00DECB" stop-opacity="0"/>
<stop offset="0.5" stop-color="#00DFC9"/>
<stop offset="1" stop-color="#00DECB" stop-opacity="0"/>
</linearGradient>
<linearGradient id="paint36_linear_765_4809" x1="-225.258" y1="157.898" x2="473.191" y2="293.992" gradientUnits="userSpaceOnUse">
<stop stop-color="#00DFC9" stop-opacity="0"/>
<stop offset="0.5" stop-color="#00DECB"/>
<stop offset="1" stop-color="#00DFC9" stop-opacity="0"/>
</linearGradient>
<linearGradient id="paint37_linear_765_4809" x1="-227.343" y1="152.579" x2="475.339" y2="289.497" gradientUnits="userSpaceOnUse">
<stop stop-color="#00E0C8" stop-opacity="0"/>
<stop offset="0.5" stop-color="#00DDCC"/>
<stop offset="1" stop-color="#00E0C8" stop-opacity="0"/>
</linearGradient>
<linearGradient id="paint38_linear_765_4809" x1="-229.675" y1="147.317" x2="477.246" y2="285.062" gradientUnits="userSpaceOnUse">
<stop stop-color="#00E1C6" stop-opacity="0"/>
<stop offset="0.5" stop-color="#00DCCE"/>
<stop offset="1" stop-color="#00E1C6" stop-opacity="0"/>
</linearGradient>
<linearGradient id="paint39_linear_765_4809" x1="-232.24" y1="142.105" x2="478.913" y2="280.674" gradientUnits="userSpaceOnUse">
<stop stop-color="#00E2C5" stop-opacity="0"/>
<stop offset="0.5" stop-color="#00DBCF"/>
<stop offset="1" stop-color="#00E2C5" stop-opacity="0"/>
</linearGradient>
<linearGradient id="paint40_linear_765_4809" x1="-235.034" y1="136.951" x2="480.358" y2="276.346" gradientUnits="userSpaceOnUse">
<stop stop-color="#00E3C3" stop-opacity="0"/>
<stop offset="0.5" stop-color="#00DAD1"/>
<stop offset="1" stop-color="#00E3C3" stop-opacity="0"/>
</linearGradient>
<linearGradient id="paint41_linear_765_4809" x1="-238.054" y1="131.864" x2="481.57" y2="272.083" gradientUnits="userSpaceOnUse">
<stop stop-color="#00E4C2" stop-opacity="0"/>
<stop offset="0.5" stop-color="#00D9D2"/>
<stop offset="1" stop-color="#00E4C2" stop-opacity="0"/>
</linearGradient>
<linearGradient id="paint42_linear_765_4809" x1="-241.298" y1="126.843" x2="482.571" y2="267.89" gradientUnits="userSpaceOnUse">
<stop stop-color="#00E4C0" stop-opacity="0"/>
<stop offset="0.5" stop-color="#00D9D4"/>
<stop offset="1" stop-color="#00E4C0" stop-opacity="0"/>
</linearGradient>
<linearGradient id="paint43_linear_765_4809" x1="-244.752" y1="121.902" x2="483.349" y2="263.774" gradientUnits="userSpaceOnUse">
<stop stop-color="#00E5BF" stop-opacity="0"/>
<stop offset="0.5" stop-color="#00D8D5"/>
<stop offset="1" stop-color="#00E5BF" stop-opacity="0"/>
</linearGradient>
<linearGradient id="paint44_linear_765_4809" x1="-248.415" y1="117.035" x2="483.919" y2="259.731" gradientUnits="userSpaceOnUse">
<stop stop-color="#00E6BD" stop-opacity="0"/>
<stop offset="0.5" stop-color="#00D7D7"/>
<stop offset="1" stop-color="#00E6BD" stop-opacity="0"/>
</linearGradient>
<linearGradient id="paint45_linear_765_4809" x1="-252.29" y1="112.259" x2="484.282" y2="255.781" gradientUnits="userSpaceOnUse">
<stop stop-color="#00E7BC" stop-opacity="0"/>
<stop offset="0.5" stop-color="#00D6D8"/>
<stop offset="1" stop-color="#00E7BC" stop-opacity="0"/>
</linearGradient>
<linearGradient id="paint46_linear_765_4809" x1="-256.358" y1="107.57" x2="484.446" y2="251.917" gradientUnits="userSpaceOnUse">
<stop stop-color="#00E8BA" stop-opacity="0"/>
<stop offset="0.5" stop-color="#00D5DA"/>
<stop offset="1" stop-color="#00E8BA" stop-opacity="0"/>
</linearGradient>
<linearGradient id="paint47_linear_765_4809" x1="-260.623" y1="102.981" x2="484.414" y2="248.152" gradientUnits="userSpaceOnUse">
<stop stop-color="#00E9B9" stop-opacity="0"/>
<stop offset="0.5" stop-color="#00D4DB"/>
<stop offset="1" stop-color="#00E9B9" stop-opacity="0"/>
</linearGradient>
<linearGradient id="paint48_linear_765_4809" x1="-265.084" y1="98.4904" x2="484.191" y2="244.488" gradientUnits="userSpaceOnUse">
<stop stop-color="#00EAB7" stop-opacity="0"/>
<stop offset="0.5" stop-color="#00D3DD"/>
<stop offset="1" stop-color="#00EAB7" stop-opacity="0"/>
</linearGradient>
<linearGradient id="paint49_linear_765_4809" x1="-269.723" y1="94.1005" x2="483.785" y2="240.923" gradientUnits="userSpaceOnUse">
<stop stop-color="#00EBB6" stop-opacity="0"/>
<stop offset="0.5" stop-color="#00D2DE"/>
<stop offset="1" stop-color="#00EBB6" stop-opacity="0"/>
</linearGradient>
<linearGradient id="paint50_linear_765_4809" x1="-274.544" y1="89.8286" x2="483.202" y2="237.476" gradientUnits="userSpaceOnUse">
<stop stop-color="#00ECB4" stop-opacity="0"/>
<stop offset="0.5" stop-color="#00D1E0"/>
<stop offset="1" stop-color="#00ECB4" stop-opacity="0"/>
</linearGradient>
<linearGradient id="paint51_linear_765_4809" x1="-279.54" y1="85.6695" x2="482.438" y2="234.142" gradientUnits="userSpaceOnUse">
<stop stop-color="#00EDB3" stop-opacity="0"/>
<stop offset="0.5" stop-color="#00D0E1"/>
<stop offset="1" stop-color="#00EDB3" stop-opacity="0"/>
</linearGradient>
<linearGradient id="paint52_linear_765_4809" x1="-284.709" y1="81.6357" x2="481.503" y2="230.933" gradientUnits="userSpaceOnUse">
<stop stop-color="#00EEB1" stop-opacity="0"/>
<stop offset="0.5" stop-color="#00CFE3"/>
<stop offset="1" stop-color="#00EEB1" stop-opacity="0"/>
</linearGradient>
<linearGradient id="paint53_linear_765_4809" x1="-290.036" y1="77.7281" x2="480.408" y2="227.85" gradientUnits="userSpaceOnUse">
<stop stop-color="#00EFB0" stop-opacity="0"/>
<stop offset="0.5" stop-color="#00CEE4"/>
<stop offset="1" stop-color="#00EFB0" stop-opacity="0"/>
</linearGradient>
<linearGradient id="paint54_linear_765_4809" x1="-295.531" y1="73.9512" x2="479.151" y2="224.899" gradientUnits="userSpaceOnUse">
<stop stop-color="#00EFAE" stop-opacity="0"/>
<stop offset="0.5" stop-color="#00CEE6"/>
<stop offset="1" stop-color="#00EFAE" stop-opacity="0"/>
</linearGradient>
<linearGradient id="paint55_linear_765_4809" x1="-301.176" y1="70.3086" x2="477.733" y2="222.08" gradientUnits="userSpaceOnUse">
<stop stop-color="#00F0AD" stop-opacity="0"/>
<stop offset="0.5" stop-color="#00CDE7"/>
<stop offset="1" stop-color="#00F0AD" stop-opacity="0"/>
</linearGradient>
<linearGradient id="paint56_linear_765_4809" x1="-306.973" y1="66.811" x2="476.175" y2="219.408" gradientUnits="userSpaceOnUse">
<stop stop-color="#00F1AB" stop-opacity="0"/>
<stop offset="0.5" stop-color="#00CCE9"/>
<stop offset="1" stop-color="#00F1AB" stop-opacity="0"/>
</linearGradient>
<linearGradient id="paint57_linear_765_4809" x1="-312.916" y1="63.4638" x2="474.464" y2="216.886" gradientUnits="userSpaceOnUse">
<stop stop-color="#00F2AA" stop-opacity="0"/>
<stop offset="0.5" stop-color="#00CBEA"/>
<stop offset="1" stop-color="#00F2AA" stop-opacity="0"/>
</linearGradient>
<linearGradient id="paint58_linear_765_4809" x1="-319.001" y1="60.2625" x2="472.613" y2="214.509" gradientUnits="userSpaceOnUse">
<stop stop-color="#00F3A8" stop-opacity="0"/>
<stop offset="0.5" stop-color="#00CAEC"/>
<stop offset="1" stop-color="#00F3A8" stop-opacity="0"/>
</linearGradient>
<linearGradient id="paint59_linear_765_4809" x1="-325.217" y1="57.2262" x2="470.629" y2="212.298" gradientUnits="userSpaceOnUse">
<stop stop-color="#00F4A7" stop-opacity="0"/>
<stop offset="0.5" stop-color="#00C9ED"/>
<stop offset="1" stop-color="#00F4A7" stop-opacity="0"/>
</linearGradient>
<linearGradient id="paint60_linear_765_4809" x1="-331.564" y1="54.3486" x2="468.514" y2="210.245" gradientUnits="userSpaceOnUse">
<stop stop-color="#00F5A5" stop-opacity="0"/>
<stop offset="0.5" stop-color="#00C8EF"/>
<stop offset="1" stop-color="#00F5A5" stop-opacity="0"/>
</linearGradient>
<linearGradient id="paint61_linear_765_4809" x1="-338.039" y1="51.6422" x2="466.278" y2="208.364" gradientUnits="userSpaceOnUse">
<stop stop-color="#00F6A4" stop-opacity="0"/>
<stop offset="0.5" stop-color="#00C7F0"/>
<stop offset="1" stop-color="#00F6A4" stop-opacity="0"/>
</linearGradient>
<linearGradient id="paint62_linear_765_4809" x1="-344.63" y1="49.1079" x2="463.914" y2="206.654" gradientUnits="userSpaceOnUse">
<stop stop-color="#00F7A2" stop-opacity="0"/>
<stop offset="0.5" stop-color="#00C6F2"/>
<stop offset="1" stop-color="#00F7A2" stop-opacity="0"/>
</linearGradient>
<linearGradient id="paint63_linear_765_4809" x1="-351.338" y1="46.7514" x2="461.444" y2="205.123" gradientUnits="userSpaceOnUse">
<stop stop-color="#00F8A1" stop-opacity="0"/>
<stop offset="0.5" stop-color="#00C5F3"/>
<stop offset="1" stop-color="#00F8A1" stop-opacity="0"/>
</linearGradient>
<linearGradient id="paint64_linear_765_4809" x1="-358.159" y1="44.5795" x2="458.856" y2="203.776" gradientUnits="userSpaceOnUse">
<stop stop-color="#00F99F" stop-opacity="0"/>
<stop offset="0.5" stop-color="#00C4F5"/>
<stop offset="1" stop-color="#00F99F" stop-opacity="0"/>
</linearGradient>
<linearGradient id="paint65_linear_765_4809" x1="-365.08" y1="42.5931" x2="456.168" y2="202.614" gradientUnits="userSpaceOnUse">
<stop stop-color="#00FA9E" stop-opacity="0"/>
<stop offset="0.5" stop-color="#00C3F6"/>
<stop offset="1" stop-color="#00FA9E" stop-opacity="0"/>
</linearGradient>
<linearGradient id="paint66_linear_765_4809" x1="-372.105" y1="40.8038" x2="453.375" y2="201.65" gradientUnits="userSpaceOnUse">
<stop stop-color="#00FA9C" stop-opacity="0"/>
<stop offset="0.5" stop-color="#00C3F8"/>
<stop offset="1" stop-color="#00FA9C" stop-opacity="0"/>
</linearGradient>
<linearGradient id="paint67_linear_765_4809" x1="-379.222" y1="39.2189" x2="450.491" y2="200.89" gradientUnits="userSpaceOnUse">
<stop stop-color="#00FB9B" stop-opacity="0"/>
<stop offset="0.5" stop-color="#00C2F9"/>
<stop offset="1" stop-color="#00FB9B" stop-opacity="0"/>
</linearGradient>
<linearGradient id="paint68_linear_765_4809" x1="-386.431" y1="37.8322" x2="447.514" y2="200.328" gradientUnits="userSpaceOnUse">
<stop stop-color="#00FC99" stop-opacity="0"/>
<stop offset="0.5" stop-color="#00C1FB"/>
<stop offset="1" stop-color="#00FC99" stop-opacity="0"/>
</linearGradient>
<linearGradient id="paint69_linear_765_4809" x1="-393.728" y1="36.6559" x2="444.45" y2="199.976" gradientUnits="userSpaceOnUse">
<stop stop-color="#00FD98" stop-opacity="0"/>
<stop offset="0.5" stop-color="#00C0FC"/>
<stop offset="1" stop-color="#00FD98" stop-opacity="0"/>
</linearGradient>
<linearGradient id="paint70_linear_765_4809" x1="-401.104" y1="35.6969" x2="441.307" y2="199.842" gradientUnits="userSpaceOnUse">
<stop stop-color="#00FE96" stop-opacity="0"/>
<stop offset="0.5" stop-color="#00BFFE"/>
<stop offset="1" stop-color="#00FE96" stop-opacity="0"/>
</linearGradient>
<linearGradient id="paint71_linear_765_4809" x1="-408.55" y1="34.9563" x2="438.093" y2="199.926" gradientUnits="userSpaceOnUse">
<stop stop-color="#00FF95" stop-opacity="0"/>
<stop offset="0.5" stop-color="#00BEFF"/>
<stop offset="1" stop-color="#00FF95" stop-opacity="0"/>
</linearGradient>
</defs>
</svg>
