<svg width="287" height="500" viewBox="0 0 287 500" fill="none" xmlns="http://www.w3.org/2000/svg">
<g clip-path="url(#clip0_113_184)">
<path d="M153.912 472.63V136.049C153.912 127.515 157.301 119.327 163.336 113.292L179.757 96.8709C185.792 90.8357 189.181 82.6478 189.181 74.1139V28.2861" stroke="url(#paint0_linear_113_184)" stroke-width="2" stroke-miterlimit="10"/>
<path d="M132.949 381.807V187.303C132.949 178.769 129.559 170.581 123.524 164.546L107.103 148.125C101.068 142.09 97.6791 133.902 97.6791 125.368V79.5405" stroke="url(#paint1_linear_113_184)" stroke-width="2" stroke-miterlimit="10"/>
<path d="M174.554 451.827V257.323C174.554 248.789 177.944 240.601 183.979 234.566L200.399 218.145C206.435 212.11 209.824 203.922 209.824 195.388V149.567" stroke="url(#paint2_linear_113_184)" stroke-width="2" stroke-miterlimit="10"/>
<path d="M111.197 459.945V265.44C111.197 256.907 107.808 248.719 101.773 242.683L85.3524 226.263C79.3172 220.228 75.928 212.04 75.928 203.506" stroke="url(#paint3_linear_113_184)" stroke-width="2" stroke-miterlimit="10"/>
<path d="M188.636 28.8178C196.417 28.8178 202.725 22.5102 202.725 14.7293C202.725 6.94835 196.417 0.640686 188.636 0.640686C180.856 0.640686 174.548 6.94835 174.548 14.7293C174.548 22.5102 180.856 28.8178 188.636 28.8178Z" stroke="url(#paint4_linear_113_184)" stroke-width="2" stroke-miterlimit="10"/>
<path d="M76.197 202.955C83.9779 202.955 90.2855 196.647 90.2855 188.866C90.2855 181.085 83.9779 174.778 76.197 174.778C68.4161 174.778 62.1084 181.085 62.1084 188.866C62.1084 196.647 68.4161 202.955 76.197 202.955Z" stroke="url(#paint5_linear_113_184)" stroke-width="2" stroke-miterlimit="10"/>
<path d="M209.984 149.349C217.765 149.349 224.073 143.041 224.073 135.26C224.073 127.48 217.765 121.172 209.984 121.172C202.203 121.172 195.895 127.48 195.895 135.26C195.895 143.041 202.203 149.349 209.984 149.349Z" stroke="url(#paint6_linear_113_184)" stroke-width="2" stroke-miterlimit="10"/>
<path d="M97.2946 79.8801C105.076 79.8801 111.383 73.5724 111.383 65.7915C111.383 58.0106 105.076 51.7029 97.2946 51.7029C89.5137 51.7029 83.2061 58.0106 83.2061 65.7915C83.2061 73.5724 89.5137 79.8801 97.2946 79.8801Z" stroke="url(#paint7_linear_113_184)" stroke-width="2" stroke-miterlimit="10"/>
<path d="M244.273 358.41C300.128 390.655 300.422 442.935 244.933 475.18C189.45 507.425 99.1911 507.425 43.3365 475.18C-12.5116 442.935 -12.7999 390.655 42.683 358.41C98.166 326.164 188.419 326.164 244.267 358.41H244.273Z" stroke="url(#paint8_linear_113_184)" stroke-width="2" stroke-miterlimit="10"/>
<path d="M244.273 339.003C300.128 371.249 300.422 423.528 244.933 455.774C189.45 488.019 99.1911 488.019 43.3365 455.774C-12.5116 423.528 -12.7999 371.249 42.683 339.003C98.166 306.758 188.419 306.758 244.267 339.003H244.273Z" stroke="url(#paint9_linear_113_184)" stroke-width="2" stroke-miterlimit="10"/>
<path d="M244.273 319.597C300.128 351.843 300.422 404.122 244.933 436.368C189.45 468.613 99.1911 468.613 43.3365 436.368C-12.5116 404.122 -12.7999 351.843 42.683 319.597C98.166 287.352 188.419 287.352 244.267 319.597H244.273Z" stroke="url(#paint10_linear_113_184)" stroke-width="2" stroke-miterlimit="10"/>
<path d="M244.273 300.191C300.128 332.436 300.422 384.716 244.933 416.961C189.45 449.207 99.1911 449.207 43.3365 416.961C-12.5116 384.716 -12.7999 332.436 42.683 300.191C98.166 267.945 188.419 267.945 244.267 300.191H244.273Z" stroke="url(#paint11_linear_113_184)" stroke-width="2" stroke-miterlimit="10"/>
<path d="M244.273 280.785C300.128 313.03 300.422 365.31 244.933 397.555C189.45 429.801 99.1911 429.801 43.3365 397.555C-12.5116 365.31 -12.7999 313.03 42.683 280.785C98.166 248.539 188.419 248.539 244.267 280.785H244.273Z" stroke="url(#paint12_linear_113_184)" stroke-width="2" stroke-miterlimit="10"/>
<path d="M244.273 261.378C300.128 293.624 300.422 345.903 244.933 378.149C189.45 410.394 99.1911 410.394 43.3365 378.149C-12.5116 345.903 -12.7999 293.624 42.683 261.378C98.166 229.133 188.419 229.133 244.267 261.378H244.273Z" stroke="url(#paint13_linear_113_184)" stroke-width="2" stroke-miterlimit="10"/>
<path d="M244.273 241.972C300.128 274.218 300.422 326.497 244.933 358.743C189.45 390.988 99.1911 390.988 43.3365 358.743C-12.5116 326.497 -12.7999 274.218 42.683 241.972C98.166 209.727 188.419 209.727 244.267 241.972H244.273Z" stroke="url(#paint14_linear_113_184)" stroke-width="2" stroke-miterlimit="10"/>
<path d="M244.273 222.566C300.128 254.812 300.422 307.091 244.933 339.337C189.45 371.582 99.1911 371.582 43.3365 339.337C-12.5116 307.091 -12.7999 254.812 42.683 222.566C98.166 190.321 188.419 190.321 244.267 222.566H244.273Z" stroke="url(#paint15_linear_113_184)" stroke-width="2" stroke-miterlimit="10"/>
<path d="M244.273 203.166C300.128 235.412 300.422 287.691 244.933 319.937C189.45 352.182 99.1911 352.182 43.3365 319.937C-12.5116 287.691 -12.7999 235.412 42.683 203.166C98.166 170.921 188.419 170.921 244.267 203.166H244.273Z" stroke="url(#paint16_linear_113_184)" stroke-width="2" stroke-miterlimit="10"/>
<path d="M244.273 183.76C300.128 216.005 300.422 268.285 244.933 300.53C189.45 332.776 99.191 332.776 43.3365 300.53C-12.5181 268.285 -12.7999 216.005 42.683 183.76C98.1659 151.515 188.419 151.515 244.267 183.76H244.273Z" stroke="url(#paint17_linear_113_184)" stroke-width="2" stroke-miterlimit="10"/>
<path d="M244.273 164.354C300.128 196.599 300.422 248.879 244.933 281.124C189.45 313.37 99.1911 313.37 43.3365 281.124C-12.5116 248.879 -12.7999 196.599 42.683 164.354C98.166 132.108 188.419 132.108 244.267 164.354H244.273Z" stroke="url(#paint18_linear_113_184)" stroke-width="2" stroke-miterlimit="10"/>
<path d="M244.273 144.948C300.128 177.193 300.422 229.473 244.933 261.718C189.45 293.963 99.1911 293.963 43.3365 261.718C-12.5116 229.473 -12.7999 177.193 42.683 144.948C98.166 112.702 188.419 112.702 244.267 144.948H244.273Z" stroke="url(#paint19_linear_113_184)" stroke-width="2" stroke-miterlimit="10"/>
</g>
<defs>
<linearGradient id="paint0_linear_113_184" x1="171.55" y1="472.63" x2="171.55" y2="28.2861" gradientUnits="userSpaceOnUse">
<stop offset="0.15" stop-color="#00FD98" stop-opacity="0"/>
<stop offset="1" stop-color="#00BEFF"/>
</linearGradient>
<linearGradient id="paint1_linear_113_184" x1="115.311" y1="381.807" x2="115.311" y2="79.5405" gradientUnits="userSpaceOnUse">
<stop stop-color="#00FF95" stop-opacity="0"/>
<stop offset="1" stop-color="#00BEFF"/>
</linearGradient>
<linearGradient id="paint2_linear_113_184" x1="192.192" y1="451.827" x2="192.192" y2="149.567" gradientUnits="userSpaceOnUse">
<stop offset="0.15" stop-color="#00FF95" stop-opacity="0"/>
<stop offset="1" stop-color="#00BEFF"/>
</linearGradient>
<linearGradient id="paint3_linear_113_184" x1="93.5595" y1="459.945" x2="93.5595" y2="203.506" gradientUnits="userSpaceOnUse">
<stop offset="0.2" stop-color="#00FF95" stop-opacity="0"/>
<stop offset="1" stop-color="#00BEFF"/>
</linearGradient>
<linearGradient id="paint4_linear_113_184" x1="188.636" y1="29.4649" x2="188.636" y2="6.05389e-06" gradientUnits="userSpaceOnUse">
<stop stop-color="#00BEFF"/>
<stop offset="1" stop-color="#00FF95"/>
</linearGradient>
<linearGradient id="paint5_linear_113_184" x1="76.197" y1="203.596" x2="76.197" y2="174.131" gradientUnits="userSpaceOnUse">
<stop stop-color="#00BEFF"/>
<stop offset="1" stop-color="#00FF95"/>
</linearGradient>
<linearGradient id="paint6_linear_113_184" x1="209.984" y1="149.99" x2="209.984" y2="120.525" gradientUnits="userSpaceOnUse">
<stop stop-color="#00BEFF"/>
<stop offset="1" stop-color="#00FF95"/>
</linearGradient>
<linearGradient id="paint7_linear_113_184" x1="97.2946" y1="80.5208" x2="97.2946" y2="51.0559" gradientUnits="userSpaceOnUse">
<stop stop-color="#00BEFF"/>
<stop offset="1" stop-color="#00FF95"/>
</linearGradient>
<linearGradient id="paint8_linear_113_184" x1="143.808" y1="500" x2="143.808" y2="333.583" gradientUnits="userSpaceOnUse">
<stop stop-color="#00FF95"/>
<stop offset="1" stop-color="#00FF95" stop-opacity="0"/>
</linearGradient>
<linearGradient id="paint9_linear_113_184" x1="143.808" y1="480.594" x2="143.808" y2="314.177" gradientUnits="userSpaceOnUse">
<stop stop-color="#00F99F"/>
<stop offset="1" stop-color="#00F99F" stop-opacity="0"/>
</linearGradient>
<linearGradient id="paint10_linear_113_184" x1="143.808" y1="461.188" x2="143.808" y2="294.771" gradientUnits="userSpaceOnUse">
<stop stop-color="#00F3A8"/>
<stop offset="1" stop-color="#00F3A8" stop-opacity="0"/>
</linearGradient>
<linearGradient id="paint11_linear_113_184" x1="143.808" y1="441.788" x2="143.808" y2="275.365" gradientUnits="userSpaceOnUse">
<stop stop-color="#00EDB2"/>
<stop offset="1" stop-color="#00EDB2" stop-opacity="0"/>
</linearGradient>
<linearGradient id="paint12_linear_113_184" x1="143.808" y1="422.382" x2="143.808" y2="255.965" gradientUnits="userSpaceOnUse">
<stop stop-color="#00E7BC"/>
<stop offset="1" stop-color="#00E7BC" stop-opacity="0"/>
</linearGradient>
<linearGradient id="paint13_linear_113_184" x1="143.808" y1="402.975" x2="143.808" y2="236.559" gradientUnits="userSpaceOnUse">
<stop stop-color="#00E1C5"/>
<stop offset="1" stop-color="#00E1C5" stop-opacity="0"/>
</linearGradient>
<linearGradient id="paint14_linear_113_184" x1="143.808" y1="383.569" x2="143.808" y2="217.152" gradientUnits="userSpaceOnUse">
<stop stop-color="#00DCCF"/>
<stop offset="1" stop-color="#00DCCF" stop-opacity="0"/>
</linearGradient>
<linearGradient id="paint15_linear_113_184" x1="143.808" y1="364.163" x2="143.808" y2="197.746" gradientUnits="userSpaceOnUse">
<stop stop-color="#00D6D8"/>
<stop offset="1" stop-color="#00D6D8" stop-opacity="0"/>
</linearGradient>
<linearGradient id="paint16_linear_113_184" x1="143.808" y1="344.757" x2="143.808" y2="178.34" gradientUnits="userSpaceOnUse">
<stop stop-color="#00D0E2"/>
<stop offset="1" stop-color="#00D0E2" stop-opacity="0"/>
</linearGradient>
<linearGradient id="paint17_linear_113_184" x1="143.808" y1="325.35" x2="143.808" y2="158.934" gradientUnits="userSpaceOnUse">
<stop stop-color="#00CAEC"/>
<stop offset="1" stop-color="#00CAEC" stop-opacity="0"/>
</linearGradient>
<linearGradient id="paint18_linear_113_184" x1="143.808" y1="305.944" x2="143.808" y2="139.527" gradientUnits="userSpaceOnUse">
<stop stop-color="#00C4F5"/>
<stop offset="1" stop-color="#00C4F5" stop-opacity="0"/>
</linearGradient>
<linearGradient id="paint19_linear_113_184" x1="143.808" y1="286.544" x2="143.808" y2="120.121" gradientUnits="userSpaceOnUse">
<stop stop-color="#00BEFF"/>
<stop offset="1" stop-color="#00BEFF" stop-opacity="0"/>
</linearGradient>
<clipPath id="clip0_113_184">
<rect width="286.378" height="500" fill="white" transform="translate(0.622314)"/>
</clipPath>
</defs>
</svg>
