<svg width="298" height="277" viewBox="0 0 298 277" fill="none" xmlns="http://www.w3.org/2000/svg">
<g clip-path="url(#clip0_110_71)">
<g opacity="0.75">
<path d="M145.014 258.287L169.44 248.002C169.79 247.709 170.14 247.404 170.491 247.1C170.448 247.098 170.416 247.096 170.373 247.104L143.402 258.363C143.509 258.369 143.606 258.353 143.713 258.349C144.154 258.333 144.584 258.304 145.025 258.277L145.014 258.287Z" fill="white"/>
<path d="M149.163 245.053L122.506 255.723C122.612 255.751 122.707 255.779 122.812 255.807C123.065 255.877 123.319 255.925 123.562 255.994L150.24 245.314C149.881 245.227 149.522 245.14 149.163 245.053Z" fill="white"/>
<path d="M134.499 239.863L108.117 250.42C108.439 250.581 108.762 250.741 109.085 250.891L135.51 240.315C135.166 240.164 134.832 240.014 134.499 239.863Z" fill="white"/>
<path d="M122.115 233.109L97.1195 243.609C97.4266 243.845 97.7337 244.08 98.0415 244.305L123.049 233.795C122.73 233.569 122.423 233.334 122.116 233.098L122.115 233.109Z" fill="white"/>
<path d="M115.412 225.116C114.868 224.541 114.032 224.37 113.317 224.685L88.5738 235.602C88.8643 235.934 89.4573 236.578 89.7485 236.899L115.422 225.128L115.412 225.116Z" fill="white"/>
<path d="M95.0505 129.945L71.3319 140.056C71.0577 141.743 70.8036 143.452 70.5895 145.208L95.4527 134.602C96.091 134.326 96.5455 133.725 96.6417 133.025C96.718 132.477 96.7942 131.928 96.8812 131.38C97.0304 130.336 96.0189 129.526 95.0618 129.934L95.0505 129.945Z" fill="white"/>
<path d="M98.2768 114.093L74.877 124.072C74.2815 126.108 73.7368 128.191 73.2428 130.32L97.7424 119.877C98.6335 119.497 99.2928 118.701 99.5328 117.75C99.7037 117.055 99.8853 116.361 100.066 115.678C100.357 114.6 99.2886 113.667 98.2761 114.104L98.2768 114.093Z" fill="white"/>
<path d="M94.0378 144.639L69.6369 155.046C69.6027 155.608 69.5371 156.157 69.5022 156.73C69.4482 157.616 69.4169 158.483 69.3743 159.359L94.2814 148.734C94.8757 148.477 95.2742 147.916 95.3144 147.256C95.3446 146.759 95.3802 146.175 95.4131 145.635C95.4585 144.889 94.7195 144.355 94.0271 144.639L94.0378 144.639Z" fill="white"/>
<path d="M93.203 159.052L69.1543 169.306C69.1593 170.457 69.1756 171.597 69.2032 172.727L94.2417 162.056C94.748 161.837 95.0565 161.346 95.0473 160.792C95.0472 160.618 95.0364 160.444 95.0362 160.27C95.0188 159.325 94.0608 158.692 93.2024 159.063L93.203 159.052Z" fill="white"/>
<path d="M116.803 80.5002L94.7672 89.9002C91.9295 92.3315 89.3384 95.1142 86.983 98.2476L112.088 87.5479C112.726 87.2721 113.288 86.8398 113.718 86.2909C114.972 84.6963 116.295 83.2036 117.677 81.812C118.293 81.1877 117.617 80.1591 116.813 80.5116L116.803 80.5002Z" fill="white"/>
<path d="M105.31 100.481C105.496 100.069 105.671 99.6567 105.867 99.2564C106.384 98.1486 105.266 96.9846 104.155 97.4594L81.4478 107.144C80.7436 108.501 80.0802 109.893 79.4349 111.34C78.9621 112.418 78.5293 113.542 78.0865 114.654L102.718 104.153C103.565 103.793 104.24 103.096 104.592 102.239C104.832 101.646 105.071 101.063 105.32 100.493L105.31 100.481Z" fill="white"/>
<path d="M105.438 211.532L80.4541 222.358C80.7208 222.906 80.9553 223.278 81.2333 223.816L106.14 213.202C106.613 213.003 106.83 212.43 106.58 211.959C106.58 211.959 106.58 211.959 106.58 211.949C106.359 211.534 105.877 211.352 105.448 211.532L105.438 211.532Z" fill="white"/>
<path d="M94.0056 172.621L69.8134 182.942C69.9056 183.891 69.9872 184.84 70.0913 185.769L95.0419 175.136C95.5808 174.908 95.9039 174.353 95.8434 173.763C95.8434 173.763 95.8447 173.742 95.8454 173.731C95.7605 172.836 94.8407 172.281 94.0156 172.632L94.0056 172.621Z" fill="white"/>
<path d="M99.9954 198.668L75.1436 209.264C75.3516 209.895 75.549 210.526 75.7683 211.147L100.752 200.494C101.225 200.295 101.45 199.766 101.298 199.268C101.298 199.268 101.299 199.258 101.3 199.247C101.129 198.705 100.524 198.44 100.007 198.658L99.9954 198.668Z" fill="white"/>
<path d="M96.3711 185.861L71.7614 196.352C71.9088 197.099 72.0456 197.845 72.215 198.582L97.2208 187.92C97.7051 187.711 97.9722 187.195 97.8644 186.679C97.8644 186.679 97.865 186.668 97.8657 186.657C97.725 185.976 97.0088 185.596 96.3711 185.861Z" fill="white"/>
</g>
<g opacity="0.75">
<path d="M251.178 247.305L275.403 236.974C276.503 236.499 277.373 235.586 277.775 234.439C277.775 234.439 277.776 234.428 277.777 234.417L251.836 245.478C251.627 246.095 251.398 246.689 251.179 247.294L251.178 247.305Z" fill="white"/>
<path d="M246.836 258.064L271.314 247.63C272.282 247.223 273.047 246.445 273.47 245.483C273.47 245.483 273.47 245.483 273.471 245.472L247.497 256.542C247.273 257.049 247.06 257.568 246.825 258.074L246.836 258.064Z" fill="white"/>
<path d="M257.532 224.255L282.901 213.441C283.242 213.299 283.486 212.988 283.561 212.624C283.561 212.624 283.563 212.602 283.563 212.591C283.746 211.702 282.858 210.975 282.033 211.326L258.05 221.552C257.877 222.464 257.694 223.353 257.521 224.254L257.532 224.255Z" fill="white"/>
<path d="M235.494 278.043L260.411 267.419C261.16 267.096 261.803 266.571 262.262 265.893C262.262 265.893 262.262 265.894 262.262 265.883L236.223 276.981C235.987 277.336 235.74 277.69 235.494 278.033L235.494 278.043Z" fill="white"/>
<path d="M228.109 287.576L253.093 276.923C253.852 276.601 254.504 276.098 255.035 275.468L228.929 286.595C228.652 286.926 228.375 287.256 228.097 287.586L228.109 287.576Z" fill="white"/>
<path d="M266.691 257.385C267.395 257.081 267.995 256.564 268.369 255.882C268.369 255.882 268.369 255.882 268.369 255.871L242.362 266.96C242.169 267.317 241.966 267.652 241.773 268.009L266.691 257.385Z" fill="white"/>
<path d="M254.745 236.064L278.706 225.848C279.949 225.316 280.883 224.233 281.221 222.909C281.221 222.909 281.221 222.898 281.222 222.887L255.292 233.938C255.11 234.643 254.927 235.359 254.734 236.063L254.745 236.064Z" fill="white"/>
<path d="M285.519 168.864L261.591 179.071C261.61 180.863 261.608 182.653 261.584 184.463L286.194 173.972C286.963 173.65 287.46 172.888 287.468 172.043C287.474 171.414 287.469 170.795 287.475 170.166C287.473 169.146 286.443 168.465 285.519 168.864Z" fill="white"/>
<path d="M284.388 152.238L260.725 162.32C260.934 164.524 261.109 166.748 261.241 168.981L285.63 158.585C286.511 158.204 287.069 157.305 286.999 156.346C286.935 155.463 286.871 154.581 286.795 153.708C286.696 152.519 285.466 151.782 284.388 152.238Z" fill="white"/>
<path d="M286.108 183.819L261.235 194.425C261.202 194.954 261.191 195.485 261.148 196.014C261.098 196.847 261.026 197.667 260.965 198.499L285.806 187.902C286.455 187.627 286.889 187.013 286.932 186.311C286.967 185.738 287.007 185.068 287.042 184.495C287.073 183.987 286.56 183.619 286.098 183.819L286.108 183.819Z" fill="white"/>
<path d="M283.672 198.482L260.02 208.565C259.888 209.674 259.767 210.774 259.615 211.871L284.764 201.152C285.226 200.953 285.552 200.528 285.615 200.021C285.615 200.011 285.616 200 285.617 199.989C285.758 198.902 284.673 198.065 283.672 198.493L283.672 198.482Z" fill="white"/>
<path d="M265.663 86.8631L242.109 96.9085C244.426 101.444 246.572 106.143 248.526 111.003L271.926 101.024C273.257 100.455 273.899 98.8878 273.338 97.5515C271.981 94.3223 270.544 91.1749 269.016 88.0981C268.406 86.8565 266.928 86.3217 265.663 86.8631Z" fill="white"/>
<path d="M245.929 56.7017L222.056 66.8796C227.039 72.6842 231.58 78.885 235.669 85.4706L258.375 75.7859C260.004 75.093 260.588 73.067 259.617 71.5865C256.392 66.6485 252.907 61.9442 249.161 57.4627C248.372 56.5249 247.062 56.2173 245.94 56.6915L245.929 56.7017Z" fill="white"/>
<path d="M275.7 112.083L252.498 121.976C253.671 125.585 254.735 129.23 255.688 132.934L279.418 122.813C280.628 122.3 281.278 120.962 280.938 119.682C280.396 117.675 279.82 115.687 279.201 113.707C278.745 112.225 277.118 111.486 275.7 112.083Z" fill="white"/>
<path d="M281.658 133.376L258.049 143.44C258.596 146.24 259.067 149.079 259.482 151.936L283.222 141.815C284.466 141.283 285.199 139.972 284.981 138.624C284.78 137.353 284.568 136.092 284.344 134.842C284.12 133.591 282.812 132.893 281.657 133.387L281.658 133.376Z" fill="white"/>
<path d="M146.425 21.6611C170.821 26.9878 191.73 37.6791 209.143 53.6913C210.68 53.6221 212.2 53.2915 213.641 52.6848C218.248 50.7519 226.013 47.4813 231.006 45.3766C233.194 44.4574 233.653 41.5014 231.839 39.9588C214.571 25.2683 194.131 15.506 170.508 10.6606C146.442 5.72295 124.786 7.29047 105.565 15.3537C105.565 15.3537 92.0168 21.0389 83.7575 24.5181C83.2626 24.7266 82.9306 25.0753 82.7241 25.4751C101.623 17.7937 122.853 16.5149 146.425 21.6611Z" fill="white"/>
</g>
<path d="M47.1425 271.576L208.986 304.749C209.153 304.64 209.321 304.52 209.478 304.41L46.6931 271.039C46.8427 271.221 46.9823 271.393 47.1319 271.575L47.1425 271.576Z" fill="white"/>
<path d="M37.8031 259.007L219.66 296.284C219.83 296.132 219.989 295.979 220.148 295.826L37.3709 258.362C37.5185 258.577 37.6555 258.792 37.8031 259.007Z" fill="white"/>
<path d="M30.4609 246.722L228.362 287.288C228.524 287.091 228.686 286.895 228.848 286.699L30.0579 245.949C30.1922 246.206 30.3266 246.464 30.4609 246.722Z" fill="white"/>
<path d="M105.734 250.655L24.1836 233.667C24.3246 233.99 24.4664 234.302 24.6074 234.625L106.947 251.499C106.202 251.063 106.457 251.111 105.734 250.655Z" fill="white"/>
<path d="M153.367 261.009L235.622 277.867C235.798 277.617 235.975 277.357 236.151 277.107L155.674 260.607C154.915 260.756 154.157 260.884 153.378 261.01L153.367 261.009Z" fill="white"/>
<path d="M171.983 253.745L241.76 268.052C241.94 267.727 242.132 267.402 242.312 267.077L173.159 252.905C172.767 253.196 172.385 253.476 171.982 253.756L171.983 253.745Z" fill="white"/>
<path d="M88.7032 235.588L19.4656 221.4C19.4656 221.4 19.4656 221.4 19.4649 221.411C19.7104 222.131 20.3207 222.668 21.0614 222.821L89.7591 236.9C89.3998 236.466 89.0405 236.032 88.6925 235.587L88.7032 235.588Z" fill="white"/>
<path d="M181.807 244.448L246.949 257.8C247.135 257.388 247.31 256.975 247.485 256.563L184.132 243.58C183.264 243.397 182.375 243.744 181.819 244.437C181.819 244.437 181.819 244.437 181.818 244.448L181.807 244.448Z" fill="white"/>
<path d="M80.4561 222.326L15.7483 209.065C15.7483 209.065 15.7483 209.065 15.7476 209.076C15.9739 209.936 16.6623 210.596 17.5198 210.768L81.2219 223.826C80.9633 223.322 80.6933 222.828 80.4454 222.325L80.4561 222.326Z" fill="white"/>
<path d="M75.161 209.33L12.9644 196.537C13.1341 197.621 13.9601 198.485 15.0185 198.702L75.7677 211.157C75.5577 210.559 75.359 209.95 75.1603 209.341L75.161 209.33Z" fill="white"/>
<path d="M188.621 234.272L251.243 247.113C251.436 246.583 251.628 246.073 251.81 245.542L191.124 233.101C190.129 232.9 189.115 233.369 188.621 234.262C188.621 234.262 188.621 234.262 188.621 234.272Z" fill="white"/>
<path d="M71.7534 196.308L12.3483 184.13C11.6709 183.991 11.0575 184.561 11.1435 185.261C11.1435 185.261 11.1429 185.272 11.1422 185.283C11.1906 185.72 11.5232 186.065 11.9463 186.156L72.1983 198.505C72.0389 197.78 71.9015 197.044 71.7534 196.308Z" fill="white"/>
<path d="M194.861 223.65L254.785 235.936C254.964 235.274 255.134 234.601 255.314 233.939L195.284 221.636C194.797 221.541 194.308 221.815 194.13 222.282C194.13 222.282 194.129 222.293 194.129 222.303C193.911 222.887 194.268 223.538 194.871 223.662L194.861 223.65Z" fill="white"/>
<path d="M69.8182 183.04L11.4394 171.076C10.6245 170.907 9.86581 171.577 9.92122 172.426L9.91991 172.448C9.95975 173.026 10.3705 173.495 10.931 173.616L70.0826 185.736C69.9758 184.85 69.9023 183.945 69.8182 183.04Z" fill="white"/>
<path d="M198.429 212.04L257.559 224.159C257.729 223.312 257.898 222.476 258.057 221.617L198.959 209.501C198.43 209.393 197.905 209.73 197.776 210.265C197.734 210.436 197.691 210.607 197.649 210.778C197.507 211.344 197.859 211.908 198.43 212.03L198.429 212.04Z" fill="white"/>
<path d="M69.1497 169.382L11.4062 157.543C10.4219 157.342 9.50774 158.1 9.50992 159.12C9.50926 159.131 9.5086 159.142 9.50794 159.153C9.50457 159.912 10.0429 160.574 10.773 160.727L69.1938 172.705C69.1642 171.607 69.1566 170.5 69.149 169.393L69.1497 169.382Z" fill="white"/>
<path d="M200.864 199.689L259.623 211.73C259.763 210.665 259.893 209.588 260.012 208.51L201.433 196.501C200.862 196.38 200.312 196.78 200.234 197.361C200.178 197.749 200.122 198.147 200.066 198.534C199.98 199.071 200.334 199.581 200.864 199.689Z" fill="white"/>
<path d="M201.52 185.385C201.489 185.904 201.825 186.369 202.323 186.464L260.976 198.489C261.022 197.743 261.098 197.02 261.143 196.274L261.256 194.426L202.909 182.464C202.274 182.338 201.678 182.801 201.638 183.45C201.591 184.217 201.539 185.082 201.52 185.385Z" fill="white"/>
<path d="M69.5022 156.73C69.5351 156.189 69.5881 155.672 69.631 155.143L12.3106 143.395C11.1254 143.149 10.0119 144.015 9.93813 145.226C9.93682 145.247 9.93616 145.258 9.93484 145.28C9.87428 146.274 10.5489 147.162 11.5125 147.35L69.3728 159.207C69.4235 158.374 69.4415 157.551 69.4922 156.719L69.5022 156.73Z" fill="white"/>
<path d="M203.28 172.32L261.585 184.268C261.605 182.533 261.602 180.819 261.589 179.104L203.909 167.28C202.882 167.066 201.933 167.876 201.954 168.94C201.961 169.527 201.979 170.114 201.975 170.71C201.981 171.492 202.518 172.165 203.28 172.32Z" fill="white"/>
<path d="M71.3286 140.11L14.2204 128.397C12.8023 128.104 11.4447 129.107 11.2704 130.561C11.2691 130.583 11.2685 130.593 11.2671 130.615C11.1027 131.907 11.9724 133.11 13.2317 133.371L70.6155 145.134C70.8369 143.433 71.0778 141.766 71.3386 140.121L71.3286 140.11Z" fill="white"/>
<path d="M74.8497 124.168L16.9046 112.296C15.582 112.02 14.2763 112.873 13.9912 114.212C13.9001 114.652 13.8091 115.091 13.7174 115.541C13.4422 116.892 14.3147 118.225 15.6487 118.491L73.2548 130.299C73.7468 128.202 74.2775 126.173 74.8597 124.18L74.8497 124.168Z" fill="white"/>
<path d="M202.671 156.81L261.24 168.818C261.106 166.618 260.928 164.437 260.728 162.266L203.196 150.473C201.852 150.196 200.625 151.336 200.798 152.725C200.891 153.49 200.983 154.266 201.075 155.042C201.172 155.916 201.813 156.638 202.671 156.81Z" fill="white"/>
<path d="M79.4356 111.329C80.0576 109.913 80.7197 108.543 81.4005 107.217L21.5509 94.9467C20.3337 94.699 19.1019 95.3944 18.7072 96.5964C18.4037 97.5328 18.1003 98.4691 17.8175 99.4176C17.377 100.845 18.2396 102.34 19.679 102.634L78.0998 114.612C78.5313 113.509 78.9627 112.407 79.4349 111.34L79.4356 111.329Z" fill="white"/>
<path d="M200.721 139.743L259.47 151.784C259.052 148.97 258.589 146.185 258.05 143.429L199.523 131.434C197.893 131.096 196.502 132.65 196.982 134.264C197.24 135.136 197.486 136.019 197.721 136.913C198.105 138.357 199.281 139.449 200.721 139.743Z" fill="white"/>
<path d="M189.151 115.059C189.439 115.597 189.728 116.136 190.005 116.684C190.924 118.487 192.591 119.793 194.56 120.195L255.638 132.714C254.7 129.098 253.665 125.519 252.519 121.988L190.034 109.178C188.15 108.792 186.728 110.853 187.72 112.509C188.216 113.342 188.7 114.185 189.162 115.049L189.151 115.059Z" fill="white"/>
<path d="M95.2882 89.7908L29.2911 76.2345C28.2114 76.0169 27.1082 76.5356 26.5973 77.5353C25.8299 79.051 25.0939 80.5795 24.3772 82.1417C23.6979 83.6194 24.5574 85.3427 26.1236 85.666L87.0529 98.1541C89.4543 94.9693 92.3958 92.2405 95.2988 89.7915L95.2882 89.7908Z" fill="white"/>
<path d="M36.361 67.4748L107.567 82.0752C116.9 78.3794 128.023 77.8415 140.946 80.4838C153.837 83.1242 164.664 88.167 173.449 95.5811L248.507 110.97C246.581 106.176 244.473 101.555 242.184 97.0758L43.2889 56.2976C41.6272 55.9577 39.937 56.6143 38.89 57.9719C37.4936 59.7857 36.1367 61.6561 34.8186 63.5941C33.807 65.0732 34.6146 67.1189 36.3604 67.4856L36.361 67.4748Z" fill="white"/>
<path d="M53.1536 48.0987L235.687 85.5152C231.608 78.9519 227.098 72.7746 222.136 66.9821L67.2667 35.2432C65.0865 34.7958 62.817 35.2869 60.9913 36.5863C57.8672 38.7939 54.86 41.1932 51.9911 43.7854C50.4716 45.1577 51.163 47.7062 53.153 48.1095L53.1536 48.0987Z" fill="white"/>
<path d="M84.1484 28.4806L205.88 53.4383C206.959 53.656 208.058 53.7338 209.143 53.6913C191.73 37.69 170.821 26.9986 146.425 21.6612C122.853 16.515 101.623 17.7937 82.724 25.4751C82.1518 26.6012 82.6769 28.1848 84.1377 28.4799L84.1484 28.4806Z" fill="white"/>
</g>
<defs>
<clipPath id="clip0_110_71">
<rect width="279" height="309" fill="white" transform="translate(18.7815) rotate(3.48466)"/>
</clipPath>
</defs>
</svg>
