<svg width="440" height="489" viewBox="0 0 440 489" fill="none" xmlns="http://www.w3.org/2000/svg">
<path d="M360.886 445.766H359.461V150.34C359.461 140.593 363.255 131.432 370.144 124.543L388.397 106.29C395.014 99.6721 398.669 90.8689 398.669 81.4975V56.7928H400.094V81.4975C400.094 91.2448 396.3 100.406 389.411 107.295L371.158 125.548C364.54 132.166 360.886 140.969 360.886 150.34V445.766Z" fill="url(#paint0_linear_629_2916)"/>
<path d="M398.773 58.1041C389.743 58.1041 382.399 50.7608 382.399 41.7304C382.399 32.7 389.743 25.3567 398.773 25.3567C407.804 25.3567 415.147 32.7 415.147 41.7304C415.147 50.7608 407.804 58.1041 398.773 58.1041ZM398.773 26.7817C390.529 26.7817 383.824 33.4867 383.824 41.7304C383.824 49.9741 390.529 56.6791 398.773 56.6791C407.017 56.6791 413.722 49.9741 413.722 41.7304C413.722 33.4867 407.017 26.7817 398.773 26.7817Z" fill="url(#paint1_linear_629_2916)"/>
<path d="M55.9832 479.991H54.5582V324.996C54.5582 236.956 50.9128 228.153 44.2864 221.526L26.0333 203.273C19.1446 196.384 15.3506 187.223 15.3506 177.475H16.7755C16.7755 186.838 20.4209 195.641 27.0473 202.268L45.3005 220.521C52.1892 227.409 55.9832 236.571 55.9832 324.996V479.991Z" fill="url(#paint2_linear_629_2916)"/>
<path d="M16.3737 177.58C7.34324 177.58 0 170.237 0 161.207C0 152.176 7.34324 144.833 16.3737 144.833C25.4041 144.833 32.7474 152.176 32.7474 161.207C32.7474 170.237 25.4041 177.58 16.3737 177.58ZM16.3737 146.258C8.13002 146.258 1.42494 152.963 1.42494 161.207C1.42494 169.45 8.13002 176.155 16.3737 176.155C24.6173 176.155 31.3224 169.45 31.3224 161.207C31.3224 152.963 24.6173 146.258 16.3737 146.258Z" fill="url(#paint3_linear_629_2916)"/>
<path d="M384.961 488.733H383.536V272.544C383.536 262.797 387.33 253.635 394.219 246.747L412.472 228.494C419.09 221.876 422.744 213.073 422.744 203.701V170.255H424.169V203.701C424.169 213.449 420.375 222.61 413.486 229.499L395.233 247.752C388.615 254.37 384.961 263.173 384.961 272.544V488.733Z" fill="url(#paint4_linear_629_2916)"/>
<path d="M423.627 170.735C414.596 170.735 407.253 163.392 407.253 154.362C407.253 145.331 414.596 137.988 423.627 137.988C432.657 137.988 440 145.331 440 154.362C440 163.392 432.657 170.735 423.627 170.735ZM423.627 139.413C415.383 139.413 408.678 146.118 408.678 154.362C408.678 162.605 415.383 169.31 423.627 169.31C431.87 169.31 438.575 162.605 438.575 154.362C438.575 146.118 431.87 139.413 423.627 139.413Z" fill="url(#paint5_linear_629_2916)"/>
<path d="M80.8455 385.368H79.4206V151.695C79.4206 142.333 75.7752 133.53 69.1488 126.903L50.8956 108.65C44.0069 101.761 40.2129 92.5998 40.2129 82.8525V31.9219H41.6378V82.8525C41.6378 92.2152 45.2832 101.018 51.9096 107.645L70.1628 125.898C77.0515 132.787 80.8455 141.948 80.8455 151.695V385.368Z" fill="url(#paint6_linear_629_2916)"/>
<path d="M40.5006 33.0147C31.4702 33.0147 24.127 25.6714 24.127 16.641C24.127 7.61054 31.4702 0.267303 40.5006 0.267303C49.5311 0.267303 56.8743 7.61054 56.8743 16.641C56.8743 25.6714 49.5311 33.0147 40.5006 33.0147ZM40.5006 1.69224C32.257 1.69224 25.5519 8.39732 25.5519 16.641C25.5519 24.8846 32.257 31.5897 40.5006 31.5897C48.7443 31.5897 55.4494 24.8846 55.4494 16.641C55.4494 8.39732 48.7443 1.69224 40.5006 1.69224Z" fill="url(#paint7_linear_629_2916)"/>
<path d="M219.24 440.224C189.115 440.224 158.955 433.58 135.938 420.301C113.445 407.31 101.04 389.966 101.014 371.451C100.987 353.066 113.2 335.827 135.405 322.924C181.125 296.357 255.764 296.349 301.781 322.924C324.283 335.915 336.688 353.267 336.714 371.783C336.74 390.176 324.528 407.406 302.332 420.309C279.472 433.597 249.382 440.241 219.249 440.241L219.24 440.224ZM136.812 418.78C182.349 445.067 256.201 445.067 301.44 418.78C323.077 406.209 334.983 389.511 334.957 371.774C334.931 353.906 322.841 337.095 300.898 324.428C255.362 298.141 181.518 298.141 136.279 324.428C114.634 337.007 102.736 353.696 102.762 371.442C102.788 389.302 114.878 406.121 136.812 418.78Z" fill="url(#paint8_linear_629_2916)"/>
<path d="M219.24 410.352C189.115 410.352 158.955 403.708 135.938 390.429C113.445 377.439 101.04 360.095 101.014 341.579C100.987 323.186 113.2 305.956 135.405 293.053C181.125 266.486 255.755 266.477 301.773 293.053C324.274 306.043 336.679 323.396 336.706 341.903C336.732 360.296 324.519 377.526 302.323 390.429C279.463 403.717 249.373 410.361 219.24 410.361V410.352ZM218.488 274.843C188.678 274.843 158.903 281.417 136.287 294.565C114.642 307.145 102.745 323.833 102.771 341.579C102.797 359.439 114.887 376.259 136.821 388.917C182.358 415.204 256.21 415.213 301.449 388.917C323.086 376.346 334.992 359.649 334.966 341.912C334.94 324.043 322.85 307.232 300.907 294.565C278.143 281.426 248.298 274.852 218.488 274.852V274.843Z" fill="url(#paint9_linear_629_2916)"/>
<path d="M219.24 380.481C189.115 380.481 158.955 373.837 135.938 360.558C113.445 347.568 101.04 330.224 101.014 311.708C100.987 293.315 113.2 276.085 135.405 263.182C181.125 236.615 255.764 236.606 301.773 263.182C324.274 276.172 336.679 293.525 336.706 312.04C336.732 330.433 324.519 347.664 302.323 360.567C279.463 373.855 249.373 380.499 219.24 380.499V380.481ZM136.812 359.037C182.349 385.324 256.201 385.324 301.44 359.037C323.077 346.466 334.983 329.769 334.957 312.032C334.931 294.163 322.841 277.352 300.898 264.685C255.362 238.398 181.518 238.398 136.279 264.685C114.634 277.265 102.736 293.953 102.762 311.699C102.788 329.559 114.878 346.379 136.812 359.037Z" fill="url(#paint10_linear_629_2916)"/>
<path d="M219.24 350.61C189.115 350.61 158.955 343.966 135.938 330.687C113.445 317.696 101.04 300.352 101.014 281.837C100.987 263.444 113.2 246.213 135.405 233.31C181.125 206.744 255.755 206.735 301.773 233.31C324.274 246.301 336.679 263.654 336.706 282.169C336.732 300.562 324.519 317.793 302.323 330.696C279.463 343.983 249.373 350.627 219.24 350.627V350.61ZM218.488 215.101C188.678 215.101 158.903 221.675 136.287 234.823C114.642 247.402 102.745 264.091 102.771 281.837C102.797 299.697 114.887 316.516 136.821 329.175C182.358 355.462 256.21 355.462 301.449 329.175C323.086 316.604 334.992 299.907 334.966 282.169C334.94 264.301 322.85 247.49 300.907 234.823C278.143 221.684 248.298 215.11 218.488 215.11V215.101Z" fill="url(#paint11_linear_629_2916)"/>
<path d="M219.24 320.739C189.115 320.739 158.955 314.095 135.938 300.816C113.445 287.825 101.04 270.481 101.014 251.966C100.987 233.573 113.2 216.342 135.405 203.439C181.125 176.872 255.755 176.864 301.773 203.439C324.274 216.43 336.679 233.782 336.706 252.298C336.732 270.691 324.519 287.921 302.323 300.816C279.463 314.103 249.373 320.747 219.24 320.747V320.739ZM218.488 185.23C188.678 185.23 158.903 191.804 136.287 204.951C114.642 217.531 102.745 234.219 102.771 251.966C102.797 269.825 114.887 286.645 136.821 299.303C182.358 325.59 256.21 325.599 301.449 299.303C323.086 286.732 334.992 270.035 334.966 252.298C334.94 234.429 322.85 217.618 300.907 204.951C278.143 191.812 248.298 185.238 218.488 185.238V185.23Z" fill="url(#paint12_linear_629_2916)"/>
<path d="M219.24 290.867C189.115 290.867 158.955 284.223 135.938 270.944C113.445 257.954 101.04 240.61 101.014 222.094C100.987 203.71 113.2 186.471 135.405 173.568C181.125 147.001 255.764 146.992 301.781 173.568C324.283 186.558 336.688 203.911 336.714 222.427C336.74 240.82 324.528 258.05 302.332 270.953C279.472 284.241 249.382 290.885 219.249 290.885L219.24 290.867ZM136.812 269.423C182.349 295.71 256.201 295.71 301.44 269.423C323.077 256.852 334.983 240.155 334.957 222.418C334.931 204.549 322.841 187.739 300.898 175.071C255.362 148.784 181.518 148.784 136.279 175.071C114.634 187.651 102.736 204.339 102.762 222.086C102.788 239.945 114.878 256.765 136.812 269.423Z" fill="url(#paint13_linear_629_2916)"/>
<path d="M219.24 261.005C189.115 261.005 158.955 254.361 135.938 241.082C113.445 228.091 101.04 210.747 101.014 192.232C100.987 173.839 113.2 156.608 135.405 143.705C181.125 117.138 255.755 117.13 301.773 143.705C324.274 156.696 336.679 174.049 336.706 192.555C336.732 210.948 324.519 228.179 302.323 241.082C279.463 254.37 249.373 261.014 219.24 261.014V261.005ZM218.488 125.496C188.678 125.496 158.903 132.07 136.287 145.218C114.642 157.797 102.745 174.486 102.771 192.232C102.797 210.092 114.887 226.911 136.821 239.57C182.358 265.857 256.21 265.865 301.449 239.57C323.086 226.999 334.992 210.301 334.966 192.564C334.94 174.696 322.85 157.885 300.907 145.218C278.143 132.078 248.298 125.505 218.488 125.505V125.496Z" fill="url(#paint14_linear_629_2916)"/>
<path d="M219.448 205.415C189.28 205.415 159.076 198.815 136.032 185.614C113.504 172.711 101.082 155.463 101.056 137.07C101.029 118.799 113.259 101.674 135.499 88.8495C181.289 62.4401 256.024 62.4401 302.112 88.8495C324.64 101.761 337.062 119 337.088 137.402C337.115 155.673 324.885 172.798 302.654 185.623C279.759 198.823 249.625 205.423 219.457 205.423L219.448 205.415Z" fill="url(#paint15_linear_629_2916)"/>
<path d="M219.448 205.415C189.28 205.415 159.076 198.815 136.032 185.614C113.504 172.711 101.082 155.463 101.056 137.07C101.029 118.799 113.259 101.674 135.499 88.8495C181.289 62.4401 256.024 62.4401 302.112 88.8495C324.64 101.761 337.062 119 337.088 137.402C337.115 155.673 324.885 172.798 302.654 185.623C279.759 198.823 249.625 205.423 219.457 205.423L219.448 205.415Z" fill="url(#paint16_linear_629_2916)"/>
<mask id="mask0_629_2916" style="mask-type:luminance" maskUnits="userSpaceOnUse" x="143" y="94" width="144" height="83">
<path d="M143.944 134.675L213.889 94.0248L286.744 136.082L216.791 176.732L143.944 134.675Z" fill="white"/>
</mask>
<g mask="url(#mask0_629_2916)">
<path d="M213.899 101.438C209.659 98.9902 201.52 99.4448 199.09 103.344C191.292 115.862 181.851 130.951 178.267 136.476L210.201 129.709C217.457 128.171 221.81 123.87 220.578 119.446L216.373 104.314C216.041 103.116 215.131 102.155 213.899 101.438Z" fill="white"/>
<path d="M269.427 126.09C267.076 124.735 263.483 124.097 259.846 124.858L169.166 144.011C165.817 144.719 165.424 147.071 167.54 148.304C168.143 148.653 168.947 148.907 169.944 149.012L242.301 156.407C249.88 157.177 257.302 154.694 259.898 150.498L271.578 131.633C272.88 129.526 271.761 127.454 269.418 126.099" fill="white"/>
</g>
<path d="M336.669 137.289C336.696 155.559 324.466 172.685 302.235 185.509C279.34 198.71 249.206 205.31 219.038 205.31C188.869 205.31 158.666 198.71 135.622 185.509C113.094 172.606 100.672 155.358 100.646 136.965C100.646 136.202 100.646 136.202 100.646 136.965C100.646 141.1 100.646 159.878 100.646 164.048C100.672 182.45 113.094 199.689 135.622 212.592C158.666 225.792 188.869 232.392 219.038 232.392C249.206 232.392 279.34 225.792 302.235 212.592C324.466 199.767 336.696 182.642 336.669 164.371C336.669 160.236 336.669 141.459 336.669 137.289Z" fill="url(#paint17_linear_629_2916)"/>
<g style="mix-blend-mode:multiply" opacity="0.25">
<path d="M336.669 137.289C336.696 155.559 324.466 172.685 302.235 185.509C279.34 198.71 249.206 205.31 219.038 205.31C188.869 205.31 158.666 198.71 135.622 185.509C113.094 172.606 100.672 155.358 100.646 136.965C100.646 136.202 100.646 136.202 100.646 136.965C100.646 141.1 100.646 159.878 100.646 164.048C100.672 182.45 113.094 199.689 135.622 212.592C158.666 225.792 188.869 232.392 219.038 232.392C249.206 232.392 279.34 225.792 302.235 212.592C324.466 199.767 336.696 182.642 336.669 164.371C336.669 160.236 336.669 141.459 336.669 137.289Z" fill="black"/>
</g>
<g style="mix-blend-mode:soft-light">
<path d="M218.705 70.7886C249.905 70.7886 279.217 77.7385 301.238 90.3531C323.206 102.942 335.314 119.639 335.34 137.385C335.366 155.009 323.442 171.592 301.78 184.084C279.899 196.708 250.657 203.658 219.457 203.658C188.257 203.658 158.936 196.708 136.907 184.084C114.947 171.505 102.839 154.799 102.813 137.053C102.787 119.429 114.711 102.845 136.382 90.3444C158.263 77.721 187.505 70.7712 218.714 70.7712M218.714 69.0228C188.545 69.0228 158.403 75.6229 135.508 88.832C113.268 101.656 101.038 118.782 101.064 137.053C101.091 155.454 113.513 172.694 136.041 185.597C159.085 198.797 189.288 205.397 219.457 205.397C249.625 205.397 279.759 198.797 302.654 185.597C324.885 172.772 337.115 155.647 337.089 137.376C337.062 118.974 324.64 101.735 302.112 88.8233C279.068 75.6229 248.873 69.0228 218.705 69.0228H218.714Z" fill="url(#paint18_linear_629_2916)"/>
</g>
<g style="mix-blend-mode:soft-light">
<path d="M218.705 69.0402V70.7886C249.905 70.7886 279.217 77.7385 301.238 90.3531C323.206 102.942 335.314 119.639 335.34 137.385C335.366 155.009 323.442 171.592 301.78 184.084C279.899 196.708 250.657 203.658 219.457 203.658C188.257 203.658 158.936 196.708 136.907 184.084C114.947 171.505 102.839 154.799 102.813 137.053C102.787 119.429 114.711 102.845 136.382 90.3444C158.263 77.721 187.505 70.7712 218.714 70.7712V69.0228M218.714 69.0228C188.545 69.0228 158.403 75.6229 135.508 88.832C113.268 101.656 101.038 118.782 101.064 137.053C101.091 155.454 113.513 172.694 136.041 185.597C159.085 198.797 189.288 205.397 219.457 205.397C249.625 205.397 279.759 198.797 302.654 185.597C324.885 172.772 337.115 155.647 337.089 137.376C337.062 118.974 324.64 101.735 302.112 88.8233C279.068 75.6229 248.873 69.0228 218.705 69.0228H218.714Z" fill="url(#paint19_linear_629_2916)"/>
</g>
<defs>
<linearGradient id="paint0_linear_629_2916" x1="379.777" y1="445.766" x2="379.777" y2="56.7928" gradientUnits="userSpaceOnUse">
<stop offset="0.15" stop-color="#00FD98" stop-opacity="0"/>
<stop offset="1" stop-color="#00BEFF"/>
</linearGradient>
<linearGradient id="paint1_linear_629_2916" x1="398.773" y1="58.1041" x2="398.773" y2="25.3567" gradientUnits="userSpaceOnUse">
<stop stop-color="#00BEFF"/>
<stop offset="1" stop-color="#00FF95"/>
</linearGradient>
<linearGradient id="paint2_linear_629_2916" x1="35.6756" y1="479.991" x2="35.6756" y2="177.484" gradientUnits="userSpaceOnUse">
<stop offset="0.2" stop-color="#00FF95" stop-opacity="0"/>
<stop offset="1" stop-color="#00BEFF"/>
</linearGradient>
<linearGradient id="paint3_linear_629_2916" x1="16.3737" y1="177.58" x2="16.3737" y2="144.833" gradientUnits="userSpaceOnUse">
<stop stop-color="#00BEFF"/>
<stop offset="1" stop-color="#00FF95"/>
</linearGradient>
<linearGradient id="paint4_linear_629_2916" x1="403.852" y1="488.733" x2="403.852" y2="170.263" gradientUnits="userSpaceOnUse">
<stop offset="0.15" stop-color="#00FF95" stop-opacity="0"/>
<stop offset="1" stop-color="#00BEFF"/>
</linearGradient>
<linearGradient id="paint5_linear_629_2916" x1="423.627" y1="170.735" x2="423.627" y2="137.988" gradientUnits="userSpaceOnUse">
<stop stop-color="#00BEFF"/>
<stop offset="1" stop-color="#00FF95"/>
</linearGradient>
<linearGradient id="paint6_linear_629_2916" x1="60.5292" y1="385.368" x2="60.5292" y2="31.9219" gradientUnits="userSpaceOnUse">
<stop stop-color="#00FF95" stop-opacity="0"/>
<stop offset="1" stop-color="#00BEFF"/>
</linearGradient>
<linearGradient id="paint7_linear_629_2916" x1="40.5006" y1="33.0147" x2="40.5006" y2="0.267303" gradientUnits="userSpaceOnUse">
<stop stop-color="#00BEFF"/>
<stop offset="1" stop-color="#00FF95"/>
</linearGradient>
<linearGradient id="paint8_linear_629_2916" x1="218.864" y1="440.224" x2="218.864" y2="302.992" gradientUnits="userSpaceOnUse">
<stop stop-color="#00FF95"/>
<stop offset="1" stop-color="#00FF95" stop-opacity="0"/>
</linearGradient>
<linearGradient id="paint9_linear_629_2916" x1="218.864" y1="410.352" x2="218.864" y2="273.121" gradientUnits="userSpaceOnUse">
<stop stop-color="#00F4A7"/>
<stop offset="1" stop-color="#00F4A7" stop-opacity="0"/>
</linearGradient>
<linearGradient id="paint10_linear_629_2916" x1="218.864" y1="380.481" x2="218.864" y2="243.25" gradientUnits="userSpaceOnUse">
<stop stop-color="#00E9B8"/>
<stop offset="1" stop-color="#00E9B8" stop-opacity="0"/>
</linearGradient>
<linearGradient id="paint11_linear_629_2916" x1="218.864" y1="350.61" x2="218.864" y2="213.379" gradientUnits="userSpaceOnUse">
<stop stop-color="#00DFCA"/>
<stop offset="1" stop-color="#00DFCA" stop-opacity="0"/>
</linearGradient>
<linearGradient id="paint12_linear_629_2916" x1="218.864" y1="320.739" x2="218.864" y2="183.507" gradientUnits="userSpaceOnUse">
<stop stop-color="#00D4DC"/>
<stop offset="1" stop-color="#00D4DC" stop-opacity="0"/>
</linearGradient>
<linearGradient id="paint13_linear_629_2916" x1="218.864" y1="290.867" x2="218.864" y2="153.645" gradientUnits="userSpaceOnUse">
<stop stop-color="#00C9ED"/>
<stop offset="1" stop-color="#00C9ED" stop-opacity="0"/>
</linearGradient>
<linearGradient id="paint14_linear_629_2916" x1="218.864" y1="261.005" x2="218.864" y2="123.774" gradientUnits="userSpaceOnUse">
<stop stop-color="#00BEFF"/>
<stop offset="1" stop-color="#00BEFF" stop-opacity="0"/>
</linearGradient>
<linearGradient id="paint15_linear_629_2916" x1="101.047" y1="137.227" x2="337.08" y2="137.227" gradientUnits="userSpaceOnUse">
<stop stop-color="#00BEFF"/>
<stop offset="1" stop-color="#00FF95"/>
</linearGradient>
<linearGradient id="paint16_linear_629_2916" x1="101.047" y1="137.227" x2="337.08" y2="137.227" gradientUnits="userSpaceOnUse">
<stop stop-color="#00BEFF"/>
<stop offset="1" stop-color="#00FF95"/>
</linearGradient>
<linearGradient id="paint17_linear_629_2916" x1="100.637" y1="184.25" x2="336.678" y2="184.25" gradientUnits="userSpaceOnUse">
<stop stop-color="#00BEFF"/>
<stop offset="1" stop-color="#00FF95"/>
</linearGradient>
<linearGradient id="paint18_linear_629_2916" x1="219.063" y1="205.415" x2="219.063" y2="69.0402" gradientUnits="userSpaceOnUse">
<stop stop-color="white"/>
<stop offset="1" stop-color="white" stop-opacity="0"/>
</linearGradient>
<linearGradient id="paint19_linear_629_2916" x1="219.063" y1="0.267304" x2="219.063" y2="69.0402" gradientUnits="userSpaceOnUse">
<stop stop-color="white"/>
<stop offset="1" stop-color="white" stop-opacity="0"/>
</linearGradient>
</defs>
</svg>
